<svg xmlns="http://www.w3.org/2000/svg" viewBox="0 0 1000 1000"><path d="M500 83q-113 0-210 57-95 55-150 150-57 97-57 210t57 210q55 95 150 150 97 57 210 57t210-57q95-55 150-150 57-97 57-210t-57-210q-55-95-150-150-97-57-210-57zm0 750q-90 0-168-45-76-44-120-120-45-78-45-168t45-168q44-76 120-120 78-45 168-45t168 45q76 44 120 120 45 78 45 168t-45 168q-44 76-120 120-78 45-168 45zm-42-166h84v83h-84v-83zm67-415q-40-6-78 6.5T381 300t-40 68q-6 18 5.5 33.5T377 417h8q13 0 23-8t14-20q11-30 38-45t57.5-8.5 49.5 32 16 55.5q-1 22-17 40-9 11-34 30-18 14-27 22-14 14-24 28l-1 3q-7 10-11 21l-2 6q-9 25-9 52h84q0-24 11-45l2-3q6-9 12-17l1-1q7-8 14-14l19-18q25-21 35-33 18-20 25-41 8-25 4-57-8-55-47-95.5T525 252z"/></svg>