<svg xmlns="http://www.w3.org/2000/svg" viewBox="0 0 1000 1000"><path d="M888 853q-21-48-56-123-7-15 2-28 32-54 46-115t8-123q-8-93-58-172-49-77-127-125-79-49-172-56-88-7-170 24-78 29-137.5 88.5T135 362q-31 81-24 170 7 92 56 172 48 78 125 127 79 50 172 58 62 6 123-8t115-47q13-8 28-2l123 56q11 5 21 .5t14.5-14.5-.5-21zM485 721q-11 27-38.5 38.5t-55 0-39-39 0-55 39-38.5 55 0 38.5 38.5 0 54.5v1zm-25-127q-20-8-28-28t0-40l73-248q8-19 24.5-32.5t38-16 41 5.5 32.5 25 15.5 38-5.5 41L527 566q-8 19-27.5 27.5t-39.5.5z"/></svg>