<svg xmlns="http://www.w3.org/2000/svg" viewBox="0 0 512 512"><path d="M338 52v-1q-2-3-5-3h-49q0-16-14-24t-28 0-14 24h-49q-3 0-4 3l-1 37q0 8 5.5 13.5T193 107h126q8 0 13.5-5.5T338 88V52zm50-2h-20v38q0 20-14.5 34.5T319 137H193q-20 0-34.5-14.5T144 88V50h-20q-15 0-26 10.5T87 87v343q0 15 11 26t26 11h264q15 0 26-11t11-26V87q0-16-11-26.5T388 50zM256 411h-2q-11 0-18.5-7.5t-7.5-18 7.5-18.5 18.5-8h2q11 0 18.5 8t7.5 18.5-7.5 18T256 411zm44-111v1l-12 11q-3 3-5 6l-4 7q-2 6-7 9.5t-11 3.5h-6q-11 0-16.5-8.5T236 312l1-3q2-5 5-9l1-2q6-9 23-22 11-8 14-12 6-7 6-13 1-11-6-19t-18.5-10.5-21.5 3-14 16.5q-2 6-7.5 10.5T206 256h-4q-11 0-17-8.5t-3-18.5q8-26 32-41t53-11q24 4 42 21.5t22 41.5v2q0 21-9 36-6 8-22 22z"/></svg>