<svg xmlns="http://www.w3.org/2000/svg" viewBox="0 0 512 512"><path d="M393 15q-9 28-34.5 43.5T304 68q-27-4-51 8.5T218 114q-7-4-11.5-1t-5 9 3.5 13l91 155q-4 3-7 8-3-10-6.5-13t-7.5-4-7 1.5-2.5 6.5 2.5 11l2 6q2 11-5.5 21T244 344q-22 12-48 14 26-20 34-52t-6-62-44-44.5-62.5-6.5T65 227t-19 59 22.5 58.5T122 376q-22 20-36 45-16 30-18 60 0 3 1.5 5t4.5 2h191q2 0 4-2t2-5q-2-38-29-75 44-19 81-49l8-7 6 10q4 7 10 9.5t10.5 0 5-9T359 347l-11-19q2-6 2-13 1-11-6-20t-17-12q-4-1-7-2l-18-31q11-24 35-36t50-7q29 5 54.5-10t34.5-44z"/></svg>