<svg xmlns="http://www.w3.org/2000/svg" viewBox="0 0 1000 1000"><path d="M165 787q-28 0-49.5-22T94 716V284q0-28 21.5-49.5T165 213h670q28 0 49.5 21.5T906 284v432q0 28-21.5 49.5T835 787H165zm188-131h294q14 0 23.5-9.5t9.5-23-10-22.5-23-9H353q-14 0-23.5 9.5t-9.5 23 9.5 22.5 23.5 9zm-98-248q14 0 23-9.5t9-23-9.5-22.5-23-9-22.5 9.5-9 23 9.5 22.5 22.5 9zm123 0q14 0 23-9.5t9-23-9.5-22.5-23-9-22.5 9.5-9 23 9.5 22.5 22.5 9zm122 0q14 0 23-9.5t9-23-9.5-22.5-23-9-22.5 9.5-9 23 9.5 22.5 22.5 9zm123 0q14 0 23-9.5t9-23-9.5-22.5-23-9-22.5 9.5-9 23 9.5 22.5 22.5 9zm123 0q13 0 22.5-9.5t9.5-23-10-22.5-23-9-22.5 9.5-9.5 23 9.5 22.5 23.5 9zM255 532q14 0 23-9.5t9-23-9.5-22.5-23-9-22.5 9.5-9 23 9.5 22.5 22.5 9zm123 0q14 0 23-9.5t9-23-9.5-22.5-23-9-22.5 9.5-9 23 9.5 22.5 22.5 9zm122 0q14 0 23-9.5t9-23-9.5-22.5-23-9-22.5 9.5-9 23 9.5 22.5 22.5 9zm123 0q14 0 23-9.5t9-23-9.5-22.5-23-9-22.5 9.5-9 23 9.5 22.5 22.5 9zm123 0q13 0 22.5-9.5t9.5-23-10-22.5-23-9-22.5 9.5-9.5 23 9.5 22.5 23.5 9z"/></svg>