<svg xmlns="http://www.w3.org/2000/svg" viewBox="0 0 1000 1000"><path d="M668 410q-1-19-14-33t-32-16.5-35 7.5-22.5 28-.5 36 22.5 28 35.5 7 32-16q16-17 14-41zm-279-50q-17-1-31.5 7.5t-21.5 24-4 32 15 28.5 28.5 15 32-4 24-21.5T439 410q-1-20-15.5-34.5T389 360zM500 70q-117 0-217 59-97 57-154 154-59 100-59 217t59 217q57 97 154 154 100 59 217 59t217-59q97-57 154-154 59-100 59-217t-59-217q-57-97-154-154-100-59-217-59zm0 780q-95 0-177-48-79-46-125-125-48-82-48-177t48-177q46-79 125-125 82-48 177-48t177 48q79 46 125 125 48 82 48 177 0 70-26.5 134t-76 113.5-113.5 76T500 850zm151-281q-8-1-15 2l-2 1q-14 10-38 20-47 19-96 19t-96-19q-25-10-38-20l-2-1q-7-3-15-1.5t-14 7.5-7 14 3.5 15.5T344 617q6 2 11 5 68 38 145 38t145-38q5-3 11-5 8-3 12.5-10.5T672 591t-7-14-14-8z"/></svg>