<svg xmlns="http://www.w3.org/2000/svg" viewBox="0 0 512 512"><path d="M256 36q-60 0-110.5 29.5t-80 80T36 256t29.5 110.5 80 80T256 476t110.5-29.5 80-80T476 256t-29.5-110.5-80-80T256 36zm0 396q-48 0-88.5-23.5t-64-64T80 256t23.5-88.5 64-64T256 80t88.5 23.5 64 64T432 256t-23.5 88.5-64 64T256 432zm-79-169q34 30 79 30t79-30q3-3 7-3t7 3l10 12q3 3 3 7t-3 7q-29 26-66 35.5t-74 0-66-35.5q-3-3-3-7t3-7l10-12q3-3 7-3t7 3zm38-108h9q6 0 10 4t4 10v55q0 6-4 10t-10 4h-9q-6 0-10-4t-4-10v-55q0-6 4-10t10-4zm73 0h9q6 0 10 4t4 10v55q0 6-4 10t-10 4h-9q-6 0-10-4t-4-10v-55q0-6 4-10t10-4z"/></svg>