<svg xmlns="http://www.w3.org/2000/svg" viewBox="0 0 512 512"><path d="M293 337l-2-20q0-4-3.5-5.5t-5.5.5q-16 9-34 15-4 1-4 5t4 6l22 6q3 1 6 1 10 0 17-8zm-5 95q0-4-2.5-6.5t-6-2.5-6.5-1L94 366q-12-4-20-14.5T66 328v-14q-1-14 7-20.5t19-3.5l48 15q5 2 8.5-2t1.5-8q-4-9-5-17-7-33 11-60 15-23 50-47 23-17 51-16t50 19q10 8 18 19 3 5 8.5 5t8.5-5q7-11 17-19 23-19 53-19 16 0 31 6l35-41q4-4 4-10v-1q0-3-1-6-3-8-11-10L268 49q-9-2-19-1-13 3-22 13L62 238q-16 17-24 38.5T30 321v7q0 23 13.5 42T79 397l194 66q5 1 9-2t5-8zm88-117l-1 1q-1 2-1 4l-3 25 1 12q0 6 5.5 7.5t8.5-2.5l22-28q3-3 2-6.5t-5-5.5q-9-4-18-9-3-1-6-.5t-5 2.5zm71-125q-19-13-41-11-19 2-33.5 14.5T355 222q-1 5-1 10l-16 15q-3 3-7 3t-7-3l-12-13q0-6-1-12-3-15-17.5-28T260 179q-21-2-40 11-32 22-44 41t-8 42q10 50 73 31 33-10 54-34 5-5 11-2 5 2 5 8l5 56q1 10 1 19l-6 79q0 6 6 9l10 5q4 2 7.5.5t4.5-5.5l4-8q1-2 1-4l-4-73q-1-16 3-32l10-42q1-5 5-7l5-2q6-3 11 2 20 21 51.5 30.5t51 1 24-32T491 230q-12-17-44-40z"/></svg>