<svg xmlns="http://www.w3.org/2000/svg" viewBox="0 0 512 512"><path d="M425 435H87q-4 0-7-3t-3-7V87q0-4 3-7t7-3h338q4 0 7 3t3 7v338q0 4-3 7t-7 3zM36 46v420q0 4 3 7t7 3h420q4 0 7-3t3-7V46q0-4-3-7t-7-3H46q-4 0-7 3t-3 7zm102 82h31q4 0 7 3t3 7v31q0 4-3 7t-7 3h-31q-4 0-7-3t-3-7v-31q0-4 3-7t7-3zm102 0h134q4 0 7 3t3 7v31q0 4-3 7t-7 3H240q-4 0-7-3t-3-7v-31q0-4 3-7t7-3zM138 230h31q4 0 7 3t3 7v32q0 4-3 7t-7 3h-31q-4 0-7-3t-3-7v-32q0-4 3-7t7-3zm102 0h134q4 0 7 3t3 7v32q0 4-3 7t-7 3H240q-4 0-7-3t-3-7v-32q0-4 3-7t7-3zM138 333h31q4 0 7 3t3 7v31q0 4-3 7t-7 3h-31q-4 0-7-3t-3-7v-31q0-4 3-7t7-3zm102 0h134q4 0 7 3t3 7v31q0 4-3 7t-7 3H240q-4 0-7-3t-3-7v-31q0-4 3-7t7-3z"/></svg>