<svg xmlns="http://www.w3.org/2000/svg" viewBox="0 0 512 512"><path d="M258 48q-60 0-110.5 29.5t-80 80T38 268t29.5 110.5 80 80T258 488t110.5-29.5 80-80T478 268t-29.5-110.5-80-80T258 48zm66 106q13 0 22 16t9 38.5-9 39-21.5 16.5-21.5-16.5-9-39 9-38.5 21-16zm-132 0q12 0 21 16t9 38.5-9 39-21.5 16.5-21.5-16.5-9-39 9-38.5 22-16zm187 216q-12 21-25 17-6-2-7-7.5t4-15.5q-17-21-41-33.5T258 318t-52.5 12.5T165 365q4 9 3 14.5t-7 7.5q-13 4-25-17-7-10-6.5-17.5t7.5-9.5 17 7q19-31 44-48 28-19 61-19t61 17q26 17 45 47 7-6 13-4t6.5 9.5T379 370z"/></svg>