<svg xmlns="http://www.w3.org/2000/svg" viewBox="0 0 1000 1000"><path d="M660 102v-1l-1-2q-3-5-8-5h-96q0-23-16-39t-39-16-39 16-16 39h-96q-5 0-8 5l-1 2v71q0 15 10.5 26t26.5 11h246q16 0 26.5-11t10.5-26v-70zm98-4h-39v74q0 40-28 68t-68 28H377q-40 0-68-28t-28-68V98h-39q-30 0-50.5 21T171 169v671q0 30 20.5 51t50.5 21h516q30 0 50.5-21t20.5-51V169q0-29-20.5-50T758 98zM500 803h-3q-22 0-37-14.5T445 753t15-36 37-15h3q21 0 36.5 15t15.5 36-15.5 35.5T500 803zm87-218l-2 2-11 10q-6 5-11 11l-1 1q-5 6-9 12l-2 3-6 12q-4 11-14 17.5t-22 6.5h-12q-20 0-31.5-16t-4.5-34l1-3 1-3q4-9 10-18l1-3q13-19 46-45 20-15 27-23 11-12 11-25v-1q2-20-11.5-36T511 432.5t-42 6.5-27 31q-5 13-16 21t-24 8h-7q-21 0-33.5-16.5T355 447q17-51 62-79 23-15 50-20.5t54-1.5q48 7 82.5 41t42.5 81v5q1 40-18 69-11 17-41 43z"/></svg>