<svg xmlns="http://www.w3.org/2000/svg" viewBox="0 0 1000 1000"><path d="M323 218q-15 0-26.5-11T285 180v-51q0-16 11.5-27t27-11 27 11 11.5 27v51q0 16-11.5 27T323 218zm312 0q-15 0-26.5-11T597 180v-51q0-16 11.5-27t27-11 26.5 11 11 27v51q0 16-11 27t-27 11zm-71 568l28-36q9-13 23.5-21t31.5-9 33 6 28 20l36 45q2 2 5 2t4-2l62-75q4-5 4-11V350H142v457q0 20 14 33.5t33 13.5h364q-6-17-3-35t14-33zm27-323q0-6 4-10t10-4h90q5 0 9.5 4t4.5 10v39q0 6-4.5 10t-9.5 4h-90q-6 0-10-4t-4-10v-39zm0 110q0-6 4-10t10-4h90q5 0 9.5 4t4.5 10v39q0 6-4.5 10t-9.5 4h-90q-6 0-10-4t-4-10v-39zM371 720q0 6-4.5 10.5T356 735h-89q-6 0-10.5-4.5T252 720v-39q0-6 4.5-10t10.5-4h89q6 0 10.5 4t4.5 10v39zm0-108q0 6-4.5 10t-10.5 4h-89q-6 0-10.5-4t-4.5-10v-39q0-6 4.5-10t10.5-4h89q6 0 10.5 4t4.5 10v39zm0-110q0 6-4.5 10t-10.5 4h-89q-6 0-10.5-4t-4.5-10v-39q0-6 4.5-10t10.5-4h89q6 0 10.5 4t4.5 10v39zm169 218q0 6-4.5 10.5T525 735h-89q-6 0-10.5-4.5T421 720v-39q0-6 4.5-10t10.5-4h89q6 0 10.5 4t4.5 10v39zm0-108q0 6-4.5 10t-10.5 4h-89q-6 0-10.5-4t-4.5-10v-39q0-6 4.5-10t10.5-4h89q6 0 10.5 4t4.5 10v39zm0-110q0 6-4.5 10t-10.5 4h-89q-6 0-10.5-4t-4.5-10v-39q0-6 4.5-10t10.5-4h89q6 0 10.5 4t4.5 10v39zm202 466L609 841q-4-4-4.5-9t2.5-10l33-42q4-6 11-6t11 6l84 102q1 1 3 1t3-1l150-184q5-6 12-5.5t11 6.5l34 51q2 4 2 9t-4 9L762 968q-4 4-10 4t-10-4zm18-816h-57v28q0 28-19.5 47.5t-47.5 20-48.5-20T567 178v-26H391v28q0 28-19.5 47.5t-47.5 20-48.5-20T255 178v-26h-54q-24 0-41.5 17T142 210v88q0 3 2 4.5t4 1.5h665q2 0 4-1.5t2-4.5v-88q0-24-17-41t-42-17z"/></svg>