<svg xmlns="http://www.w3.org/2000/svg" viewBox="0 0 512 512"><path d="M473 352q-15-4-26-10-18-9-18-21 0-4-2.5-6t-6.5-2q-15 2-31-16-11-11-19-27-1-1-2.5-1t-1.5 1q-9 16-20 27-16 18-31 16-4 0-6.5 2t-2.5 6q1 12-17 21-12 6-27 10-1 0-1.5 1t.5 2q11 13 18 26 11 21 7 33-1 3 0 5.5t4 4.5q9 3 13 21 2 11 2 24 0 1 1 2t3 0q13-6 25-8 19-3 28 8 2 3 5.5 3t5.5-3q9-11 28-8 12 2 26 8 1 1 2 0t1-2q0-14 3-24 4-18 12-21 3-2 4.5-4.5t.5-5.5q-5-12 7-33 7-13 18-26 1-1 .5-2t-2.5-1zm-49 17l-3 4q-17 21-16 48v3q0 1-1.5 2.5T400 428l-7-2q-25-7-51 0l-7 2q-2 0-3.5-1.5T330 424v-3q1-27-16-48l-3-4q-1-2-.5-4t3.5-3q31-7 49-32l1-1q1-2 3.5-2t4.5 2v1q18 25 49 32 3 1 3.5 3t-.5 4zm-151 84q-1-2-3-3-10-5-15-16t-2-23q3-6-1-13-6-12-15-23-12-14-7-31 3-8 9-14t15-8 18-6q2-1 2-4 0-2-1-3l-17-27-8-8q-1 0-.5-1.5t1.5-1.5q31-15 50.5-44t19.5-62-16-60-43-43-59-16-59 16-43 43-16 60 19.5 62 50.5 44q1 0 1 1.5t-1 1.5q-4 4-7 8-45 67-67 105-9 16-9 27 0 21 38.5 36.5T201 466q37 0 69-8 4-1 3-5z"/></svg>