<svg xmlns="http://www.w3.org/2000/svg" viewBox="0 0 512 512"><path d="M486 208q-34-8-58-20-39-20-39-47 0-7-5.5-12t-12.5-4q-33 4-69-35-23-24-42-59-1-2-4-2t-4 2q-19 35-42 60-36 39-69 34-7-1-12.5 4t-5.5 12q0 26-39 47-24 12-58 20-3 1-3.5 3.5T24 216q23 29 39 56 24 45 15 72-2 6 .5 12t8.5 9q19 8 28 46 5 23 6 53 0 3 2 4.5t5 .5q29-14 55-18 42-6 60 17 5 6 13 6t13-6q18-24 60-17 26 4 55 17 3 2 5 .5t2-4.5q1-30 6-54 9-37 28-45 6-3 8.5-8.5t.5-11.5q-10-27 15-72 15-28 40-57 1-2 .5-4.5T486 208zm-107 39l-6 7q-37 47-36 106v5q0 4-3 7t-8 3l-3-1-11-3q-56-16-112 0l-11 3-3 1q-5 0-8-3t-3-7v-5q1-59-36-106l-6-7q-3-4-1-9t7-6q33-8 60.5-26.5T246 161l1-2q4-4 9-4t9 4l1 2q19 26 46.5 44.5T373 232q5 1 7 6t-1 9z"/></svg>