<svg xmlns="http://www.w3.org/2000/svg" viewBox="0 0 1000 1000"><path d="M926 447q-17-35-60-64-29-21-81-44-6-3-8.5-10.5t.5-14.5l30-56q6-12 1-18-3-5-14.5-8.5T760 230t-50 9q-49 14-75 41-6 6-5 15t8 14l44 34q6 4 7.5 10.5T688 366t-7 12.5-16 11.5l-152 67q-4 2-9 1t-8-5q-12-14-26-25t-17.5-27.5T457 370q5-9 9-18 17-40 13.5-81.5t-25-74.5-57.5-48.5-75-9-71.5 33T201 238t-14 81 25 74 58 49l18 6q11 3 14.5 14.5T299 483q-32 37-55 88l-1 3q-5 8-13.5 12t-18.5 3q-15-16-37-16t-37.5 15.5T121 625q0 7-7 10l-24 11q-16 7-24.5 22.5T61 701q4 22 25 33t42 1l40-22q7-4 14 0l8 6q6 4 5 12-7 33-14 74-4 25 16 41 22 17 72 17h243q55 0 82-17 23-15 21-41-5-61-19-125-16-69-40-126-1-3 0-6.5t5-5.5l67-30q-1 8-2 17-1 25 12 54 13 31 37 53 27 25 62 33 41 8 87-8 59-21 89-62 25-36 27-81 2-39-14-71z"/></svg>