<svg xmlns="http://www.w3.org/2000/svg" viewBox="0 0 1000 1000"><path d="M900 353q-36-105-118-178-79-72-183-99-106-27-213 .5T198 179q-78 73-113 174-36 104-17.5 213T154 761q67 84 164 128 101 44 211 35t202-70q89-59 140-153 53-96 53-207 0-72-24-141zM392 653h209q-30 94-93 169-5 6-12 6t-12-6q-62-75-92-169zm-16-62q-18-97 0-193h240q18 96 0 193H376zm-212 0q-28-97 0-193h149q-16 96 0 193H164zm344-423q62 75 92 168H392q30-93 92-168 5-5 12-5t12 5zm171 230h146q28 96 0 193H679q8-47 8-96t-8-97zm121-62H665q-24-84-72-157-3-5 0-9.5t8-2.5q65 21 116.5 65T800 336zM400 177q-48 74-73 159H189q31-61 84-105.5T392 166q5-2 8 2.5t0 8.5zM189 653h138q24 85 72 158 3 5-.5 9t-8.5 3q-65-21-117.5-65T189 653zm405 157q48-73 71-157h135q-31 60-82 103.5T603 821q-5 2-8.5-2.5t-.5-8.5z"/></svg>