<svg xmlns="http://www.w3.org/2000/svg" viewBox="0 0 512 512"><path d="M218 97q-12 0-22 6.5t-14.5 18-2 23 11 20.5 20 11 23-2.5 18-14.5 6.5-22q0-17-11.5-28.5T218 97zM26 275q12 11 28.5 11t28-11.5 11.5-28-11.5-28-28-11.5-28 11.5-11.5 28T26 275zm118-14l-25 4q-4 1-5 4-10 26-35 36-3 1-3 4l-5 25q-1 5 3 7l101 51q4 2 7.5-.5t2.5-6.5l-34-120q0-2-2.5-3.5t-4.5-.5zm346 104l-54-54q-6-5-2-12 12-25 11-52t-15.5-50.5-38.5-37-52-13.5q-8 0-17 2-30 4-55.5 29.5T236 233t5.5 57 33.5 45 52 21.5 56-8.5q6-3 11 2l55 55q9 8 20.5 8t19.5-8.5 8.5-20T490 365zm-151-42h-2q-29 0-49.5-21.5t-20-51 21.5-50 50-20.5h3q29 1 49.5 22.5t20 50.5-21.5 50-51 20zm54-73q-1-21-16-36-3-3-7-6-14 5-21.5 17t-6 26.5 12 24T380 286q13-15 13-36zm-173 36q-8-27-3-55 3-16 10-31h-9q-12 0-24-4-4-2-7 1l-20 13q-5 3-3 9l46 168q2 6 8.5 6t8.5-6l16-58q-16-19-23-43zm118 19h1q7 0 14-2-9-4-16-12-9-9-14-22-2-3-5-4l-25-4q-3-1-6 1 4 18 18 30t33 13zm-76 44l-10 36q-1 4 2.5 6.5t6.5.5l43-21q-23-7-42-22z"/></svg>