<svg xmlns="http://www.w3.org/2000/svg" viewBox="0 0 1000 1000"><path d="M850 687H150q-10 1-17.5 8t-7.5 18v137q0 10 7.5 17.5T150 875h700q10 0 17.5-7.5T875 850V713q0-11-7.5-18.5T850 687zM281 818q0 11-7.5 18.5T256 844h-74q-11 0-18.5-7.5T156 818v-74q0-10 7.5-17.5T182 719h74q10 0 17.5 7.5T281 744v74zM166 125h105q11 0 18.5 7.5T297 150v43q0 11-7.5 18.5T271 219H166q-11 0-18-7.5t-7-18.5v-43q0-10 7-17.5t18-7.5zm188 0h105q11 0 18 7.5t7 17.5v43q0 11-7 18.5t-18 7.5H354q-11 0-18.5-7.5T328 193v-43q0-10 7.5-17.5T354 125zm187 0h105q11 0 18.5 7.5T672 150v43q0 11-7.5 18.5T646 219H541q-11 0-18-7.5t-7-18.5v-43q0-10 7-17.5t18-7.5zm188 0h105q11 0 18 7.5t7 17.5v43q0 11-7 18.5t-18 7.5H729q-11 0-18.5-7.5T703 193v-43q0-10 7.5-17.5T729 125zM166 312h105q11 0 18.5 7.5T297 338v43q0 10-7.5 17.5T271 406H166q-11 0-18-7.5t-7-17.5v-43q0-11 7-18.5t18-7.5zm188 0h105q11 0 18 7.5t7 18.5v43q0 10-7 17.5t-18 7.5H354q-11 0-18.5-7.5T328 381v-43q0-11 7.5-18.5T354 312zm187 0h105q11 0 18.5 7.5T672 338v43q0 10-7.5 17.5T646 406H541q-11 0-18-7.5t-7-17.5v-43q0-11 7-18.5t18-7.5zM166 500h105q11 0 18.5 7.5T297 525v43q0 11-7.5 18.5T271 594H166q-11 0-18-7.5t-7-18.5v-43q0-10 7-17.5t18-7.5zm188 0h105q11 0 18 7.5t7 17.5v43q0 11-7 18.5t-18 7.5H354q-11 0-18.5-7.5T328 568v-43q0-10 7.5-17.5T354 500zm187 0h105q11 0 18.5 7.5T672 525v43q0 11-7.5 18.5T646 594H541q-11 0-18-7.5t-7-18.5v-43q0-10 7-17.5t18-7.5zm188-188h105q11 0 18 7.5t7 18.5v43q0 10-7 17.5t-18 7.5H729q-11 0-18.5-7.5T703 381v-43q0-11 7.5-18.5T729 312z"/></svg>