<svg xmlns="http://www.w3.org/2000/svg" viewBox="0 0 512 512"><path d="M474 229q-9-18-30-33-16-11-42-23-3-1-4.5-4.5t.5-7.5l15-29q3-6 1-9t-7-4q-14-4-44 4-25 6-38 20-3 3-2.5 7.5t4.5 7.5l22 17q7 6 3 13l-3 5q-3 4-8 7l-78 34q-5 2-9-2-6-7-13.5-13t-9-14 2.5-16l5-9q13-31 2.5-61.5t-38.5-43-57.5 1-43 45-3 62T138 226q5 2 10 3.5t7 7.5-2 10q-16 19-28 45l-1 2q-5 9-16 7-8-8-19-8t-19 8-8 19q0 4-4 5l-12 6q-8 3-12.5 11T31 359q2 11 13 16.5t21 .5l21-11q4-2 7 0l4 3q3 2 3 6-4 17-7 38-2 13 8.5 21.5T138 442h124q28 0 41-8.5t12-21.5q-6-70-30-128-2-4 2-6l35-16-1 9q-1 18 10 37 13 22 34 31 26 10 56.5-.5T467 306q13-18 14-41 1-20-7-36z"/></svg>