<svg xmlns="http://www.w3.org/2000/svg" viewBox="0 0 1000 1000"><path d="M511 635q34-58 92-92t125-33h1q-21-32-47-71-5-6-11-12-1-1-1-3t2-2q47-23 75-65 31-44 31-96-1-48-25-88.5t-64.5-64T600 85t-89 23.5-65 64-25 88.5q0 52 31 96 28 42 75 65 2 0 2 2t-1 3q-6 6-11 12-68 101-101 159-8 13-12 27-5-14-12-27-36-60-102-159-5-6-11-11-1-2-1-3.5t2-2.5q47-23 75-65 31-44 31-96 0-48-24-89t-65-65-89.5-24-89.5 24-65 65-24 89q0 52 31 96 28 42 75 65 2 0 2 2t-1 3q-6 6-11 12Q57 540 23 598 9 622 9 637q0 22 27 40t72.5 29 99.5 11q74 0 129.5-19.5T404 649q5 16 26.5 29.5T484 702q9-36 27-67zm154 123q-2-4-6-4h-64q1-33 18-62 19-31 50-49.5t68-18.5q34 0 63 16 4 3 7-1l36-35q2-2 1.5-5t-2.5-5q-46-29-101-30t-102 26q-46 27-72 72-25 43-26 92h-65q-4 0-5.5 4t1.5 7l94 94q2 2 4.5 2t4.5-2l95-94q3-3 1-7zm331-2l-94-95q-2-2-4.5-2t-4.5 2l-95 95q-3 3-1 7t6 4h64q-1 33-18 61-19 32-50 50.5T731 896q-34 1-63-16-4-2-7 1l-36 36q-2 2-1.5 5t2.5 4q46 30 101 31t102-27q46-26 72-71 25-43 27-92h64q4 0 5.5-4t-1.5-7z"/></svg>