<svg xmlns="http://www.w3.org/2000/svg" viewBox="0 0 512 512"><path d="M413 79h-98v-4q-2-22-19-37.5T256 22t-40 15.5T197 75v4H99q-17 0-28 11t-11 28v314q0 17 11 28t28 11h314q17 0 28-11t11-28V118q0-17-11-28t-28-11zM256 58q9 0 16 6.5t7 16-7 16-16 6.5-16-6.5-7-16 7-16 16-6.5zm16 313H152q-4 0-7-3t-3-7v-25q0-4 3-7t7-3h120q4 0 7 3t3 7v25q0 4-3 7t-7 3zm88-77H152q-4 0-7-3t-3-7v-24q0-5 3-7.5t7-2.5h208q4 0 7 2.5t3 7.5v24q0 4-3 7t-7 3zm0-77H152q-4 0-7-3t-3-7v-24q0-4 3-7t7-3h208q4 0 7 3t3 7v24q0 4-3 7t-7 3z"/></svg>