<svg xmlns="http://www.w3.org/2000/svg" viewBox="0 0 512 512"><path d="M430 435H82q-2 0-3.5-1.5T77 430V82q0-2 1.5-3.5T82 77h348q2 0 3.5 1.5T435 82v348q0 2-1.5 3.5T430 435zM36 41v430q0 2 1.5 3.5T41 476h430q2 0 3.5-1.5t1.5-3.5V41q0-2-1.5-3.5T471 36H41q-2 0-3.5 1.5T36 41zm104 87h27q5 0 8.5 3.5t3.5 8.5v27q0 5-3.5 8.5T167 179h-27q-5 0-8.5-3.5T128 167v-27q0-5 3.5-8.5t8.5-3.5zm103 0h129q5 0 8.5 3.5t3.5 8.5v27q0 5-3.5 8.5T372 179H243q-5 0-9-3.5t-4-8.5v-27q0-5 4-8.5t9-3.5zM140 230h27q5 0 8.5 4t3.5 9v26q0 5-3.5 9t-8.5 4h-27q-5 0-8.5-4t-3.5-9v-26q0-5 3.5-9t8.5-4zm103 0h129q5 0 8.5 4t3.5 9v26q0 5-3.5 9t-8.5 4H243q-5 0-9-4t-4-9v-26q0-5 4-9t9-4zM140 333h27q5 0 8.5 3.5t3.5 8.5v27q0 5-3.5 8.5T167 384h-27q-5 0-8.5-3.5T128 372v-27q0-5 3.5-8.5t8.5-3.5zm103 0h129q5 0 8.5 3.5t3.5 8.5v27q0 5-3.5 8.5T372 384H243q-5 0-9-3.5t-4-8.5v-27q0-5 4-8.5t9-3.5z"/></svg>