<svg xmlns="http://www.w3.org/2000/svg" viewBox="0 0 1000 1000"><path d="M484 774q4-5 10-16 3-4 0-9t-8-5H208q-11 0-18.5-7.5T182 718V190q0-11 7.5-18.5T208 164h528q10 0 18 7.5t8 18.5v64q0 7 6 9 17 5 33 13 5 3 9 0t4-8v-78q0-33-23-56t-55-23H208q-33 0-56 23t-23 56v1q-16 1-26.5 12T92 230t10.5 27 26.5 12v71q-16 1-26.5 12.5t-10.5 27 10.5 27T129 419v70q-16 2-26.5 13T92 528.5t10.5 27T129 568v71q-16 1-26.5 12.5t-10.5 27 10.5 27T129 718q0 33 23 56t55 23h260q6 0 8-6 4-8 9-17zm397 24q-34-58-98-153-5-7-11-12-1-1-1-3t2-3q45-21 73-62 29-43 29-93 0-47-23-86.5T789.5 323 703 300t-86.5 23-62.5 62.5-23 86.5q0 50 29 93 28 41 73 62 1 1 1.5 3t-1.5 3q-6 5-10 12-66 97-98 153-14 23-14 38 0 21 26 38.5t70 28 96 10.5 96-10.5 69.5-28T894 836q0-15-13-38zM260 230h242q4 0 6.5 3t2.5 7v31q0 4-2.5 6.5T502 280H260q-4 0-7-2.5t-3-6.5v-31q0-4 3-7t7-3zm0 97h162q4 0 6.5 2.5t2.5 6.5v31q0 5-2.5 7.5T422 377H260q-4 0-7-2.5t-3-7.5v-31q0-4 3-6.5t7-2.5zm0 97h162q4 0 6.5 2.5t2.5 6.5v31q0 4-2.5 7t-6.5 3H260q-4 0-7-3t-3-7v-31q0-4 3-6.5t7-2.5z"/></svg>