<svg xmlns="http://www.w3.org/2000/svg" viewBox="0 0 1000 1000"><path d="M199 720q-5 0-8-2.5t-3-5.5V167q0-3 3-5.5t8-2.5h399q5 0 8 2.5t3 5.5v367q22-17 49-21h3V127q0-31-22-52.5T586 53H210q-31 0-53 21.5T135 127v625q0 31 22 52.5t53 21.5h208q-5-36 13-66 7-14 18-24-3-8-5-16H199zm217-403q0 21 15.5 36.5t37 15.5 37-15.5 15.5-37-15.5-37-37-15.5-37 15.5T416 317zm75 281q24-24 57-29l8-1v-31l-68-79-60 78-93-131-95 140v87q0 7 6 13t14 6h192l6-10q13-22 31-41zm403 207q-3-5-9-8l-41-15q-3-1-3-5-2-20-8-39-2-3 1-6l30-33q5-5 5-11t-3-12q-10-17-23-31-5-5-11-5.5t-12 2.5l-36 22q-2 2-5 0-20-15-43-22-3-1-4-4l-6-44q-1-7-5.5-11.5T710 577q-10-1-20.5-1t-20.5 1q-6 1-10.5 5.5T653 594l-6 44q-1 3-4 4-23 8-43 22-3 2-5 0l-36-22q-6-3-12-2.5t-11 5.5q-13 15-23 31-3 6-3 12t5 11l30 33q3 3 1 6-6 19-8 39 0 4-3 5l-41 15q-6 3-9 8.5t-2 11.5q2 19 8 36 2 7 7 10.5t12 2.5l42-4q3-1 5 3 10 19 25 35 3 2 2 5l-13 44q-2 6 0 12t8 9q17 11 35 19 7 3 13 .5t10-8.5l22-35q2-4 6-3 25 5 50 0 3-1 5 3l22 35q4 6 10 8.5t13-.5q19-8 36-19 5-3 7-9t1-12l-14-44q-1-3 2-5 15-16 25-35 2-4 5-3l43 4q6 1 11.5-3t6.5-10q6-17 8-36 1-6-2-12zm-151 40q-22 23-53.5 23t-54-23-22.5-55 22.5-55 54-23 54 23 22.5 55-23 55z"/></svg>