<svg xmlns="http://www.w3.org/2000/svg" viewBox="0 0 1000 1000"><path d="M994 222L821 46q-3-3-7-1.5t-4 5.5v93q-96 8-162 69-63 57-89.5 152T545 573q2 20 6 38 5 23 10 23t6-5.5 2-20.5v-9q5-81 33-146 29-68 80-106 55-41 128-41v97q0 4 4 5.5t7-.5l173-177q2-2 2-4.5t-2-4.5zM61 587V235q0-9 6.5-15t15.5-6h352q9 0 15.5 6t6.5 15v26h54v-26q0-31-22.5-53T435 160H83q-31 0-53 22T8 235v352q0 32 22 54t53 22h38v-54H83q-9 0-15.5-6.5T61 587zm679-147h-82q-6 6-16.5 25.5T629 493h111q9 0 15.5 6.5T762 515v352q0 9-6.5 15.5T740 889H388q-9 0-15-6.5t-6-15.5V515q0-9 6-15.5t15-6.5h110q0-4 1-24.5t2-28.5H388q-31 0-53 22t-22 53v352q0 31 22 53t53 22h352q32 0 54-22t22-53V515q0-31-22-53t-54-22zM214 727V375q0-9 6.5-15.5T236 353h277q1-4 7-21 8-21 15-32H236q-31 0-53.5 22T160 375v352q0 31 22.5 53.5T236 803h38v-54h-38q-9 0-15.5-6.5T214 727z"/></svg>