<svg xmlns="http://www.w3.org/2000/svg" viewBox="0 0 512 512"><path d="M374 465q-10 0-19-5l-90-47q-3-2-9-2t-9 2l-90 47q-20 10-36-1t-12-33l17-95q1-6-1.5-13.5T117 306l-69-67q-17-16-11-34.5T66 183l96-14q6-1 12.5-5.5t9.5-9.5l43-87q10-20 29-20t29 20l43 87q3 5 9.5 9.5T350 169l96 14q23 3 29 21.5T464 239l-69 67q-5 4-7.5 11.5T386 331l17 95q4 22-12 33-8 6-17 6zM256 362q6 0 25 10l59 31q5 2 9.5-1t3.5-8l-15-88q-1-5 3-9l64-62q4-4 2-9t-7-6l-84-12q-4 0-8.5-3.5T301 198l-37-76q-3-4-8-4t-8 4l-37 76q-2 3-6.5 6.5T196 208l-84 12q-5 1-7 6t2 9l61 59q3 3 4.5 8t1.5 9l-15 83q-1 5 3.5 8t9.5 1l60-31q18-10 24-10z"/></svg>