<svg xmlns="http://www.w3.org/2000/svg" viewBox="0 0 512 512"><path d="M168 413q-4-19 6-35-29-8-53-26-5-4-6.5-10t1.5-12q12-27 38-61 15-18 29-34-27-12-41-38.5t-7.5-55.5T164 93.5 217 75t53 18.5 29 47.5-7.5 55.5T251 235q21 23 39 49h49v-20q0-12 6.5-23t18-16.5 24-4.5 22.5 8l8 6q1-9 1-17v-11q-3-52-31-96t-73-69.5T217 15q-53 0-98.5 25.5t-73 69.5T15 206v11q0 59 32 109t86 75q17 8 35 12zm325-56H218q-7-1-11.5-6.5T202 338v-1q0-7 5.5-12.5T220 319h154v-55q0-6 5.5-8.5T390 257l110 81q6 5 3.5 12t-10.5 7zm11 53v1q0 8-5.5 13.5T486 430H332v54q0 6-5.5 9t-9.5-1l-111-82q-6-4-3.5-11t10.5-7h276q6 1 10.5 6t4.5 12z"/></svg>