<svg xmlns="http://www.w3.org/2000/svg" viewBox="0 0 1000 1000"><path d="M587 704q-53 32-116 41.5T346.5 740 236 687q-9-7-12-19t2-23q24-53 75-119 28-37 56-66-53-24-79.5-75.5T263 276t57.5-93.5T424 146t103 36.5 57 93.5-14.5 108.5T490 460q55 57 97 120v-78q0-20 7.5-38t21.5-32 32-21.5 38-7.5h132q-6-103-61-190-53-84-140-133-90-51-193-51-107 0-199 54-90 52-142 142-54 92-54 199t54 199q52 89 142 141 92 54 199 54 85 0 163-35v-79zm327-248H686q-19 0-32.5 13.5T640 502v411q0 19 13.5 32.5T686 959h228q19 0 32.5-13.5T960 913V502q0-19-13.5-32.5T914 456zm-18 405H704q-6 0-10-4t-4-10V549q0-5 4-9t10-4h192q6 0 10 4t4 9v298q-1 6-5 10t-9 4z"/></svg>