<svg xmlns="http://www.w3.org/2000/svg" viewBox="0 0 512 512"><path d="M461 181q-19-54-60-91t-95-51-108.5 0-95 52-59 90.5-9 108.5 44 99.5 85 66 107 17.5 103-35.5 73-79T473 253q0-37-12-72zM200 334h107q-15 48-47 87-2 3-6 3t-6-3q-32-39-48-87zm-8-31q-9-50 1-99h122q10 49 1 99H192zm-108 0q-15-50 0-99h76q-8 49 0 99H84zM260 86q32 38 47 86H201q15-48 47-86 2-3 6-3t6 3zm88 118h74q15 49 0 99h-74q4-25 4-50t-4-49zm62-32h-70q-12-43-37-81-1-2 .5-4t4.5-2q33 11 59.5 33.5T410 172zM205 91q-25 37-37 81H97q16-31 43-54t61-33q2-1 3.5 1t.5 5zM97 334h70q13 44 37 81 2 3 0 5t-4 1q-34-10-60.5-32.5T97 334zm207 81q25-38 37-81h69q-16 31-42.5 53.5T309 421q-3 0-4.5-2t-.5-4z"/></svg>