<svg xmlns="http://www.w3.org/2000/svg" viewBox="0 0 512 512"><path d="M24 22h283q5 0 8.5 3.5T319 34v14q0 5-3.5 8.5T307 60H24q-5 0-8.5-3.5T12 48V34q0-5 3.5-8.5T24 22zm0 71h283q5 0 8.5 3.5t3.5 8.5v15q0 5-3.5 8.5T307 132H24q-5 0-8.5-3.5T12 120v-15q0-5 3.5-8.5T24 93zm0 72h174q5 0 8.5 3.5t3.5 8.5v14q0 5-3.5 8.5T198 203H24q-5 0-8.5-3.5T12 191v-14q0-5 3.5-8.5T24 165zm328 27q-42 0-77 21t-56 56.5-21 77 21 77 56 56.5 77 21 77.5-21 56.5-56.5 21-77-21-77-56.5-56.5-77.5-21zm0 39q44 0 76.5 28.5T467 331h-25q-4 0-9-2.5t-7-6.5l-31-41q-3-3-6.5-3t-6.5 3l-60 80q-2 3-6 3t-6-3l-17-22q-2-4-7-6t-9-2h-39q6-43 38.5-71.5T352 231zm0 231q-43 0-75.5-28.5T238 363h25q4 0 8.5 2.5t7.5 5.5l31 41q2 4 6 4t6-4l60-80q3-3 6.5-3t6.5 3l16 22q3 4 7.5 6.5t8.5 2.5h40q-6 42-39 70.5T352 462zM68 491q6 0 11-4.5t5-11.5V250q0-7-6.5-9.5T67 243l-56 69q-4 5-1.5 10.5T18 328h34v147q0 6 4.5 11t11.5 5zm59-251q-6 0-11 4.5t-5 11.5v225q0 7 6 9t11-3l56-69q4-4 1.5-9.5T177 403h-34V256q0-7-4.5-11.5T127 240z"/></svg>