<svg xmlns="http://www.w3.org/2000/svg" viewBox="0 0 1000 1000"><path d="M433 82v-2q0-22-15-37t-37-15-37 15-15 37v2h-98q-4 0-7 2.5t-3 6.5v79q0 7 5 12t12 5h287q7 0 12-5t5-12V91q0-4-3-6.5t-7-2.5h-99zm345 274v122q0 4 3 7t7 3h123zm-17 188q-16 0-27.5-11.5T722 505V366q0-4-3-7t-7-3H454q-15 0-25.5 10.5T418 392v173q-29-4-56-15V392q0-39 27-66t65-27h220q4 0 7-2.5t3-6.5V136q0-23-16-38.5T630 82h-22q-4 0-7 2.5t-3 6.5v79q0 31-21.5 52.5T525 244H238q-31 0-52-21.5T165 170V91q0-4-3-6.5t-7-2.5h-22q-22 0-38 15.5T79 136v617q0 23 16 39t38 16h219q4 0 7-3t3-7v-35q27 14 56 23v118q0 15 10.5 25.5T454 940h432q14 0 24.5-10.5T921 904V554q0-4-3-7t-7-3H761zm-515 98q-41-45-66-105-26-64-26-124 0-20 12.5-23t18.5 16q16 47 46 84t70 62q52 33 118 41 38 5 77 0v-75q1-11 8.5-16t18.5 2l164 167q4 5 4 11.5t-4 11.5L526 857q-8 10-18.5 6.5T496 847v-70q-40-7-78-21v1q-102-38-172-115zm556 215H566l57-59h179q4 0 7 3t3 7v39q0 4-3 7t-7 3zm0-102H665l29-29q17-15 23-29h85q4 0 7 2.5t3 6.5v40q0 4-3 6.5t-7 2.5zm0-101h-94q-6-9-15-16l-42-43h151q4 0 7 3t3 7v39q0 4-3 7t-7 3z"/></svg>