<svg xmlns="http://www.w3.org/2000/svg" viewBox="0 0 512 512"><path d="M457 393q-28-28-56-55-5-6-2-12 14-28 11.5-58T390 213.5t-46-36-59-6.5-57 31-31 56.5 6 58 34.5 46 53 22T347 376q7-3 12 2l56 56q9 9 21 9t20.5-8.5 8.5-21-8-20.5zM230 280q-1-23 11-42t33-27.5 43-4.5 38 20 20 38-5 42.5-28 32.5-41 12q-29-1-49.5-21.5T230 280zm113 135q2-2 0-6t-5-3l-10 2q-5 1-15 1l-10 1q-4 0-8 5l-2 2q-9 9-20 5L94 366q-13-4-20.5-14.5T66 328v-15q-1-13 7-19.5t18-3.5l68 21q6 1 10.5-3t3.5-10q-3-11-3-20t2-23q7-39 38.5-70.5T282 147q10-2 21-2 56 0 94 38l2 3q5 5 11.5 4.5T422 185l56-65q4-4 4-10v-1q0-3-1-6-3-8-11-10L268 49q-9-3-19-1-13 2-22 12L62 238q-15 17-23.5 38T30 320v8q0 23 13.5 42T80 396l193 66q11 4 22 1t19-12zm93-173q-4 5-3 11 3 12 3 25v1q0 6 5 7.5t8-2.5l24-30q5-5 4-13-2-9-8-18-4-7-4-12-1-7 1-19l1-4q2-8-1-13t-10-6-11 2-8.5 9.5T431 198t2 21l5 14q1 5-2 9z"/></svg>