<svg xmlns="http://www.w3.org/2000/svg" viewBox="0 0 512 512"><path d="M256 54h35l2-31q-20-8-37-8t-37 8l2 31h35zm-21 327q2 56 5 112h32l5-112h-42zm211-104q12-51 18-97 7-53 2-84l-22-5q-30-6-69-10-55-5-119-5-86 0-153 9-37 5-57 11l-1 5q-2 20 0 49 4 14 15 18 5 2 12 2 5-1 18-3 8-1 23-2h13q7-1 7 4 0 3-1.5 5t-3.5 2q-41 7-63 17-7 3-10 9.5T53 216q7 36 16 72 9 7 20 8 5 1 6.5 4.5T94 308q-11 14-9 33l11 28 24-3q136-15 271 0l25 3 4-10q8-21 15-42 0-3-1-6-6-13-39-20-12-3-15.5-5t-3.5-4q1-7 70-5zm-166-11q0 3-2 5t-4 2q-53-1-106 4-3 0-5-2t-2-4l-1-7q0-3 1.5-5t4.5-2q53-5 108-4 3 0 4.5 2t1.5 5v6zm85-50l-1 7q0 3-2.5 4.5T357 229q-104-10-209 0-2 1-4.5-1t-2.5-4l-1-7q0-3 2-5t4-2q106-11 213-1 2 0 4 2t2 5zm11-40q0 3-2.5 4.5T368 182q-100-10-201-2-2 0-4.5-2t-2.5-4l-1-7q0-3 2-5t5-2q102-8 204 2 3 0 5 2t2 5z"/></svg>