<svg xmlns="http://www.w3.org/2000/svg" viewBox="0 0 1000 1000"><path d="M958 104h-62V43q0-17-12-29T855 2h-87q-17 0-29 12t-12 29v61h-62q-16 0-27.5 10.5T624 140H213q-49 0-90 24.5T58 230t-24 89v376q0 48 24 89t65 65.5 90 24.5h133l109 121 110-121h133q48 0 89-24.5t65.5-65.5 24.5-89V371q9-6 14.5-15.5T897 336v-62h61q17 0 29-12t12-29v-88q0-17-12-29t-29-12zM324 598q18-19 35-38 5-5 11-2.5t6 8.5l5 142q0 5-3 8t-7 3l-140 4q-7 0-9.5-6t2.5-11l35-37-3-3q-28-34-43-66-23-46-23-94.5t23-94.5q15-32 43-66l3-3-35-37q-5-5-2.5-11t9.5-6l140 4q4 0 7 3t3 7l-5 142q0 7-6.5 9.5T359 451l-35-39q-38 50-38 93.5t38 92.5zm331 68l-3 3 35 37q5 5 2 11t-9 6l-140-4q-4 0-7-3t-3-8l5-142q0-6 6-8.5t11 2.5l35 38q38-49 38-92.5T587 412l-35 39q-5 5-11 2.5t-6-9.5l-5-142q0-4 3-7t7-3l140-4q6 0 9 6t-2 11l-35 37 3 3q28 34 43 66 23 46 23 94.5T698 600q-15 32-43 66zm303-433H855v103h-87V233H665v-88h103V43h87v102h103v88z"/></svg>