<svg xmlns="http://www.w3.org/2000/svg" viewBox="0 0 1000 1000"><path d="M238 407V303q0-6-5-11t-11-5h-55q-6 0-11 5t-5 11v104q0 5-3 8t-8 3H37q-7 0-12 4.5T20 434v54q0 7 5 12t12 5h103q5 0 8 3t3 8v103q0 7 5 12t12 5h54q6 0 11-5t5-12V516q0-5 3-8t8-3h104q6 0 11-5t5-12v-54q0-7-5-11.5t-11-4.5H249q-5 0-8-3t-3-8zm270 224q-96 21-156 60-70 45-70 105v14q0 18 13 31t31 13h610q18 0 31-13t13-31v-14q0-60-72-106-61-38-158-59-25-5-40.5-24.5T694 562v-6q0-10 4.5-19t12.5-15q43-29 69-85 25-54 25-107 0-47-23.5-86.5T718 181t-87-23-87 23-63.5 62.5T456 330q0 52 25 104 25 55 65 85 17 13 17 33v11q0 24-15.5 43.5T508 631z"/></svg>