<svg xmlns="http://www.w3.org/2000/svg" viewBox="0 0 512 512"><path d="M207 318v-21q0-7 3-8.5t7-1.5 6-4l4-6q2-2 1-4.5t-4-3.5l-9-1q-7 0-6-18l2-9 18 18q1 1 4.5 1.5t5.5-2.5q6-5 11-10.5t2-8.5l-38-38 32-32 6 2q6 2 8.5 0t3.5-4q-1-4 16-28 14-19 37-46l4-5q6-7 7-13t-1-8-8-1-13 7l-51 40q-24 18-28 17-7 2-4 12l1 5-14 14v-1q3-69 6-79 3-9-7-24t-16.5-15T176 57t-7 24q4 11 6 80l-37-37q0-2 3-4.5t3.5-4.5-.5-4-2-3l-23-23q-5-5-13 7l-5-4q-4-5-10.5-5t-11 4.5-4.5 11 5 10.5l4 4-7 5q-12 8-25 14-3 1-10.5 1.5t-10 3T33 148q9 23 26 40 15 15 35 21 13 5 21 4 4 0 5.5-5.5T122 192q0-2-1.5-4t-1-7.5 3-10.5 8.5-9l40 40-91 91q-5 4-5 10.5t5 11.5q4 4 10.5 4t10.5-4l74-74 2 10q1 18-6 18h-9q-4 0-6 2.5t-2 6.5 2 6.5 6 2.5h5q6 0 9 2t3 11v19q0 6 4 10t10 4q5 0 9.5-4t4.5-10zm15 92q7 10 21 20 9 6 27 15l5 3q49 27 88 27 20 0 39-5 24-7 43.5-24.5t28-42T475 354q-3-11-13.5-31.5T448 291q-5-16-3-36.5t8-36.5q2-5 8.5-13.5T470 192q4-7 1-13-3-9-15-14-7-3-22-6l-26-6q-41-10-59-20l-7-5q-16-12-22-12-2 0-4 1-7 5-8 27 0 13 1 29 3 32 14 50-38 11-66.5 40.5T217 331q-6 22-6 41 0 24 11 38zm67-35q-10 0-12-15t4.5-29.5T299 316h1q14 1 15 15.5t-7.5 29T289 375zm12-129q21-11 34-11 8 0 15 2 27 7 48 17 35 17 29 33-5 12-32 30l-3 2q-12 9-22 9-6 0-17-4t-33-14l-18-8q-25-9-30-17-8-11 2-22 5-6 22-14z"/></svg>