<svg xmlns="http://www.w3.org/2000/svg" viewBox="0 0 512 512"><path d="M248 396q2-3 5-8 1-2 0-4.5t-4-2.5H106q-5 0-9-4t-4-9V97q0-5 4-9t9-4h271q5 0 9 4t4 9v33q0 4 3 5 9 2 17 6 3 2 5 .5t2-4.5V97q0-16-12-28t-28-12H106q-16 0-28 12T66 97v1q-8 0-13.5 6T47 118t5.5 13.5T66 138v36q-8 1-13.5 6.5T47 194t5.5 14 13.5 6v37q-8 0-13.5 6T47 271t5.5 13.5T66 291v36q-8 1-13.5 6.5T47 347t5.5 14 13.5 6v1q0 16 12 28t28 12h133q3 0 4-3zm203 12q-17-29-50-78l-6-6v-1l1-2q23-11 37.5-32.5t14.5-46-12-45-32-32.5-44-12-44.5 12-32 32.5-11.5 45 14.5 46T324 321q1 1 1 1.5t-1 1.5q-3 3-5 6-34 50-50 78-7 12-7 20 0 16 28.5 27.5t69 11.5 69.5-11.5 29-27.5q0-8-7-20zM133 118h124q2 0 3.5 1.5t1.5 3.5v16q0 2-1.5 3.5T257 144H133q-2 0-3.5-1.5T128 139v-16q0-5 5-5zm0 49h83q2 0 3.5 1.5t1.5 3.5v16q0 2-1.5 3.5T216 193h-83q-2 0-3.5-1.5T128 188v-16q0-5 5-5zm0 50h83q2 0 3.5 1.5t1.5 3.5v16q0 2-1.5 3.5T216 243h-83q-2 0-3.5-1.5T128 238v-16q0-5 5-5z"/></svg>