<svg xmlns="http://www.w3.org/2000/svg" viewBox="0 0 512 512"><path d="M344 459l92-92q1-1 .5-2t-1.5-1h-89q-2 0-3.5 1.5T341 369v89q0 1 1 1.5t2-.5zM299 73q4 23 23 37t42.5 10T402 97t10-42.5T389 17 346.5 7 309 30t-10 43zm57 83q-26 0-48-13-4-3-7 0l-33 33q-5 5-12 5t-12.5-5-5-12.5T244 151l32-32q3-4 1-8-13-21-13-45-1-4-5-4H108q-16 0-27 11t-11 27v328q0 15 11 26t27 11h195q3 0 4.5-1.5t1.5-3.5V360q0-12 8-20t20-8h100q2 0 3.5-1.5t1.5-3.5V110q0-2-2.5-2.5T436 109q-12 22-33.5 34.5T356 156zm-75 169q0 6-4 10t-10 4H159q-6 0-10-4t-4-10v-15q0-6 4-10t10-4h108q6 0 10 4t4 10v15zm86-77q0 6-4 10t-10 4H159q-6 0-10-4t-4-10v-15q0-6 4-10t10-4h194q6 0 10 4t4 10v15z"/></svg>