<svg xmlns="http://www.w3.org/2000/svg" viewBox="0 0 512 512"><path d="M471 51q-57-13-107 0-9 2-11.5 10.5T357 76q6 7 15 4 36-10 79-1v242q-52-4-102.5 10T256 375q-42-30-92.5-44T61 321V79q43-9 79 1 9 3 15-4 7-6 4.5-14.5T148 51Q98 38 41 51q-4 1-6.5 4.5T32 63v340q0 5 4 8.5t9 2.5q59-7 105.5 7.5T248 480q3 3 8 3t8-3q51-44 97.5-58.5T467 414q5 1 9-2.5t4-8.5V63q0-4-2.5-7.5T471 51zm-20 332q-52-5-103 12.5T256 449q-41-36-92-53.5T61 383v-37q51-4 96.5 9t91.5 45q7 5 14 0 46-32 91.5-45t96.5-9v37zm-65-239L278 35q-9-9-22-9t-22 9L126 144q-9 9-9 22t9 22l82 82q3 3 6.5 1.5t3.5-5.5v-43q0-2-2-4l-44-45q-3-4-3-8.5t3-7.5l76-77q3-3 8-3t8 3l76 77q3 3 3 7.5t-3 8.5l-34 34q-2 1-4.5 1t-3.5-1l-36-36q-2-2-4-1t-2 3v136q0 2 2 3t4-1l124-124q9-9 9-22t-9-22z"/></svg>