<svg xmlns="http://www.w3.org/2000/svg" viewBox="0 0 1000 1000"><path d="M567 377l19-120q1-3 3.5-5t5.5-1l93 15q3 0 5 2.5t1 5.5l-19 121q-1 3-3.5 4.5T666 401l-93-15q-3-1-4.5-3.5T567 377zM376 258q-3 0-5 2t-2 5v67q0 3 2.5 5.5t6.5 2.5h20q8 0 17.5 2.5T431 349q8 6 16 27l5 11 12 44q2 8 10 8h26q3 0 5-2.5t2-5.5V265q0-3-2-5t-5-2H376zm491 223H457q-4 0-7.5-3t-4.5-7l-21-79q-1-10-8.5-16.5T398 369h-79q-11 0-19 7.5t-8 18.5v4q0 12 8 20t19 8h46q7 0 8 7l73 361q2 14 15 21 6 3 13 3h13q-17 19-16 43.5t19 42 43 17.5 42.5-17.5 18.5-42-16-43.5h138q-17 19-16 43.5t19 42 43 17.5 43-17.5 18.5-42T808 819h12q11 0 19-7.5t8-18.5v-6q0-11-8-19t-20-8H508q-4 0-7.5-3t-3.5-7l-8-40q-1-5 2.5-9.5t9.5-4.5h341q10 0 17-6t9-15l24-163q2-12-5.5-21.5T867 481zM318 341h14q4 0 6.5-3t1.5-6l-9-53q0-3-2.5-5t-5.5-1l-93 15q-3 0-5 2.5t-2 5.5l20 121q1 3 3.5 4.5t5.5 1.5l6-2q3 0 5-3t1-6q-1-6-1-12v-4q0-21 17.5-38t37.5-17zm36 167q-1-4-4-7t-8-3l-130 4-11-119q-12-123-15-144-2-15 1-22.5t12-11.5q5-2 22-4h2q124-19 232-19h1q108 0 232 19h2q17 2 22 4 9 4 12 11t1 23q-7 52-20 195-1 4 2 7.5t8 3.5h40q6 0 10-3.5t5-9.5q12-115 24-216l1-8q1-10 0-19-3-12-11-21-9-10-27-14t-66-10q-62-8-124-12-11-25-37-42-32-22-75-22t-75 22q-26 17-36 42-63 5-125 12-48 6-65.5 10T126 168q-7 9-10 21-2 9-1 19l2 8 24 225q24 227 25 233l1 4q2 11 5 15 6 8 20.5 8t19.5-10q3-6 3-18l1-77q0-16 11.5-27.5T255 557l100-2q3 0 5-2.5t2-5.5z"/></svg>