<svg xmlns="http://www.w3.org/2000/svg" viewBox="0 0 1000 1000"><path d="M856 752L645 540q-4-4-10-2.5t-8 7.5l-94 263-71 25q-6 2-7 8t3 11l87 87q4 4 10.5 2.5t8.5-6.5l25-71 263-94q6-2 7.5-8t-3.5-10zM418 894q-13-12-18.5-28.5T397 831t15.5-32.5T443 778l31-11q13-5 17-18l45-124q4-12-3-23l-34-51q-6-8-14-15-2-2-1.5-4.5t2.5-3.5q60-29 98-83 39-58 39-124 0-63-31-116t-84-84-115.5-31T277 121t-84 84-31 116q0 66 39 124 37 54 98 83 2 1 2 3.5t-2 4.5q-7 7-13 15-88 131-132 205-18 32-18 52 0 27 34.5 50.5T264 896t128 14h19q6 0 8.5-6t-1.5-10zm434-393l-45 60q-3 3-2.5 7t3.5 7q8 7 16 15 2 3 6 3.5t7-1.5l61-44q3-3 4-7t-2-8q-15-18-34-34-3-3-7.5-2.5T852 501zm7 160q2 10 2 20 1 4 3.5 6.5t6.5 2.5h75q5 0 8-3t2-7q-1-23-6-45-1-4-4.5-6t-7.5-1l-73 22q-3 1-5 4t-1 7zM749 532l22-72q2-4 0-7.5t-6-4.5q-24-6-48-8-4 0-7 3t-3 7v76q0 3 2.5 6t6.5 3q11 1 22 4 3 1 6.5-1t4.5-6z"/></svg>