<svg xmlns="http://www.w3.org/2000/svg" viewBox="0 0 1000 1000"><path d="M500 70q-117 0-217 59-97 57-154 154-59 100-59 217t59 217q57 97 154 154 100 59 217 59t217-59q97-57 154-154 59-100 59-217t-59-217q-57-97-154-154-100-59-217-59zm114 449l142 142q8 8 8 19.5t-8 18.5l-57 57q-7 8-18.5 8t-19.5-8L519 614q-8-8-19-8t-19 8L339 756q-8 8-19 8t-19-8l-57-57q-8-7-8-18.5t8-19.5l142-142q8-8 8-19t-8-19L244 339q-8-8-8-19.5t8-18.5l57-57q8-8 19-8t19 8l142 142q8 8 19 8t19-8l142-142q8-8 19.5-8t18.5 8l57 57q8 7 8 18.5t-8 19.5L614 481q-8 8-8 19t8 19z"/></svg>