<svg xmlns="http://www.w3.org/2000/svg" viewBox="0 0 1000 1000"><path d="M717 689v-89q0-8-6-14t-14-6-13.5 6-5.5 14v89q0 8 3 15t8 13l60 59q6 6 14 6t13.5-5.5T782 763t-6-14zM189 814q-32 0-55-23t-23-55V189q0-32 23.5-55t54.5-23h547q33 0 55.5 23.5T814 189v196q0 16-11.5 27.5T775 424t-27.5-11.5T736 385V189H189v547h196q16 0 27.5 11.5t11.5 28-11.5 27.5-27.5 11H189zm0-117v39-547 238-3 273zm79-78q0 17 11 28t28 11h81q16 0 27.5-11t11.5-28-11.5-28-27.5-11h-81q-17 0-28 11t-11 28zm0-156q0 17 11.5 28t27.5 11h195q17 0 28-11.5t11-28-11.5-27.5-27.5-11H307q-17 0-28 11t-11 28zm0-156q0 16 11.5 27.5T307 346h312q17 0 28-11.5t11-28-11.5-27.5-27.5-11H307q-17 0-28 11.5T268 307zm429 586q-80 0-137.5-57T502 698t56.5-138.5 138-57.5 139 56.5 57.5 138-57 139T697 893z"/></svg>