<svg xmlns="http://www.w3.org/2000/svg" viewBox="0 0 1000 1000"><path d="M926 528l-89-34q-7-2-7-10-4-42-18-83-2-6 2-12l67-71q9-10 10-23.5t-6-24.5q-22-36-50-66-10-11-24-12.5t-26 5.5l-77 48q-7 4-14-1-42-31-92-47-7-2-8-10l-13-94q-2-13-12-23t-24-11q-22-2-45-2t-45 2q-14 1-24 11t-12 23l-13 94q-1 8-8 10-50 16-92 47-7 5-14 1l-77-48q-12-7-26-5.5T165 204q-28 31-50 66-7 11-6 24.5t10 23.5l67 71q4 6 2 12-14 41-18 83 0 8-7 10l-89 34q-13 5-20 16.5T49 570q5 39 16 77 5 13 16.5 21t26.5 6l91-9q7-1 11 6 23 41 56 75 5 5 3 12l-28 93q-4 13 .5 25.5T257 896q38 24 79 40 13 5 26.5.5T384 920l50-77q4-6 12-5 54 9 108 0 8-1 12 5l50 77q8 12 21.5 16.5t26.5-.5q41-16 79-40 11-7 15.5-19.5t.5-25.5l-28-93q-2-7 3-12 33-34 56-75 4-7 11-6l91 9q15 2 26.5-6t16.5-21q11-38 16-77 2-14-5-25.5T926 528zM500 677q-45 0-83-22t-60-60-22-83 22-83 60-60.5 83-22.5 83 22.5 60 60.5 22 83q0 33-12.5 63T617 628.5t-53.5 36T500 677z"/></svg>