<svg xmlns="http://www.w3.org/2000/svg" viewBox="0 0 1000 1000"><path d="M403 621v-40q0-14 8-18 5-3 13-3t12-7l7-11q4-5 2-10t-7-7l-4-1h-15q-12 0-11-35l3-18 1-1 35 36q3 2 9 2.5t11-3.5q12-11 23-23 7-9 2-15l-74-75 61-61h1l11 3q12 3 19-2 4-2 5-6v-1q-1-7 33-54 27-37 71-90l8-9q11-14 13-27 2-11-2-14.5t-14-1.5q-13 2-27 13l-99 79q-47 34-55 33-4 1-7 5-5 7-1 18l3 10v1l-26 26h-1v-1q2-54 5.5-100.5T423 156t-6-29q-7-17-20-31.5T376.5 81 356 95.5 336 127q-9 19-6 29.5t6.5 57T342 314v1h-1l-71-72q0-5 7-11 4-4 5-7t-.5-7.5-4.5-6.5l-37-37-8-8q-6-6-13-1-5 3-12 14h-1l-8-8q-9-8-21-8t-21 8.5-9 21 9 21.5l7 8-13 9q-23 16-49 27-6 2-20 3t-18 4q-6 6 1 25 18 44 51 77 21 21 47 33 20 10 41 14 14 3 22 2.5t9-9.5q4-12 4-33 0-3-2-6-4-5-3-16t5.5-20 17.5-17l77 77-177 178q-9 9-9 21.5t9 20.5q9 9 21 9t21-9l143-142h1l3 18q3 36-11 36h-18q-7 0-11.5 5t-4.5 12.5 4.5 12.5 11.5 5h10q11 0 16 3t6 10q1 4 1 12v37q0 12 8 19.5t19 7.5q12 0 19.5-7.5T403 621zm30 181q14 19 42 38 17 11 52 30l10 6q47 25 86 37 44 14 87 14 38 0 74-10 48-13 86-47.5t54-80.5q17-49 4-98-6-22-27-62t-27-61q-8-30-5-72 4-38 16-71 3-9 17-26 12-16 16-24 7-14 3-26-6-16-30-26-13-6-42-12l-52-12q-40-10-60-16-32-10-56-23-3-1-14-9-14-11-21-16-13-8-21-8-4 0-7 2-14 8-16 53-1 25 2 56 5 62 26 98-74 22-129.5 79T424 647q-12 42-12 79 0 48 21 76zm131-70q-15 0-20.5-17.5t-2-40.5 14.5-39q12-18 28-18h2q20 2 26 20 6 16-.5 38.5t-20 39.5-27.5 17zm23-251q21-11 34-16 17-6 32.5-6t29.5 4q54 14 95 34 67 33 55 63-6 15-26 33-12 10-36 26l-6 5q-23 16-42 16-13 0-32-7-22-8-66-28l-18-8-18-7q-22-9-33-14-18-10-25-19-16-22 3-43 12-11 43-28z"/></svg>