<svg xmlns="http://www.w3.org/2000/svg" viewBox="0 0 1000 1000"><path d="M840 850H160q-4 0-7-3t-3-7V160q0-4 3-7t7-3h680q4 0 7 3t3 7v680q0 4-3 7t-7 3zM70 80v840q0 4 3 7t7 3h840q4 0 7-3t3-7V80q0-4-3-7t-7-3H80q-4 0-7 3t-3 7zm204 170h52q10 0 17 7t7 17v52q0 10-7 17t-17 7h-52q-10 0-17-7t-7-17v-52q0-10 7-17t17-7zm200 0h252q10 0 17 7t7 17v52q0 10-7 17t-17 7H474q-10 0-17-7t-7-17v-52q0-10 7-17t17-7zM274 450h52q10 0 17 7t7 17v52q0 10-7 17t-17 7h-52q-10 0-17-7t-7-17v-52q0-10 7-17t17-7zm200 0h252q10 0 17 7t7 17v52q0 10-7 17t-17 7H474q-10 0-17-7t-7-17v-52q0-10 7-17t17-7zM274 650h52q10 0 17 7t7 17v52q0 10-7 17t-17 7h-52q-10 0-17-7t-7-17v-52q0-10 7-17t17-7zm200 0h252q10 0 17 7t7 17v52q0 10-7 17t-17 7H474q-10 0-17-7t-7-17v-52q0-10 7-17t17-7z"/></svg>