<svg xmlns="http://www.w3.org/2000/svg" viewBox="0 0 1000 1000"><path d="M441 750q-38-66-111-173-5-7-11-13-2-1-1.5-3t2.5-3q50-25 82-71 33-48 33-104 0-53-26-98t-71-71-97.5-26-97.5 26-71 71-26 98q0 56 33 104 32 46 82 71 2 1 2.5 3t-1.5 3q-7 6-11 13Q75 689 40 750q-16 27-16 43 0 24 29.5 44t79 31.5 108 11.5T349 868.5t79-31.5 29-44q0-17-16-43zm519 0q-38-66-111-173-5-7-11-13-2-1-1.5-3t1.5-3q51-25 83-71 33-48 33-104 0-53-26-98t-71-71-98-26-97.5 26-70.5 71-26 98q0 56 33 104 31 46 82 71 2 1 2.5 3t-1.5 3q-7 6-12 13-73 109-110 173-16 27-16 43 0 24 29 44t79 31.5T759.5 880t108-11.5 79-31.5 29.5-44q0-17-16-43z"/></svg>