<svg xmlns="http://www.w3.org/2000/svg" viewBox="0 0 1000 1000"><path d="M348 401q0 41 20.5 76.5t56 56 77 20.5 76.5-20.5 56-56 21-77-21-77-56-56-76.5-20.5-77 20.5-56 56T348 401zm485 5q12-15 17-34t2-38.5-13.5-36T812 269l-6-4q-18-12-29-31.5T765 192l-1-4q-1-19-9.5-36.5t-23-30.5-33-18.5T660 98l-7 1q-22 2-42.5-5.5T575 70l-5-4q-13-14-31-22t-37-8-37 7.5T433 65l-4 5q-15 15-35.5 22.5T351 98l-8-1q-19-2-37.5 4T272 119.5t-23.5 30T239 186l-1 4q-1 22-12 41.5T197 263l-6 4q-16 11-27 27.5t-14 36 1.5 38.5 16.5 35l1 1q14 18 18 40.5t-2 44.5l-2 5q-8 26-1 51.5t26 44.5 45 24h2q9 3 13.5 11.5t.5 16.5L167 879q-4 8 1.5 14.5T182 898l69-16q13-4 25.5 1.5T295 901l35 61q4 7 12.5 6.5T354 961l100-231q5-11 15-14 31-10 61 0 11 4 15 14l100 231q3 7 11.5 7.5T669 962l35-61q7-12 19-17.5t25-1.5l69 16q8 2 13.5-4.5T833 879L730 642q-3-7 0-14.5t11-9.5l5-1q19-4 35.5-16t26.5-29 12.5-36.5T818 497l-2-5q-6-22-1.5-44t17.5-40zM501 650q-70 0-128.5-34t-93-93T245 394.5t34.5-128 93-93 128-34.5T629 173.5t93.5 93T757 395q0 50-19.5 97T682 575t-83 55.5-98 19.5z"/></svg>