<svg xmlns="http://www.w3.org/2000/svg" viewBox="0 0 512 512"><path d="M332 168q-45 0-82.5 22T190 249.5t-22 82 22 82 59.5 59.5 82 22 82-22 60-59.5 22.5-82-22.5-82-60-59.5-81.5-22zm49 78q10 0 16.5 12t6.5 29-6.5 29-16 12-16.5-12-7-29 7-29 16-12zm-99 0q10 0 16.5 12t6.5 29-6.5 29-16 12-16.5-12-7-29 7-29 16-12zm140 162q-9 15-19 12t-2-17q-13-16-30.5-25t-38.5-9-39.5 9.5T262 404q7 13-2.5 16T241 408q-5-8-4.5-13.5t5.5-7 12 5.5q32-51 78-51 49 0 79 48 6-4 10.5-2.5t5 7T422 408zM24 22h283q5 0 8.5 3.5T319 34v14q0 5-3.5 8.5T307 60H24q-5 0-8.5-3.5T12 48V34q0-5 3.5-8.5T24 22zm0 71h283q5 0 8.5 3.5t3.5 8.5v15q0 5-3.5 8.5T307 132H24q-5 0-8.5-3.5T12 120v-15q0-5 3.5-8.5T24 93zm0 72h126q5 0 8.5 3.5t3.5 8.5v14q0 5-3.5 8.5T150 203H24q-5 0-8.5-3.5T12 191v-14q0-5 3.5-8.5T24 165zm0 71h78q5 0 8.5 3.5t3.5 8.5v14q0 5-3.5 8.5T102 274H24q-5 0-8.5-3.5T12 262v-14q0-5 3.5-8.5T24 236z"/></svg>