<svg xmlns="http://www.w3.org/2000/svg" viewBox="0 0 1000 1000"><path d="M671 897l180-180q2-2 1-4t-3-2H675q-4 0-6.5 3t-2.5 7v173q0 3 2 3.5t3-.5zm-87-755q5 30 24 53t47 34 58 6 52.5-24 33.5-47 6-57.5T781 54t-46.5-34-57.5-6-53 24-33.5 46.5T584 142zm111 163q-51 0-94-27-3-2-7-1.5t-7 3.5l-63 63q-10 10-24 10t-24-10-10-24 10-24l63-63q3-3 3.5-7t-2.5-8q-25-41-25-88 0-3-2.5-5.5T506 121H210q-30 0-51.5 21.5T137 194v641q0 30 21.5 52t51.5 22h383q4 0 7-3t3-8V703q0-23 16-39t39-16h196q4 0 7-3t3-7V216q0-5-5-6.5t-7 3.5q-24 42-66 67t-91 25zM549 634q0 12-8 20t-20 8H311q-11 0-19.5-8t-8.5-20v-28q0-12 8.5-20t19.5-8h210q12 0 20 8t8 20v28zm168-151q0 12-8.5 20.5T689 512H311q-11 0-19.5-8.5T283 483v-28q0-11 8.5-19.5T311 427h378q11 0 19.5 8.5T717 455v28z"/></svg>