<svg xmlns="http://www.w3.org/2000/svg" viewBox="0 0 512 512"><path d="M290 193l10-61q1-4 5-4l47 8q4 1 4 5l-10 61q-1 4-5 3l-48-7-2-2-1-3zm-97-61q-2 0-3 1t-1 3v34q0 4 4 4h11q10 0 17 5 4 3 8 13l2 6 6 23q1 4 5 4h14q1 0 2.5-1.5t1.5-2.5v-85q0-2-1.5-3t-2.5-1h-63zm251 114H234q-5 0-6-5l-11-40q0-6-4-9t-9-3h-41q-5 0-9 4t-4 9v3q0 5 4 9t9 4h24q3 0 4 4l37 185q2 7 8 11 3 1 7 1h6q-8 10-7.5 22.5T251 463t21.5 9 22-9 10-21.5T296 419h71q-9 10-8.5 22.5T368 463t22 9 22-9 9.5-21.5T413 419h7q6 0 10-4t4-9v-3q-1-6-5-10t-10-4H260q-5 0-6-5l-4-20q0-3 2-5.5t5-2.5h174q5 0 8.5-3t4.5-8l13-83q1-6-3-11t-10-5zm-281-71h7q2 0 3.5-1.5t.5-3.5l-4-27q-1-4-5-3l-47 7q-4 1-4 5l10 61q1 4 5 3h3q2-1 3-2.5t.5-3.5-.5-5v-2q0-11 8.5-19.5T163 175zm18 85q-1-5-6-5-37 1-66 2L95 123q-1-12 2.5-15t15.5-5h1q64-10 119-10 56 0 119 10h1q12 2 16 5t2 15q-3 26-10 99 0 2 1.5 4t3.5 2h21q3 0 5-2t2-5l13-118q1-8-3-13-5-9-15.5-11T354 74q-32-4-64-6-5-13-18-22-17-11-39-11t-38 11q-14 9-19 22-32 2-64 6-24 3-34.5 5T62 90q-3 5-3 14l27 243q0 6 2.5 9t10 3 10.5-5q1-3 1-10l1-39q0-8 5.5-14t14.5-6l51-1q1 0 2.5-1.5t.5-2.5z"/></svg>