<svg xmlns="http://www.w3.org/2000/svg" viewBox="0 0 1000 1000"><path d="M535 973l237-465 54-47v-42l61-43 32-164-127 88-16 77-6-7q-8-8-16-14-13-8-25-11-24-5-48-6l1-15q0-20-2-40-4-29-14-54-12-32-33-57-25-30-62-50-89-47-243-43-93 3-188 23-4 1-4.5 5t3.5 5q50 19 95 44 71 38 108 79 19 21 36 52 12 21 22 46l7 20-325 70q-4 1-4 5t4 5q59 13 114 34 83 31 135 75 37 30 80 82l-7 2q-7 3-12 8-6 7-5 17 3 42 82 96 18 13 63 23 6 1 10.5-2t5.5-9q4-45 19-93 22-76 63-136 16-25 37-38 16-10 34-13 12-1 25 1l9 3-243 467q-6 12 1 23t20 12q7 0 12.5-3.5t9.5-9.5z"/></svg>