<svg xmlns="http://www.w3.org/2000/svg" viewBox="0 0 1000 1000"><path d="M531 624l-88-1q18-44 51.5-76.5T572 500q55-18 110.5-3.5T778 554q4 5 10.5 5t11.5-4l26-24q5-5 5.5-12t-4.5-12q-53-58-127-77.5T553 433q-65 21-112.5 71.5T373 623h-93q-4 0-5 3t1 6l126 144q1 1 3 1t4-1l126-143q2-3 1-6t-5-3zm451 143L857 623q-2-2-4-2t-3 2L724 766q-3 2-1.5 5.5t4.5 3.5h88q-17 45-51 77.5T686 899q-55 18-110 3t-95-57q-5-5-11-5.5t-11 4.5l-26 23q-5 5-5.5 12t4.5 13q38 41 88.5 63.5T626 978q41 0 80-13 65-21 112.5-71T885 776h94q3 0 4.5-3.5T982 767zM70 252v447q0 14 9.5 23.5T103 732h127q6 0 11-4.5t5-11.5v-22q0-7-5-12t-11-5H125V296h568v56q0 7 4.5 12t11.5 5h21q7 0 12-5t5-12V252H70zm677-32v-55q0-13-9.5-23T714 132H613v-13q0-12-6-23t-16.5-17-22.5-6-22.5 6T529 96t-6 23v13H293v-13q0-19-13-32t-31.5-13T217 87t-13 32v13H103q-14 0-23.5 10T70 165v55h677z"/></svg>