<svg xmlns="http://www.w3.org/2000/svg" viewBox="0 0 1000 1000"><path d="M966 393q-6-27-18.5-41t-25-12-18 19.5 0 46.5 17 42.5 24 10.5 18.5-21 2-45zm-714-58q-11 14-17.5 34t-6.5 41q-24-14-46.5-6t-35 31.5T137 486q4 31 27 55 24 19 58 33 42 18 76 18 41 0 64-27 11-12 21-34 7-16 13-36l3-16q10-2 13.5 14.5T412 535t-12 42q23 11 55 12 41 2 64-17 1-41-10-99-13-63-34-105-25-49-55-53-38 4-70 30-29 24-46 58t-15 62q1 10-5.5 15.5t-15 5T254 478q-12-37 2-86t47-80q37-24 50-63 11-35 0-73t-39-64.5T250 81q-41-5-81 21-38 23-51 69-12 43 1.5 87.5T166 325q37 24 86 10zm98 297q-15 10-42 13t-47-5q-76 55-90 192-22-7-51-9-35-1-55 9-25 13-20 42 4 23 55 50 46 24 95 35 27 5 50-9.5t28-41.5q18-82 41-129 20-40 47-62 16-13 50-28 21-9 31-14 17-10 30-22-28 1-62-6-20-4-56-14zm524-184q-37-1-61-17-20-14-34-40-8-16-20-51-10-28-16-40-10-22-23-34-22-18-50-14-17 2-57 19-30 12-47 18-14 5-21-5.5t-5-25 12-20.5h2q41-22 65-30 42-16 72-12.5t49 17.5q17 12 31 37 9 15 26 53 18 43 31 68 11 20 36 28-5-32 4-60 10-30 31-33-10-30-32-59-25-32-58-54-39-25-84-32 0-59-25-91-32-41-108-41-42 1-77 21t-51 54q-17 36-7 78 11 47 49 59-6 14-2 36 3 18 16 47 21 51 33 90 7 25 16 72 11 50 20 85 3 14 20 29 19 17 46 28 32 12 69 13 42 0 85-17 74-28 113-62 12-10 16-28t1-40q-8 6-22.5 1t-27-18.5T874 448zM527 142q-14 19-6 42 3 8-3.5 9t-12.5-4-9.5-15-3.5-22q-1-20 10.5-37T534 89q34-17 65-8 27 7 42 29.5t11 45.5q-2 11-13 14t-24 7q-4 1-7.5-1.5T604 169q-1-20-15.5-31.5T556 127t-29 15zm101 602q-34-8-53-27-16-16-39-59-25 29-54 46-20 11-57 23 65 88 161 114-11 25-9.5 57.5T592 952q16 24 43 22 53-3 72-175 2-18-5.5-27.5T678 757q-10-4-36-10z"/></svg>