<svg xmlns="http://www.w3.org/2000/svg" viewBox="0 0 512 512"><path d="M36 129v229q0 7 4.5 12t11.5 5h122q3 0 5.5-2.5t2.5-6.5v-11q0-3-2.5-5.5T174 347H64V151h291v39q0 4 2.5 6.5t5.5 2.5h11q3 0 5.5-2.5t2.5-6.5v-61H36zm346-16V85q0-7-4.5-12T366 68h-52v-7q0-14-11.5-20.5t-23 0T268 61v7H150v-7q0-10-6.5-16.5t-16-6.5-16.5 6.5-7 16.5v7H52q-7 0-11.5 5T36 85v28h346zm116 266q-26 25-61.5 33t-69.5-3q-35-12-70-4t-61 33l-40-177q26-25 61-33t70 3q34 11 69.5 3.5T458 202l30 133zM270 501l-12 3q-3 0-5.5-1.5T250 499l-54-238 25-6 54 238q1 2-.5 4.5T270 501z"/></svg>