<svg xmlns="http://www.w3.org/2000/svg" viewBox="0 0 1000 1000"><path d="M648 327q-87 0-162 44-72 43-114 115-44 75-44 161.5T372 809q42 72 114 115 75 43 162 43t161-43q73-43 115-115 44-75 44-161.5T924 486q-42-72-115-115-74-44-161-44zm96 154q19 0 32 23.5t13 56.5-13 56.5-31.5 23.5-31.5-23.5-13-56.5 13-56.5 31-23.5zm-193 0q19 0 32 23.5t13 56.5-13 56.5-31.5 23.5-31.5-23.5-13-56.5 13-56.5 31-23.5zm273 315q-18 31-37 25-8-3-10-11.5t5-21.5q-23-32-58-50t-76-18-76.5 18.5T512 789q7 13 5 21t-10 11q-19 6-37-25-9-15-8.5-25.5T471 757q11-4 25 10 28-45 64-70 41-28 88-28 49 0 90 25 38 24 65 68 11-8 20-5t9.5 13.5T824 796zM47 43h553q10 0 16.5 7t6.5 16v29q0 9-6.5 16t-16.5 7H47q-10 0-17-7t-7-16V66q0-9 7-16t17-7zm0 139h553q10 0 16.5 7t6.5 17v28q0 10-6.5 16.5T600 257H47q-10 0-17-6.5T23 234v-28q0-10 7-17t17-7zm0 140h246q10 0 16.5 6.5T316 345v28q0 10-6.5 17t-16.5 7H47q-10 0-17-7t-7-17v-28q0-10 7-16.5t17-6.5zm0 139h153q10 0 16.5 7t6.5 16v29q0 9-6.5 16t-16.5 7H47q-10 0-17-7t-7-16v-29q0-9 7-16t17-7z"/></svg>