<svg xmlns="http://www.w3.org/2000/svg" viewBox="0 0 1000 1000"><path d="M984 612L789 414q-4-4-8.5-2t-4.5 7v95q-90 15-163 53-82 42-142.5 111T384 829q-13 40-16 82-1 23 0 46 1 4 5.5 4.5t5.5-3.5q16-58 52-106 43-59 106-95 60-34 128-43 56-8 111 0v103q0 4 4.5 6t8.5-1l195-199q2-2 2-5t-2-6zM70 252v447q0 14 9.5 23.5T103 732h246q7 0 12-4.5t5-11.5v-22q0-7-5-12t-12-5H125V296h568v87q0 7 4.5 12t11.5 5h21q7 0 12-5t5-12V252H70zm677-32v-55q0-13-9.5-23T714 132H613v-13q0-12-6-23t-16.5-17-22.5-6-22.5 6T529 96t-6 23v13H293v-13q0-19-13-32t-31.5-13T217 87t-13 32v13H103q-14 0-23.5 10T70 165v55h677z"/></svg>