<svg xmlns="http://www.w3.org/2000/svg" viewBox="0 0 1000 1000"><path d="M958 104h-62V43q0-17-12-29T855 2h-87q-17 0-29 12t-12 29v61h-62q-17 0-29 12t-12 29v4q-81-34-169-34-116 0-217 59-97 57-154 154-58 100-58 216.5T84 761q57 98 154 155 101 58 217.5 58T672 916q97-57 154-155 59-100 59-216 0-88-34-168h4q17 0 29-12t12-29v-62h62q17 0 29-12t12-29v-88q0-17-12-29t-29-12zM644 348q29 0 49.5 20.5t20.5 49-20.5 49T644 487t-49.5-20.5-20.5-49 20.5-49T644 348zm-377 0q29 0 49.5 20.5t20.5 49-20.5 49T267 487t-49.5-20.5-20.5-49 20.5-49T267 348zm473 255q-10 70-50.5 126.5t-102 88.5-132 32-132-32-102-88.5T171 603q-2-16 8.5-27.5T206 564h499q16 0 26.5 11.5T740 603zm218-370H855v103h-87V233H665v-88h103V43h87v102h103v88z"/></svg>