<svg xmlns="http://www.w3.org/2000/svg" viewBox="0 0 1000 1000"><path d="M717 20H280q-36 0-61.5 25.5T193 107v786q0 36 25.5 61.5T280 980h437q36 0 61.5-25.5T804 893V107q0-36-25.5-61.5T717 20zm-16 815H296q-12 0-19.5-8t-7.5-19V120q0-11 7.5-19t19.5-8h405q11 0 19 8t8 19v688q0 11-8 19t-19 8zM429 613q-55 12-89 35-39 27-39 62v36q0 11 5.5 17t19.5 9l5 1q69 15 180 15 78 0 118-6 23-3 41-10h1q14-5 19.5-10.5T696 746v-36q0-35-41-62-34-23-89-35-14-3-23-14.5t-9-25.5v-4q0-12 10-20 24-17 38.5-49t14.5-63q0-43-29-72.5T498 335t-69.5 30-28.5 72q0 30 14 61.5t37 49.5q9 7 9 19v6q0 15-9 26t-22 14z"/></svg>