<svg xmlns="http://www.w3.org/2000/svg" viewBox="0 0 1000 1000"><path d="M70 252v447q0 14 9.5 23.5T103 732h236q7 0 12-4.5t5-11.5v-22q0-7-5-12t-12-5H125V296h568v76q0 7 4.5 11.5T709 388h21q7 0 12-4.5t5-11.5V252H70zm677-32v-55q0-13-9.5-23T714 132H613v-13q0-12-6-23t-16.5-17-22.5-6-22.5 6T529 96t-6 23v13H293v-13q0-19-13-32t-31.5-13T217 87t-13 32v13H103q-14 0-23.5 10T70 165v55h677zm226 520q-52 49-120.5 64.5T716 798q-67-22-135.5-6.5T460 856l-78-347q52-48 120.5-63.5T638 452q67 22 136 6.5T895 394l58 260zM528 978l-25 5q-5 2-9.5-1t-5.5-8L383 509l49-11 106 464q1 6-2 10.5t-8 5.5z"/></svg>