<svg xmlns="http://www.w3.org/2000/svg" viewBox="0 0 512 512"><path d="M256 43q-58 0-107 28.5T71.5 149 43 256t28.5 107 77.5 77.5T256 469t107-28.5 77.5-77.5T469 256t-28.5-107T363 71.5 256 43zm0 384q-46 0-85.5-23T108 341.5 85 256t23-85.5 62.5-62.5T256 85t85.5 23 62.5 62.5 23 85.5-23 85.5-62.5 62.5-85.5 23zm-21-86h42v43h-42v-43zm34-212q-31-5-58 12t-37 47q-2 10 3.5 17.5T193 213h4q7 0 12-4t7-10q6-15 19.5-23t29-4.5T290 188t9 29q-1 11-9 20-5 6-17 16-19 14-27 25v2q-4 5-6 10l-1 3q-5 13-4 27h42q0-12 6-23l1-2 6-8 1-1q3-4 7-7l10-9q18-16 25-27 11-17 8-40-4-28-24-49t-48-25z"/></svg>