<svg xmlns="http://www.w3.org/2000/svg" viewBox="0 0 1000 1000"><path d="M562 737q0 15-11.5 26.5T523 775h-46q-16 0-27.5-11.5T438 737v-40q0-16 11.5-27t27.5-11h46q16 0 27.5 11t11.5 27v40zm-10-161q0 17-10.5 28T515 615h-30q-16 0-26.5-11T448 576l-14-219q0-15 13-26.5t30-11.5h46q17 0 30 11.5t13 26.5zm-52-404q16 0 24 13l347 602q8 14 0 27.5T847 828H153q-16 0-24-13.5t0-27.5l347-602q8-13 24-13zm0-78q-28 0-52 13.5T409 146L61 748q-19 34-12 71t35.5 62 68.5 25h694q40 0 68.5-25t35.5-62-12-71L591 146q-15-25-39-38.5T500 94z"/></svg>