<svg xmlns="http://www.w3.org/2000/svg" viewBox="0 0 512 512"><path d="M256 84q49 0 89.5 25.5t63 68T427 270q-3 41-24.5 75.5t-55.5 56-75 25.5q-8 1-16 1-48 0-89-25-3-2-6.5-2t-5.5 1l-54 25q-7 3-13-2.5T86 411l24-54q3-6-1-12-29-49-23-105 3-41 25-75t56.5-55.5T242 85zm0-40q-8 0-17 1-53 4-97.5 33t-70 75.5T45 253t23 100l-19 42q-7 14-4 30t14.5 27.5T87 467t30-4l42-19q46 23 97 23h20q55-6 99.5-37t69.5-79.5 22.5-104-31.5-102-76.5-73T256 44zm91 242q9 0 17-5t11.5-13.5T377 250t-8.5-15.5T353 226t-17.5 1.5T322 239t-5 17q0 13 9 21.5t21 8.5zm-91 0q13 0 21.5-8.5T286 256t-8.5-21.5T256 226t-21.5 8.5T226 256t8.5 21.5T256 286zm-91 0q9 0 16.5-5t11-13.5 2-17.5-8-15.5T171 226t-17.5 1.5-14 11.5-5.5 17q0 13 9 21.5t22 8.5z"/></svg>