<svg xmlns="http://www.w3.org/2000/svg" viewBox="0 0 1000 1000"><path d="M500 70q-117 0-217 59-97 57-154 154-59 100-59 217t59 217q57 97 154 154 100 59 216.5 59T717 871q97-57 154-154 59-100 59-217t-59-217q-57-97-154-154-101-59-217-59zm0 774q-93 0-173-47-78-46-124-124-47-80-47-173t47-173q46-78 124-124 80-47 173-47t173 47q78 46 124 124 47 80 47 173t-47 173q-46 78-124 124-80 47-173 47zM346 513q44 39 99 52.5t110 0 99-52.5q6-5 14-4.5t13 6.5l21 22q5 6 5 14t-6 14q-57 51-129 69t-144 0-129-69q-6-6-6-14t5-14l21-22q5-6 13-6.5t14 4.5zm73-210h18q11 0 19 8t8 19v107q0 11-8 19t-19 8h-18q-11 0-18.5-8t-7.5-19V330q0-11 7.5-19t18.5-8zm144 0h18q11 0 18.5 8t7.5 19v107q0 11-7.5 19t-18.5 8h-18q-11 0-19-8t-8-19V330q0-11 8-19t19-8z"/></svg>