<svg xmlns="http://www.w3.org/2000/svg" viewBox="0 0 512 512"><path d="M166 418q5-9 12-21-11-18-28-43-1-2-2.5-3t-1.5-2 1-1q16-8 26-23-7-17-7-35-1-15 4-29-11-15-29-21t-36 0-29.5 21-11 33 10 32.5T99 348q1 0 1 1t-1.5 2-2.5 3q-22 33-33 52-5 8-5 13 0 11 19 18.5t46 7.5q18 0 35-4 0-10 8-23zm165 9q-15-25-41-65-2-2-5-4v-1.5l1-1.5q18-9 30.5-26.5T329 290q0-30-21.5-51.5T256 217t-51.5 21.5T183 290q0 21 12.5 38.5T226 355q1 1 1 1.5v1.5q-3 2-5 4-27 41-41 65-6 10-6 16 0 13 24 22.5t57 9.5 57-9.5 24-22.5q0-6-6-16zM436 83h-18v36q0 14-10.5 24.5T382 154H178v5q1 6 5.5 10t10.5 4h168l35 35q2 2 5 1t3-4l-2-32h33q7 0 12-4.5t5-11.5V99q0-6-5-11t-12-5zm-54-32H75q-6 0-11 4.5T59 66v53q0 6 5 10.5t11 4.5h34l-7 43q0 3 2.5 4.5t5.5-.5l47-47h225q7 0 11.5-4.5T398 119V66q0-6-4.5-10.5T382 51zm67 355q-11-20-33-52-1-2-2.5-3t-1.5-2 1-1q15-7 24.5-21.5t9.5-32-11-33-29-21.5-36 0-29 21q5 14 5 29-1 18-8 35 10 15 26 23 1 0 1 1t-1.5 2-2.5 3q-17 26-28 43l12 21q8 12 9 23 17 4 34 4 27 0 46-7.5t19-18.5q0-5-5-13z"/></svg>