<svg xmlns="http://www.w3.org/2000/svg" viewBox="0 0 1000 1000"><path d="M504 94q-117 0-217 58-97 57-154 155-59 100-59 216.5T133 740q57 98 154 154 100 59 217 59t217-59q97-56 154-154 59-100 59-216.5T875 307q-57-98-154-155-100-58-217-58zm130 206q24 0 42 31.5t18 76-18 76-42.5 31.5-42-31.5-17.5-76 17.5-76T634 300zm-260 0q25 0 42.5 31.5t17.5 76-17.5 76-42 31.5-42.5-31.5-18-76 18-76 42-31.5zm366 423q-24 41-49 33-12-3-14-14.5t8-30.5q-32-42-79.5-66.5t-102-24.5T401 645t-79 69q8 17 5.5 28T315 756q-26 8-50-33-13-21-12-35t13-18q15-4 34 14 38-61 86-94 55-38 118-38 66 0 121 34 50 32 87 92 15-11 27-7.5t13 17.5-12 35z"/></svg>