<svg xmlns="http://www.w3.org/2000/svg" viewBox="0 0 1000 1000"><path d="M883 298q6-13 8-32 1-13 1-27l-1-12-101 31 11-6q12-8 22-18 15-15 25-32 12-23 15.5-48.5T862 103q-3-18-10-34l-6-12-13 14q-16 16-35 32-26 21-54 37-34 20-68 29-15 5-47 7-19 2-65 4-84 4-119 9-42 6-92 27-61 26-111 65-60 47-94 110-39 73-40 163-1 82 28 156 17 42 50 95 14 22 17 29 4 13 8.5 43t8.5 40q7 18 22 18l115 2h27q34-1 69-6 49-6 92-18 55-15 98-38 50-28 82-66 28-33 44-73 13-35 18-74 4-31 2-64-1-23-5-46l-3-17-3 27q-4 34-14 66-12 45-33 81-25 44-61 72-41 31-93 49-45 15-97 21-41 4-85 3-32-2-61-6l-24-4-8-9q-11-12-22-26-15-19-28-40-17-26-30-53-15-31-24-62-11-36-13-71-3-39 4-77 7-41 27-80 41-83 122-129 76-43 164.5-42T658 302q32 21 58 56 21 29 38 65 12 25 21 52l6 22 14-4q16-5 30-13 18-11 29-25 12-16 20-40 6-18 10-38l3-16-43 4q24-31 39-67zM239 553q0 65 32 120t87 87 120 32 119.5-32 87-87T717 553t-32.5-119.5-87-87T478 314t-120 32.5-87 87T239 553z"/></svg>