<svg xmlns="http://www.w3.org/2000/svg" viewBox="0 0 1000 1000"><path d="M500 70q-117 0-217 59-97 57-154 154-59 100-59 217t59 217q57 97 154 154 100 59 217 59t217-59q97-57 154-154 59-100 59-217t-59-217q-57-97-154-154-100-59-217-59zm0 108q79 0 148 36t114.5 99.5T819 455h-69q-12 0-25.5-6.5T704 432l-86-114q-7-10-17.5-10T583 318L417 540q-7 9-17.5 9t-17.5-9l-46-61q-7-10-20.5-17t-24.5-7H181q11-78 56.5-141.5T352 214t148-36zm0 644q-79 0-148-36t-114.5-99.5T181 545h69q12 0 25.5 7t20.5 16l86 115q7 9 17.5 9t17.5-9l166-222q7-10 17.5-10t17.5 10l46 61q7 9 20.5 16t24.5 7h110q-11 78-56.5 141.5T648 786t-148 36z"/></svg>