<svg xmlns="http://www.w3.org/2000/svg" viewBox="0 0 1000 1000"><path d="M971 152L526 55q-20-5-41-2-29 6-49 28L73 471q-34 37-52.5 84.5T2 653v16q0 52 30 93.5t79 57.5l427 146q24 8 48.5 1t40.5-27l352-432q10-13 7-30-5-19-16-40-10-16-11-26.5t0-21.5q1-6 4-20l3-10q3-16-3.5-28T939 317q-13-3-23 5-8 6-19 22-8 14-10.5 39t3.5 47q4 11 10 30 4 11-4 20L583 864q-8 9-20.5 13t-24.5 0L143 753q-27-9-44-31.5T82 670v-32q-2-20 6-33t22-17.5 28-.5l392 118q7 2 14 2h1q21 0 36-17l408-478q9-10 9-23v-2q0-12-7.5-22T971 152zM424 493q-16 18-42 26.5t-47 4-24.5-20 12.5-33 42-26 47-3.5 24.5 20-12.5 32zm323-217q-24 26-56 41-36 17-106 31-44 9-64 19-14 7-43 35-8 8-19 5l-12-3q-3-1-4-4t1-5q22-24 37-35 17-14 57-34.5t59-34.5l12-8q26-17 36-28 16-17 22.5-29t4-21.5-13-17T636 178q-18-4-35 1-7 1-14.5 5t-11 8-5.5 14l-1 5q-3 11-4 15-3 8-8 13-15 16-29 20-18 6-34.5 2.5T474 245q-1-8 0-17 3-11 10-19 13-14 35-24 18-8 48-17 28-8 59.5-9t59.5 5q55 13 71 45 7 16 6 33-2 19-16 34z"/></svg>