<svg xmlns="http://www.w3.org/2000/svg" viewBox="0 0 1000 1000"><path d="M892 767q-54-54-108-107-5-5-6-11.5t2-12.5q26-53 21-112t-40-106.5-90-70T558 335q-40 6-77.5 31.5t-63.5 63-32 77.5q-10 57 11 111.5t67.5 90 104 42.5T679 734q5-3 11.5-2t10.5 6l110 110q11 11 26 15t29.5 0 25.5-14.5 15-25.5 0-30-15-26zM449 547q-1-44 22.5-81t64-54.5T619 402t74 39 39.5 74.5-9 83.5-55 63.5T587 685q-37-1-68-20t-50-50-20-68zm221 263q3-4 0-11.5t-10-5.5l-20 4q-10 2-28 2-13 1-20 2h-1q-8 0-16 10l-3 3q-8 8-18 11t-21-1L183 714q-24-7-39-27.5T129 641v-29q-3-26 13-38.5t37-6.5l132 40q11 3 20-5t6-20q-4-22-5-37 0-19 4-47 6-36 25.5-72t49.5-66 66-49 73-25q21-3 41-3 53 0 100 19t84 55l5 6q9 9 22 9t22-10l110-127q7-9 7-21v-1q0-7-2-12-6-16-22-20L523 95q-18-4-36-1-26 5-44 24L121 464q-30 33-46 75t-16 87v14q0 46 26.5 83t69.5 51l378 129q22 7 43.5 1t36.5-23l41-51q2-1 16-20zm182-338q-8 10-6 22 5 24 5 48v4q0 4 2.5 8t7 5.5 9 .5 7.5-5l48-58q9-11 6-26-4-17-14-36-9-14-10-23.5t0-18.5q1-6 4-18l2-9q3-14-3-24t-21-12q-11-2-20 4-7 6-17 20-7 12-9 33.5t3 40.5l9 27q3 9-3 17z"/></svg>