<svg xmlns="http://www.w3.org/2000/svg" viewBox="0 0 1000 1000"><path d="M767 29q-11 36-38 62.5T666.5 129t-73.5 5q-52-10-99 15t-68 73q-13-7-22.5-1.5t-10.5 18 6 24.5l179 303q-8 6-13 15-6-19-14-26-5-5-13-6t-14 4-5 14q0 6 4 19l3 12q5 21-11 43-14 18-38 31-44 24-94 28 51-40 66.5-102.5t-12.5-121-86-86.5-121-13-102.5 66-38 116T133 673t106 61q-43 40-71 89-32 58-35 116-1 6 2.5 9.5t9.5 3.5h372q5 0 9-3.5t3-9.5q-4-74-56-146 86-37 158-96 9-7 16-14l12 20q7 13 18.5 18t20.5 0 10-17.5-7-24.5l-22-38q5-12 5-25 1-22-12.5-40T638 552q-6-2-13-2l-36-61q23-47 69-70.5t97-14.5q38 7 73.5-4t62.5-37.5 38-62.5z"/></svg>