<svg xmlns="http://www.w3.org/2000/svg" viewBox="0 0 1000 1000"><path d="M323 816q11-18 25-40-22-35-55-85-3-4-7-7-1-1-.5-2t1.5-2q32-15 51-46-15-32-15-68 0-29 10-56-22-30-57.5-41.5t-71 0-57 41.5-21.5 67q0 33 19 61t49 42q1 1 1 2t-1 2q-4 3-6 7-44 65-66 102-9 15-9 25 0 21 37.5 36t89.5 15q34 0 68-8 1-20 15-45zm323 18q-28-48-81-126-3-5-8-9-1-1-1-2.5t2-2.5q37-18 60.5-52.5T642 566q0-38-19.5-70.5t-52-51.5-71-19-71 19-51.5 51.5-19 70.5q0 41 23.5 75.5T442 694q2 0 2 1.5t-1 2.5q-5 5-9 10-53 79-80 126-11 19-11 31 0 17 21 31.5t57 23 79 8.5 79-8.5 57-23 21-31.5q0-12-11-31zm206-672h-36v70q0 29-20.5 49.5T746 302H348v8q1 12 10 20t21 8h328l69 68q4 5 9.5 2.5t5.5-8.5l-4-62h65q13 0 22.5-9t9.5-23V194q0-13-9.5-22.5T852 162zM746 99H147q-13 0-22 9t-9 22v102q0 12 9 21.5t22 9.5h66l-13 83q-1 6 4.5 8.5t9.5-1.5l92-90h440q13 0 22-9t9-22V130q0-13-9-22t-22-9zm132 694q-23-39-65-102-3-4-7-7-1-1-1-2t1-2q30-14 49-42t19-61q0-37-22-67t-57-41.5-70.5 0T668 510q9 27 9 56 0 36-15 68 19 30 51 46 1 1 1.5 2t-.5 2q-4 3-7 7-34 51-55 85 14 22 25 40 14 25 15 45 34 8 68 8 52 0 89.5-15t37.5-36q0-10-9-25z"/></svg>