<svg xmlns="http://www.w3.org/2000/svg" viewBox="0 0 1000 1000"><path d="M730 908q-19-1-36-10l-176-91q-6-4-18-4t-18 4l-176 91q-19 10-37 9.5t-32.5-11T216 869t-3-37l32-186q2-12-2.5-26.5T229 597L93 466q-15-15-20-32t.5-34 20-28 35.5-14l188-27q12-2 24-11t18-20l84-168q9-19 24-29.5T500 92t33 10.5 24 29.5l84 168q6 11 18 20t24 11l188 27q21 3 35.5 14t20 28 .5 34-20 32L771 597q-9 9-13.5 23t-2.5 26l32 186q3 20-3 37t-21 28-33 11zM500 707q12 0 49 20l115 60q10 5 18.5-1t6.5-17l-29-170q-2-11 6-19l125-121q7-7 4-17t-14-11l-164-24q-8-1-16.5-7T589 386l-74-147q-4-9-15-9t-15 9l-74 147q-3 8-11.5 14t-16.5 7l-164 23q-11 2-14 12t4 17l119 115q6 6 9 15.5t2 17.5l-28 162q-2 10 6.5 16.5T336 787l116-61q36-19 48-19z"/></svg>