<svg xmlns="http://www.w3.org/2000/svg" viewBox="0 0 512 512"><path d="M300 361q-40 24-90.5 22T121 352q-5-4-6.5-10t1.5-12q12-27 38-61 15-18 29-34-27-12-40.5-38.5T135 141t29-47.5T217 75t53 18.5 29 47.5-7.5 55.5T251 235q28 30 49 62v-40q0-21 15-36t36-15h68q-3-52-31-96t-73-69.5T216 15 115.5 42 42 115.5 15 217t27 101.5 73.5 73.5T217 419q44 0 83-18v-40zm168-127l-117-1q-10 1-16.5 7.5T328 257v210q0 10 6.5 17t16.5 7h117q10 0 16.5-7t6.5-17V257q0-10-6.5-16.5T468 234zm-9 207h-99q-3 0-5-2.5t-2-4.5V281q0-3 2-5t5-2h99q3 0 5 2t2 5v153q0 3-2 5t-5 2z"/></svg>