<svg xmlns="http://www.w3.org/2000/svg" viewBox="0 0 1000 1000"><path d="M539 351h-94v-94q0-19-13.5-32.5t-33-13.5-33.5 13.5-14 32.5v94h-94q-19 0-32.5 14T211 398.5t13.5 33T257 445h94v94q0 19 14 33t33.5 14 33-14 13.5-33v-94h94q19 0 33-13.5t14-33-14-33.5-33-14zm91-185q-63-63-149-85-83-22-166 0-86 22-149 85T81 315q-22 83 0 166 22 86 85 149 55 55 127 79 71 24 145 15t137-50l235 235q21 21 50 21t49.5-20.5T930 860t-21-50L674 575q41-63 50-137t-15-145q-24-72-79-127zm-66 398q-45 45-105.5 60.5t-121 0T232 564t-60.5-105.5 0-121T232 232t105.5-60.5 121 0T564 232t60.5 105.5 0 121T564 564z"/></svg>