<svg xmlns="http://www.w3.org/2000/svg" viewBox="0 0 1000 1000"><path d="M500 165q96 0 176 50 79 49 121 131 45 85 37 181-6 80-48 147.5t-108.5 110T531 834q-15 1-31 1-93 0-173-48-6-4-12.5-4t-11.5 2l-106 48q-6 3-13 2t-12-6-6.5-12 1.5-14l48-106q6-12-1-24-28-46-40-98.5T167 469q7-80 49.5-146.5t110-108.5T473 166q14-1 27-1zm0-78q-16 0-33 1-103 9-190 65T139.5 299.5t-52 194T133 689l-37 82q-13 28-7.5 59t28 53.5 53.5 28 59-7.5l82-37q89 46 189 46 19 0 38-2 108-10 197-71 86-60 134-154 48-97 43-205t-62-200q-56-89-147-141-94-53-203-53zm178 472q25 0 42-17t17-42-17-42-42-17-42 17-17 42 17 42 42 17zm-178 0q25 0 42-17t17-42-17-42-42-17-42 17-17 42 17 42 42 17zm-178 0q18 0 33-10t22-26.5 3.5-34T364 458t-30.5-16.5-34 3.5-26.5 22-10 33q0 25 17 42t42 17z"/></svg>