<svg xmlns="http://www.w3.org/2000/svg" viewBox="0 0 512 512"><path d="M193 132h63q4 0 4 4v88q0 4-4 4h-63q-4 0-4-4v-88q0-4 4-4zm-75 15l47-7q2-1 3 0t2 3l10 61q0 4-3 5l-48 7q-4 1-5-3l-10-61q0-4 4-5zm331 266q-1-2-2-6l-3-9q0-1-1-1h-1v1q0 19-40 31.5T306 442t-95.5-12.5T171 398l-1-1q-1 0-1 1-2 3-4 9l-1 6q-2 4-5.5 8t-3.5 7q0 20 44.5 34.5t107 14.5T413 462.5t44-34.5q0-3-3.5-7t-4.5-8zm-61-140q-24-30-64-38-1-3-1-5.5t-2-3.5q7-3 9-10v-5q0-4-7-7.5t-16.5-3.5-16 3.5-6.5 7.5v5q1 7 8 10-2 1-2 3.5t-1 5.5q-40 8-65 38-19 24-25 50-3 10 3 16 14 15 55 21 24 5 49 5 9 0 12.5 4t0 8.5T306 382q-47 0-79.5-10T194 345q-2 4-6.5 8.5T181 362q-2 5-2 15v1q3 16 40 27t87.5 11 87-11 39.5-27l1-1q0-10-3-15-2-4-6-8-7-7-8-15l-1-2q-4-35-28-64zm-109 20q-7 12-17 12-4 0-7-2-11-6-2-21 3-5 8-8t10-3q3 0 5 1 5 2 5.5 8.5T279 293zm18-108q5-1 10-1 13 0 22 4 4 2 9 8l3 3q2 1 3.5.5t1.5-2.5l10-56q0-4-4-5l-47-8q-4 0-5 4l-8 48q0 2 1.5 3.5t3.5 1.5zm-98 96q5-8 11-16l4-4q1-2 0-4t-3-2q-47 0-102 2L95 123q-1-12 2.5-15t15.5-5h1q64-10 119-10 56 0 119 10h1q12 2 16 5t2 15q-4 29-10 98-1 4 3 7 13 6 23 16 1 1 3 .5t2-2.5l15-139q1-8-3-13-5-9-15.5-11T354 74q-32-4-64-6-5-13-18-22-17-11-39-11t-38 11q-14 9-19 22-32 2-64 6-24 3-34.5 5T62 90q-3 5-3 14l27 243q0 6 2.5 9t10 3 10.5-5q1-3 1-10l1-39q0-8 5.5-14t14.5-6l62-1q4 0 6-3z"/></svg>