<svg xmlns="http://www.w3.org/2000/svg" viewBox="0 0 1000 1000"><path d="M427 189q-24 0-43.5 13.5t-28.5 35-4.5 45 21 40 39.5 21 45-4.5 35-28.5 13-43.5q0-32-22.5-55T427 189zM52 536q22 23 54.5 23t55-22.5 23-55-22.5-55-55-23T52 426t-23 55 23 55zm229-27l-49 9q-7 1-9 8-9 24-27 42t-42 28q-5 2-6 8l-10 49q-1 4 1 8t6 5l197 100q8 4 14.5-1.5T360 751l-64-233q-2-5-6-7.5t-9-1.5zm676 203q-53-52-106-105-4-5-5.5-11t1.5-12q24-48 21.5-101.5t-30.5-99-75-71.5-100-26q-17 0-33 2-39 7-76 32t-62.5 61.5T460 457q-10 56 11 109.5t66 88.5 102 41.5T748 679q6-2 12-1t10 6l108 108q16 15 38.5 14.5T955 790t16.5-38.5T957 713v-1zm-294-80h-5q-37-1-68.5-20.5t-49-52-17-70 19.5-69 50.5-50T663 352h5q37 1 68.5 20.5T786 424t17.5 70-19.5 69.5-51 50-70 18.5zm104-144q-2-41-31-69-6-7-13-12-27 9-42 32.5T669.5 491t24 47 48.5 21q26-30 25-71zm-337 71q-15-54-6-108 5-32 20-61-9 2-18 2-24 0-46-10-8-3-16 2l-38 26q-4 3-6 8t0 10l90 327q2 5 6.5 8.5t10 3.5 10-3.5 6.5-8.5l31-112q-31-38-44-84zm230 36h3q14 0 27-3-18-9-31-23-19-18-29-43-2-7-9-8l-49-9q-6-1-11 3 8 35 35.5 58.5T660 595zm-148 86l-19 70q-3 8 3.5 13.5T511 766l83-42q-45-13-82-43z"/></svg>