<svg xmlns="http://www.w3.org/2000/svg" viewBox="0 0 1000 1000"><path d="M235 753h530q4 0 6.5 2.5t2.5 6.5v54q0 4-2.5 6.5T765 825H235q-4 0-6.5-2.5T226 816v-54q0-4 2.5-6.5t6.5-2.5zm631-472q-22 1-35 20t-6 40q1 6-3 10L662 494q-4 3-9 2t-7-5L527 243q-3-6 3-11 12-10 16-24.5t-1-28.5-17.5-23-27.5-9-27.5 9-17.5 23-1 28.5 16 24.5q6 4 3 11L354 491q-2 4-7 5t-9-2L178 351q-4-4-3-10 5-15-.5-29.5t-18.5-23-28.5-8-27.5 10T84 315t1.5 29.5 18.5 23 29 7.5q3 0 6 2t4 5l79 288q2 7 7 11t12 4h518q7 0 12-4t7-11l79-288q1-3 4-5t6-2q14 1 25.5-5t18.5-17.5 7-25-7.5-25-19-17.5-25.5-4z"/></svg>