<svg xmlns="http://www.w3.org/2000/svg" viewBox="0 0 512 512"><path d="M256 36q-60 0-110.5 29.5t-80 80T36 256t29.5 110.5 80 80T256 476t110.5-29.5 80-80T476 256t-29.5-110.5-80-80T256 36zm0 55q41 0 76 18.5t58.5 51T419 233h-35q-6 0-13-3.5t-11-8.5l-43-58q-4-5-9.5-5t-8.5 5l-86 113q-3 5-8.5 5t-9.5-5l-23-31q-4-5-10.5-8.5T149 233H93q5-40 28.5-72.5t58.5-51T256 91zm0 330q-41 0-76-18.5t-58.5-51T93 279h35q6 0 13 3.5t11 8.5l44 59q3 5 8.5 5t8.5-5l86-114q3-5 8.5-5t9.5 5l23 31q4 5 10.5 8.5T363 279h56q-5 40-28.5 72.5t-58.5 51-76 18.5z"/></svg>