<svg xmlns="http://www.w3.org/2000/svg" viewBox="0 0 1000 1000"><path d="M314 443h-96q-4 0-7-3t-3-7v-97q0-7-5.5-12.5T189 318h-45q-8 0-13.5 5.5T125 336v97q0 4-2.5 6.5T116 442H19q-8 0-13.5 6T0 461v46q0 8 5.5 13.5T19 526h97q4 0 6.5 2.5t2.5 6.5v97q0 8 5.5 13.5T144 651h45q8 0 13.5-5.5T208 632v-97q0-4 3-6.5t7-2.5h96q8 0 13.5-5.5T333 507v-46q0-7-5.5-12.5T314 443zm382 291q-32-54-93-144-4-6-10-11-1-1-1-3t2-2q42-21 69-59 27-41 27-88 0-44-21.5-81t-59-59-81.5-22-81.5 22-59.5 59-22 81q0 47 28 88 26 38 69 59 1 0 1.5 2t-1.5 3q-5 5-9 11-62 92-93 144-13 22-13 36 0 20 24.5 36.5t66 26.5 90.5 10 90.5-10 66-26.5T709 770q0-14-13-36zm286 0q-32-54-92-144-5-6-10-11-1-1-1-3t2-2q42-21 68-59 28-41 28-87.5T952.5 341t-67-60-88.5-15-83 34q-5 4-6.5 10.5T710 323q28 48 27 104 0 50-23 94-5 10-3 20t11 17q12 9 26 16 2 0 2 2t-1 3q-5 5-10 11l-30 45q-4 7-4.5 15t4.5 15q15 25 27 46 19 32 19 58.5T741 816q-5 7-2 14t11 8q32 5 65 5 49 0 90.5-10t65.5-26.5 24-36.5q0-14-13-36z"/></svg>