<svg xmlns="http://www.w3.org/2000/svg" viewBox="0 0 1000 1000"><path d="M843 760q10-4 16-13t6-20q0-18-13-31t-32-13h-43q-5 0-7 4.5t1 7.5l63 63q4 4 9 2zm48-452H413q-8 0-11 7.5t3 13.5l264 264q4 4 9 4h181q13 0 22.5-8t11.5-21l33-219q3-16-7.5-28.5T891 308zm-591-85q3 3 6.5 1t2.5-6l-17-88q-2-14-12-22.5T256 99h-67q-4 0-5.5 3.5t1.5 5.5zm-191-90q-5-5-12-5t-12 5l-10 10q-5 5-5 12t5 12l167 166q11 11 14 27l69 370q3 19 20 28 8 5 18 5h17q-22 25-21 58.5t25 56.5 57.5 23 58-23 25.5-56.5-22-58.5h163q7 0 10.5 5.5t.5 11.5q-10 18-10 39 1 34 25 58t58 24q20 0 38-9 8-4 15 3l44 44q5 5 12.5 5t12.5-5l9-10q5-5 5-12t-5-12zm300 550q-6 0-10.5-4t-5.5-9l-10-54q-1-8 4-14t12-5h104q2 0 4 1l75 75q2 3 .5 6.5T578 683H409z"/></svg>