<svg xmlns="http://www.w3.org/2000/svg" viewBox="0 0 1000 1000"><path d="M850 125H150q-10 0-17.5 7.5T125 150v137q0 11 7.5 18t17.5 7h700q10 0 17.5-7t7.5-18V150q0-10-7.5-17.5T850 125zM281 256q0 10-7.5 17.5T256 281h-74q-11 0-18.5-7.5T156 256v-74q0-11 7.5-18.5T182 156h74q10 0 17.5 7.5T281 182v74zm569 150H150q-10 0-17.5 7.5T125 432v136q0 11 7.5 18.5T150 594h700q10 0 17.5-7.5T875 568V432q0-11-7.5-18.5T850 406zM281 537q0 11-7.5 18t-17.5 8h-74q-11-1-18.5-8t-7.5-18v-74q0-11 7.5-18.5T182 437h74q10 0 17.5 7.5T281 463v74zm569 150H150q-10 1-17.5 8t-7.5 18v137q0 10 7.5 17.5T150 875h700q10 0 17.5-7.5T875 850V713q0-11-7.5-18.5T850 687zM281 818q0 11-7.5 18.5T256 844h-74q-11 0-18.5-7.5T156 818v-74q0-10 7.5-17.5T182 719h74q10 0 17.5 7.5T281 744v74z"/></svg>