<svg xmlns="http://www.w3.org/2000/svg" viewBox="0 0 512 512"><path d="M166 112q-8 0-14-6t-6-14V66q0-8 6-13.5t14-5.5 13.5 5.5T185 66v26q0 8-5.5 14t-13.5 6zm159 0q-8 0-13.5-6T306 92V66q0-8 5.5-13.5T325 47t14 5.5 6 13.5v26q0 8-6 14t-14 6zm-36 291l14-19q10-14 28.5-15.5T362 382l19 23q1 1 2.5 1t2.5-1l31-39q2-2 2-5V179H73v234q0 10 7 17t17 7h186q-6-19 6-34zm13-166q0-3 2.5-5t5.5-2h46q3 0 5 2t2 5v20q0 3-2 5t-5 2h-46q-3 0-5.5-2t-2.5-5v-20zm0 56q0-3 2.5-5t5.5-2h46q3 0 5 2t2 5v20q0 3-2 5.5t-5 2.5h-46q-3 0-5.5-2.5T302 313v-20zm-112 76q0 3-2.5 5t-5.5 2h-45q-3 0-5.5-2t-2.5-5v-20q0-3 2.5-5.5t5.5-2.5h45q3 0 5.5 2.5t2.5 5.5v20zm0-56q0 3-2.5 5.5T182 321h-45q-3 0-5.5-2.5T129 313v-20q0-3 2.5-5t5.5-2h45q3 0 5.5 2t2.5 5v20zm0-56q0 3-2.5 5t-5.5 2h-45q-3 0-5.5-2t-2.5-5v-20q0-3 2.5-5t5.5-2h45q3 0 5.5 2t2.5 5v20zm86 112q0 3-2 5t-5 2h-46q-3 0-5-2t-2-5v-20q0-3 2-5.5t5-2.5h46q3 0 5 2.5t2 5.5v20zm0-56q0 3-2 5.5t-5 2.5h-46q-3 0-5-2.5t-2-5.5v-20q0-3 2-5t5-2h46q3 0 5 2t2 5v20zm0-56q0 3-2 5t-5 2h-46q-3 0-5-2t-2-5v-20q0-3 2-5t5-2h46q3 0 5 2t2 5v20zm104 239l-68-65q-2-2-2.5-5t1.5-5l17-22q2-2 5.5-2.5t5.5 2.5l43 53h3l77-95q2-3 6-2.5t6 3.5l17 26q3 5-1 9L390 496q-2 2-5 2t-5-2zm9-418h-29v14q0 14-10 24.5T325.5 127t-25-10.5T290 91V78h-90v14q0 14-10 24.5T166 127t-24.5-10.5T131 91V78h-28q-12 0-21 8.5T73 108v45q0 3 3 3h340q3 0 3-3v-45q0-13-8.5-21.5T389 78z"/></svg>