<svg xmlns="http://www.w3.org/2000/svg" viewBox="0 0 512 512"><path d="M222 42v-1q0-16-13.5-23.5t-27 0T168 41v1h-50q-2 0-3.5 1.5T113 47v40q0 4 2.5 6.5T122 96h147q3 0 5.5-2.5T277 87V47q0-2-1-3.5t-4-1.5h-50zm176 140v63q0 2 1.5 3.5t3.5 1.5h63zm-8 97q-9 0-15-6t-6-14v-72q0-2-1-3.5t-4-1.5H232q-7 0-12.5 5.5T214 200v89q-15-2-29-7v-82q0-19 14-33t33-14h113q2 0 3.5-1.5t1.5-3.5V70q0-12-8-20t-20-8h-11q-2 0-3.5 1.5T306 47v40q0 16-11 27t-26 11H122q-16 0-27-11T84 87V47q0-2-1.5-3.5T79 42H68q-11 0-19.5 8T40 70v316q0 11 8.5 19.5T68 414h112q2 0 3.5-1.5t1.5-3.5v-18q14 7 29 12v60q0 7 5.5 12.5T232 481h221q8 0 13.5-5.5T472 463V284q0-2-1.5-3.5T467 279h-77zm-264 50q-21-24-34-55.5T79 211q0-10 6.5-11.5T95 208q17 49 59 74 27 17 60 22 20 2 40 0v-39q0-6 4-8t10 1l84 86q2 2 2 5.5t-2 5.5l-83 84q-4 5-9.5 3.5T254 434v-36q-20-4-40-11-52-19-88-58zm285 110H290l29-30h92q2 0 3.5 1.5t1.5 3.5v20q0 2-1.5 3.5T411 439zm0-52h-70l14-15q9-8 12-15h44q2 0 3.5 1.5t1.5 3.5v20q0 2-1.5 3.5T411 387zm0-52h-48q-4-5-8-8l-22-22h78q2 0 3.5 1.5t1.5 3.5v20q0 5-5 5z"/></svg>