<svg xmlns="http://www.w3.org/2000/svg" viewBox="0 0 512 512"><path d="M504 314L404 212q-2-2-4.5-1t-2.5 4v48q-46 8-83 27-42 22-73 57t-44 77q-7 21-8 42-1 12-1 24 1 2 3 2.5t3-1.5q8-30 26-55 23-30 54.5-48t65.5-23q29-4 57 1v52q0 3 2.5 4t4.5-1l100-102q1-1 1-2.5t-1-2.5zM36 129v229q0 7 4.5 12t11.5 5h127q3 0 5.5-2.5t2.5-6.5v-11q0-3-2.5-5.5T179 347H64V151h291v45q0 4 2.5 6.5t5.5 2.5h11q3 0 5.5-2.5t2.5-6.5v-67H36zm346-16V85q0-7-4.5-12T366 68h-52v-7q0-14-11.5-20.5t-23 0T268 61v7H150v-7q0-10-6.5-16.5t-16-6.5-16.5 6.5-7 16.5v7H52q-7 0-11.5 5T36 85v28h346z"/></svg>