<svg xmlns="http://www.w3.org/2000/svg" viewBox="0 0 1000 1000"><path d="M47 43h553q10 0 16.5 7t6.5 16v29q0 9-6.5 16t-16.5 7H47q-10 0-17-7t-7-16V66q0-9 7-16t17-7zm0 139h553q10 0 16.5 7t6.5 17v28q0 10-6.5 16.5T600 257H47q-10 0-17-6.5T23 234v-28q0-10 7-17t17-7zm0 140h340q9 0 16 6.5t7 16.5v28q0 10-7 17t-16 7H47q-10 0-17-7t-7-17v-28q0-10 7-16.5t17-6.5zm641 53q-82 0-152 42-68 40-108 108-41 70-41 152t41 152q40 68 108 108 70 41 152 41t152-41q68-40 108-108 41-70 41-152t-41-152q-40-68-108-108-70-42-152-42zm0 76q56 0 104 25.5t80 69.5 40 100h-49q-8 0-17.5-5T831 629l-60-80q-5-7-12.5-7t-12.5 7L630 704q-5 7-12.5 7t-12.5-7l-32-42q-5-7-14.5-11.5T541 646h-77q8-56 39.5-100t80-69.5T688 451zm0 452q-56 0-104-25.5t-80-70-40-99.5h49q8 0 17.5 5t14.5 12l60 80q5 7 12.5 7t12.5-7l116-156q5-6 12.5-6t12.5 6l32 43q5 7 14.5 11.5T835 708h77q-8 55-40 99.5t-80 70T688 903zm-556 55q13 1 22-8.5t9-21.5l1-441q0-5-3-10t-9-7-11.5-.5-9.5 6.5L21 610q-8 9-3 19.5T35 640h67v288q0 12 9 21t21 9zm116-489q-13 0-22 9t-9 21l-1 441q0 6 3.5 10.5t9 6.5 11.5.5 9-5.5l111-135q7-9 2-19.5T345 787h-66V499q0-12-9-21t-22-9z"/></svg>