<svg xmlns="http://www.w3.org/2000/svg" viewBox="0 0 1000 1000"><path d="M743 85H257q-48 0-89 24t-65 65-24 89v376q0 48 24 89.5t65 65.5 89 24h133l110 121 110-121h133q48 0 89-24t65-65.5 24-89.5V263q0-48-24-89t-65-65-89-24zM268 650q18-18 35-37l-2-3q-28-34-44-66-22-46-22-94.5t22-94.5q16-32 44-66l2-3-35-37q-4-5-1.5-11t9.5-6l140 4q4 1 6.5 3.5t2.5 7.5l-5 142q0 6-6 8.5t-10-2.5l-35-38q-39 49-39 92.5t39 93.5l35-39q4-5 10-2.5t6 9.5l5 142q0 4-2.5 7t-6.5 3l-140 4q-7 0-9.5-6t1.5-11zm431-40l-2 3 35 37q4 5 1.5 11t-9.5 6l-140-4q-4 0-6.5-3t-2.5-7l5-142q0-7 6-9.5t10 2.5l35 39q39-50 39-93.5T631 357l-35 38q-4 5-10 2.5t-6-8.5l-5-142q0-4 2.5-7t6.5-4q70-2 140-3 7-1 9.5 5t-1.5 11l-35 37 2 3q28 34 44 66 22 47 22 95t-22 94q-16 32-44 66z"/></svg>