<svg xmlns="http://www.w3.org/2000/svg" viewBox="0 0 512 512"><path d="M24 22h283q5 0 8.5 3.5T319 34v14q0 5-3.5 8.5T307 60H24q-5 0-8.5-3.5T12 48V34q0-5 3.5-8.5T24 22zm0 71h283q5 0 8.5 3.5t3.5 8.5v15q0 5-3.5 8.5T307 132H24q-5 0-8.5-3.5T12 120v-15q0-5 3.5-8.5T24 93zm0 72h184q5 0 8.5 3.5t3.5 8.5v14q0 5-3.5 8.5T208 203H24q-5 0-8.5-3.5T12 191v-14q0-5 3.5-8.5T24 165zm0 71h78q5 0 8.5 3.5t3.5 8.5v14q0 5-3.5 8.5T102 274H24q-5 0-8.5-3.5T12 262v-14q0-5 3.5-8.5T24 236zm296 198l-77 40q-11 6-20.5-1t-7.5-19l15-86q2-9-5-16l-63-61q-8-8-4.5-19.5T173 258l86-12q10-1 14-10l39-78q5-11 16.5-11t17.5 11l38 78q5 9 14 10l87 12q11 2 14.5 13.5T495 291l-62 61q-7 7-6 16l15 86q2 12-7.5 19t-20.5 1l-77-40q-8-5-17 0z"/></svg>