<svg xmlns="http://www.w3.org/2000/svg" viewBox="0 0 512 512"><path d="M272 319h-45q9-23 26-39.5t40-23.5q28-9 56.5-1.5T398 284q3 2 6 2t5-2l14-12q2-2 2.5-6t-2.5-6q-27-30-64.5-40t-75.5 2q-33 11-57.5 36.5T191 319h-48q-1 0-2 1.5t0 3.5l65 73q0 1 1 1t2-1l65-73q1-1 .5-3t-2.5-2zm231 74l-64-74q-1-1-2-1t-2 1l-64 73q-2 1-1 3t2 2h45q-9 23-26 39.5T351 460q-28 9-56 1.5T246 433q-2-3-5.5-3t-5.5 2l-13 12q-3 3-3 6.5t2 6.5q20 21 46 32.5t54 11.5q20 0 40-7 34-10 58-36t34-61h48q2 0 2.5-1.5t-.5-2.5zM36 129v229q0 7 4.5 12t11.5 5h66q3 0 5.5-2.5t2.5-6.5v-11q0-3-2.5-5.5T118 347H64V151h291v29q0 4 2.5 6.5t5.5 2.5h11q3 0 5.5-2.5t2.5-6.5v-51H36zm346-16V85q0-7-4.5-12T366 68h-52v-7q0-14-11.5-20.5t-23 0T268 61v7H150v-7q0-10-6.5-16.5t-16-6.5-16.5 6.5-7 16.5v7H52q-7 0-11.5 5T36 85v28h346z"/></svg>