<svg xmlns="http://www.w3.org/2000/svg" viewBox="0 0 512 512"><path d="M342 210q0-10-7-17t-16.5-8.5-18 3.5-12 14.5 0 18.5 12 14 18 4 17-9 6.5-20zm-143-26q-9 0-16 4.5t-10.5 12-2 16T178 231t14.5 7.5 16-2 12-10.5 4-16.5-8-17T199 184zm57-148q-60 0-110.5 29.5t-80 80T36 256t29.5 110.5 80 80T256 476t110.5-29.5 80-80T476 256t-29.5-110.5-80-80T256 36zm0 399q-49 0-90-24t-65-65-24-90 24-90 65-65 90-24 90 24 65 65 24 90-24 90-65 65-90 24zm77-144q-4 0-7 2v-1l-1 1q-7 5-20 10-24 10-49 10t-49-10q-13-5-20-10l-1-1v1q-3-2-7.5-1.5T171 295t-3 7.5 2 8 6 5.5l6 2q34 20 74 20t74-20l6-2q4-2 6-5.5t2-8-3-7.5-8-4z"/></svg>