<svg xmlns="http://www.w3.org/2000/svg" viewBox="0 0 512 512"><path d="M120 385h272q2 0 3.5 1.5t1.5 3.5v28q0 2-1.5 3.5T392 423H120q-2 0-3.5-1.5T115 418v-28q0-2 1.5-3.5t3.5-1.5zm324-241q-12 1-18.5 10.5T422 175q1 3-1 5l-82 73q-2 2-4.5 1.5T331 251l-61-126q-2-4 1-6 6-5 8.5-12.5t-.5-15-9-12-14-4.5-14 4.5-8.5 12-.5 15 8 12.5q3 2 1 6l-61 126q-1 2-3.5 2.5t-4.5-.5l-82-73q-2-2-1-5 2-8-.5-15.5t-9.5-12-15-4-14 5.5-8 12.5 1 15 9.5 12T68 192q4 0 5 4l41 147q1 8 9 8h266q8 0 9-8l41-147q1-4 5-4 7 1 13-2.5t9.5-9.5 3.5-12.5-3.5-12.5-10-9-12.5-2z"/></svg>