<svg xmlns="http://www.w3.org/2000/svg" viewBox="0 0 512 512"><path d="M332 503q-47 0-86.5-23T183 417.5t-23-86 23-86 62.5-62.5 86-23 86 23 63 62.5 23.5 86-23.5 86-63 62.5-85.5 23zm-68-69q31 21 68 21 33 0 61.5-17t45-45 16.5-62q0-37-21-68zm68-226q-34 0-62 17t-44.5 45-16.5 61q0 38 20 68l171-170q-31-21-68-21zM24 22h283q5 0 8.5 3.5T319 34v14q0 5-3.5 8.5T307 60H24q-5 0-8.5-3.5T12 48V34q0-5 3.5-8.5T24 22zm0 71h283q5 0 8.5 3.5t3.5 8.5v15q0 5-3.5 8.5T307 132H24q-5 0-8.5-3.5T12 120v-15q0-5 3.5-8.5T24 93zm0 72h126q5 0 8.5 3.5t3.5 8.5v14q0 5-3.5 8.5T150 203H24q-5 0-8.5-3.5T12 191v-14q0-5 3.5-8.5T24 165zm0 71h78q5 0 8.5 3.5t3.5 8.5v14q0 5-3.5 8.5T102 274H24q-5 0-8.5-3.5T12 262v-14q0-5 3.5-8.5T24 236z"/></svg>