<svg xmlns="http://www.w3.org/2000/svg" viewBox="0 0 1000 1000"><path d="M572 659l-4-41q0-6-6-9t-12 0q-31 18-65 29-8 2-8 10.5t8 10.5l42 13q6 2 12 2 20 0 33-15zm-10 185q1-7-4.5-12.5t-12-5.5-11.5-1L184 714q-25-7-40-27.5T129 641l1-29q-3-26 13-38.5t36-6.5l95 29q9 3 15.5-4.5T292 576q-6-17-10-34-12-63 23-117 29-43 97-92 45-32 100-30.5t97 36.5q21 16 35 38 6 9 16.5 9t16.5-9q15-22 35-38 45-36 102-36 32 0 61 12l69-80q8-9 8-21v-1q0-6-2-12-6-16-23-20L523 95q-18-4-36-1-26 5-44 24L121 465q-30 33-46.5 74.5T58 626v14q0 46 27 83t70 51l379 130q9 2 17-3.5t9-15.5zm173-229l-2 2q-3 4-3 9l-5 47 2 25q0 11 10 14t17-5l44-54q5-6 3-13.5t-9-10.5q-19-8-37-18-5-3-10.5-2t-9.5 6zm137-243q-37-26-79-22-37 4-65.5 28.5T693 435q-2 9-1 18h-1l-32 30q-5 5-12.5 4.5T633 482l-23-26h-1q1-11-1-21-6-32-34.5-56.5T508 350q-42-4-79 22-61 43-84 79-25 38-17 83 19 97 143 59 32-10 59-27t46-38q4-5 10-6t12 1q9 5 10 15l10 110q2 19 0 38l-10 154q-1 6 2 10.5t8 7.5l21 9q7 4 14 1t10-10l7-16q2-4 2-9l-8-142q-2-32 6-62l19-83q2-8 10-12l11-5q5-2 10.5-1t9.5 5q40 42 100 60 63 19 102 1 37-16 46-64 8-43-19-81-23-33-87-77z"/></svg>