<svg xmlns="http://www.w3.org/2000/svg" viewBox="0 0 1000 1000"><path d="M500 105q33 0 69 1l3-60q-39-17-72-17t-72 17l3 60q38-1 69-1zm-41 640q6 129 9 218h64l9-218-41-1zm412-205q24-99 35-189 13-102 5-164l-25-6q-32-7-75-13-58-8-127-13-87-6-184-6-169 0-300 17-71 10-109 21l-3 10q-4 40 0 95 8 28 30 36 8 4 23 3 9 0 34-4h1q15-2 45-4l26-1q12-1 13 8 1 5-2 9t-8 5q-80 13-123 33-13 6-19 18.5t-4 25.5q13 72 31 142 18 13 40 16 8 1 11 8t-2 14q-23 29-18 65 8 22 14 36l8 19 47-5q265-31 530 0l47 5 8-19q17-41 29-84 1-5-2-10-11-26-76-40-23-5-30-8.5t-6-9 18-7.5q31-5 118-3zm-324-20q0 6-3.5 9.5T534 533q-103-1-206 7-5 1-9-2.5t-5-8.5l-1-14q0-5 3-9t9-5q104-8 210-7 5 0 9 4t4 9zm165-98l-1 13q-1 6-5 9t-9 3q-204-19-407 1-5 1-9.5-2.5T276 437l-2-13q0-6 3-10t9-5q207-20 414-1 6 1 9.5 5t2.5 9zm22-78q-1 5-5 8.5t-10 2.5q-196-19-392-4-5 0-9.5-3t-5.5-9l-1-13q0-6 3.5-10t9.5-4q200-15 399 4 6 1 9.5 5t3.5 9z"/></svg>