<svg xmlns="http://www.w3.org/2000/svg" viewBox="0 0 1000 1000"><path d="M891 308H340q-6 0-10.5-4t-5.5-10l-32-164q-2-14-12-22.5T256 99H110q-15 0-25.5 10.5T74 135v5q0 15 10.5 26t25.5 11h102q4 0 7 2.5t4 6.5l102 544q3 19 20 28 8 5 18 5h17q-22 25-21 58.5t25 56.5 57.5 23 58-23 25.5-56.5-22-58.5h186q-23 25-21.5 58.5T693 878t57.5 23 57.5-23 25-56.5-21-58.5h17q15 0 25.5-10.5T865 727v-8q0-15-11-25.5T828 683H409q-6 0-10.5-4t-5.5-9l-10-54q-1-8 4-14t12-5h460q13 0 22.5-8t11.5-21l33-219q3-16-7.5-28.5T891 308z"/></svg>