<svg xmlns="http://www.w3.org/2000/svg" viewBox="0 0 1000 1000"><path d="M794 795l-24 7q-4 2-7.5-.5T759 794v-2q-1-19 0-25.5t5-22.5q9-36 12-60 4-43-4-85 17-41 25-93 9-56 1-95-9-46-38-57-42-15-101 22-35 23-68 59-20-5-41-8-8-1-14-7t-7-15q-2-30-10-59-2-8 1-15.5t9-12.5q35-26 53.5-64.5T600 171q-1-46-24.5-84.5t-62.5-62T428 0q-36-1-69.5 12.5T299 52t-39 59.5-12 69.5q1 42 23 79.5t57.5 62T405 352q27 2 53-3 6-1 11 2t7 9q5 20 7 40 1 10-4.5 17.5T463 426q-24 3-48 9-12-13-48-29-39-18-78-25-47-8-77 3-28 11-29 47-2 29 15 78 9 28 32 83l4 9q-8 41-3 83 2 24 11 60 4 16 5 21 1 14 1 28 0 5-4.5 8t-9.5 1l-23-7q-8-3-15 2t-7.5 13.5T195 825l53 30q5 4 7 10 1 4-1 7t-6 3l-27 2q-8 1-12.5 7t-3.5 13.5 8 11.5q3 2 6 3l55 7q8 1 12 7 22 31 77 50 39 14 91 20 34 4 49.5 4t48.5-4q52-6 92-20 54-19 77-50 4-6 12-7l53-7q4-1 7-3 7-4 8-11.5t-3.5-13.5-12.5-7l-27-2q-4 0-6-3t-1-7q2-7 9-11l51-29q7-6 6.5-14.5T810 797t-16-2zM243 467q6-9 33-4.5t45 15.5q20 12 9 22-9 9-27 30-15 19-24 28-5 5-12.5 3t-8.5-9q-3-11-9-31-7-23-9-32-2-16 3-22zm172 383q-21-25-48-42-18-12-64-30l-12-6q-7-3-8.5-9t4.5-9.5 18.5-1T338 762q29 10 49 21.5t37 28.5q14 13 18.5 21t.5 15.5-12.5 8.5-15.5-7zm122 60q-2 24-21 36-6 4-13 4t-13-4q-19-12-21.5-36.5T488 867q7-5 15-5t15 5q22 19 19 43zm214-457q7 10 5 41-2 26-10 58-1 7-8.5 9t-12.5-3q-9-9-24-28-18-21-27-29-12-11 6-27 15-14 39.5-21.5t31.5.5zM563 832q4-7 18-20 18-17 37.5-28.5T668 762q19-7 31.5-9.5t18.5 1 4.5 9.5-7.5 10l-13 5q-46 18-63 30-27 17-48 42-7 8-16 7t-13-8.5 1-16.5z"/></svg>