<svg xmlns="http://www.w3.org/2000/svg" viewBox="0 0 1000 1000"><path d="M859 201v498q0 44-21.5 80.5t-58 58T699 859H201q0 22 15.5 37.5T254 912h471q51 0 94-25t68-68 25-94V254q0-22-15.5-37.5T859 201zM677 91H216q-34 0-63 16.5T107.5 153 91 216v461q0 33 16.5 62t45.5 46 63 17h461q33 0 62-17t46-46 17-62V216q0-34-17-63t-46-45.5T677 91zm48 564q0 29-20.5 49.5T655 725H237q-29 0-49.5-20.5T167 655V237q0-29 20.5-49.5T237 167h418q29 0 49.5 20.5T725 237v418zM279 471q-1 13-11.5 17t-20.5-1.5-10-18.5V302q0-27 19-46t46-19h273q12 0 17.5 10t1.5 20.5-17 11.5l-119 16q-70 9-119.5 58T279 471z"/></svg>