<svg xmlns="http://www.w3.org/2000/svg" viewBox="0 0 1000 1000"><path d="M199 251L383 67v591L199 472H52V251h147zm350 111q0-48-25.5-87.5T457 213v298q41-22 66.5-61.5T549 362zm60 140q15-26 40.5-42t54.5-18q10-40 10-80 0-77-33-145.5T589 102 457 38v76q80 25 132 93t52 155-52 155-132 93v76q29-7 57-19zm297 455H521q-17 0-31-8t-22.5-22.5-8.5-31 8-30.5l193-334q8-14 22.5-22.5t31-8.5 31 8.5T767 531l193 334q8 14 8 30.5t-8.5 31T937 949t-31 8zM755 855q-1-10-8.5-17.5T728 830h-29q-11 0-18.5 7.5T672 855v26q1 11 8.5 18.5T699 907h29q11 0 18.5-7.5T755 881v-26zm2-224q0-11-8.5-18.5T729 605h-31q-11 0-19.5 7.5T670 631l9 145q0 10 7 17.5t17 7.5h20q11 0 18-7.5t7-17.5z"/></svg>