<svg xmlns="http://www.w3.org/2000/svg" viewBox="0 0 1000 1000"><path d="M949 407q-66-16-113-40-76-40-76-91 0-15-11-24t-25-8q-64 9-134-67-45-48-81-116-3-5-9-5t-9 5q-37 68-81 116-71 76-135 67-14-1-24.5 8T240 276q1 51-76 91-47 24-113 40-5 1-7 6.5t2 9.5q47 55 76 109 48 88 31 140-4 12 1 23.5t16 16.5q38 17 54 90 11 46 11 104 0 6 5 8.5t9 .5q58-26 109-34 82-12 117 32 10 12 25 12t25-12q36-45 117-33 51 8 108 35 5 2 10-1t5-8q0-58 11-104 16-74 54-90 11-4 16-15.5t1-22.5q-18-53 30-141 30-54 77-110 4-4 2-9.5t-7-6.5zm-210 75l-11 15q-35 44-53 97t-17 108v10q0 8-6 14t-14 6q-3 0-6-1l-22-7q-54-15-110-15t-110 15l-22 7q-3 1-6 1-8 0-14-6t-6-14v-10q1-55-17-108t-53-97l-11-15q-7-8-3-17t14-12q64-16 117.5-51.5T480 315l3-4q6-8 17-8t17 8l3 4q37 51 90.5 86.5T728 453q10 3 14 12t-3 17z"/></svg>