<svg xmlns="http://www.w3.org/2000/svg" viewBox="0 0 1000 1000"><path d="M47 43h553q10 0 16.5 7t6.5 16v29q0 9-6.5 16t-16.5 7H47q-10 0-17-7t-7-16V66q0-9 7-16t17-7zm0 139h553q10 0 16.5 7t6.5 17v28q0 10-6.5 16.5T600 257H47q-10 0-17-6.5T23 234v-28q0-10 7-17t17-7zm0 140h359q10 0 17 6.5t7 16.5v28q0 10-7 17t-17 7H47q-10 0-17-7t-7-17v-28q0-10 7-16.5t17-6.5zm0 139h153q10 0 16.5 7t6.5 16v29q0 9-6.5 16t-16.5 7H47q-10 0-17-7t-7-16v-29q0-9 7-16t17-7zm578 386l-151 79q-9 5-19.5 4t-19-7-12.5-16-3-20l29-168q4-19-10-32L317 568q-8-7-10.5-17.5t1-20.5 11.5-17 18-8l169-25q19-2 27-20l76-152q4-10 13-15.5t19.5-5.5 19.5 5.5 14 15.5l75 152q9 18 28 20l168 25q11 1 19 8t11 17 .5 20.5T967 568L845 687q-14 13-10 32l28 168q2 10-2 20t-12.5 16-19 7-20.5-4l-150-79q-17-9-34 0z"/></svg>