<svg xmlns="http://www.w3.org/2000/svg" viewBox="0 0 1000 1000"><path d="M377 258h122q4 0 6 2t2 6v171q0 4-2 6t-6 2H377q-3 0-5.5-2t-2.5-6V266q0-4 2.5-6t5.5-2zm-147 30l93-15q3-1 5.5 1t2.5 5l20 120q0 3-1.5 5.5T345 408l-93 15q-4 0-6.5-1.5T243 417l-19-121q-1-3 1-5.5t5-2.5zm646 519l-3-12q-3-12-6-18-1-2-2-2t-1.5 1-.5 2q0 23-36 43t-96.5 31.5T598 864t-132.5-11.5T369 821t-36-43q0-1-.5-2t-1.5-1-2 2q-3 6-6 18l-3 12q-3 7-10 14.5t-7 14.5q0 26 40 48t107.5 35T598 932t147.5-13T853 884t40-48q0-7-7-14.5T876 807zM759 534q-26-31-62-51-30-17-64-24-2-6-2-11 0-4-3-6 9-5 13-13 3-6 3-12v-5q0-9-13.5-15t-31.5-6-31.5 6-13.5 15v5q0 7 3 12 4 8 13 13-3 2-3 6.5t-2 10.5q-34 6-65 23-37 20-63 52-37 46-49 96-2 7-1 14 1 11 8 17 27 30 106 43 49 8 97 8 18 0 25 8.5t0 17.5-25 9q-93 0-154-20-64-20-65-53-3 8-12 17t-13 16q-5 11-5 29l1 1q4 21 38 38.5t89.5 27.5T598 813t120.5-10 89.5-27.5 38-38.5l1-1q0-18-5-29-4-7-12-16-7-6-10-11-5-8-6-19l-1-3q-3-27-11-48-14-39-43-76zm-214 38q-5 9-13 16-10 8-20 8-8 0-14-4-11-7-11-18t7-23q5-9 15.5-15.5T530 529q5 0 10 2 9 5 10 17.5t-5 23.5zm36-211q9-2 19-2 24 0 42 9 8 4 18 15 4 5 6 6l1 1q3 1 6 0t3-4l18-112q1-3-1-5.5t-5-2.5l-93-15q-3-1-5.5 1t-2.5 5l-16 95q0 4 3 7t7 2zM388 548q10-15 22-29l8-10q3-3 1-7.5t-7-4.5q-58 1-135 3l-65 2-11-119q-12-123-15-144-2-15 1-22.5t12-11.5q5-2 22-4h2q124-19 232-19h1q108 0 232 19h2q17 2 22 4 9 4 12 11t1 23q-7 57-20 192-1 9 7 14 24 13 44 31 3 3 6 1.5t4-4.5l28-257 1-8q1-10 0-19-3-12-11-21-9-10-27-14t-66-10q-62-8-124-12-11-25-37-42-32-22-75-22t-75 22q-26 17-36 42-63 5-125 12-48 6-65.5 10T126 168q-7 9-10 21-2 9-1 19l2 8 24 225q24 227 25 233l1 4q2 11 5 15 6 8 20.5 8t19.5-10q3-6 3-18l1-77q0-16 11.5-27.5T255 557l122-3q7 0 11-6z"/></svg>