<svg xmlns="http://www.w3.org/2000/svg" viewBox="0 0 512 512"><path d="M431 389q6-2 9-6.5t3-10.5q0-9-7-15.5t-16-7.5h-22q-3 1-4 3t1 4l32 32q2 2 4 1zm25-232H212q-5 0-6.5 4t1.5 7l136 136q1 1 4 1h93q6 1 11-3.5t6-10.5l17-112q2-9-3.5-15.5T456 158v-1zm-303-43q2 2 4 1t1-3l-8-46q-1-6-6.5-11T131 51H97q-2 0-3 1.5t1 3.5zM56 68q-3-3-6.5-3T44 68l-5 5q-3 3-3 6.5t3 5.5l85 86q5 5 7 13l35 190q2 9 11 14 4 2 9 2h9q-12 13-11.5 30.5t13 29T226 461t29.5-11.5 13-29T258 390h83q3 0 5 3t0 6q-4 10-4 20 0 18 12.5 30t29.5 13q10 0 19-5 5-2 8 1l23 23q2 2 6 2t6-2l5-5q3-3 3-6.5t-3-6.5zm153 281q-6 1-8-6l-5-28q-1-3 2-6.5t7-3.5h52q2 0 2 1l39 39q1 1 .5 2.5T296 349h-87z"/></svg>