<svg xmlns="http://www.w3.org/2000/svg" viewBox="0 0 1000 1000"><path d="M920 100q-111-26-210-1-7 2-13 7.5t-8 13.5 0 15.5 7 13.5h1q5 6 13 8t16 0q72-20 154-2v473q-100-10-199 18t-181 87q-82-59-181-87t-199-18V155q82-18 154 2 8 2 16 0t13-8h1q5-6 7-13.5t0-15.5-8-13.5-13-7.5q-99-25-210 1-8 2-13 8t-5 14v665q0 10 7.5 17t17.5 6q79-10 141-1 66 9 127 40t129 89q7 5 16 5t16-5q68-58 129-89t127-40q62-9 141 1 10 1 17.5-6t7.5-17V122q0-8-5-14t-13-8zm-40 649q-101-11-202 24-97 33-178 103-81-70-178-103-101-35-202-24v-73q100-9 188 16.5T486 782q6 4 14 4t14-4q90-64 178-89.5T880 676v73zM754 281L543 68q-18-17-43-17t-43 17L246 281q-17 18-17 43t17 42l160 161q6 6 13 3t7-11v-83q0-5-3-9l-87-88q-6-6-6-15t6-16l148-149q7-7 16-7t16 7l148 149q6 6 6 15.5t-6 15.5l-66 66q-4 4-8.5 4t-8.5-4l-70-70q-3-3-7-1.5t-4 6.5v265q0 5 4 6.5t7-1.5l243-244q17-17 17-42t-17-43z"/></svg>