<svg xmlns="http://www.w3.org/2000/svg" viewBox="0 0 512 512"><path d="M102 128l94-94v303l-94-95H26V128h76zm179 57q0-24-13-44.5T234 109v152q21-11 34-31t13-45zm31 72q8-13 20.5-21.5T361 226q4-20 4-41 1-39-16-74t-47.5-58.5T234 20v39q41 12 67.5 47t26.5 79.5-26.5 79.5-67.5 47v39q15-3 29-10zm152 233H267q-9 0-16-4t-11.5-11.5-4.5-16 4-15.5l99-171q4-8 11.5-12t16-4 15.5 4 12 12l98 171q5 7 5 15.5t-4.5 16-12 11.5-15.5 4zm-78-52q0-5-4-9t-9-4h-15q-6 0-10 4t-4 9v13q0 6 4 9.5t10 3.5h15q5 0 9-3.5t4-9.5v-13zm2-115q0-5-4.5-9t-10.5-4h-16q-5 0-9.5 4t-4.5 9l5 74q0 6 3.5 9.5t8.5 3.5h10q6 0 9.5-3.5t3.5-9.5z"/></svg>