<svg xmlns="http://www.w3.org/2000/svg" viewBox="0 0 1000 1000"><path d="M623 66v29q0 9-6.5 16t-16.5 7H47q-10 0-17-7t-7-16V66q0-9 7-16t17-7h553q10 0 16.5 7t6.5 16zm-23 116H47q-10 0-17 7t-7 17v28q0 10 7 16.5t17 6.5h553q10 0 16.5-6.5T623 234v-28q0-10-6.5-17t-16.5-7zM293 322H47q-10 0-17 6.5T23 345v28q0 10 7 17t17 7h246q10 0 16.5-7t6.5-17v-28q0-10-6.5-16.5T293 322zm-93 139H47q-10 0-17 7t-7 16v28q0 10 7 17t17 7h153q10 0 16.5-7t6.5-17v-28q0-9-6.5-16t-16.5-7zm770 186q0 97-54 178T772.5 943t-185 18-164-87.5T336 710t18-185 118-144 178-54q87 0 161 44 73 43 115 115 44 75 44 161zm-232-94q0 16 9 29t23.5 19 30 3 26.5-14.5 14-27-3-30-19-23-29-8.5q-21 0-36.5 15T738 553zm-281 0q0 16 9 29t23.5 19 30 3 26.5-14.5 14-27-3-30-19-23-29-8.5q-21 0-36.5 15T457 553zm379 109H464q-12 0-19.5 8.5T438 691q7 52 37 94t76 66 98.5 24 98.5-24 76-66 38-94q1-12-7-20.5t-19-8.5z"/></svg>