<svg xmlns="http://www.w3.org/2000/svg" viewBox="0 0 1000 1000"><path d="M500 81q-116 0-215 58-96 56-152 152-58 100-58 215.5T133 721q56 96 152 152 99 58 215 58t215-58q96-56 152-152 58-99 58-214.5T867 291q-56-96-152-152-99-58-215-58zm-81 462q-38-29-63-81-23-50-23-99 0-45 22.5-83.5t61-61T500 196t83.5 22.5 61 61T667 363q0 50-25 102-25 53-65 81-17 12-17 33v5q0 24 15 42.5t38 23.5q77 16 132 45 15 8 17.5 25t-9.5 29q-49 52-115.5 80t-138 28T362 828.5 246 748q-12-12-9.5-28.5T254 695q53-29 128-45 23-5 38-23.5t15-41.5v-10q0-20-16-32z"/></svg>