<svg xmlns="http://www.w3.org/2000/svg" viewBox="0 0 1000 1000"><path d="M718 468q7 9 15 17 19 23 38 47 18-9 64-3 23 3 42 8l21-21v-4q0-3-3-7t-11.5-6-24.5-1q-19 2-36-2-13-4-24-10l-34-22-39-17zm142 0q1-2 2-5 3-6 8-11 6-8 16-13-22-13-29-29-7-13-10-44-12-34-36-61-20-21-47-37-20-12-41-20l-17-5-6 5q-7 5-16 7-11 3-23-1 19 56 11 90-3 16-11 22 48 22 78 51 21 25 44 39 19 11 39 14 14 2 27 0zM560 313q23-16 37-32 12-13 18-24 4-9 5-16l1-5q-19-15-38-41-21-30-18-45-8 0-28-9.5T505 128q-20-4-38 2-23 8-45 33-2 19-6 35l-2 12 7 10q10 10 24 17 19 8 42 7 28-1 61-17-16 13-44 21-34 9-65 5-38-5-64-30 4 27 4 34l-4-9 4 9q20 33 53 51 54 28 128 5zM437 173l8-4q23-12 41-13 33-3 66 20-36 28-79 15-22-6-36-18zm-61 78l-1-3zm-40 115q-2-3-4-5-5-7-7-17-4-15-2-35 3-24 13-55-16 5-32-3-8-3-13-8l-17 5q-21 8-41 19-27 17-47 38-24 27-36 61-3 31-9 44-8 16-30 29 14 8 21 19 4 6 6 10l10 2q13 2 27 0 20-3 39-14 23-14 44-39 30-29 78-51zM120 537q11-2 21-4 25-5 45-6 27-1 41 5 29-39 53-64l-9-21-39 17-34 22q-11 6-23 9-18 5-37 3-15-1-23.5 1t-11.5 5.5-4 7.5v4zm517 193q7-54 12-84t8-42.5 5.5-15.5 6.5-2.5 7.5-.5 7.5-8q21-29 19-84-1-31-12-81l-3-17q-9-3-25-13-25-18-50-27-43-15-114-19-71 4-114 19-25 9-51 27-15 10-24 13l-3 17q-11 50-12 81-3 55 18 84 5 7 8.5 8t7.5.5 6 2.5 5.5 15.5 8 42.5 12.5 84q19-13 80 1 31 7 58 16l29-9q34-10 60-13 35-5 49 5zm-309-47q2 34-23 83-13 25-26 43l193 49 6-6q8-6 13-13 7-10 8-19 0 13 13 26 7 7 14 12l192-49-13-21q-14-26-23-49-12-33-13-56-6 14-12 63l-4 27q-28-7-71-3-24 3-64 11l-18 3q-2 13-2 19 0-7-1-19l-19-4q-40-7-64-10-43-4-70 3l-4-26q-3-26-5-36-3-18-7-28z"/></svg>