<svg xmlns="http://www.w3.org/2000/svg" viewBox="0 0 1000 1000"><path d="M713 724q-10 4-20 9-25 10-55 19-42 13-87 21-57 11-115 14-69 4-139-3-114-11-162-30-37-16-33-37 2-12 21-31l7-6q11-13 35-33l22-17 1-9q1-12 3-26 3-18 10-36 7-22 19-43 13-24 31-45 21-23 48-42 29-21 66-35 41-15 89-22t97 1q60 9 108 38 56 34 88 93 2-18 4-51 2-25 3-37 3-19 8-33 1-3 2-14 2-16 4-19 11-16 25-46 10-24 17-32 18-25 5 12-6 19-16 43l68-132q-2 29-15 82-13 58-24 76 6-4 18-26 6-11 11-21v11q-1 15-6 30-8 22-24 43-12 15-28 31 15-8 34-26l16-16-6 16q-8 19-21 36-16 23-39 37 17-4 30-5l10-1-14 6q-16 8-28 16-17 11-24 23-4 10-2 19 1 5 6 9l4 3-19-8q-24-10-51-18-38-11-75-17-47-7-91-5-52 2-99 17-90 29-140 63-25 17-32 28l4-2q65-33 139-49 141-30 296 2 113 23 163 66 36 31 37 69 0 19-7 32l-159 36 29-10q34-12 55-21 30-14 31-22t-8-21q-13-19-41-34-37-19-94-29-70-12-166-9-87 2-167 23-62 16-112 40-37 18-47.5 28t-9.5 19.5 12 9.5q2 0 13 4 62 21 139 26 145 9 348-32z"/></svg>