<svg xmlns="http://www.w3.org/2000/svg" viewBox="0 0 1000 1000"><path d="M498 250l-112 23 12-3q15-4 30-10 21-8 37-19-25-2-76-5l-46-2h158v-81h-33l3-29h30l-3-15-67-5q-75-5-115-11-22-3-34-2-10 0-12.5 2.5T269 99l1 3 25 15v8l-18 8 15 18-25 37-33 8v31l33 22-6 76 13 50q14 61 24 114 11 24 22 42l8 13-21 15 21 20-2 6q-3 8-5 19-2 15-1 33 2 24 8 52 8 45 23 90 6 17 8 25 2 12 2 25 0 23-12 41-6 9-12 13l8 3q10 4 23 6 18 2 38 1 26-2 54-9-13-13-22-35-5-10-7-18l8-59q9-64 17-90 5-19 4-44-1-15-5-38-3-16-2-19 2-4 10-10l8-5-15-26 12-55 5-90q6-91 12-99t6-16q0-3-2-6zm2 0l112 23-12-3q-15-4-30-10-21-8-37-19 40-4 122-7H497v-81h33l-3-29h-30l3-15 67-5q75-5 115-11 22-3 34-2 10 0 12.5 2.5t.5 5.5l-1 3-25 15v8l18 8-15 18 25 37 33 8v31l-33 22 6 76-13 50q-14 61-24 114-18 38-30 55l21 15-21 20 2 6q3 8 5 19 2 15 1 33-2 24-8 52-8 45-23 90-6 17-8 25-2 12-2 25 0 16 6 30 4 10 12 18l6 6-8 3q-10 4-23 6-18 2-38 1-26-2-54-9 10-10 17-23 5-10 9-21l3-9-8-59q-9-64-17-90-5-19-4-44 1-15 5-38 3-16 2-19-3-6-18-15l15-26-12-55-5-90q-6-91-12-99-4-6-5-10.5t0-8.5l1-3zm-17-121h36v17h-36v-17z"/></svg>