<svg xmlns="http://www.w3.org/2000/svg" viewBox="0 0 1000 1000"><path d="M505 298h-6q-39 2-66 22-31 23-31 59t32 63q26 23 64 32h2q38-9 64-32 32-27 32-63 0-23-13.5-42T548 307.5t-43-9.5zM338 613q19 40 57 88 22 29 69 81l8 9q-2-54-44-105-37-47-90-73zm442 85q-9-7-14.5-19t-5.5-24q0-4 2-8-4-1-11-1-35 0-69 35-20 21-48 67l-1 1q-19 31-52 67-20 22-61 63l-18 18q12-5 96-85 35-33 43-40 39-34 106-58 5-1 20-6.5t15-7-2-2.5zm-530-51h-10q4 12-3 28t-17 24h-1q-1 1-1 3t31 12l5 2q68 24 106 57 7 7 37 35 89 85 103 90l-21-21q-40-40-60-62-32-35-51-65l-2-3q-29-46-48-66-33-34-68-34zm278 144l8-8q47-53 69-81 39-49 58-89-53 26-91 73-41 52-44 105zM340 419q-16 4-28 13-14 12-14 25.5t11 31 23 17.5q8 0 16-10 6-7 10-18-12 5-27.5-6T315 449q0-17 25-30zm502-80q-11 3-23 3t-23-3l-1-2q-23-49-36-70-20-34-45-55-28-26-69-41l-10-4q-48-18-73-29-46-21-63-37v-1 1q-45 37-146 72-41 15-69 38-24 21-44 54-12 20-34 66l-4 8q-12 3-24 3t-22-3q1 26 14 52t32 42q-19 42-19 72 0 25 12 50 7 16 26 45 15 22 21 33 21-3 38 1 11 3 34 14 8 16 36 45l18 20q61 71 89 109 21 27 41 69v4l1-3 1 3v-4q21-43 41-69 31-44 92-112l13-15q28-30 37-47l4-2q17-7 25-10 13-4 26-4 6 0 17 1h1q5-9 16-28 21-35 29-53 13-30 13-56 0-30-18-63 19-16 32-42t14-52zM700 582q-4 5-11 16-12 16-16.5 24T661 645q-7 17-12 26-25 43-67 89-39 43-83 76-43-33-83-76-42-46-67-89-5-9-13-27-6-14-10-21t-14-20.5-14-20.5q-47-77-47-156 0-33 6-61 13-77 91-131 59-40 151-65 93 25 151 65 78 54 91 131 6 29 6 61 0 41-13 81-11 36-34 75zm-52-103q-5 0-7-2 3 11 9 18 7 10 16 10 12 0 23-17t11-31-14-25q-12-9-28-13 26 13 26 29-1 12-12.5 21.5T648 479zM501 204v-1h-4v1q-64 8-115 35-54 30-84 76-32 51-32 116 0 10 14.5 34.5T305 500q-8-21-8-47 0-20 9.5-32.5T336 408q17 0 28 26 9 22 9 42 0 18-9.5 30.5T337 519q-14 0-26-6-4 6-4 17 0 35 47 75 9 7 27 20l20 15q28 23 49 58 20 33 31 71l3 12q6 24 12 36v10l4-5 2 5v-10q7-14 14-43l1-5q10-38 30-71 21-35 50-58 7-6 21-16 17-12 25-19 48-41 48-75 0-11-4-17-12 6-25 6-18 0-27.5-12.5t-9.5-32 9-40.5q11-26 28-26 21 0 30.5 12.5t9.5 34-9 45.5q10-11 24-34 15-25 15-35 0-65-33-116-29-46-83-76-51-27-115-35zm7 301l-4 234q-6 15-6 40v-2q0-15-1-22-3-13-10-18-2-20-1-63v-18q-2-102-2-154-44-17-72-45-33-34-33-75 0-6 1-16 12-65 92-84 19-6 27.5-6t26.5 6q79 19 91 84 1 5 1 16 0 42-35 77-30 29-75 46z"/></svg>