<svg xmlns="http://www.w3.org/2000/svg" viewBox="0 0 1000 1000"><path d="M448 718l3 1q-1-1-2-1h-1zm19 3l-16-2q4 3 1.5 17t6.5 53q4 20 9 37 9-6 12-9.5t6.5-9T493 797q-14-6-22-19-5-11-6-25-1-11 1-22zm-310-27l-1-1zm194-298q-27 42-39 83-6 21-6 32l-21 45-13-32-18 8-4 54-19-26-15 14 4 13q6 16 18 32 17 24 42 46 32 28 76 52-4 24-6 57l-2 27q-3-1-14-3-31-5-54-15-41-18-77-58-1-8 1.5-13t6.5-8l3-1 19 16q23 18 41 28 25 15 37 11 3-16 8-38l-14-7q-17-8-32-19-22-16-37-34-19-22-28-47l-2 15q-2 27-6 38-6 19-20 24-20 8-23 4l5 19 14 17q18 21 39 39 30 26 62 43 39 21 79 27 48 8 95-4-17-16-20-51-2-29 6-66-17-23-34-68l57 59 34-11-9-18 23-3q27-3 46-4 28-1 37 4 20-10 103-61l20-30q24-37 42-68 25-43 36-69 4-15-1-29-3-8-7-12l-31 16-23 24q-23 26-26 39-3 10-17.5 25T654 538q-21 12-38 13 2-20 31-71 14-26 28-47l75-93 60-62 11-11q13-13 18-27 7-19-3-35-7-3-15-2-6 1-13 3l-5 3-115 88-74 78-36 35-7 1q-7 1-9.5-2.5T566 393q16-25 56-78l62-65 22-7q26-8 44-17 25-11 29-21 6-13 6-26 0-6-2-9l-14-11-36 16q-42 18-70 28-19 8-42 29-16 15-32 35l-13 17-66 77 19-38 55-64 44-53 30-9q32-10 38.5-17t7.5-19q1-6 0-11l-21-9-37 16-51 3-103 63q-14 13-55 61-59 69-86 112z"/></svg>