<svg xmlns="http://www.w3.org/2000/svg" viewBox="0 0 1000 1000"><path d="M813 218q-11 2-92 31 33 35 58 80t36 88q16 68-4.5 147.5T741 710q-51 70-118 103-51 25-126 24.5T350 810q-78-29-128-82-57-60-70-140-9-55 7-115 14-54 42.5-93t55.5-42q31-3 55.5 17.5t39 61.5 15.5 98q2 64 35 115 31 48 81.5 68.5T588 704q62-17 111-65 44-43 66.5-98T783 440q-4-31-31-58-22-22-57-41-25-14-55-24l-25-8-6-19-145 54 3 4q2 4 3 12 2 10 0 25-2 17-9 40-8 29-24 51-11 17-26 29l-12 8-2-34q-5-41-12-72-10-43-24-60-18-22-35-35-14-11-26-14-8-3-15-2l-5 1q2-16 21-31 18-14 41.5-20.5T381 243q19 4 37 20 13 11 24 26l9 14 142-63q-14-54-4-55 38-4 81 22 80-34 99-39 31-9 53-7.5t26 14-5 26-30 17.5z"/></svg>