<svg xmlns="http://www.w3.org/2000/svg" viewBox="0 0 1000 1000"><path d="M165 472l10 2q13 2 28 6 20 6 41 15 25 11 50 26 28 19 54 43 30 28 56 63 28 38 51 85 26 52 44 113 3-21-3-60-7-48-25-93-22-57-56-99-42-51-99-76-66-30-151-25zm207-236l8-4q11-6 24-11 18-6 37-9 24-3 49-1 29 2 58 13 33 11 65 33 36 24 70 60 38 40 74 94 29-24 77-47 24-11 42-17l-11-16q-15-19-32-38-24-28-48-53-31-31-62-55-37-29-72-48-41-22-78-31-43-10-81-3-42 8-80 35-40 15-51 40-7 18 1 40 4 11 10 18zm138 596q-1 5-.5-8t4.5-31q4-24 12-50 10-33 25-65 18-38 41-74 27-42 61-79 39-42 85-79 52-41 113-75 5 27-6 51-6 12-12 18l-10 2q-13 4-28 10-20 8-40 19-26 14-49 33-29 22-54 49-29 31-53 69-28 42-49 92-24 55-40 118zM212 505q-57-26-79-6-16 15-10 55 3 27 13 49l9 29q12 36 28 71 24 47 52 85 36 46 79 73 50 32 108 36 72 5 74-47 1-44-49-122-45-69-111-135t-114-88zm160 338l-16-4q-20-7-41-19-28-18-54-44-31-32-56-77-29-53-47-121-2-6 .5-11.5t8.5-7 12 3.5l6 1q6 1 14 3 11 4 24 10 15 8 30 20 19 15 38 34 22 22 43 50 24 32 48 71 26 43 52 95-8 9-24 8-12 0-26-6zm0-596q-17 34-40 86-17 39-26 55-13 23-29 38t-43 28l10-2q13-2 27-2 20 0 40 3 24 3 46 12 27 11 50 28 26 19 47 47 24 31 41 73 19 45 29 103 30-96 84-169 51-68 138-133-59-69-115-111-48-36-96-52-38-12-80-12-24 0-67 6zm265 171l-18 76q2-9 1-18-1-18-12-29-9 10-19 17-5 4-16 9-19 9-30 20t-10 27q0 9 6 27 3 10 4 15 1 7 0 12l-8-11q-10-15-18-36l-7-19q-8-22-10-28-1-9 4.5-11t23.5-4h5q27-2 42-10 27-14 40-52 10-28 2-44-8-14-24.5-15t-28.5 8q-3 3-3.5 1.5t.5-7.5q1-13-1-18-4-9-21-5-25 7 3-8l33-17q32 10 48 31 14 17 17 40 3 16 0 34z"/></svg>