<svg xmlns="http://www.w3.org/2000/svg" viewBox="0 0 1000 1000"><path d="M833 488q8-6 2-19-3-7-14-22l-5-7q-22-53-59-111-20-32-55-79l-16-22q-16-23-61-55-32-23-75-48l-36-21-12-2q-14-3-30-2-21 2-42 11-26 10-48 30.5T349 181q-7 12-15 35t-15 38q37-35 86-67 25-17 43-26l-7 29q-8 35-18 61-13 38-26 54-3 5-25 28-33 36-43 48-16 20 8 2 31-23-8 29-20 26-47 57l14 38q17 46 34 83 23 51 43 77 27 16 34 22 10 7-4 3t-30-25l-17-10q-80-48-98-64 5 8-6-7 1 2 6 7l-11-21q-21-34-25-44-3-7-1-48t7-62q6-26 12 1-7-33 8-70l-22 22q-35 35-47 54-20 31-27 72-7 46-2 123 7 93 69 161 52 57 134 89 71 28 137.5 28T633 868q84-33 139-89 65-66 76-148 8-67-15-143zM491 131q17 15 33 29 40 36 76 71 52 50 89 92-9-1-16-3-28-8-42-13t-30-14q-11-6-5 2 4 6 20 25l19 22q4 6 8 15l-19-26q-5-8-35-28-21-15-31-22-16-13-23-24-30-43-40-89-5-23-4-37zM208 660l-15-92 13 28q17 33 36 60 26 39 53 61-15 4-19 21-4 13-5 25-26-31-47-70-11-20-16-33zm584 10q0 13-9 27 4-64-14-64-9 0-23-1l-13-1-25 38q-27 40-35 48-5 5-17 9-9 4-14 7-7 5-12 14-6 11-17 18-4 3-5.5 5t-1.5 6.5-5 13.5q-4 7-3.5 9.5t8.5 1.5q12-2 16-1t11 7l4 4q4 3 12 5-45 32-90 41-37 8-79 2-25-4-73-18l-35-9q-36-10-70-39l40 25 45 8 5-4q4-6 7-14 5-11 5-24t5-21q17 4 34 7-15 18-18 35-2 9-12 16-4 4-3.5 6t10.5 7q21 11 28 14 10 3 22 3h4q15 0 21-1 9-4 12-15t22-65q68-10 126-54 54-41 71-92 24-67-14-154l-1-1q25 13 39 18t22 6q10 2 24 2 8 25 11 46 6 47 2 73-2 15-9.5 29.5T792 670z"/></svg>