<svg xmlns="http://www.w3.org/2000/svg" viewBox="0 0 1000 1000"><path d="M181 178l-21 42 31 14h27q31 2 55 9 32 10 45 29 9 14 15.5 20t10.5 6 6-3l2-3 34-24-10-35 58-10v13q-2 16-7 31-8 21-22 36-18 20-47 31-23-11-44-29-11-9-17-16h-27l17 35-4 51 41-3v49l-37 13-7 42-12 14q-14 17-26 27-18 14-30 14h-79l-10 21 10 35 9 6q12 6 30 11 26 6 59 8 42 2 94-4 31-19 46-34 10-8 19-24 8-11 14-18 10-12 27-25 30-24 65-40 11-5 16-8 6-4 11-11 6-9 9-30 3-15 4-34l1-16-36-36-23-9-10-62 4-14q6-17 14-29 11-16 23-19t21-8q6-4 10-9l3-4v-28l-21-7q-25-9-49-15-35-8-62-10-35-1-58 8 12 2 39 3 40 3 53 7 23 7 16 25-9 22-46 39-19 8-36 13l-68-42zm365 192v19q-1 24-6 41-7 25-21 34-54 36-87 64-11 10-32 37-24 29-39 41-24 20-52 23-68 6-131-12-32-9-50-19l-13-37-15 8 14 48 27 9q34 11 66 19 45 10 80 11 44 1 70-12 23-12 39-30 9-11 21-34 13-25 24-36 17-18 46-29 31-12 54-43 19-26 25-56.5t-3-44.5q-6-4-13-3-3 0-4 2zm61-119l22 38q25 39 36 45 51 30 99 4 17-10 34-33 12-17 22-38 8-18 8-23l-5-3q-40-27-78-33-71-11-138 43zm-9 441q5 10 9 19 13 24 27 44 20 28 41 47 26 23 53 30 29 6 58 2 24-3 48-13 16-7 31-17l12-9 21-41-2 35-3 9q-5 11-13 22-11 14-25 24-17 12-39 18-30 7-60 3-24-3-49-13-17-7-32-16l-12-9-9-10q-12-12-21-27-14-21-22-43-11-27-13-55zM497 272q4-7 7-14 10-16 22-31 18-22 39-39 27-21 58-34 37-15 80-17.5t77 4.5q29 6 49 19 17 10 27 25 8 10 12 21l2 9-21-17-15-9q-18-11-40-19-30-10-61-12-39-2-77 11-44 14-87 47-2 20 19 57 11 19 22 34l10 14q12 16 25 30 18 20 36 30 22 13 42 12 37-2 76-66 24-41 40-90 4-11 14-14 7-2 16 1l8 3 20 17-54 69-4 46-36 27-1 80 18 28-4 32 10 27-21 22 21 42-13-6q-17-7-34-11-23-5-42-2-25 3-43 17-38 30-37 30t9-6l15-7q19-9 38-14 27-7 51-5 30 1 54 16 16 26 43 61 14 19 19 27 8 12 10 23-6 14-14 26-6 8-12 15l-6 4-2 4q-4 5-12 9-11 6-30 10-23 5-56 7-49 2-85-25-26-20-42-53-9-17-12-29l-23-30 11-138-16-52 40-51-47-44 9-36z"/></svg>