<svg xmlns="http://www.w3.org/2000/svg" viewBox="0 0 1000 1000"><path d="M821 435q-4 3-7 6-8 8-9 16-1 10 10.5 17.5T832 479t6-11v-8zm37-145q-24 39-49 77-52 80-67 94 5 10 7 28 1 11 2 37l1 31q8 9 30 1 12-3 22-9l22-10q26-14 43-26 25-18 30-32-31-32-40-95-6-46-1-96zm-638 68q7-6 14-13 19-16 41-32 32-22 68-40 44-22 92-37 57-18 116-24 75-8 136 2 84 14 161 63-32 52-71 109l-2-13q-5-16-13-30-12-21-30-36-23-19-55-28l-5-1q-68-19-110-24-75-8-149 12-93 24-193 92zm93-113q-11 8-21 16-25 21-47 44-32 31-54 62-27 38-38 72.5T141 504q0 27 7 48 6 18 15.5 27t17 7 24.5-2q25-1 44-3 34-4 77-16-1 24 5 58 7 37 20 67 15 35 35 52-92 33-236-10 8-29 1-58-5-17-21.5-49.5T107 574q-10-31-7-63 3-38 24-84 41-84 181-177zm404 151l-9 108-21-2q-26-2-50-2-33 0-57 4-34 5-91 17l-51 11-12 9 1 17q1 22 4 41 4 28 12 49 10 26 26 40 18-12 31-26l9-11-26-3-7-10q-9-14-13-30-6-22-2-45 30-15 82-27 67-16 120-12 0 12-4 21l-5 7-21 7q-25 8-41 10-11 13-10 27t18 13q14-2 36-17 10-7 18-15l-20 43 26-17 28-68 24-2q25-3 30.5-6.5T747 547l-2 25-57 34v17l49-26-3 27q-4 27-5.5 32t-26 6.5-49 0-28-6.5 8.5-16l12-9-31-3-8 7q-10 8-23 15-17 8-38 12-15 3-26-11-9-12-15-34-4-16-6-35l-1-16-14 11 5 27q7 32 18 52 15 29 34 32 26 3-35 46-31 21-67 41l-12-11q-13-15-26-34-17-27-30-60-15-40-22-86-8-54-3-114 37 2 101-5 71-9 138-25 79-19 132-44zM256 645q-2 7-4 15-4 17-1 26 5 12 23 7 32-9 29-25-1-8-9-15z"/></svg>