<svg xmlns="http://www.w3.org/2000/svg" viewBox="0 0 1000 1000"><path d="M480 611l21 19 134-140-21-19-11 12-278-266q-16-15-74-41-42-18-101-40l-50-18 54 108q54 108 59 110l279 263zM226 298l-29-88 90 23 292 274-9 10-12-1-268-253-60-23 25 59 267 253 3 13-11 10zm3-59l1 1v-1h-1zm660 488q-5-4-13-7-15 4-22 12l-1 1q-3 4-3 6 11 23 12 42 1 24-17 43t-42 18q-16 0-41-11l-8 6q-7 8-10 22 4 9 9 13 11 11 35 7 20-3 43-16 22-11 32.5-22t20.5-33q11-24 14-45 2-25-9-36zm-111 79q12 6 24 6 14 0 22-8.5t7.5-22T825 757l-4 3 2-2-9-35-17-16-14-5-23 23 22-23-14-23-17-15-15-6-11 13 10-12-15-24-16-16-14-5-16-23-16-16-14-5-62 65 5 14 17 16 24 14 36-38-36 38 6 15 17 15 24 15 6 13 17 16 23 13 6 15 16 16zM660 536q0-8 10.5-35.5T686 466q-2-9 0-12h1l-20-18-26 13 25 24q-21 36-22 51-4 0-10.5 1.5T625 529l-85 91q-3 2-5 15l-1 3q-10 2-40 19l-9 5-25-23-12 27 20 19q0-2 4.5-1.5t7.5 1.5q6-7 32.5-18.5T548 654l57-58z"/></svg>