<svg xmlns="http://www.w3.org/2000/svg" viewBox="0 0 1000 1000"><path d="M869 242q15-19 18-36 2-15-3-19.5t-19-2.5q-17 4-35 18L696 308q-28 21-47 32-14 8-21 10l-4 1-5 2q-5 4-7 10-3 8 1 20l4 14-37 36q3-73 8-134 5-64 8-77 5-14-7-40-10-22-27-41.5T535 121t-27 19.5-28 41.5q-12 26-7 40 4 13 9 77 4 62 7 135l-97-97q1-7 10-15 6-5 7-9.5t-1-10-6-8.5q-7-6-48-48l-12-11q-8-9-18-2-7 5-16 20l-11-12q-12-11-28.5-11T240 241q-12 12-12 28.5t12 28.5l10 10-17 13q-31 21-66 36-8 3-26.5 4t-23.5 6q-9 8 0 32 23 57 69 104 27 27 62 44 27 13 55 18 19 4 28 4 12-1 14-13 5-17 5-44 0-5-3-8-6-6-4.5-21t8-27.5T374 432l104 104-238 238q-12 11-12 28t12 28q12 12 28.5 12t28.5-12l191-191q2 11 4 25v1q3 48-14 48h-24q-9 0-15 6.5t-6 16.5 6 16.5 15 6.5h13q15 0 21.5 4t8.5 13q1 6 1 17v50q0 15 11 25.5t25 10.5h1q15 0 25-10.5t10-25.5v-55q0-18 11-24 6-4 21-4h14q8 0 14.5-7t6.5-16.5-6-16.5-15-7h-25q-16 0-14-48 3-14 4-26l191 191q12 12 28.5 12t28.5-12q11-11 11-28t-11-28L591 536l82-82 15 5q12 3 20 0 6-2 10-7l2-5 1-4q2-7 10-21 12-18 33-47 34-48 92-118z"/></svg>