<svg xmlns="http://www.w3.org/2000/svg" viewBox="0 0 1000 1000"><path d="M840 651q-6-20-16-43-7-14-21-40.5T783 527q-10-22-15-41-12-40-6-96 4-52 20-95 4-12 23-35 17-22 22-33 9-18 3-34-8-22-39-35-19-8-58-16l-21-5-47-11q-53-13-80-21-43-13-76-30-4-3-18-13-23-18-35-24-20-11-31-5-19 11-21 70-2 35 2 75 8 83 36 131-99 29-173 106T167 592q-16 56-17 105 0 64 28 101 19 26 57 52 22 15 69 40l14 7q87 48 159 62 84 17 171-6 63-18 114-64t72-107q23-66 6-131zm-487 53q-19 0-27-24-7-22-2-53.5t19-52.5q17-23 40-22 26 2 34 26 8 21-.5 51.5T390 682t-37 22zm360-229q-8 21-35 44-16 13-48 35l-8 6q-27 19-47.5 21.5T523 573q-29-10-85-36l-28-12-23-10q-31-12-45-19-24-12-34-25-21-30 5-57 16-16 58-38l13-6q38-21 61-27 31-7 67 2 71 19 128 46 89 43 73 84z"/></svg>