<svg xmlns="http://www.w3.org/2000/svg" viewBox="0 0 1000 1000"><path d="M115 170q-31 14-47 34-12 17-14 39-1 18 6 38 4 14 12 28l7 11 10 8q13 8 22 8 13 0 18-16 4-14 21-29.5t38-23.5q23-9 42-4 22 6 34 31 10 22 5 54-3 20-17 64-18 57-21 87-7 51 11 92 22 50 56 74 26 19 56 22 21 2 31-3 5-2 13.5-14.5T415 648q19-23 30.5-27.5T466 624q5 5 14 22t16 24q11 12 26 11 26-1 38 12.5t10 32-16 32.5l-27 21-15 11q-8 6-15 14-9 11-11 19-44 5-99 24-53 19-83 39-18 12-19 24t13 17.5 34-.5q31-9 99-17t98-7q27 1 85 16 53 13 72 21 10 4 20.5-1.5t12-16.5-12.5-22q-20-16-58-36-34-19-45.5-22t-12-7 6-10.5T622 803q31-24 51-43 30-29 52-55 20-22 24-32l3-6q11-24 11-34 0-17-24-26-21-8-35-32-16-26-8-53 9-34 53-59 29-18 51-21t40 10q9 6 22 12 22 9 35 7 18-3 18-27 0-58-57-74 14-4 36.5-7.5T925 355q11-5 17.5-18.5t-.5-27-25-19.5q-22-7-52-1l1-1q19-26 26-44 13-33-3-54-12-16-28-16t-29.5 12-20.5 29q-3-27-15-48-11-18-24.5-26.5T748 135t-11 17l-1 21q0 28-2 42-3 24-11 46-7 18-23 41-14 20-28 35 5-17-1-24t-17-6-18 6-12 14q-4 6-10 19-7 17-13 25-8 14-20 22-16 11-32 16-10 3-27 5-12 1-18 2-25 6-43 21-11 9-25 29-10 12-15 16-8 8-16 9-16 3-29-8.5T357.5 449t1.5-49q3-19 9-51 9-43 10-60 2-28-6-52-11-31-3.5-33t23.5 16q9 9 16.5 7t11-12 .5-23q-4-17-20-39-15-20-28-29-11-7-8-13 2-3 12.5-9T389 92q3-7-9-16-9-7-39-13-33-6-68-5-42 2-75 14-54 21-76 47-15 18-13 36 1 10 6 15z"/></svg>