<svg xmlns="http://www.w3.org/2000/svg" viewBox="0 0 1000 1000"><path d="M170 810L41 584q-21-37-21-90t21-90l129-224q21-36 66.5-61.5T326 93h345q43 0 88.5 25.5T826 180l129 224q21 37 21 89.5T955 584L826 811q-21 37-67 64.5T671 903H326q-43 0-88.5-27.5T170 810zm22-65h591v-96H338q2-30 32-50 24-17 72-28 28-7 92-18l33-5q58-10 91-21 54-16 83-42 36-32 36-79 0-69-35-107-29-32-83-45-38-8-100-8H405q-82 0-126 21-38 18-55 58-11 29-17 90h112q3-30 13-44 11-17 36.5-23.5T443 341h52q74 0 106 3 38 5 52.5 17.5T668 402q0 24-41 39-25 9-99.5 23.5T415 490q-65 17-108 42-54 30-82 73-33 49-33 118v22z"/></svg>