<svg xmlns="http://www.w3.org/2000/svg" viewBox="0 0 512 512"><path d="M127 282q0-6-4-10t-9.5-4-9.5 4-4 10.5 4 10.5 9.5 4 9.5-4 4-11zm53-112q7 0 11.5-5t4.5-12.5-4.5-12.5-11-5-11.5 5-5 12.5 5 12.5 11 5zm94-39q6 0 10.5-4.5T289 115t-4.5-11.5T274 99t-10.5 4.5T259 115t4.5 11.5T274 131zm103 22q6 0 10-4t4-10.5-4-10.5-9.5-4-9.5 4-4 10.5 4 10.5 9 4zm63-20q-4 4-7 8-8 7-12 10-2 1-6 2l-3 1-4 3q-4 3-7 3-11 4-28 4l-12-1 2-3 4-3-1-2q-1-1-4 1l-6 4q-3-3-4-6-5-10-4-24 1-20 7-30l11-17q-3 0-6 1t-10.5 8.5T339 105q-7 11-7 20 0 4 2.5 10.5T340 146q5 9 12 16-10 10-14 15t-9 18v2q-2 3-5 4l-4 2q-4 1-5 2l-8 7q-4-5-5-11-2-8-8-23l-8-17 5-6q6-6 9-11 4-6 8.5-16.5T314 111q2-12-5-26-4-8-9.5-14T287 58.5t-9-7.5-3 0l2 2q9 11 11 16.5t2 15.5l-1 9 2 3q3 3 4 7 2 10-1 26-2 11-6 19l-4 6-4-4-1-7q-3-5-4.5-4.5t-1 2.5.5 4-1 2q-3-5-7-9l-4-5q-15-17-25-25t-20.5-13-17.5-5-11 2.5-10 7.5l-9 9q-1 1-1 4l3-2q4-2 9-2 8 0 22 10l14 10 9-1q9-1 12 0 11 4 16 8 3 3 8 9t6 7q1 4 2 4l1 1q5 3 7 6 5 5 9 18 6 16 6 29 0 4-1.5 12t-1.5 13q0 15-12 34-2 4-2 5l1 2q5 8 6 13l3 6q2 4 1.5 6t-5.5 6q-5 3-11 6l1 2q2 2 5 3l3 1q6 2 10 5l5 6q3 4 3 5-8-6-17-10-5-2-12-4l-10-3q-19-8-35-19-12-8-20-19l-10-4-3-2q-5-3-5.5-5t-.5-8l1-5-4-14q-4-14-5-19-1-8-1-16l6-7q7-8 12-10 12-5 21-5l15 2q1 0 7.5-5t10.5-10l14-17 1-3-6 3q-6 3-13 3-4 0-12-1l-4-1q-2 0-9.5 3t-16.5 9q-11 8-19 18l-6 9q-1-2-2-5 0-5 2-10 0-2-1.5-2.5t-4 2.5-3.5 6.5-1 6.5h-2q-2-1-4-4-6-9-8-13-4-10-4-21 0-8 3-14l3-5q-3-8-2-17 0-6 1-10l1-2q0-4 1.5-7.5t3-6T160 89l-6 5q-7 7-14 16-16 19-16 36 0 18 18 36l23 23q-1 6-.5 12.5T167 232q4 13 4 27 0 9-1.5 17.5t-2 10.5-.5 4h4q5 0 7 1l4 2 4 2 17 19q13 15 25 23h-5q-5-1-10.5-4t-8.5-6l-6 1q-6 1-9 1-5 0-13-3-10-3-17-9-15-12-17-21l1-11q1-12-1-30-1-7-6.5-22t-10-21.5-13-11T96 197q-16 0-24 6 14 2 24 13 8 9 17 27 5 1 9 4 11 9 15 25 0 4 1 11v6q0 2-2 1l-2-1q-2-2-3.5-1.5t-.5 2.5l1 3q2 5 0 6-9 0-16 4.5T97.5 320 84 340q-6 13-4 28 2 10 13 25l1-9q2-10 4-14 3-6 12-20v-27q1-2 4.5-7.5t7.5-8.5q5-4 12-5l16 19q12 13 20.5 18t24.5 14q7 3 14 10l5 6 6-4q5-4 9-5 11-4 24-4 9 0 18 4 6 4 16 11l9 8q9 10 14 18 13 23 14 39 1 10 1 19l1 3 1 3q3-3 7-6.5t9-6.5q8-10 17-18 15-12 26.5-14t20.5 0q4 1 6.5 4t3 6-.5 5v2q4-1 5.5-4.5t0-7.5-3.5-7h-1q-7-8-16.5-9.5T383 401l-18-6q-5-2-9-4-2-1-8-9l-21-24q-5-6-6.5-11t-1-11 2.5-9q3-7 19-8 0-5-4-7-3-2-8.5-3t-7.5-3q-8-4-14-13-7-11-7-23t8-30.5 14.5-22.5 17.5-4l3-1-2-4q-2-6-1-11.5t4-11.5 6.5-9.5 8.5-7.5q15 5 26 6 15 2 25 0t18-10q3-3 7-11t5-14v-6zm-78 110q-7 0-11.5 5t-4.5 12 4.5 12 11 5 11-5 4.5-12-4.5-12-11.5-5h1zm0 39q-6 0-10.5 4.5T347 298t4.5 11.5T362 314t10.5-4.5T377 298t-4.5-11.5T362 282zm-32-18q-8 0-13 5.5t-5 13 5 13 12.5 5.5 12.5-5.5 5-13-5-13-12-5.5z"/></svg>