<svg xmlns="http://www.w3.org/2000/svg" viewBox="0 0 512 512"><path d="M383 351q-33-34-74-83-30-35-44-53-25-32-42-60l-5-8q-2-2-11 4l-2 1q-3 1-4 0t1-2l9-7q11-8 11-10 1-4-6.5-15.5T204 106q-2 0-10 4l-14 7q-3 1-3.5-.5t6-6 7-6.5-4-10-7-9-13.5 5.5-11 9.5 14 22q-15 6-27 7.5t-31 .5q2 14 11 29 7 13 20 26l1 1q-1 1-8.5-5T119 165q-13-17-18-36-13-2-26-11l-11-9 1 12q2 14 8 30 9 21 24 41 17 23 43 41 13 9 22 13l-1-11q0-13 1-25 3-16 10-28 8-14 21-25 23 29 63 80l23 30q43 55 55 70 13 18 26 40 16 26 20 37v1q4 11 6 12t9-6 11-15q10-20 8-28 0-1-8-8-14-10-23-19zM240 227q-1-2-3 0-58 73-108 124-9 9-23 19-8 7-8 8-2 8 8 28 4 8 11 15t9 6 6-12.5 20-36.5q13-23 26-40.5t59-75.5l14-18q2-1 0-3zm208-118q-6 5-11 9-13 9-26 11-5 19-18 36-7 10-14.5 16t-8.5 5l1-1q13-13 20-26 9-15 11-29-19 1-31-.5t-27-7.5q14-19 14-22t-11-9.5-14-5.5-7 9-3.5 10 7 6.5 6 5.5-3.5 1l-14-7q-8-4-10-4-4 0-11.5 11.5T290 133q0 2 11 10l9 7q2 1 1 2t-4 0l-2-1q-9-6-11-4l-8 12q-15 24-25 36-1 2 0 4l12 13q1 2 3 0 9-12 43-55 13 11 22 26.5t10 40.5q0 13-1 22l10-6q14-7 26-17 17-14 29-31 15-20 24-41 6-16 8-30z"/></svg>