<svg xmlns="http://www.w3.org/2000/svg" viewBox="0 0 1000 1000"><path d="M774 739q-64 73-155 102-87 29-180 11-37-7-65-20-52-23-24-51 7 4 43 9 28 4 62 6 64 4 125-18 64-24 113-72 29-32 35-73 7-46-22-84-17-23-45-33.5t-49-2.5q-15 6-24 20-5 9-7 19v-1q6 41 11 82 6 26-5 34-6 5-24 5H440q-18 0-24-5-11-8-5-34l4-34q3-33-2.5-48T393 531q-8-3-30-4t-34-3q-20-3-37-12-10-5-27-21.5T240 470q-12-5-18 6-8 13-11 52 5 79 48 133 14 11 17 21 2 5 0 14l-1 5q-1 5-4 10-6 7-16 5-14-3-35-24-50-55-69.5-133T148 403q17-81 68-139.5T338 173q69-31 144.5-32T628 170q23 10 38.5 24t11 21-26.5 6-43-9q-71-23-149-6-17 5-36 17-11 7-29 22-14 11-19 15-17 12-41 21-19 8-29 15l4-2q-8 5-15 11-4 4-10 12 6-7-6 6-16 25-10 54 6 26 28 47 36 27 69 32t56-9.5 30-44.5q25-97 50-111h1q28 16 54 130l3 10q2 11 5 15 4 7 13 7 12-3 27-6.5t23-4.5q11-1 32 1 23 2 51 16 22 11 42 26l1 1q10 11 16 11 11 0 14-32v1q-4-50-20-112-8-32-9-42 0-17 11-26 7-2 16.5 6.5T805 323q41 65 51 139.5t-11 147T774 739zM525 577q-11-137-24-150-13 13-24 150-1 10 2.5 16.5T491 600h21q7 0 10.5-6.5T525 577z"/></svg>