<svg xmlns="http://www.w3.org/2000/svg" viewBox="0 0 1000 1000"><path d="M289 253q-2-2 0-4 51-42 50-42 3-4 7-2 8 5 18 6 25 0 32-9l19-24q15-19 23.5-26.5T497 127l4-2q1 0 3.5 1t3.5 2l8 12q1 4-3 6-8 2-20 7-16 6-28 15-5 3-10.5 9.5t-8 12T445 226v6q0 9-12 23-8 11-8 16 0 7 11 31l4 7q0 2-2 7l-1 3q0 1 6 8t6 8l-3 7 58 65q2 3 2 4.5t-1 2.5l-6 7q-4 4-11 15l-2 3q-3 4-1 6.5t5 .5l12-10 12-13q1-1 2.5-1t1.5 1l72 82q3 4 1 6-19 21-27 29-1 1 0 3t2 1q12-6 22-14 3-2 7-6l4-4q2-1 4 1 22 24 96 103 38 40 104 108l22 23q2 2 1 4l-3 2q-3 2-7 6-12 15-30 36-2 3-.5 4t4.5-2l2-1q20-15 29-23 5-4 9-9l4-4q2-2 4-1l24 26q2 2 3 5.5t1 5.5l-1 12q-5 40-7 41l-4 4q-13 12-16.5 13.5t-30.5 0-29-2.5-86-115L565 584 400 379q-2 1-3.5 2.5t-4.5-.5l-4-5q-8-10-9-10.5t-3.5 1-4.5 1-18-11.5l-16-10q-3-1-6 1l-50 47q-4 4-15 33-16 44-29 67-17 29-43 62-22 28-43 48-1 1-2.5 1t-2.5-1l-12-12v-4q54-76 71-118 18-45 22-96 1-13 2-15 5-5 14.5-18.5T253 325v-5q0-7 4-10 8-9 18-20 15-17 16-21 1-8-2-16z"/></svg>