<svg xmlns="http://www.w3.org/2000/svg" viewBox="0 0 512 512"><path d="M165 270q38-12 53-28t13-46q-18 5-57 22-51 22-77 27 11-12 29-24 11-8 34-22 33-21 46-32-23-16-36-27-19-15-30-31 20-2 41 6 12 4 35 16l15 8q5-10 8-24 2-8 4-26 5-33 12-48 8 18 15 57 4 27 8 40 10-4 28-11 20-9 31-12 17-6 34-7-11 17-29 32-14 12-38 26 13 11 47 33 47 29 64 46-20-3-47-14-16-6-48-19.5T275 193q-3 28 16 48.5t56 29.5q-7 9-23 28-19 23-27 34-13 20-16 37l-2 4q-14 65-26 97l-21-100q-5-20-22-44-9-15-32-42zm90-25q-9 5-20 17l-7 8q-8 7-2 16l26 40q21-24 26.5-36.5T278 267q-4-6-23-22z"/></svg>