<svg xmlns="http://www.w3.org/2000/svg" viewBox="0 0 1000 1000"><path d="M875 500l-2-26q-3-31-12-63-11-44-31-82-17-31-45.5-62t-57-49-43-14-22.5 12q-11 11-16 32l-4 22q-4 21-9 32-7 17-25 38-22 25-67 33-23 3-41 2-20 1-43-2-44-8-65-33-18-21-25-38-5-11-9-32l-4-22q-5-21-16-31-8-9-22.5-13t-43 14-57 49-45.5 62q-20 38-31 82-9 32-12 64l-2 25q1 24 7 57 11 63 39 114 16 31 45 62t57 49 42.5 14 23.5-12q10-11 15-32l5-22q4-21 8-32 8-17 25-38 16-18 44-27 20-7 44-8h20q21-2 43 2 44 8 65 33 18 21 25 38 5 11 9 32l4 22q5 21 16 31 8 9 22.5 13t43-14.5 57-49T830 670q20-37 31-81 9-32 12-64zM760 627q-9 18-22 35-9 12-18 22l-8 7-3-11q-5-15-12-29-10-19-23-35-16-19-36-32-24-16-51-25-22-7-44-11-16-2-31-2l-12 1q-18-2-45 2-50 8-92 35-37 23-59 68-12 22-16 40l-7-8q-10-10-19-22-12-17-22-35-13-26-20-58-5-24-6-49l-1-20q-1-19 2-44 6-48 25-83 9-18 22-35 9-12 18-22l8-7 3 11q5 15 12 28 10 20 23 36 16 19 36 32 44 28 95 35 26 4 43 2 19 2 44-2 51-8 94-35 20-13 36-33 13-15 23-35 7-14 12-28l3-12 8 8q9 10 18 22 13 17 22 35 19 35 25 82 3 25 2 45v1q1 22-3 46-6 46-24 80z"/></svg>