<svg xmlns="http://www.w3.org/2000/svg" viewBox="0 0 512 512"><path d="M265 164q0-9-5-18l-4-8-4 8q-5 9-5 18t5 18l4 8 4-8q5-10 5-18zm170 159q6-17-5-33-6-10-14-14-4-2-7-1l-3-13q-6-14-16-22-13-13-33-13-14 0-26 7h1q1-6 1-12 1-9 0-17l-5 1q-5 2-11 7.5t-7 7.5q-3-17-12-26.5t-18-9.5-15 5q-4 4-7 9l-2 5-2-5q-3-5-7-9-6-5-15-5t-18 9.5-12 26.5q-1-2-7-7.5t-11-7.5l-5-1q-1 8 0 17 0 6 1 12h1q-12-7-26-7-28 0-43 24-7 12-9 24h-3q-4 1-9 4.5T82 290q-11 16-5 33-3 2-6 6-7 8-7 17.5t8 16 17 6.5 16-4q4 3 8.5 4.5t11.5 3 10.5 1.5 6.5-3q-5-1-10-4-9-6-9-16.5t18-19 43-8.5q17 0 29 3 9 3 18 9 8 5 12.5 10t5.5 8l2 7q1 2 3 3l2 1 2-1q2-1 3-3l2-7q1-3 6-8t12-10q10-6 18-9 12-3 29-3 25 0 43 8.5t18 19-9 16.5q-5 3-10 4 3 3 6.5 3t10.5-1.5 11.5-3 8.5-4.5q8 4 16.5 4t16.5-6.5 8-16-7-17.5zm-33-28l6-10q9 2 14 10 2 5 1 12l-2 6q-7-4-14-6t-13-4zm-91-57q1-5 4-10t9-9l1 5q-1 5-2 9-3 7-13 15 1-5 1-10zm45-2q10 0 16 4 5 3 8 7l2 4-9-1q-10-1-17 .5t-16 6.5l-7 4h-13q-6 2-11 4l6-8q9-8 18-14 12-7 23-7zm-94-22q3-7 7.5-12t9.5-5q9 0 15 15 4 11 4 25 0 24-34 58 16-26 16-47.5T261 220zm-6 17q2 0 3 1 4 1 6.5 5.5T268 251q0 13-6 28l-6 12-6-12q-6-15-6-28t6-18q3-2 6-2zm-23-34q5 0 9.5 5t7.5 12l1 6q-19 6-19 27.5t16 47.5q-34-34-34-58 0-14 4-25 6-15 15-15zm-45 22q1 2 3 3 4 3 6.5 7t3.5 9q0 5 1 10-10-8-12.5-14.5T188 219zm-32 17q11 0 23 7 9 6 18 14l6 8q-5-2-11-4h-13l-7-4q-9-5-15-6-13-2-27 0l2-4q3-4 8-7 6-4 16-4zm-66 59q5-8 14-10l6 10 8 8q-6 2-13 4t-14 6l-2-6q-1-7 1-12zm9 54q0 3 1 6-15-7-13-20 2-8 11.5-13.5T120 314q9-1 18 2-39 14-39 33zm46-71q-3 8-1 20l-7-1q-8-3-13-9-9-10-9-19 0-2 4.5-6t11.5-6q10-2 19 2 5 2 9 6-10 4-14 13zm32-8q11 0 24 10 7 4 12 9l-10-1q-12-1-20-1-11 1-22 6v-6q0-7 3.5-12t12.5-5zm40 34q-3 2-5 5l-11-2q-15-1-30 0 11-12 31-12 15 0 21 7zm53 17q-8 6-14 17l-4-6q-5-7-11-11t-14-6l2-2q3-2 7-2t9 3q6 6 11 16l3-6q4-6 8-10 7-5 13-3 3 2 5 4-8 2-15 6zm30-12q-2-3-5-5l-6-2q6-7 21-7 20 0 31 12-15-1-30 0zm51-16q-11-5-23-6t-29 2l12-9q13-10 23-10t13.5 5 3.5 12v6zm16-15q-4-9-14-13 4-4 9-6 10-4 19-2 8 2 12 6t4 6q0 9-9 19-7 9-20 10l1-7q0-8-2-13zm46 77v-6q0-19-39-33 9-3 18-2 12 2 21.5 7.5T425 335q2 13-13 20h1z"/></svg>