<svg xmlns="http://www.w3.org/2000/svg" viewBox="0 0 1000 1000"><path d="M519 328q-115 0-229 1l-12-1q-12 0-17 1-7 2-10.5 10.5T247 367q-2 60 1 171 0 12 8.5 19.5t21 7 21-8T307 537q2-29 3-88v-1q0-28 4.5-40t13.5-15q5-1 21 0h3q48 3 96 2 17-1 25 3 11 4 16 17.5t5 41.5q0 21 1.5 63.5T497 584v50q1 42-1 53-3 15-17 18-9 3-46 2-33-2-55-2h-16q-31 1-39-1-11-3-14-13-1-7-1-33l1-33q0-2-5-6l-6-7q-125 78-160 212 54-55 94-88l7-6q11-12 15-13 8-1 3 22-4 21 20 28 14 4 46 4h9q42 1 127 0h32q33-1 47-5.5t19-18.5 6-45q1-94 3-280v-7q0-17-3-44-4-44-44-43zm166 22q-7-9-8-24-1-9 1-27 1-12 1-18-2-34-6-45-4-14-19-18-11-3-47-3l-144 1h-53q-16 1-24 9t-8 23q1 26 29 28 12 1 35 2l137 3q21 0 31 11t9 33q-1 51 0 154v126q0 12 3 18 5 8 16 9 28 4 36-20 4-15 4-31l1-19q1-39-2-58 4-48 13-72 11-28 39-47 19-12 59-34 48-26 74-44-50-11-99 2-46 12-78 41z"/></svg>