<svg xmlns="http://www.w3.org/2000/svg" viewBox="0 0 1000 1000"><path d="M771 689q-8-4-23-10-25-9-35-17l-8-6q-29-18-38-26-12-11-21.5-23.5t-13-20T613 551l-9-16q-14-22-16-31 14 14 25 28 1 2 5 8 6 12 12 16 0 1 1.5 0l1.5-1q-3-16-.5-34t8.5-30q1-2-1-4-19-8-33-18-9-5-23-16l-13-10-7-5q-19-12-27-25 5 4 22 13l10 6 8 5q7 6 12 9 1 0 2-1.5t1-2.5l-4-11q-8-23-7-40-3-6-6-11-13-11-21-21-5-6-10-16-5-8-7-12l-6-8q-11-15-17-26-11-19-16-41-29 3-51 2t-49-7q-3-1-20-11-28-17-42-23t-35-12l-11-4q-11-3-26-6l-11-2q-42-8-83-21-12 17-14 41 0 14 3 41l2 15q2 18 3 25 3 11 13 31 8 15 11 24 2 6 5 20 3 11 5 16l5 13q5 14 6 21 6 1 9-1t6-7q6-9 12-9h1q29 2 41 1 20-2 31.5-10.5T334 365q10-14 17-29 1 5-1 12-1 4-5.5 14t-6.5 16-4 17-3 15q-2 6-6.5 8t-21.5 0l-29-4q-20-4-27-3.5t-10 3.5q-8 7-15 16-2 2-2 5.5t5 9.5l2 4q4 5 14 18.5t11 16.5q2 7 2.5 22t3.5 22q1 3 8 10l5 7q4 5 11 17 12 22 20 29 2 0 4.5-.5t1.5-1.5q-8-22-7-53v-6q1-26-1-37 0-5-4.5-14.5T292 464q13 15 17 33 5 20 1 45 1 1 10 7l13 10 16 10q14 9 17 12 8 7 17 25 6 10 9 14 15 20 23 28 23 23 31 38 1 1 2.5 1.5t2.5-.5q9-14 24-21 19-9 26-8 5 0 10 4l6 3 6 1q1-1 0-3-4-11-43-33-5-2-15-5-16-4-21-9 27 2 62 18 21 9 59 32l6 3q4 3 25 18l10 8q8 3 21.5 4t21.5-1q3 0 8-3 7-5 13-5l7 5q6 4 9 7 4 4 5 10-12-8-21-8-6-1-16 3-19 5-36 3 2 8 14 21 8 11 12 16 4 9 9 23l4 9 4 15 11 22 11 21q7 13 12 19 8 9 18 11-6-18-3-34 2-10 10-26 6-14 7.5-20.5t1-16.5.5-15q6 0 16 3.5t14 4.5q6-3 18-10 19-12 31-13 7 0 25 3l11 2q-26-34-73-56zM269 265q-3 3-12.5 4t-12.5-2q-8-5-10.5-15.5T237 237q3-2 6-2t8 1q2 0 6 2l9 5q4 2 6 9.5t-3 12.5z"/></svg>