<svg xmlns="http://www.w3.org/2000/svg" viewBox="0 0 1000 1000"><path d="M868 301q-2 0-13.5 2t-20.5 3q-2-33-29.5-63.5T745 206q-20-3-39 7-16 9-24 23.5t0 21.5q2 2 13 4 15 2 22 5 13 6 17 19 8 22 2 36.5T716 342l-97 29q-11 4-30 11-24 9-38 12-23 6-51 6t-51-6q-14-3-37-12-19-7-29-10l-32-10q-96-29-138-41-72-21-81-20-37 4-14 71l1 2q24 75 61 134 51 82 105 89 42 6 79-5 23-6 60-26 24-12 36-17 21-9 40-10 18 1 38 9 12 5 34 16-17 32-50 94-38 73-43 84l-7 15q-7 15-9 22-3 10 2.5 14t16.5-4q6-5 16-16l3-3q19-19 68-78 64-75 84-93 31 2 62-2 54-7 105-89 37-59 61-134l1-2q8-23 9-39 1-29-23-32zM290 521q-32-4-56-33-19-22-31-56-9-28-8-44 1-11 58 6 48 15 108 41.5t69 36-12.5 23T362 516q-39 9-72 5zm420 0q-33 4-72-5-34-8-55.5-21.5t-12.5-23 69-36T747 394q57-17 58-6 1 16-8 44-12 34-31 56-24 29-56 33z"/></svg>