<svg xmlns="http://www.w3.org/2000/svg" viewBox="0 0 1000 1000"><path d="M693 554q-5-2-11.5-6.5T669 542q-8-3-23-3-35 0-64 18.5T536.5 607 520 674q0 55 32 88.5t87 42.5q11 1 19.5 12t6.5 27-22 19q-15 1-38-5-68-13-107-60-42-50-42-129 0-49 22-91.5t62-70.5l2-1q25-14 28-51 7-130 21-275l3-27q3-33 5-43 3-16 10-16 6 0 10 15 2 11 5 44l2 27q11 105 19 227 3 33 12 59 8 24 15 30 10 4 29 15 17 10 24 13 12 5 19 4 6 1 4 7t-10.5 12.5-20.5 9-24-2.5zm-362-87q3-3 16 5 8 4 27 18l21 15q13 8 28 13l6 2q13 0 23 6.5t5 12.5q-33 40-42.5 102T435 765q16 32 43 64l1 2q0 8-11.5 5t-25-12-17.5-15q-11-9-23-26-7-6-17-1l-21 14q-19 14-27 18-13 8-16 5-3-4 5-17 4-8 19-28l14-20 4-7q3-6 3.5-15t-.5-15q-3-11-5-23v-1q-3-22-15-25l-8-2-27-5q-30-5-41-9-18-5-19-11 1-6 19-11 11-4 41-9l27-5 10-3q7-2 14.5-8.5T373 591q3-11 9-21 1-3 1-5-2-15-15-33l-14-21q-14-20-19-28-7-13-4-16zm240 204q0-19 11-35t29-23.5 37-4 32.5 17.5 17.5 33-3.5 37-23.5 29-36 11q-27 0-45.5-19T571 671z"/></svg>