<svg xmlns="http://www.w3.org/2000/svg" viewBox="0 0 1000 1000"><path d="M783 146q-17 12-90 64-68 49-84 61-50 38-71 19-11-10-13-29-1-17 4.5-31t25.5-31l5-5q4-4 3.5-16t-6.5-19q-5-4-21-2t-36 11q-22 11-42 26l-11 9q-55 42-89 73-46 43-96 103-27 34-47 62-54 45-76.5 111t-7 134 65 117.5 118 65 134.5-7T559 785q31-22 64-49 58-48 100-94 31-33 72-87l10-12q15-20 26-43 8-20 10.5-36t-1.5-20q-7-6-19-7t-16 4l-5 5q-17 20-31 25.5t-31 3.5q-19-1-29-12-19-21 19-71 12-18 61-84 52-73 64-91 10-16 16-52 4-20 5-39l1-1-18 2q-21 2-38 6-24 6-36 13zM369 797q-50 0-92-28t-61.5-74.5-9.5-96 45.5-85.5 85.5-46 96.5 9.5T508 538t28 93q0 45-22.5 83T453 774.5 369 797zm305-419q-28 42-35 71-9 36 12 59 11 13 40 14 21 1 48-3l23-5q-10 16-24 30l-8 10q-26 34-47 55-27 27-73 65 11-59-7-116.5t-60.5-100-100-60.5-116.5-7q38-47 66-74 21-21 54-47l10-8q14-14 31-25l-5 24q-5 27-4 48 2 29 15 40 23 21 59 12 29-7 70-35 40-26 198-145l-1 1Q699 341 674 378z"/></svg>