<svg xmlns="http://www.w3.org/2000/svg" viewBox="0 0 512 512"><path d="M407 362q-2-3-12-8-17-8-25-15-4-4-4-10v-1q0-4-5-4h-12q-2 0-2.5-1.5t2.5-3.5h1q4-2 8-5.5t4-4.5l-3-3q-5-4-8-10-1-1-1-7t1-10 6-11q1-3 2-15l1-15q1-4 3.5-4t4.5 2v3l2 29q1 1 7 4 11 7 21 14 2 1 3 .5t1-2.5q-8-12-9-17.5t0-24.5l1-18q2-52-31-96-16-21-43-35-24-13-49-16-10-1-26-2-18-1-28-3-8-1-16-6l-4-2h-2.5l-.5 2 1 4q8 20 9 28 0 3 5 3 4-1 9.5-.5t7.5 1 3.5 3.5.5 3h-2q-12 2-19.5 5T190 123q-13 10-22.5 21T149 184q-5 17-8.5 22.5T128 222l-2 2q-3 3 0 3h77.5l1.5-3.5 3-4.5q24-15 41-25 8-5 14-5 12 0 21 6 11 7 9 19 0 3-.5 3t-1.5-4.5-7-9.5q-3-3-8-5t-14-2q-3 1-13 7l-31 20q-4 3-4 8l-1 3q-3 6-8 6h-76q-2 0-2 5l-1 5q0 8-6 19l-5 10q-3 8-9 15-3 3-2.5 4.5t4.5 4.5l4 3 7 6q8 9 13 12.5t15 9.5 12.5 8.5 2.5 5.5l1 2q0 1 3 0 5-3 19-14 2-2 3-1t-1 3l-2 2q-11 11-13 13.5t0 7.5q5 9 11 18t10 11.5 8 1.5l27-14q27-14 29-15t3-.5 0 1.5l-65 43q-1 0-1 5 0 9-2.5 14.5T182 439q-5 5-7 6t-2 2l1 1q1 2 41-4 14-3 29-8 22-8 32-17 19-17 36-31 26-19 36-23 16-4 32-4 13 0 25 4 2 1 3-.5t-1-2.5zm-228-34l-4 4q-2 1-5-1l-41-27q-2-2 1-3l9-2q3 0 6 2l34 24q2 2 0 3zm16-11l-4 3q-2 2-4 0l-14-12-16-11q-1-1 1-1l7-1q3-1 4 1l25 19q2 1 1 2zm15-11l-3 3q-2 1-4-1l-21-16q-3-1 0-2l5-1q3-1 5 1l18 13q2 2 0 3zm14-11l-2 3q-3 1-4 0l-14-10q-3-2 0-3l6-1q3-1 6 2l8 6q2 2 0 3zm-12 127q-5 0-5-6 0-2 1.5-3.5t4.5-1.5 4 5v1q0 2-1.5 3.5T212 422zm49-30q-3 1-4 3t0 4 .5 2.5-2.5-1-2-3.5v-4q1-5 5.5-5t4.5 2-1 2h-1zm13-165q-3-5-8-6.5t-9 1-4.5 8 4.5 9.5q1 2-2.5 1t-4.5-2q-4-4-3.5-11t5.5-10.5 11-3 10 5.5q2 2 2 5.5t-1 2.5zm35 139q-2 0-2.5 1.5t-.5 4.5v2q0 3-2.5 1.5T302 369t5-5q2 0 3 .5t-1 1.5z"/></svg>