<svg xmlns="http://www.w3.org/2000/svg" viewBox="0 0 1000 1000"><path d="M873 839q-1-3-37-42l-35-38v-11q0-11-1-16t-7-14q-10-13-10-21t8-16l8-7-10-9q-11-10-18.5-10t-10.5 2.5-5.5 6.5-5 5.5-7.5 1.5-7.5-3.5-1-7 6.5-9 7.5-9.5 3.5-10.5 1.5-22T748 571q-4-14-7-23-2-7-12-6-3 0-17 12-11 11-14 12.5t-5.5-.5-2.5-6 19-25q11-11 12-14 5-8 3.5-16t-16-33.5-22.5-32-17-1.5q-3 2-42 39-43 41-46 42.5t-4 .5-.5-3.5T613 472q35-38 39-45 8-11 2.5-22t-24-29-30-22-17.5 0q-2 2-58 56l-41 39q-1 1-2 0t-.5-3.5T520 398t44-55q5-7 1-13.5T542.5 310 516 295q-13-3-20 1-3 1-24 22.5t-23.5 22-4.5-2-.5-6.5 26.5-35l1-2q4-4 3-10.5t-5-9.5q-11-7-41.5-9.5T388 267q-4 1-17 13-11 9-12 9-11 4-8-9 0-3 6-8 10-9 10.5-16.5T358 235q-4-7-10-12l-7 8q-9 8-16 9t-21-10q-9-7-13-7-9-2-27-1l-38-35q-39-36-42.5-37.5T176 148t-6 2 2 11q1 4 37 42l35 39v10q0 11 1 16t8 14q10 14 9.5 21t-8.5 16q-4 4-8 7l13 11q14 11 21 11 3-1 7.5 1.5t6.5 6.5-4 17-6 18q0 8 7.5 35.5t10.5 31 10 2.5 9.5 1.5T319 474q-4 8-4 12-1 14 26 54 30 45 71 85t81 63q31 17 47 17 11 0 22-10 3-3 4.5-2.5t.5 8.5 0 10q5 7 15 12 16 8 42 10 36 2 45-5 2-1 3-1 6 2 6.5 5.5t-.5 9.5l-1 4q-1 7 9 20l11 11 7-8q9-8 16-9t21 10q9 7 13 8 9 1 27 0l38 36q39 35 42.5 36.5t7.5 1.5 6-2-2-11zm-293-97q-4 1-16 9-26 16-45 23-32 14-64 15-67 2-104-67-8-16-31-79l-13-35q-14-37-35-60-25-28-59-32-28-3-50 8-17 8-28 25-9 14-10 26.5t3 17.5 8 5q8 0 10-7 6-19 19-32 18-18 46-14 33 4 56 44 14 23 33 80 15 42 23 58 29 57 70 78 32 17 74 13 77-8 143-60 2-1 3-4t0-4q-2-5-14.5-8t-18.5 0z"/></svg>