<svg xmlns="http://www.w3.org/2000/svg" viewBox="0 0 1000 1000"><path d="M852 845q-5 0-10-1-13-2-30-7-23-7-50-17-35-15-66-39 1-10-9-26-7-12-20-25l-8-8q-6-7-11-19t-6-19.5 2-13.5l1-3q2-6-.5-6t-6 9-3.5 21q0 14 8 40 2 8 3 25l-35-25q-15-12-28-26 5-3 9.5-9t6.5-27-2-44q-4-26-14-42-7-14-16-25l-7-8-30-61q-7-15-19.5-34T493 432v-1q-14-14-15.5-12t8.5 13q4 4 13 20 11 19 19 36 10 27 16 59l-2 10-1 16-14-24q-8-14-19-26-7-41-17-61t-27-35q-3-13-7-25-8-21-24-49l-4-8q-2-6-7.5-12.5t-6-6 4.5 9.5l2 4q1 2 7 19l7 18q7 20 10 42-1 3-2 5l-6 11q-3-5-8-10t-10-12q-5-32-14.5-63T370 292q-6-11-13.5-21.5T348 261t5 15l5 10q15 33 14 53-2 11-6 22l-14-13q-7-5-22-16 7-32-3-58-6-14-15-27-13-32-31-52-11-13-13-10l5 8q7 10 14 21 3 5 9 21l5 15q-2 5-3.5 10t-3.5 14q-16-24-35-40.5T233 218q-1 0 4 4 23 22 37 45 23 37 18 57-2 4-9 6-3-29-17-49-10-15-26-29-11-10-24-19l-10-6q-18-21-31-46-7-14-17-40-7-16-8.5-16t3.5 21.5 13 37.5l21 50q0 25 9 48 1 11 4 25.5t6 21.5q6 15 15 28l-4-1q-5-1-8-3t-14.5-13.5T175 319l-12-16q-14-19-15.5-18t8 17.5T175 334l24 32 3 12q6 15 15.5 23t19.5 14q8 3 15 5l5 1 16 22h-20q-10 0-19 1-17-10-30-25-9-11-21-28l-6-7q-10-12-11.5-11t1.5 7 6 10l6 7q34 48 49 61 42 39 68 51 11 4 22 7l23 35-36-3q-2 0-13-5.5T272 530q-16-14-39-39l-8-10q-5-7-5.5-6.5t1.5 5.5 4 8q18 25 39 46 9 10 38 33l6 6q15 17 29 28 11 7 31 9l17 16 15 16 4 11q2 6 5 11l-8-2q-11-3-24-12-7-5-20.5-16T340 620q-14-15-15.5-13.5T332 619q5 7 19 22 17 18 25 24l14 10q20 14 24 19 9 12 23 22 24 18 54.5 22.5T549 736q13-4 20-9 13 12 20 17 9 8 17 16-7 1-19 1t-33 4q-24 5-39.5 11.5T486 794q-5 4-6 10 4 0 7.5-2.5t15.5-7 19-4.5q15 0 37 7 10 4 27 6 21 4 39 4t39-6l6-2q1 0 24 15 26 17 38 23 18 11 48 24.5t34 13.5q9-1 25-14l11-11 2-5zM253 362q-3 0-7-2l-4-2q-11-8-17.5-18.5T217 317q12 16 19.5 21.5T253 345l2 8v5q0 4-2 4zm43 87q-9-5-18-15l-6-9q8 2 16 3 5 1 11 0l12 13 12 14h-8q-9-1-19-6zm45-89l5 5q7 7 15 17 6 8 8 19 2 8 .5 13.5T364 420l-4-1q-5-5-9-10l-9-11v-15zm55 207q-1 2-6 .5t-11-4.5q-9-5-22-19l-12-14q8 2 14.5 3t12.5-1l15 17q6 6 8 11t1 7zm29-109q3 2 8 3l3 21q1 7 4 17l2 10-8-1q-2-3-5-7l-5-5-1-18q-2-13-5-25 3 3 7 5zm32 208q-4-1-9.5-4t-10.5-5q-12-5-20-16 8-1 16-1t14 2l24 21q-7 3-14 3zm69-35l-6-8q-6-9-9-12l-10-12q1-9 2-17 1-5 2-14v-8q1 0 7.5 8.5T524 586q7 12 7 20 2 13-5 25z"/></svg>