<svg xmlns="http://www.w3.org/2000/svg" viewBox="0 0 1000 1000"><path d="M731 312q0 3 4 6.5t7 4.5 7.5-2.5 6.5-2.5q5 3 27 21 40 32 45 32t14-11.5 6-16.5q-4-9-18.5-22.5T805 302q-4-2-10 2t-11 3q-1 0-3.5-4t-.5-6q6-9 6.5-18t-5.5-13q-9-7-17 0l-1 1q-2 1-9-3l-111-93q-29-25-45-33-25-14-52-13-18 0-41 14-20 12-32 26-19 22-26 34-9 15-9 30 0 7 12.5 14.5T475 252q7 1 16 0 7 0 8 1 1 4-11.5 7t-27.5 3q-7 0-21.5-6t-20.5-6-11 7-1 13l2 5q6 8 4 13-1 3-8 18l-13 27q-18 38-29 52-18 25-33 13-6-2-5 3 3 19-12 42-11 18-29 35-16 15-23 18t-15 3q-5 1-16 0h-1q-3 4-1 8l4 9q4 8 3 11-1 7-10 13-6 4-8 7-5 6-4 16 8 24 126 33 69 6 148 6 102-1 144-2 50-1 82-6 26-3 70-13 3-1 5 .5t-1 4.5q-22 14-73 22-37 5-100 8l-27 1q-60 3-84 3-102-1-163-5-100-6-140-23-13-5-24-11.5t-13-10-6-4-4 3.5q-2 15 16 30 16 13 40.5 22t44.5 11q3 0 3 3t-2.5 5.5-8.5 5.5q-3 2-4 3.5t0 3.5q5 6 11 21 10 25 22 42 10 13 35 29 17 10 23 17 9 10 8 24 0 5-6 9-3 3-13 7-11 5-16 9-7 7-7 16-1 17 23 28 19 9 49 14 27 4 51 4t31-4q5-4 5-13 0-6 1-10 1-5 8-9 13-9 30.5-8.5T525 842q4 4 4 14t5.5 15 34 4.5T626 870q34-7 51-19 14-9 12-25-1-8-7-13-4-3-14-7t-14-7q-7-5-8.5-14t8.5-20q7-7 25-19 21-14 28-22 10-12 24-45 12-25 18-33 7-9 19-17l24-12q20-10 27-16 12-10 12-23 0-7-5-13-14-13-33-21-11-4-28-8-10-3-11-5.5t-1.5-5.5.5-7q5-24-14-53-14-23-39-43-21-18-28-18h-7q-12 1-18-2-13-7-25-23-8-11-15-25l-12-24q-15-27-21-40-1-6 1.5-10.5T577 269q-2-14-20-26l-2-1q-16-12-16-33 0-24 26-28 11-1 31 12 12 8 38 29l101 80q-5 5-4 10zm-73 107h3l3 2q4 20 25 40 14 13 41 31 9 7 6 8.5t-10-.5h-1q-9-3-21.5-9T683 480q-12-9-18-17-7-11-7-27l-1-3q0-14 1-14zm-135 98q-6 5-16 8-8 3-13 3-14 0-24-8t-11-23q14 15 31 15t25.5-13.5-.5-33.5q15 13 15.5 29t-7.5 23zm24-58q-2-1-4-3-14-10-21-14-10-4-27-5-26-2-45.5 15.5T431 493q0 26 27 44-17 2-29.5-5.5T410 510t-3-28q4-25 23-41 18-15 42.5-18.5t45.5 6 29 30.5zm-276 6q5 0 18-18 12-15 13.5-21t-1-7.5-6.5.5l-18 17q-5 5-7 8-3 5-3.5 10t1 8.5 3.5 2.5z"/></svg>