<svg xmlns="http://www.w3.org/2000/svg" viewBox="0 0 1000 1000"><path d="M248 552q0-12-7.5-20.5T222 523t-18.5 8.5T196 552t7.5 20 18.5 8 18.5-8 7.5-20zm104-220q13 0 22.5-10t9.5-24-9.5-24-22.5-10-22 10-9 24 9 24 22 10zm184-75q12 0 20.5-9.5T565 225t-8.5-22.5T536 193t-20.5 9.5T507 225t8.5 22.5T536 257zm201 42q11 0 19-8t8-20-8-20.5-19-8.5-18.5 8.5T711 271t7.5 20 18.5 8zm122-39q-7 7-14 15-16 15-23 20-4 2-11 5l-7 2-7 4q-8 6-13 7-10 4-26 6t-30 2q-11 0-18-1l-4-1q1-3 3.5-6.5t6.5-6.5v-2q0-1-1-2.5t-8 3-12 8.5q-5-6-8.5-13t-5.5-19q-3-14-2-27 3-39 14-58 6-10 14-24l8-11q-6 1-11.5 3.5T684 180q-16 15-22 26-14 21-13 38 0 8 6 22 4 12 8 18 11 18 25 33l-11 11q-12 12-18 19-8 9-16 35l-1 2q-3 6-9 9l-7 3q-8 3-11 5-8 6-15 12-8-8-11-20-3-16-15-46-4-9-10-21l-5-11 10-12q12-13 17-21 7-12 15-31 10-23 12-34 3-24-9-51-8-16-18.5-27.5T559 114q-13-12-17-14t-5-1l4 5q17 21 21.5 32t3.5 30l-2 17 5 6q6 7 7.5 14.5t1 23.5-2.5 27q-3 15-8 27-4 9-9 16l-4 5-3-4-3-4-1-5q-1-6-3-9t-4.5-5.5-4.5-1.5-.5 4.5 1.5 7.5-3 4q-6-10-13-18l-8-8q-29-34-49-49.5T422.5 188t-34-10-22.5 5q-7 4-19 15l-10 9q-5 5-7 7.5t-2 8.5l6-4q7-4 19-4 15 0 42 20l28 19 16-2q17-2 25 1 20 6 30 15 6 5 16 17t11 13q2 8 4 9l2 1q9 6 14 12 10 11 18 35 11 31 11 57 0 8-2.5 24t-2.5 25q-1 29-24 67-5 8-5 9l3 5q10 15 13 25 1 5 4.5 12t2.5 10q-1 5-10 12-10 7-21 12l2 4q4 3 10 6l4 1q13 5 20 11 4 4 10 11.5t6 9.5q-16-11-33-19-9-4-24-9-12-3-19-6-36-15-69-37-22-15-39-36-10-3-20-9l-4-2q-10-6-11.5-10.5T360 512l2-11-9-26q-8-27-9-38-2-15-2-31l12-14q14-14 23-18 23-11 40-11 5 0 22 3l8 1q2 0 14.5-9.5T482 339l14-17q13-15 14-17.5t2-6.5l-12 7q-13 5-26 5-6 0-22-2l-8-1q-4 0-17 5-17 7-33 18.5T365 355q-10 10-17 20l-5 8q-2-5-2-10 0-10 3-19 0-4-3-5.5t-7.5 5-7 13T325 380l-4-1q-4-3-8-7v-1q-12-17-16-25-8-20-8-42 0-11 3-20 2-7 5-12l4-4q-5-17-4-34 1-12 3-19l1-4q1-8 3-15t5-12 3-10l-10 9q-14 13-28 31-17 21-24 37t-8 33q-1 37 35 72l45 44q-1 11-1 23 1 15 5 30 8 26 8 53 0 18-3 36-2 15-3.5 18.5T326 568h8q10 1 14 3l8 4 3 1q4 1 5 2l32 38q16 18 34 33l15 12q-5 0-10-1-10-2-22-8-8-5-15-12-19 5-29 4.5t-25-5.5q-20-6-33.5-17T289 600q-6-7-10-14l-2-5 2-23q3-23-2-58-2-13-12.5-42t-19-42.5-25.5-22-33-8.5q-31 0-46 11 28 5 47 26 15 18 33 53 10 2 17 8 22 17 29 48 1 8 2 22l1 12q0 3-2 3l-3-1-4-3q-4-3-6-2t-2 4l3 7q3 8 1 11-18 1-34 10-12 8-32 31t-27 39q-11 25-7 55 1 12 13 31l11 17 3-18q4-19 7-26.5t14-23.5l9-15v-25q1-25 1.5-28t8-14.5T237 600q11-9 25-9l9 11q11 13 21 24 24 26 42 38 15 9 47 25 14 7 27 20l11 11 10-7q11-8 19-11t22.5-5 24.5-2q17 0 35 9 12 6 30 21l17 16q19 19 29 35 12 22 18 38 8 19 9.5 38t2.5 37v5l2 7q7-7 15-13.5t17-11.5q15-21 34-37 28-22 50-26 10-2 22.5-1.5t19 2T807 820t6 11.5 0 10.5l-1 4q8-2 11-9t0-15.5-8-12.5v-1q-7-7-12-10-9-6-22-8-18-2-32-7l-36-12q-9-3-18-7-3-2-16-18l-14-17-14-14q-9-10-11-13l-2-2q-9-13-11.5-22.5t-1.5-21 4-18 13-10.5q7-3 16-4l8-1q-1-9-9-14-4-3-15-5.5t-16-5.5q-14-8-26-26-14-21-14-45t16-59.5 28.5-43T663 417q2 0 4-2l2-1-3-8q-4-12-1-24 1-9 6.5-21t11.5-18q8-8 18-14l17 5q20 5 35 6 28 3 49-1 8-2 17.5-7.5t16-11.5 14-22 9.5-26v-12zM706 475q-12 0-21 10t-9 23.5 9 23.5 21.5 10 21-10 8.5-23.5-8.5-23.5-21.5-10zm1 76q-12 0-20.5 9t-8.5 22 8.5 22 20.5 9 20.5-9 8.5-22-8.5-22-20.5-9zm-63-36q-14 0-24 11t-10 26 10 25.5 23.5 10.5 23.5-10.5 10-25.5-10-26-23-11z"/></svg>