<svg xmlns="http://www.w3.org/2000/svg" viewBox="0 0 512 512"><path d="M435 332q-5-5-11-9-2-2-4 0l-26 26q-2 2-5 1 0-2 1-5l10-10q12-13 14-16t0-5q-11-10-13.5-11t-4.5-1q2 8-3 14-3 4-22 22l-2 2q-11 11-9 30v3.5l-2-.5q-6-1-11.5-1t-12.5 2l-6 3 4-4q6-5 11-6h8l4 1q-2-7 0-14.5t8-14.5l18-19q2-2 1-6l-1-2q-1-2 0-5t2-2q3 3 5.5 1t-1.5-6l-52-45q-2-2-3-.5t-.5 3-1.5 2.5-5 .5-5-3.5q-5-5-12.5-5t-13.5 6q-8 9-5 30 1 10 4 19-10-4-19.5-6.5T255 298q7-4 16-4 3 0 8 1l4 1q-2-9-2-18-1-17 12-28 8-6 20-5 4 0 9 3l5 4 1-4q1-3 .5-5t-3.5-5l-3-5q-2-3-2-9v-4q-3-2-15 0h-2q-2 0-4-2l-2-2q-4-3-5-2t-1 3l-1 3q0 1-4 5l-11 9q-12 11-13.5 18t.5 21l-8-1q-8-2-13.5-2t-11.5 2l4-3q4-3 7.5-4t8.5 0h5v-9q0-11 6-19 4-4 14-12l4-4q5-5 4-12 0-2-3-8l-2-5q-1-3-2-16 0-9-1-10l-11-24q-7-16-15-20.5t-27-4.5h-3q-5 0-19-3h-1q-13-3-20-1t-20 20l-2 3q-2 2-6.5 5t-5.5 5-1 6 2.5 6 6.5 3l3 1-3 1q-4 0-8-1.5t-7-6.5q-1-2 .5-8.5t2.5-7.5l5-4q9-8 12-12l7-10q4-5 5-6 5-4 9-4t7 2h1q6 3 10 3t9.5-.5T216 113l3 1q6 2 10 2.5t5.5-.5-.5-5-5-6q-6-4-25-26l-1-1q-13-14-32-14-7 0-14 5-4 3-9 9.5t-8 7.5l-2 1q-13 1-21 9-7 6-8 21v2q0 1-6 7l-8 8q-3 4-5 9l-1 3q-3 11-1 23-2 1-4 3-10 11-10 29 1 11 6 18 4 5 14 13l4 4q10 8 27 15 13-1 18.5-4t9.5-11l1-3 2-1q11-4 14-6 9-8 9-18l6-2q7-3 9-8t3-12l1-4q2-6 4-13l-7-7q-4-3-9-4l3-3 2-4 5 4q6 4 11 5 7 1 15 1 4-1 4 1t-.5 3.5-1.5 1.5h-8q-1 1-3 4.5t-3 6.5l-2 5q-5 14-5 19-4 20 3 32 5 9 14 16 0 1-2.5-.5T211 246q-6-5-10-10.5t-5-12-1-12.5q-3-2-11 6-2 2-5.5 8l-3.5 6-4 1q-10 3-14 6-2 1-6 6t-5 6q-4 3-17 3 1 6 4.5 10.5T144 274t12.5 7.5 15 2T189 287q4 2 8 7 2 2 3 2l5-2q6-4 8-3t0 3l-9 11q-2 4 1 7l1 2q2 1 2 2l-1 2q-2 12 1 15h3q6 1 9 2l5 4q4 2 5 2 4 1 6-1l56 64q2 2 1.5 6.5t.5 6.5q7 7 26 29 3 3 7 1l-1-2q0-4 4-8l28-27q9-9 8-26 0-3 .5-3.5t4.5-.5q16 0 25-9l31-30q5-6 10-4l1-2z"/></svg>