<svg xmlns="http://www.w3.org/2000/svg" viewBox="0 0 1000 1000"><path d="M745 452q0-61-27.5-113.5T641 252t-109-42q-4-5-9-9-3-3-7.5-5t-4.5-5.5 8-11.5q5-5 14-10 4-3 4.5-4.5T532 159q-9-7-14.5-12.5T507 132q-3-7-5.5-7t-5.5 7q-5 9-10.5 14.5T471 159q-6 4-6 5.5t5 4.5q9 5 14 10 8 8 8 11.5t-4.5 5.5-7.5 5q-5 4-9 9-55 7-101 37-94-53-112-28-7 10 1 44.5t28 72.5q-30 55-29.5 116.5t30 116 81.5 88T483 695q-11 3-23 11t-12 14 4 10l9 6 9.5 7 3.5 8q0 17-24 33-6 4-18 8-6 2-7 3-3 3-3 8v10q0 5 6 5h44q7 0 7 3t-5 5.5-14 3.5q-7 1-23 2h-59q-8 0-26.5 15.5T333 868t2.5 6 7.5 1h316q5 0 7.5-1t2.5-6-18-20.5-26-15.5h-45v-29q1-5-2-8-1-1-8-3-11-4-17-8-24-16-24-33 0-5 3-8t9.5-7 9.5-6q4-4 4-10t-12-14-23-11q52-4 99-29 37 19 70 26.5t44-.5q23-17-27-107 40-61 39-133zm-32 0q0 54-25 101l-3-4q-36-58-99-124-5-59-19-108-19-61-45-76 53 6 97 35t69 75.5T713 452zm-163-63q-42-43-89-81 17-25 38-25t35 35q10 26 16 71zm37 85q12 18 19 28 22 32 32 57 11 33-2 46.5t-72-9.5q17-54 23-122zm-98-233q-26 11-45 54-22-16-43-29 41-23 88-25zM290 452q0-43 17-83l7 9q29 38 55 69 21 25 22.5 23.5t1-4.5-4.5-8l-4-8q-19-37-30-66-22-56-10-68t38-5q22 5 49 22-7 30-11 60h3q2-1 4.5-4t4.5-10q4-19 12-38l53 38q-26 1-46 17.5t-26.5 41 2 48.5 29.5 38.5 47 14 46-15.5q-8 52-22 76-1 0 0 1-12 21-28 21-27 0-49-44-12-24-18-53-2-9-7-12-3-2-5-2l3 21q4 26 11 48 9 31 21 51 16 26 35 33-55-3-101-32t-72.5-76.5T290 452zm231 211q18-9 33-41l19 15 13 9q-31 14-65 17z"/></svg>