<svg xmlns="http://www.w3.org/2000/svg" viewBox="0 0 1000 1000"><path d="M583 698q8-5 14-11 10-9 18-18 16-19 28-40 35-61 35-129 1-93-61-190-34-53-82-90-41-31-92-51-40-16-85-24-31-5-62-6l-25 1 17 2q20 4 43 12 31 11 60 28 37 22 70 51 39 34 70 78-8-3-17-6l-9-3q-12-3-26-5-18-2-38-2-24 0-47 4-28 5-54 15-29 13-56 32-30 22-55 53-28 34-51 78-46 88-39 187 4 71 35 141 15 35 29 56l-6-16q-7-20-11-43-6-32-6-66 0-43 9-86 10-51 33-100 1 9 3 18 4 20 12 38 4 9 8 17 32 64 91 102 82 54 206 48 62-2 119-26 47-19 90-53 33-27 62-62 21-25 37-51l12-21-11 12q-14 16-31 32-26 21-55 38-37 22-78 35-49 16-104 21zm-137-36q-39 0-71.5-19T323 591.5t-19-71 19-71.5 51.5-52 71-19 71 19 51.5 52 19 71.5-19 71-51.5 51.5-70.5 19z"/></svg>