<svg xmlns="http://www.w3.org/2000/svg" viewBox="0 0 512 512"><path d="M401 75q-9 6-46 33l-43 31q-26 19-37 10-5-6-6-15t2-16.5 13-15.5l3-3q2-2 1.5-8t-4-9.5T265 83t-31 16l-5 5q-28 21-46 37-39 36-73 85-28 23-39.5 56.5T67 351t33.5 60.5T161 445t69-3.5 56-39.5q50-35 84-73 16-17 37-45l5-6q12-15 17-31t1.5-19.5-10-4-8.5 2.5l-2 2q-9 10-16.5 13t-16.5 2.5-14-6.5q-10-11 10-37l31-42q27-38 33-47 8-13 10-46l1-1-18 2q-21 3-29 9zM189 408q-35 0-60-25t-25-60 25-60 60-25 60 25 25 60-25 60-60 25zm156-214q-14 21-18 36-4 18 6 30 8 9 34 7 12-1 23-4-5 8-12 16l-4 5q-13 17-24 28-14 14-38 33 6-30-3.5-59.5t-31-51-51-31T167 200q19-24 34-38 10-11 27-24l6-4q7-7 15-13l-2 12q-3 14-2 24 1 15 7 21 12 11 30 6 15-3 36-17t102-75l-1 1q-61 82-74 101z"/></svg>