<svg xmlns="http://www.w3.org/2000/svg" viewBox="0 0 1000 1000"><path d="M443 329q10 14 18 29t10 24q2 12 2 29 0 24 2 94l1 41q0 21 6.5 32.5T499 590h2q10 0 16.5-11.5T524 546l1-41q2-70 2-94 0-17 2-29 2-9 10-24t18-29q17-21 42-44l23-17q6-7 6-16t-6-15l-22-13q-25-16-43-31-10-8-19-22-7-10-13-23l-4-11q0-8-6-14t-14.5-6-14.5 6-6 14l-5 11q-6 13-12 23-10 14-20 22-29 23-64 44-7 6-7 15t7 16q-1 0 1 1 40 30 63 60zm-61 61q4-6 2-12.5t-8-10.5l-19-5q-22-7-39-15-13-5-27-21l-12-14q-2-6-7.5-9.5t-12-1.5-10 7.5T248 321l-3 18q-5 20-13 32-17 23-40 45-4 7-2 13.5t8 10.5l21 9q24 11 40 24 11 8 20 18t12.5 17.5T299 529q4 18 20 69l10 34q5 17 12 25t15 6h1q8-2 10-12.5t-2-27.5l-7-29q-13-57-18-76-4-13-4-22-1-7 2-20.5t8-25.5q8-19 23-41zm426 26q-7-7-13-14-16-17-27-31-8-12-13-32l-3-18q2-7-1.5-12.5t-10-7.5-12.5 1.5-7 9.5l-12 14q-15 16-27 21-17 8-39 15l-19 5q-6 3-8 10t2 13l13 19q15 22 23 41 5 12 8 25.5t2.5 21.5-4.5 21q-5 19-18 75l-7 30q-4 17-2 27.5t10 12.5h1q8 2 15-5.5t12-24.5l9-32q17-54 22-72 3-13 6.5-20.5T721 491t20-18q17-13 41-24l20-9q6-4 8-10.5t-2-13.5zM552 558q-4-3-9.5-3t-9 3-4 9.5T534 580l14 11q2 2 2 4.5t-2 4.5l-44 40q-2 2-4.5 2t-3.5-2l-44-41q-2-1-2-3.5t2-4.5l13-11q6-6 5.5-12.5t-4-9.5-9-3-9.5 2l-40 27q-4 5-4 11.5t4 11.5l17 13q20 17 32 33 8 10 14 21.5t7 19 1 20.5q0 19 2 71l1 31q0 16 5 26.5t12 10.5h1q8 0 13-10.5t5-26.5v-31q2-52 2-71 0-12 2-21 1-7 7-18.5t14-21.5q19-25 48-46 5-5 5-11.5t-5-11.5q-34-23-39-26z"/></svg>