<svg xmlns="http://www.w3.org/2000/svg" viewBox="0 0 512 512"><path d="M374 160q0 1 2 3t4 2.5 4-1.5 3.5-1 13.5 11q21 16 23 16t7-6 3-9.5-9.5-10.5-12.5-9q-2-1-5 1t-4.5 1.5-2.5-2.5-1-3q3-4 3.5-9t-3.5-7.5-8 .5q-1 1-5-1l-57-47q-15-13-23-17-12-8-26-7-10 0-21 6.5T242 84q-10 12-13.5 19t-3.5 14q0 4 6 7.5t12 4.5h8l4.5 1.5-6 3L236 135q-4-1-11.5-3.5t-10.5-3-5.5 3-.5 7.5l1 2q3 4 2 7l-11 23q-9 19-15 27-9 12-17 7-3-2-2 1 2 14-13 31-12 14-20 17-5 3-16 2-2 2-1 4l2 5q2 4 1.5 6.5T114 277q-2 2-4 3-2 4-1 9 4 12 64 17 35 3 76 3 73-1 96.5-2.5T400 298q2 0 3 .5t-1 2.5q-19 12-88 15l-14 1q-31 1-43 1-123-1-155-14-17-7-19-11-1-2-3-2t-2 1q-1 11 18 22 17 9 34 11 1 0 1 1.5t-1 2.5-4.5 3-1.5 4.5 5 9.5q5 13 10.5 20.5T158 382q9 6 12 9 5 5 4 12 0 4-9 9-6 2-9.5 5t-3.5 8q0 8 13.5 14.5t37 8T232 446q2-2 2-7.5t4-9.5q7-4 16-3.5t15 5.5q2 2 2 7t2.5 7.5T291 448t29-3q18-3 26-8.5t7-13.5q-1-4-3.5-6t-7.5-4-8-4-3.5-7 4.5-10q3-4 13-10 11-7 14-12 5-6 12-22 6-13 9-17 6-7 22-15 11-5 14-8 6-5 6-12 0-4-2-6-11-11-31-16-6-1-6-2l-1-3 1-4q2-12-7-27-8-12-19.5-21.5T344 207h-4q-6 0-9-1-11-6-20-25l-7-12q-7-14-10-21-1-3 .5-5t.5-5q0-7-10-13l-1-1q-8-6-8-17.5T289 93q6-1 16 6 6 4 19 15l52 40q-2 3-2 6zm-37 54l1 .5 2 1.5q4 16 34 36 5 4 3 4.5t-5-.5h-1q-11-3-21-10-13-9-13-23v-1q-1-8 0-8zm-69 51q-6 5-14 5t-13.5-4-5.5-12q7 8 16 8t13-7-1-17q9 7 9 15t-4 12zm12-30l-2-2q-7-5-11.5-7t-13.5-2q-13-1-23 8t-9.5 21.5T234 275q-12 2-20-7.5t-6-20.5q3-17 18.5-25.5T258 217t22 18zm-141 3q2 0 8.5-8.5T155 218t-.5-4-3.5 1l-9 8q-5 5-6 10 0 2 1 3.5t2 1.5z"/></svg>