<svg xmlns="http://www.w3.org/2000/svg" viewBox="0 0 512 512"><path d="M276 257l114-114h7q5 3 10.5 2.5t11-4.5 7.5-12q2-4 2-14 1-12 4-15 5-6 14-11l2-1q0-1-3.5-1t-8.5 1.5-10.5 5.5-6.5 8v2q-1 7-5 11-6 6-14.5 5.5T386 115t-3-21l-9-2q-12-1-25-1-18 1-36 6-30 7-71 31-11 7-14 7-8 3-24 0-8-1-15-6l-3-1h-7.5l-.5 3 22 22q3 3 1 5.5t-5.5 2-7.5-2-4-.5l-4 4q-1 1 0 1l19 19q1 1 2 0l11-11q3-2 5 0l11 11q2 2 3-2 7-15 18-27t32-21 46-13q32-5 57 11v8L271 252q-1 0-1 .5v1.5l4 3q1 1 2 0zM88 448l1-2q5-9 11-14 3-3 15-4 9 0 14-2 8-2 12-7.5t4.5-11T143 397v-7l120-119 106 106 1 22 5 5 1-10q0-2 2-3v16l35 35-1-25 5-5 25 1-35-35h-16q1-2 3-2l10-1-5-5-22-1-236-236q-20-20-19-24t8-5L64 64l40 66 1-4q1-3 4-4 4 0 24 19l34 34-9 9q-1 0 .5 4t2 7.5-2 5.5-5.5-1l-22-22q-3-3-3 .5v7.5l1 3q5 7 6 15 3 16 0 24 0 3-7 14-24 41-31 71-5 18-6 36 0 13 1 25l2 10 8-1q10 0 14 4t4.5 12.5T115 414q-4 4-10 5h-3q-5 2-8.5 7t-5 10.5T87 445t1 3zm42-64q-16-25-11-57 4-25 13-46t21-32 27-18q4-1 2-3l-11-11q-2-2 0-5l17-16 69 69-119 119h-8z"/></svg>