<svg xmlns="http://www.w3.org/2000/svg" viewBox="0 0 1000 1000"><path d="M723 335h-38l-8 10q-9 12-18 19-11 10-17 10-11 0-18-14t-7-28V171q0-13-7-30-4-13-12-25l-7-11-7 12q-7 13-12 26-7 17-7 28v172l-5 7q-7 8-19 16-19 13-41 16-22-3-41-16t-24-23V171q0-11-7-28-5-13-12-26l-7-12-7 11q-8 12-12 25-7 17-7 30v161q0 14-7 28t-18 14q-6 0-17-10-9-7-18-19l-8-10h-38q-6 0-10.5 4t-3.5 10q0 4 72 165 53 117 58 130 7 19 41 122l19 56q5 13 14 23t16 10l17 1 17-1q7 0 16-10t14-23l19-56q34-103 41-122 5-13 58-130 72-161 72-165 0-6-4-10t-10-4zm-92 142q-5 14-24 35-17 20-34 31l-10 6q-12 7-19.5 12.5t-14 14T523 588t13 20q16 20 16 25v54q0 6-17 30-10 13-11 17-5 10-8 23t-3 19.5-7 10.5l-6 2-6-2q-7-4-7-10.5t-3-19.5-8-23q-1-4-11-17-17-24-17-30v-54q0-5 16-25 13-16 13-20t-6.5-12.5-14-14T437 549l-10-6q-17-11-34-31-19-21-24-35l-10-39 6-9q8-11 16-16 17-11 30-11 2 0 14 12 21 23 33.5 28.5T482 451q8 2 14 2h8q6 0 14-2 11-3 23.5-8.5T575 414q12-12 14-12 13 0 30 11 8 5 16 16l6 9z"/></svg>