<svg xmlns="http://www.w3.org/2000/svg" viewBox="0 0 512 512"><path d="M117 263q11 0 19 8 5 5 8 11 1 2 2 2l1-1q4-6 16-6 14 0 27 9 4 3 11 12 3 4 3.5 4t-.5-4-3-8l-1-1q-4-9-13-16-5-3-12.5-5t-13.5-8q-13-13-10-22 1-3 6-5-3-2-6-2-6 1-11.5-1.5t-10-10.5-5.5-16v-9q1-14-3-21-10-14-23-25-5-3-11-6 2 4 5 7t5 9q5 9 4 19 0 5-4.5 15T92 208.5t11 17.5q4 5 5 7t1.5 5-1.5 4.5-14-6.5l-7-7-8-7q-5-3-11-4 1 2 2 3 12 10 15 19 1 3 .5 9.5t1.5 9 7.5 8 7.5 5.5v-1q5-9 15-8zm50-128q5 7 11 19.5t7.5 19.5 2 16.5-.5 13-3 7.5v-5q-2-7-5-13.5T165 178l-3-3q-4-4-8-4l6 8q11 15 11 35 0 6-5 15l-1 3q-1 3 0 8.5t4 8.5q5 7 18 10t27 18q17 17 22 26 2 4 4 9l1-2q1-4 0-8-8-27-21-44-15-20-17-37-1-11 6-21.5t6.5-16T213 172l3 4q3 4 3 11 0 3-2 9-4 13-2.5 20t12.5 21l5 6q2 3 3 8l1 4q1-3 1-5t1.5-8 3-9.5 6-7.5 6-4.5 3.5.5l1 1q1-9 1-18-2-13-21-31-10-9-16.5-23.5T215 117q-1-22 21-44l8-9-7 3q-8 6-17 13-11 11-23 29-4 7-5.5 14t-.5 11l6 14q1 3 1 6-5-9-9-14-7-8-25-17-10-6-16-7l7 6q7 7 12 13zm96 121q0 4-2.5 7.5t-6 3.5-5.5-6q-1 0-3 4.5t-2 10.5q0 9 7 18l9 13 1-2v-3l-2-3q-2-3-2-7-1-7 4-14 2-2 4-3.5t4-.5 1 5l-2 4q3-1 6-3 7-7 8-16.5t-4-14.5q-8-8-7-14 1-10 7-19l3-4q5-7 5-9-5 4-9 9-7 8-13 17-3 4-5.5 10t-2.5 7l1 1q5 4 6 9zm45-38l7-7q10-9 13-13 7-8 9-15 1-4 1-12v-5q1 3 2 5 2 7 1 13-2 12-10 23-4 6-11 13t-10 8l-6 4 2 2q2 3 2 5-1 10-7 15-9 6-10.5 8.5T289 268q2-2 4.5-3t4 .5 1.5 3.5-1 4l-9 11q-4 6-5.5 12t-.5 13l2-5q2-6 5-9 9-14 20-19 7-5 17-7l1-6q2-7 5.5-11.5t9-7.5 10.5-4h2q7 0 9-1 7-2 13-10 5-5 7-11l1-5-3 3q-3 4-5.5 5.5T363 224h-3q-4 1-7 4l-5 3q0-2 1-4 5-9 13-13 11-5 16.5-11t5.5-18l1-8q3-12 14-22 10-9 23-13h-8q-9 1-18 5-12 5-21 15l-1 1q-7 8-13 6.5t-6-12.5v-18q0-5-4-13t-9-15q-7-10-15-18-7-7-16-11l4 6q8 7 10 13 5 12 5 25 0 16-8 28-4 5-12.5 13t-8.5 11q-1 7 1.5 12.5T304 201v1q-2 8-5 13l-11 18 8-5 12-10zm121 9q-4 3-7 8l-3 4q-3 4-5.5 5t-6.5 1l-1 1h-9q3-4 6-9 3-7 1.5-22.5T397 190q-2-3-6-6l2 5q1 2 1.5 9t-.5 15-8 16l-4 7q-6 10-21.5 17T335 269q-3 4-7 11l-3 6q4-2 6.5-4.5t8.5-5.5 11-4.5 12-1 12 2 10 5.5q2-5 6-10 6-8 13-9h3q11-1 15.5-5.5T430 241l2-6q3-7 12-14-9 0-16 6h1zm-49 116q-6 0-10 6-2 3-5 10l-2 7q-2 3-5 4.5t-5-.5q-5-3-2-13 2-4 11-14l4-4q13-16 13-30 0-9-6-15t-15-6q-15 0-23 11-1 1-1.5 1t-1.5-1q-2-3-5-6t-5.5-3.5-4.5.5l2 2q2 3 1 5v1q-1 5-17.5 12.5T254 318h-1q-32 0-48.5-7.5T187 298v-1q-1-2 1-5l1-2q-1-1-4-.5t-6 3.5-5 6q0 1-1 1t-1-1q-8-11-24-11-9 0-14.5 6t-5.5 15q0 14 13 30l4 5q9 9 10 13 4 10-1 13-3 2-5.5.5T144 366l-3-6q-2-8-5-11-3-6-9-6-11 0-14 10-2 5 0 9.5t4 4.5v-3q1-3 3-5.5t6.5-2.5 6.5 7q3 9 7 14 7 7 15 7 4 0 7-1l2-2q0 7 2 13 4 9 12 15 3 2 9 5l8 5q6 4 11 10v4q0 2 4.5 5.5T224 444q12 4 29.5 4t28.5-4q9-2 14-5.5t5-5.5v-4q5-6 11-10l8-5q6-3 9-5 8-6 11-15 3-6 3-13l2 2q3 1 7 1 8 0 15-7 4-4 7-14 2-7 6.5-7t7 3 2.5 8q2 0 4-4.5t0-9.5q-4-10-14-10zm-205 17q-2 4-6 5v-5q-1-6-7-14l-3-2q-9-12-11-18t.5-11.5 6.5-7.5q7-3 16 4.5t9 16.5q0 6-3.5 6t-4.5-1.5-1-3.5q-3 0-2.5 6.5t5.5 8.5q3 1 6 0v5q-1 5-5 11zm163 5q-4-1-6-5-7-9-5-16 3 1 5 0 6-2 6.5-8.5T336 329q0 2-1 3.5t-4.5 1.5-3.5-6q0-9 9-16.5t16-4.5q4 2 6 7.5t.5 11.5-10.5 18l-3 2q-6 8-7 14v5z"/></svg>