<svg xmlns="http://www.w3.org/2000/svg" viewBox="0 0 512 512"><path d="M355 284q-3-1-6-3-7-5-18-5-27 0-46 20.5T266 345t16.5 45.5T327 412q6 1 10.5 6.5T340 432q-2 15-30 7-35-6-56-31t-21-66q0-24 11.5-46t31.5-36l1-1q13-7 15-26 3-67 11-141l1-13q2-18 3-23 1-8 5-8 3 0 5 8 1 5 2 22l2 14q5 54 9 116 2 17 6 30t8.5 15.5T359 262q17 9 21.5 9t1.5 5-11 8-16 0zm-186-45q3-2 23 12l10 7q7 5 15 7l3 1q6 0 11.5 3.5t2.5 6.5q-17 20-22 52-7 50 32 96l1 1q0 7-11.5 1T217 415t-11-14q-4-3-9-1l-10 7q-20 15-23 12-2-2 12-22l10-15q3-6 2-15-2-6-3-12-2-11-8-13l-18-4q-15-2-21-4-9-3-9-6t9-6q6-1 21-4l19-4q4-1 7.5-4.5t5.5-8 4-9.5l1-3q-1-7-7-17l-8-10q-14-20-12-23zm123 105q0-14 10-23.5t23.5-9.5 23 9.5 9.5 23-9.5 23.5-23 10-23.5-10-10-23z"/></svg>