<svg xmlns="http://www.w3.org/2000/svg" viewBox="0 0 1000 1000"><path d="M820 222q-34 48-68 95l-2 5q-4 7-13 18-12 14-32 34L366 710q46 29 99.5 33t103-17.5 83.5-63 45-94.5q4-23 18-33 11-8 24.5-7t23.5 11q13 12 10 31-14 90-67 150 0 5 4 19 7 24 7 36 1 20-10 29-10 8-25 2-9-3-28-14-12-7-16-9-8-4-11-2-77 43-164.5 37.5T305 760l-1 1q-68 49-93 65-13 9-21 11-7 1-10 0l-6-6q-2-4 0-10 2-9 10-21 20-28 68-95l3-5q4-7 12-18 13-15 33-35l306-303q-50-34-111-38t-115 24.5-85.5 81T263 525q0 17-7 30-8 14-25.5 15.5t-30.5-12-13-33.5q0-66 27-124t76-100 111-60q3-1 6-8 2-5 6-18 7-24 12-34 8-18 20-19t26 16q7 10 20 33 11 20 14 20 87 6 156 59 29-26 37-27l96-68q13-8 21-10 6-2 10 0l6 6q2 4 0 10-2 9-11 21z"/></svg>