<svg xmlns="http://www.w3.org/2000/svg" viewBox="0 0 512 512"><path d="M435 418q-2-1-7-4l-1-1q-1-1-2-1l-6 6q-2 2-3.5.5t-.5-3.5l6-6-48-53-10 10q-2 2-4 0t0-4l38-38-11-12-20 20q-3 3-14 0h-2l-1 1-7 7h-1q-1 0-2.5-1t-.5-3l5-5-7-7q-2-7-1.5-14t2.5-14q-4 0-10-3-14-6-28-19-20-18-53-50-37-37-56.5-58.5T148 118l-17-22-67-32 32 67 22 17q26 22 47.5 41.5T224 246q32 32 50 53 13 14 19 28 3 6 3 10 7-2 14-2.5t14 1.5l11 11-3 3v2q3 11 0 14l-20 20 12 11 27-28 57 51 4 5q0 1 1 2v1q4 5 5.5 8t.5 11l3 1h8q7-1 12-6t6-12-1-11h-5q-5 0-7-1zm-88-229q34-30 69-58l32-67-67 32-17 22q-22 26-41 47-22 25-63 65l22 22q40-41 65-63zm-134 85q-10 10-20 15-7 4-13 6l-5 1q2 7 2.5 14t-1.5 14l-7 7 5 5q1 2-.5 3t-2.5 1l-8-7-1-1h-2q-11 3-14 0l-20-20-11 12 38 38q2 2 0 4t-4 0l-10-10q-44 49-48 53l6 6q1 2-.5 3.5T93 418l-6-6q-1 0-2 1h-1q-5 4-8 5.5t-11 .5l-1 3v8q1 7 6 12t12 6 11-1v-5q0-5 1-7t4-7l1-1q1-1 1-2l4-5 57-51 27 28 12-11-20-20q-3-3 0-14 0-2-1-3l-2-2 11-11q7-2 14.5-1.5T216 337l1-5q2-6 6-13 5-10 15-21l14-15-23-23z"/></svg>