<svg xmlns="http://www.w3.org/2000/svg" viewBox="0 0 512 512"><path d="M410 217q-2 27-14 47-9 13-40 47l-9 10q-46 49-63 80-4 6-9.5 19.5T266 439q-5 8-11 8t-11-8q-3-5-8.5-18.5T226 401q-17-31-63-80l-9-10q-31-34-40-47-12-20-14-47t11-46q12-17 31-22 25-6 49-22 38-26 64-73 26 47 64 73 23 16 49 22 19 5 31 22 13 19 11 46zm-33-8q-3-23-20-31-14-7-32-1-16 5-19 23-2 10 0 31 1 11 1 15-1 6-4 6-11 3-24-18-12-18-15-33 0-3 1-9.5t4-14.5 13.5-15.5T298 153q-8-2-43-41v1q-35 38-43 40 5 1 15.5 8.5T241 177t4 14.5 1 9.5q-3 15-15 33-13 21-24 18-3 0-4-6 0-4 1-15 2-21 0-31-3-18-19-23-18-6-32 1-17 8-20 31-2 20 11 41 8 12 28 35l8 9q17 18 45 43 14 13 19 19 9 8 11 16 2-8 11-16 5-6 19-19 28-24 45-43l8-9q20-23 28-35 13-21 11-41z"/></svg>