<svg xmlns="http://www.w3.org/2000/svg" viewBox="0 0 1000 1000"><path d="M757 139q-5 0-14 10-6 6-18.5 21.5T707 192q-9 10-14 10H555q-4 0-20-34l-6-13q-6-12-14-20-5-6-11-8l-4-2-4 2q-6 2-11 8-8 8-14 20l-6 13q-16 34-20 34H307q-5 0-14-10-5-6-17.5-21.5T257 149q-9-10-14-10-14 0-26 13-14 14-14 35v258q0 96 33 177 31 76 88 130 48 45 115 88 34 21 61 35 26-13 61-35 67-43 115-88 57-54 88-130 33-81 33-177V187q0-21-14-35-12-13-26-13zM469 768q-11-6-21-12-26-17-49-37-34-29-59-61-31-40-47-94-12-42-12-80l1-219h187v503zm191-110q-25 32-59 61-23 20-49 37l-21 12V265h187l1 219q0 38-12 80-16 54-47 94z"/></svg>