<svg xmlns="http://www.w3.org/2000/svg" viewBox="0 0 1000 1000"><path d="M211 488l-30 70-32-14q-1-13 1-25 4-23 18-41 8-9 18-17l31 14zm15 66q-7-2-19-5l-7-1 23-53 6 5q10 7 16 10 9 5 31 11t33 11q38 17 73 40l-19 41q-40-10-78-26-11-5-30.5-17T226 554zm265 156q8 2 26 6 38 7 59 15 24 9 72 35 41 23 63 32 36 15 74 23 31 6 61 7 22 1 42 0l16-2-10-13q-12-16-27-31-22-22-47-40-32-23-67-40-21-9-66-24-52-18-75-29-19-10-51-34l-22-15q-36-24-61-39l-57 130 19 6q24 7 51 13zm-25-191l-84 192-22-9 30-68-12-5q-3-1-4-5l22-52q4-2 8 0l11 5 30-68zm347-63l-24 55-6 14 32 14q9-8 17-17 14-18 18-41 2-12 1-25l-32-14zm-58 34q6 3 16 10l6 5 23-53-7-1q-12-3-19-5-9-4-28.5-16T715 413q-38-16-78-26l-19 41q35 23 73 40 11 5 33 11t31 11zm-294-90q-7-4-22-15-32-24-51-34-23-11-75-29-45-15-66-24-35-17-67-40-25-18-47-40-15-15-27-31l-9-13 15-2q20-1 42 0 31 1 61 7 38 8 74 23 22 9 63 32 48 26 72 35 21 8 59 15l27 6q26 6 50 13l19 6-56 130-18-11q-22-13-44-28zm157-111l-84 192 22 10 29-68 11 5q4 2 8 0l22-52q-1-4-4-6l-11-4 29-68z"/></svg>