<svg xmlns="http://www.w3.org/2000/svg" viewBox="0 0 512 512"><path d="M395 353q-4-2-12-5-13-5-18-9l-4-3q-15-10-20-14-13-12-17-22-2-4-10-18l-5-8q-7-11-8-16l13 14 2 4q4 7 6 9 1 0 1.5-.5l.5-.5q-1-8 0-17t4-15q1-2-1-3-14-6-28-17l-10-8q-10-6-14-12 2 1 11 6l5 3 11 7 .5-.5.5-1.5-2-5q-4-12-4-21-1-3-3-6-10-7-16-19l-6-10q-13-17-17-34-27 3-51-3-2 0-10-5-15-9-22-12t-18-6l-6-2q-5-2-13-3l-5-1q-22-4-43-11-6 9-7 21 0 7 1 21l1 8q1 9 2.5 13.5T91 166q4 8 5 12l5 19 3 7q3 7 3 11 4 0 7.5-4.5t6.5-4.5q15 1 21 0 10-1 16-5 12-9 22-29 1 4-4 13l-3 8-2 10q-2 10-4.5 11t-11.5 0l-15-2q-10-2-13.5-2t-5.5 2q-4 3-7 8-1 1-1 3t2 5l8 11q5 7 6 9.5t1 10.5 2 11q1 2 4 6l3 3 5 9q7 11 11 14 0 1 1.5.5t1.5-1.5q-4-11-4-27v-3q1-13 0-19-1-2-3-7t-2-8q14 17 10 41l28 20q4 3 9 12l5 8q7 10 12 14 11 11 16 19 0 1 1 1h1q4-7 12-11 10-5 13-4.5t6 2.5l3 2h3v-2q-2-5-22-16-3-1-8-3-8-2-11-5 14 1 32 9 11 5 30 17l4 2 17 13q5 2 11.5 2H333q1-1 4-3t6-2l3 3q7 4 8 9-6-4-10-4.5t-9 1.5q-10 3-19 1 2 5 7 11t7 9.5 4 10.5l4 12q4 9 11 21l1 2q7 14 15 15-3-9-1-17 1-5 4.5-13t4-11.5.5-8.5v-8q3 0 8 2t8 1.5 9-3.5q10-6 16-7 3 0 12 1l6 1q-13-17-37-28zM138 136q-2 1-6.5 1.5t-6.5-.5q-4-3-5-8t1.5-7 7.5-1l7 3q2 1 3 5t-1 7z"/></svg>