<svg xmlns="http://www.w3.org/2000/svg" viewBox="0 0 512 512"><path d="M370 172h-19l-8 10q-10 10-15 10t-8.5-7.5T316 170V88q0-10-7-23-3-7-6-11l-7 12q-7 13-7 22v88l-2 3q-4 4-10 8-10 7-21 9-11-2-21-9-6-4-10-8l-2-3V88q0-14-14-34l-6 11q-7 13-7 23v82q0 7-3.5 14.5T184 192q-8 0-23-20h-19q-3 0-5.5 2t-2.5 4.5 37 84.5q27 60 30 67 4 9 21 62l10 29q2 7 7 12t8 5h18q3 0 8-5t7-12l10-29q17-53 21-62 3-7 30-67 37-82 37-84.5t-2.5-4.5-5.5-2zm-47 72q-2 7-11.5 17.5T293 278l-5 3q-6 4-9.5 6.5t-7 7-3.5 6.5 6 10q9 10 9 13v28q0 3-9 15-5 7-6 9-6 13-6 22 0 3-3 5l-3 1-3-1q-3-2-3-5 0-9-6-22-1-2-6-9-9-12-9-15v-28q0-3 9-13 6-8 6-10t-3.5-6.5-7-7-9.5-6.5l-5-3q-9-6-18.5-16.5T189 244l-5-20 3-4q4-6 8-9 9-5 15-5 2 0 7 6 11 12 17 15 15 6 22 5h5q7-1 17-5 6-3 17-15 5-6 7-6 6 0 13.5 5t12.5 13z"/></svg>