<svg xmlns="http://www.w3.org/2000/svg" viewBox="0 0 1000 1000"><path d="M749 685q-65-66-146-161-58-68-85-105-49-63-82-117l-10-15q-4-5-22 7l-3 2q-6 4-8 1.5t2-5.5l18-13q21-16 21.5-20t-6-17-15.5-24-13.5-11-20.5 8l-27 13q-6 2-7-.5t13-13.5q11-8 12-11t-7.5-19-12-17.5-16 4T311 184t-11 12.5 27 42.5q-27 11-52 14-22 3-61 0 5 29 22 58 15 25 39 50l3 3q-2 1-15-9-16-13-31-33-24-32-36-70-17-3-36-13-13-7-25-17l-10-9 1 13q2 17 7 35 7 26 18 52 15 32 38 61 24 33 57 61 24 19 50 34l21 11-2-21q-1-25 2-48 5-32 18-55 17-29 43-50 44 58 122 158l45 58q84 106 107 137 25 35 52 78 31 50 38 72l1 1q8 23 10 24 5 1 18-12t22-30q20-38 16-53-1-4-16-16-27-20-44-38zM469 443q-1-1-3-.5t-3 1.5Q349 585 251 685q-17 18-43 38-16 12-17 16-4 15 16 53 9 17 22 30t18 12q3-1 11-25 8-22 38-72 27-43 51.5-77T462 513l28-36q3-3 1-6zm406-230q-5 5-10 9-12 10-25 17-19 10-36 13-12 38-36 70-10 14-22 25-9 8-16 12.5t-8 4.5l3-3q24-25 39-50 17-29 22-58-39 3-61 0-25-3-52-14 27-38 27-42.5t-11-12-23.5-13.5-16.5-4.5-12 17.5-7 19 12 11q13 11 12.5 13t-6.5 1l-27-13q-16-7-20.5-7.5T587 218t-15.5 24-6 17 21.5 20l18 13q4 4 2 6t-8-2l-3-2q-18-12-22-7-2 3-16 23-30 47-48 70-3 5 1 9l21 26q1 1 3.5 1t3.5-2q19-23 83-108 26 22 43 50 13 23 18 55 3 23 2 48l-2 21 21-11q26-15 50-34 33-28 57-60 23-30 38-62 11-26 18-52 5-18 7-35z"/></svg>