<svg xmlns="http://www.w3.org/2000/svg" viewBox="0 0 1000 1000"><path d="M850 648q-10-10-22-18-4-3-8 1-11 10-42 42l-8 8q-2 3-7 3h-3q-1-5 1.5-9t19.5-21q24-25 28-30 2-4 2-6t-3-5q-21-19-25.5-21.5T773 590l1 9q-1 11-7 18.5T725 661l-4 4q-14 13-17 32-2 10-1 26 1 6 0 7t-5-1q-10-3-22-3-9 0-23 5l-12 6 4-5q5-5 10-8 8-5 16-7 4-1 14 1l9 1q-4-14-1-27 4-17 15-30l14-15q15-14 21-21 3-4 3.5-6.5T745 614l-1-4q-1-5 .5-10.5t3.5-3.5q7 6 11.5 1.5T756 586l-51-46q-47-40-50.5-43t-6 .5-.5 7.5q1 1-3.5 2.5t-10 .5-10.5-6q-8-10-23-9.5T575 505q-17 17-11 57 3 19 8 38-19-9-39-14-17-5-35-4 14-7 31-8 6 0 15 3l9 2q-5-18-5-37 0-15 6.5-29.5T573 489q6-6 16-9t22-1.5 27 12.5l2-6q2-7 1-12-1-2-5-9l-7-10q-3-5-4-17 0-5-1-6-4-5-29-1h-4q-2 0-8-5l-4-3q-7-6-9-4.5t-2 6.5l-1 6q0 2-9 9l-21 18-16 16q-9 10-10.5 19t-.5 26l1 16-14-3q-16-3-25-3-12 0-24 3 10-10 22-13 6-2 17-1l9 1-1-9q0-11 2-21 3-14 11-25 7-9 26-24l9-7q10-11 8-24-1-5-5-15l-4-10q-3-7-5-32-1-16-2-19.5T524 308l-10-23q-6-15-11-22-8-13-18-19-16-9-53-7h-6q-10 0-38-6l-2-1q-25-5-41-1-11 3-36 38l-5 7q-3 4-12 9.5t-10 8.5q-2 5-2 12.5t4 11 12 6.5l7 2-6 1q-7 1-14-1-9-3-15-13-3-5 0-17t6-16l9-7q18-15 23.5-22.5T320 230t10-13q10-8 19-8 6 0 13 3l1 1q13 5 22 6h15q12-1 21 1l7 2q11 4 18 6 10 1 13-2 2-2-1.5-9.5T448 205q-12-9-50-51l-2-2q-12-14-28-20.5t-34-5.5q-14 0-27 10-8 5-19 19-9 11-14 13l-4 1q-26 2-42 18-12 13-14 41l-1 4q0 2-11 13t-16 17q-11 13-12 24-5 21-2 43-5 3-9 8-6 7-11 18-7 17-6.5 38t11.5 36q7 9 26 25l8 6q20 17 52 30 26-1 37-7.5t18-21.5l3-6 4-2q22-7 26-11 11-10 16-24 2-6 2-11l7-2q7-2 13-6 8-5 10-12 4-10 6-24l1-7q4-13 9-26l-14-13q-8-6-18-9l6-6q2-3 3-6l10 7q12 7 22 9 14 3 29 2 8-1 9 4 0 3-1.5 5.5T438 326q-8 0-16 1-2 1-6 8t-6 13l-3 9q-10 29-11 37-3 15-2 30 1 20 8 33 11 18 27 31 1 2-4.5-.5T411 480q-11-9-18-19-8-11-9.5-24t-2.5-25q-6-3-22 13-3 3-11 16-5 9-6.5 10t-7.5 3q-19 5-28 11-3 2-10.5 12T285 489q-7 4-34 5 4 12 10 20.5t19 19.5q15 13 24 15 12 4 29 5 21 1 36 7 8 4 17 13 3 4 4.5 4t9.5-4q13-7 15-6t2.5 3-1.5 4l-5 5q-12 13-13 15-4 8 2 15l3 2q3 3 3 5l-1 4q-5 23 1 29 1 1 7 1 11 1 17 4l10 6q7 5 9 6 8 1 12-2l51 57q53 59 59 66 4 6 2 16-1 7 2 10 13 15 50 57 2 3 6 3.5t7-.5l-1-3q-1-3 .5-7.5t7.5-9.5l54-54q11-11 15-27 2-9 2-23-1-7 0-7.5t8-.5q14 0 23-2 15-4 26-15l60-59q5-5 10-7t8-2h3l1-2q-1-3-5-7z"/></svg>