<svg xmlns="http://www.w3.org/2000/svg" viewBox="0 0 1000 1000"><path d="M680 161q2 42-2 63.5T659 268q-13 18-22.5 25t-22.5 9q-8 1-30 1h-12q-17 53-22 87-4 31 2 56 3 16 15 48 18 44 26 79 27 69-3 274 27-22 45-57 16-30 27-74 7-26 18-80 9-46 14-67 9-36 19-61 8-14 33 10 29-111 12-195-16-80-78-162zm15 140q13 49 15 74 2 35-8 69-25 0-38 17-11 15-15 44-3 17-3 57l-1 23-3 8q-4 12-6 15-3 5-3-5 2-44-4-78-4-20-14.5-49T602 430q-2-28 8-67 11 0 29-8t32-21q18-15 24-33zM316 161q-2 42 2.5 63.5T337 268q13 18 23 25t22 9q9 1 31 1h12q17 53 21 87 4 31-1 56-3 16-16 48-17 44-26 79-27 69 4 274-27-22-46-57-15-30-27-74-7-26-18-80-8-46-14-67-8-36-19-61-8-14-33 10-28-111-12-195 16-80 78-162zm-15 140q-12 49-14 74-3 35 7 69 26 0 39 17 11 15 14 44 3 17 4 57v23l3 8q5 12 6 15 3 5 3-5-2-44 5-78 3-20 13.5-49t12.5-46q3-28-7-67-12 0-29.5-8T325 334q-17-15-24-33z"/></svg>