<svg xmlns="http://www.w3.org/2000/svg" viewBox="0 0 1000 1000"><path d="M872 223q-18 33-56 96-49 82-63 112-4 10-4 28 1 11 0 18-2 31-10.5 47.5T721 531l-10-11q-26-31-40-42-24-17-56-23-21-3-20-13.5t17.5-23T651 397q4-2 10-4 13-3 25-10 15-12 36-36 12-15 39-49 52-66 80-93 16-11 25.5-6t5.5 24zM563 373q-18 0-31.5-9.5t-13.5-23 13.5-23 32-9.5 32 9.5 13.5 23-13.5 23T563 373zm-135 87q-26 0-45-13.5T364 414t19-32.5 45.5-13.5 45.5 13.5 19 32.5-19 32.5-46 13.5zm41-192q-64 31-116 79-58 53-84 110-29 65-13 126 6 20 17 38 7 11 21 27 16 19 21 30 7 17 2 41-14 36-42 35-70 0-105-111-25-79 5-159 28-78 100-140t171-91q12-2 21.5-.5t10 6-8.5 9.5zM364 584q-25 0-42-12.5T305 542t17-29.5 41.5-12.5 42 12.5T423 542t-17.5 29.5T364 584zm58 111q6-17 15-47 13-43 21-62 14-31 36-54 25-28 69-53 27-6 58 6 28 11 50.5 34t31.5 48q-7 85-64 142-53 52-132.5 68T348 768q1-12 11-22 6-5 22.5-14t24.5-14q12-10 16-23zm60 22q18 5 49-1 28-8 55-27 30-22 45-49 17-32 7-63-5-12-17.5-23T592 539q-19-4-29 5-83 71-81 173z"/></svg>