<svg xmlns="http://www.w3.org/2000/svg" viewBox="0 0 512 512"><path d="M433 313q16-19 15-52 0-16-9-34-11-22-28-35-22-17-50-17-18 0-34 14-11 10-20 25-13 23-2 34 3 3 8.5 2t8.5-4 3-2q0 5-6.5 10t-14.5 5q-11 0-16-12-2-6 0-15.5t8-17.5q9-12 24-26 2-1 2-3.5t-1-4.5q-8-10-23-19-20-11-44-11-41 0-77 43l-2 2q-7 8-13 22-8 19-1 28 5 5 12 4 4-1 7-3.5t3-1.5q1 5-7 11-5 4-14 3-10 0-14-10-3-6-1.5-16.5T153 213t21-25l2-2q3-3 2-6.5t-4-5.5q-8-4-18-3l-9 1-12 3q-14 5-27 12-17 11-28 26-13 18-16 43-1 12 3 26.5T80 308q19 22 57 28l2 1 2 1q40 24 98.5 24t97.5-16l2-1h5q28-1 46-6.5t30-14.5l4-4q6-4 9-7z"/></svg>