<svg xmlns="http://www.w3.org/2000/svg" viewBox="0 0 512 512"><path d="M189 334V175q0-7-12-9l-6 2q-6 3-6 7v159q0 4 6 7l6 2 6-2q6-3 6-7zm62 0V175q0-7-12-9l-6 2q-6 3-6 7v159q0 4 6 7l6 2 6-2q6-3 6-7zm63 0V175q0-7-12-9l-6 2q-6 3-6 7v159q0 4 6 7l6 2 6-2q6-3 6-7zm61-275q-9 0-17 6.5T350 77t-3 6-9 1H153q-19 0-32 14-5 5-8 11.5t-3 12.5q0 10 3.5 15.5T127 143q7 0 13-3 3-2 8-7 7-7 11-7h168q9 0 16 5 9 6 9 18v177q0 10-13 28-15 20-35 32-25 16-52 16-59 0-100-31l-1-1q-4-3-9-4t-7.5 1.5 0 12T142 394q12 13 35 27 37 22 75 22 28 0 61.5-18.5T370 380q24-28 24-52V156q0-6 4-15t4-15V84q0-7-9.5-16T375 59z"/></svg>