<svg xmlns="http://www.w3.org/2000/svg" viewBox="0 0 1000 1000"><path d="M801 424q-2 36-13 62.5T754 542q-15 19-58 65l-19 19q-54 59-91 108-21 29-32 49-7 13-17.5 39T520 858q-10 14-22 14t-22-14q-5-10-16-36t-18-39q-34-61-123-157l-19-19q-43-46-58-65-23-29-34-55.5T195 424q-4-53 22-90 23-34 60-43 50-12 96-43 74-50 125-143 51 93 125 143 46 31 96 43 37 9 60 43 26 37 22 90zm-65-15q-3-31-20-49-15-15-37.5-18t-44.5 5q-30 9-37 43-4 20 0 61 2 22 2 29-1 12-7 13-15 3-32-16-16-16-28-41.5T516 392q-1-6 1-17 2-15 8-28 6-16 28-33 19-14 28-15-10-3-47-41l-36-38h-1q-67 74-82 79 9 1 28 15 22 17 28 33 6 13 8 28 2 11 1 17-3 18-15.5 43.5T437 477q-18 19-33 16-6-1-7-13 0-7 2-29 4-41 0-61-7-34-37-43-22-8-44.5-5T280 360q-17 18-20 49-4 38 21 79 15 24 55 68l16 17q33 37 87 85 28 26 38 37 16 17 21 32 5-15 21-32 10-11 38-37 54-48 87-85l16-17q40-43 55-68 25-41 21-79z"/></svg>