<svg xmlns="http://www.w3.org/2000/svg" viewBox="0 0 512 512"><path d="M299 357q3-2 7-5 5-5 9-10 8-9 14-20 18-31 18-66 1-47-31-97-21-33-54-55-26-16-58-25-22-6-46-7l-19-1 13 3q16 4 32 11 23 10 43 26 25 21 45 48l-9-3-11-3q-15-3-31-2-21 1-41 8-25 9-46 28-25 22-43 57t-20 74q-2 30 7 62 6 23 16 44l10 17-4-12q-5-16-7-34-2-25 2-50 4-32 19-63l1 9q2 10 7 19l3 9q17 33 47 52 42 28 105 25 51-2 94-31 30-20 53-51 12-16 17-27l-8 9q-11 12-26 23-20 14-44 24-30 11-64 14zm-71-18q-30 0-51-21.5T156 266t21-51 51-21 51.5 21 21.5 51-21.5 51.5T228 339z"/></svg>