<svg xmlns="http://www.w3.org/2000/svg" viewBox="0 0 1000 1000"><path d="M839 442q-6-9-15-18-36-11-49 17-6 13-7 34-1 18 2 24 13 30 13 48 0 33-24 57t-57.5 24-57.5-24-24-57q0-36 15-64 13-22 38-42 15-13 49-33 24-15 36-23l-4-3q-25-19-43-29-32-16-76-24-55-11-135-11t-135 11q-44 8-76 24-18 10-43 29l-4 3q12 8 36 23 34 20 49 33 25 20 38 42 15 28 15 64 0 34-24 57.5T298.5 628 241 604.5 217 547q0-18 13-48 3-6 2-24-1-21-7-34-13-28-49-17-9 9-15 18-15 22-25 49-11 30-11 56 0 61 38 109t98 61 114.5-14 80.5-82.5 11-115-63-96.5q23-9 49-13 17-3 47-4 30 1 47 4 26 4 49 13-49 37-63.5 96.5t11.5 115 80.5 82.5T739 716.5t98-61T875 547q0-26-11-56-10-27-25-49z"/></svg>