<svg xmlns="http://www.w3.org/2000/svg" viewBox="0 0 1000 1000"><path d="M517 320q0-16-8-35-5-9-9-15l-4 7q-5 9-9 18-4 13-4 25t4 25q4 10 9 19l4 8 4-8q5-9 9-19 4-13 4-25zm332 311q6-16 3.5-33T841 567q-13-20-29-27-8-4-13-4l-3-14q-6-17-15-32-13-20-31-32-23-14-52-14-27 0-51 13l1-1q2-11 3-23 1-17-1-33l-9 2q-11 5-22 15t-14 15q-5-33-24-53-17-18-36-18-16 0-27 10-9 7-14 18l-4 10-4-10q-5-11-14-18-11-10-27-10-19 0-36 18-19 20-24 53-3-5-14-15t-22-15l-8-2q-2 16-2 33 1 12 4 23v1q-24-13-51-13-29 0-52 14-18 12-31 32-9 14-15 32l-3 14-6 1q-8 2-16 8-10 8-19.5 22t-12 31 3.5 33l-7 5q-7 7-12 15-7 12-7 24 0 20 15.5 33t33 13 32.5-9q8 7 16 10t22 5.5 20.5 2.5 12.5-5l-10-3q-10-5-17-12-10-10-10-23.5t16.5-27 44-21.5 60-8 55.5 7q17 5 36 18 14 9 24 20 8 9 11 14l1 6q1 5 2.5 8t5.5 6l4 2 4-2q4-3 5.5-6t2.5-8l1-6q3-5 11-14 10-11 25-20 19-13 35-18 23-7 55.5-7t60 8 44 21.5T760 687q0 18-18 30-10 6-19 8 6 5 12.5 5t20.5-2.5 22.5-5.5 15.5-10q16 9 33.5 9t32.5-13 15-33q0-12-7-24-5-8-12-15zm-64-55q6-10 12-19 18 4 26 19 4 8 4 17 0 7-3 13l-2 6q-13-9-26.5-13t-26.5-6l6-6q7-7 10-11zM607 465q3-10 8-19 4-6 12-13l7-5v9q0 11-3 17-6 15-25 30 1-9 1-19zm88-4q19 0 32 7 10 6 15 14l3 8-16-2q-20-1-36 2-20 4-43 20l-9-1q-10 0-16 1-12 3-22 8l13-15q17-17 34-28 24-14 45-14zm-182-43q4-13 13.5-22.5T545 386q17 0 28 27 10 23 10 50t-25 63q-16 25-42 50 11-17 19-36 12-31 12-56t-13-39q-9-10-24-15zm-13 34h6q7 3 11 10 7 10 7 28.5t-7 38.5q-4 15-11 29l-6 11-6-11q-7-14-11-29-7-20-7-38.5t7-28.5q4-7 11-10h6zm-45-66q9 0 18.5 9.5T487 418l3 13q-15 4-24 14-13 14-13 39t12 56q8 18 19 36-26-25-43-50-24-36-24-63t10-50q11-27 28-27zm-89 42q4 3 7 5 8 7 12 13 5 9 8 19 0 10 1 19-19-15-25-30-3-6-3-17v-9zm-61 33q21 0 45 14 17 11 34 28l13 15q-10-5-22-8-6-1-16-1l-9 1-14-9q-17-9-29-11-16-3-36-2l-16 2 3-8q5-8 15-14 13-7 32-7zM177 576q8-15 26-19l12 19q3 4 10 11l6 6q-13 2-26.5 6T178 612l-2-6q-3-6-3-13 0-9 4-17zm16 106q0 5 1 11-29-13-24-39 3-16 24-27 18-10 40-13 18-2 35 2-76 28-76 66zm90-138q-4 9-4 25l1 14-6-2q-8-2-15-5-10-5-17-13-17-20-17-37 0-5 7-12 9-9 23-11 20-4 38 2 10 4 17 12l-5 3q-6 4-12 9-7 7-10 15zm63-16q15 0 33 10 13 6 26 17l11 10-20-3q-23-2-38-1-22 2-43 11-2-11 0-22 5-22 31-22zm78 67q-6 3-9 9l-10-2q-14-2-29-3-21-1-42 1 8-8 20-14 18-9 41-9 29 0 41 12-6 2-12 6zm104 33q-10 7-20 20l-8 12-8-12q-10-13-20-20-14-9-29-14l5-3q5-4 12-4 9 0 18 7 13 10 22 30l6-11q8-13 16.5-19.5T540 607q6 0 12 4l5 3q-16 5-29 14zm57-24q-3-6-9-9.5t-12-5.5q12-12 41-12 23 0 41 9 12 6 20 14-21-2-42-1-15 1-29 3zm100-32q-21-9-43-11-15-1-38 1l-20 3 11-10q13-11 26-17 18-10 33-10 18 0 26 11 6 9 6 22zm32-28q-3-8-10-15-5-5-12-9l-5-3q7-8 17-12 19-6 38-2 14 2 23 11 7 7 7 12 0 17-17 37-9 11-25 16-7 3-13 4l1-14q0-16-4-25zm89 149q1-6 1-11 0-38-76-66 17-4 35-2 23 3 40 13 21 11 24 27 5 26-24 39z"/></svg>