<svg xmlns="http://www.w3.org/2000/svg" viewBox="0 0 512 512"><path d="M436 433q-6-1-11-2-15-4-34-11.5T356 400q1-5-4-14-4-5-10-12l-5-5q-3-3-5.5-9t-3-10 1.5-7v-1q1-4 0-4t-3 4.5-2 11.5 4 20q1 4 2 13l-18-13q-8-6-15-13 3-2 5-4 5-6 4-26t-8-32-12-17l-16-32q-3-7-9.5-17t-8.5-12h-1q-7-8-7.5-6.5t4.5 6.5q2 2 7 11t8.5 17.5T271 270l3 10-2 5v8l-7-12q-5-7-10-13l-2-12q-4-13-7-20-5-10-14-18-1-6-3-12-4-11-12-25l-2-4q-2-3-4.5-6.5t-3-3.5 2.5 5l1 2 7 19q4 10 5 21l-4 9-9-11q-2-17-7-32.5T190 150q-4-6-8-11.5t-4.5-5 3.5 7.5l2 5q8 17 7 28 0 5-3 11l-7-7-11-8q4-17-2-30-2-7-7-13l-5-10q-5-11-11-17.5t-7-4.5l10 14q3 5 7 19l-2 6-1 6q-9-12-18.5-20.5T119 112l2 2q12 11 19 22 12 20 9 30 0 2-4 3-2-15-9-25.5T116 123l-11-7q-9-11-15-23-4-8-9-21-4-8-4.5-8t2 11T85 94l11 26q0 13 4 24 2 16 5.5 24t7.5 15q-4-1-6-2t-7.5-7-9.5-11l-7-8q-7-9-7.5-8.5t4 8.5T90 171l12 16 2 7q2 7 7 11 11 10 21 10l8 12h-20q-9-5-16-13l-13-17q-5-7-6-6.5t.5 4T89 199l3 4q17 25 25 32 21 20 34 25 6 3 12 4l11 18-18-1q-1 0-6.5-3t-10.5-7q-8-7-20-20l-4-5q-2-3-2.5-3t.5 3l2 4q9 13 20 24 5 5 20 16l3 3q7 9 15 15 5 4 15 5l17 16 2 6q1 2 2 5l-4-1q-5-2-12-6-14-11-19-16-7-7-8-6.5t4 6.5l10 11q8 10 12 13l8 5q10 7 12 9 4 6 12 12 12 9 27 11 12 2 22 0 7-1 14-3l4-3 10 9q5 4 9 8l-10 1q-6 0-17.5 2t-19 5.5T249 406q-3 3-3 6 2 0 4-1.5t8-4 9-2.5q8 0 19 4 14 5 34 5 9 0 20-3l3-1q1 0 12 8l20 12q9 5 24.5 12t17.5 7q4 0 12-7t7-8zM129 185q-2-1-5-2-6-4-9-9.5t-4-10.5q6 7 10 10t8 4l2 4v2q0 2-2 2zm23 45q-8-4-13-12 4 1 7.5 1h6.5l12 14h-4q-5 0-9-3zm22-46l3 3q4 3 7.5 8t4.5 10 0 8-4 2l-6-6-4-5v-8zm29 107q-1 2-9-2.5T177 271q4 2 7.5 2h6.5l7 8q6 7 5 10zm14-56q2 1 5 1l1 11 4 14-5-1-2-3-3-3v-9q-1-7-3-13zm17 106q-2 0-5-2l-5-3q-7-2-11-8 5-1 9-1l7 1 12 12q-3 1-7 1zm35-18q-4-5-7-10l-5-6q0-5 1-9t0-11q2 0 8 8.5t6.5 15T269 323z"/></svg>