<svg xmlns="http://www.w3.org/2000/svg" viewBox="0 0 1000 1000"><path d="M574 192q-2 0-8 1-11 1-16 4-8 3-10.5 12t3.5 14.5 17 4.5q8-2 11-8 2-3 3-11t3-10.5 5.5-4.5 6.5 0l3 5q8 12 17 16t26 7q20 3 37 1 21 9 45 9.5t47-6.5l5 5q7 7 11 10 7 4 14.5 5t15.5-6q5-4 10-6 8 3 17 2 5 0 13-2.5t11-2.5q8 5 12 15t1 24q-1 6-7 14-4 5-14 15-13 12-19 20-10 12-14 24 0 6 2.5 7t6.5-.5 6-.5 2 7q-16 13-27 28-11 17-18 39-4 12-19 24 2 12 0 31l-1 12q-12 16-18 51-4 23-7 73-1 9 4 21l3 10q4 54 29 81 0 7-5 9-2 0-3.5 2t-1.5 9q0 10 5 16 3 3 10 7h1l3 8q2 8 5 12 26 20 49 44-4 20-20 33-10 2-18-2-5-2-12.5-9t-11-8-4 1.5.5 7.5q1 9-2 10-8 0-18.5-6.5T742 853q-4-13-16-23-8-5-25-13.5T675 803q-5 2-4.5 3.5t3.5 3.5 3.5 4-2.5 4q-43-11-70-12-42-3-67 11-7 2-12 7-3 3-7 10t-7 9q-4 4-10 5-9-1-15-7-3-3-8-12l-6-9q-7-1-12.5-5t-11.5-5q-10-3-31-5-34-1-67 6-7 0-17-5l-7-3-21 10q-21 10-29 16-12 10-18 25-8-1-18 4.5t-15 6-6-1.5 0-6q1-7-1-8-7 1-16 8-7 6-12 8-7 3-17 1-13-10-18-33l8-8q26-26 42-36 1-11 6-21 2-2 5.5-3.5t5.5-4.5q4-4 6-13 1-4 0-5.5t-3.5-3-4.5-4-1.5-8.5 8-18 10.5-21q6-16 8-36 1-74-3-127l-3-9q-5-16-10-22 0-7-2-18-2-15-1-25-7-14-20-24-14-51-41-65-1-4 .5-5.5t5-2.5 5-3 .5-7q-2-14-11-26-6-8-18-20-17-17-23-28-1-9 1-17 2-5 7-14l4-7q5-2 19 1t22 2.5 15 6.5 14 7q9-2 18-13 6-7 10-10 39 8 80.5 4.5T387 212q10-4 18-12 4-4 7.5-5.5t11.5-.5q-7 9-5.5 16.5t10 9.5 16.5-3q5-3-.5-14.5T431 185l2-2q14-15 22-21 13-10 29-13 0-2 7-7.5t7-8.5q21 12 29 32 30-3 47 27zM368 310l-5 5q-8 10-10 18 3 8 9 16 4 4 13 11.5t12 11.5q5 7 6 14 1 4-6 4-4-1-5 0t1 6q6 8 15 8 7 0 21-4 5 6 11.5 11.5t10.5 6 7 5.5q4 6 10 7 6-9 3-18-1-5-7.5-13t-8.5-12q0-7-4-18-4-13-3-24-6 0-8.5-1.5T425 338l-3-3q1-7-2-12-2-2-6-7-8-7-9-13-9 1-16-4-4-3-9-10.5t-8-8.5q-7 12-4 30zm255-15q-2 3-4 3t-5-2.5-6-2.5q-4 3-17 6t-18 7v1q-10 9-14 14-8 11-9 21 1 13-3 26-3 8-4 14-1 10 0 24 18-18 27-22 4-2 10.5-2.5t9.5-2 7-6 4-10.5q1-4 0-13l-1-4q16 0 26-15 8-13 9-34v-4q-1-8-3-9-1 3-3.5 7t-5.5 4zM268 395q3 2 12.5 2.5T297 400q5 2 16.5 7.5T331 414q9 3 15 0-1-7-11-16t-12-16q1-3-1.5-7t-.5-9q-6-2-10-7-2-4-5-11-5-12-10-16-9-1-25-7-11-5-17-6-1 25 3 46 3 24 11 30zm483-72q-2-5-7-4-4 3-20.5 7t-21 8-6.5 11q-2 12-11 20-7 5-10 20t3 18 12 1q4-1 10-5t9-3q10 1 17-1 4-1 8.5-4.5t5-7.5.5-13q-1-13 1-21 2-14 10-26zM298 489q-2 18 .5 25t8.5 8q16 36 39 44 1-5 0-8t-4-6q-4-6-4-10 13 5 19-3 1-3 1.5-11.5t2.5-9.5l4-2q6-2 7-5-4-8-11-12.5t-11-9.5q-10-12-16-17-11-7-22-7-3-5-13-8.5t-12.5 1-1 8.5 5.5 9q7 8 7 14zm393-24q-5-1-7.5-.5T677 466l-7 3q-8 3-11.5 8t-3.5 14q-6 2-13 7.5t-8 11.5q5 2 6 5.5t1 10 1.5 10 6.5 4.5q7 3 15-1 4-2 13-9 16-11 26-12-4-22 0-33 2-6 8-12 4-3 5-5.5t-1-8.5q-5-7-12-4-4 2-10 8zm-163 14q13 26 13 46 0 12-6 29-4 10-4 15-2 9 1 17 5-1 8.5-4t7.5-9q8-11 16-17 1-11 5-17 3-4 9-9 9-6 11-13-2-2-7-6.5t-7-7.5q-3-5-3-11-3-2-9-2.5t-8-2.5q-1-4-5.5-7.5T545 473q-3-1-4.5-5.5T537 461t-9-2v20zm-110 46q1 5 9 10 5 4 7 7 3 5 2 13 18 28 35 30-1-21-7.5-44.5T448 501q-13-2-20.5 5t-9.5 18v1zm247 86l-2 1q-13 8-18 16l-7 21q-8 24-10 33-3 16 5 18 7-3 15-17 6-9 10-12 6-4 17-12l8-5q2-10 7-16 3-4 9-8 9-6 11-13-12 1-19-5-4-4-9-13-3-8-6-11-4-5-11-5 1 5 0 13t0 15zm-363 14q0 2 3 9l4 9 1 5q1 7 1 11t-3 12q7 12 15.5 16.5T347 689l3 3q16 14 22 12 1-3-3-15-5-14-5-23-3-6-10-12l-4-3q1-4 6-7.5t4-9.5l-30-18q-10-5-23-10-6 13-5 19zm112 26q-7 13-6 18t11 11l7 4q0-11 9.5-27.5T445 626q-8 0-17-8-6-5-9-6-6-3-14-2-5 13-3 20 1 5 6.5 10.5T414 651zm157-29q-1 5 2 8.5t1 10.5q-17 10-21 30 1 21 12 21 6-4 8-11t-1-14q2-2 7-3 8-1 8-5-1-7 2-13 1-3 4.5-7t5-8 .5-14v-7q-11 0-16.5 2T571 622zm81 84q-7 16 1 20 1 4 2.5 5t8.5 2q1-7 10-21l6-8q6-9 8-13 2-7-2-11-10-1-19.5 6.5T652 706zm-220 40q1-5-2.5-13t-1.5-14q-5 1-12.5-1.5T401 717q-4 12 5.5 21t25.5 8zm140-25q1 8 7.5 12t15.5 3q7-7 7-18-7-2-17 1-8 2-13 2zm-90 47v2q1 11 3 15 4 5 16 6 2-6 10-15 9-12 11-19-7-2-15 3-3 2-6 3l-2-5q-2-4-4-5.5t-7-1.5q0-5-4-8.5t-10-3.5l2 5q5 17 6 24z"/></svg>