<svg xmlns="http://www.w3.org/2000/svg" viewBox="0 0 512 512"><path d="M382 231q0-47-31.5-82T272 108q-2-3-4-5l-4-2q-2-2-2-3.5t4-5.5q2-3 5.5-5t3.5-2.5-3-2.5l-7-7-5-7-3-4-3 4-5 7-8 7q-3 2-3 2.5t3.5 2.5 6.5 5q4 4 4 5.5t-3 3.5l-3 2q-3 2-5 5-28 3-52 19-48-27-57-15-4 5 0 23t15 37q-15 28-15 59.5t15 59.5 42 45 58 20q-5 1-11.5 5t-6.5 8 7 8 7 7q0 9-13 17-3 2-9 4l-3 2q-2 2-2 4v5q0 3 3 3h23q3 0 3 2.5t-10 3.5l-19 1h-23q-4 0-13 8t-9 11 5 3h162q5 0 5-3t-9.5-11-13.5-8h-23v-15q0-2-1-4l-4-2q-6-2-9-4-12-8-12-17 0-3 6.5-7t6.5-8-6-8-12-5q27-2 51-15 19 10 36 13.5t22-.5q12-8-14-55 21-31 21-68zm-17 0q0 28-13 52l-1-2q-19-30-51-63-2-31-10-55-9-32-23-39 42 4 70 35t28 72zm-83-32q-22-22-46-41 9-13 20-13 19 0 26 54zm18 44q7 9 10 14 12 16 16 29 7 17 0 24t-37-5q9-27 11-62zm-50-120q-13 6-23 28-11-8-22-15 21-11 45-13zM148 231q0-22 9-42l4 5q15 19 28 35 11 13 12 11.5t-2-5.5l-3-4q-30-59-19-70t44 10q-4 15-6 30 4 0 6-7 2-10 6-19l27 19q-13 1-23 9t-13.5 21 1 25 15 19.5 24 7T281 268q-4 26-11 39-6 11-14 11-15 0-25-22-7-13-10-28-1-4-3-6l-3-1 3 18q4 21 11 35 9 21 22 26-43-3-73-34t-30-75zm119 108q9-4 16-21l17 13q-16 7-33 8z"/></svg>