<svg xmlns="http://www.w3.org/2000/svg" viewBox="0 0 1000 1000"><path d="M849 817q-4-2-13-9l-1-2q-3-2-5-1l-12 12q-4 4-7 .5t0-7.5l12-11-94-104-19 20q-2 1-4.5 1.5T701 715t-1.5-4.5 1.5-3.5l75-75-22-22-39 39q-3 3-13 2-7 0-14-2-3-1-5 0l-2 1-14 14h-2q-2 0-4-2t-1-6l10-10-13-13q-4-13-3.5-27.5T659 577l-10-1q-12-4-26-11-20-11-40-29-39-36-103-99-72-71-110-113.5T290 230l-35-42-130-63 63 130 42 35q51 42 93.5 80T437 480q63 64 99 103 25 29 36 55 5 13 5 21 14-5 28.5-5.5T633 657l21 21-4 3-1 2q-1 2 0 5 2 7 2 14 1 10-2 13l-39 39 22 22 55-55 110 100 8 9q-1 2 1 5l2 1q7 9 9 13.5t2 14.5v9l5 2q7 1 15 0 15-2 24.5-11.5T875 839q1-8 0-15l-2-5h-9q-10 0-15-2zM678 369q41-37 92-79l42-35 63-130-130 63-35 42q-42 51-80 92-43 49-123 127l44 43q78-79 127-122v-1zM417 536q-20 18-40 29-14 7-26 11l-10 1q5 14 5.5 28.5T343 633l-13 13 10 10q1 4-1 6t-4 2h-2l-14-14-2-1q-2-1-5 0-7 2-14 2-10 1-13-2l-39-39-22 22 75 75q1 1 1.5 3.5T299 715t-4.5 1.5-4.5-1.5l-19-20q-86 96-94 104l12 11q3 4 1 6.5t-4 2-4-1.5l-11-12q-3-1-5 1l-2 1q-9 8-13.5 10t-14.5 2h-9l-2 5q-1 7 0 15 2 15 11.5 24.5T161 875q13 1 20-2v-9q0-10 2-14.5t9-12.5l2-3q2-2 1-5l8-8 111-100 54 55 22-22-39-39q-3-3-2-13 0-7 2-14 1-3 0-5l-1-2-4-4 21-20q13-4 27.5-3.5T423 659l1-10q4-12 11-26 11-20 30-40l28-31-46-45q-16 16-30 29z"/></svg>