<svg xmlns="http://www.w3.org/2000/svg" viewBox="0 0 1000 1000"><path d="M796 706q-4-4-25-14-32-17-49-31-5-4-6-8t-1-10v-3q0-7-10-7h-24q-3 0-4.5-3t0-4 5.5-3l1-1q9-4 16-10t7-9q0-1-3-4l-3-2q-9-8-15-18-1-3-1.5-14.5t1.5-19 11-22.5q5-8 6-50v-4q0-5 2.5-8.5t7-3.5 6.5 5l1 4 3 45q0 6 1 12 1 2 12 9 22 12 43 26 3 2 5.5 1t.5-3q-15-24-17-36-1-10 1-47l2-36q2-48-12-93-15-50-48-94-31-40-84-68-48-26-97-31-19-2-50-4-35-2-56-6-14-2-31-11l-7-4q-3-2-5-1t-1 4l3 8q15 39 16 54 0 3 3 4.5t8.5.5 16.5 0 15 2 7 7 0 6l-2 1q-23 2-37 8-17 7-37 21-27 19-46 42-11 14-20 36-6 13-14 40-10 33-17 43.5T249 433l-3 4q-2 3-2 4.5t3 1.5h8q140 1 143 .5t3-7.5 4-9q49-28 80-47 11-7 16.5-8.5T514 370q23 0 40 11 11 7 15.5 17t3.5 20q0 5-1.5 5t-3.5-7q-2-11-12-19-7-6-15-9-11-6-29-5-7 1-25 13-53 35-60.5 40t-8.5 14q-1 4-2 6-2 6-6.5 9t-9.5 3H251q-3 0-3.5 2.5t-.5 8.5v9q-1 10-4 19-2 6-8 18l-10 20q-7 16-18 29-5 7-5 9.5t8 7.5l9 7q4 3 13 12 16 16 26 23.5t29.5 19.5 24 16.5 5.5 9.5l1 4q1 4 6 1 9-6 38-28 4-3 5.5-1.5T366 660l-4 4q-21 21-25 26t-1 15q9 17 21.5 34.5T378 763q6 4 14 3l53-27q54-28 57-30t5.5-1.5.5 2.5-66 44q-60 39-61.5 40.5T379 804q0 18-5 29t-18 24q-10 9-14 11t-3 5v1q1 3 32-1 23-2 49.5-6.5T477 851q42-15 63-34 35-32 70-58 49-39 71-46 29-9 61-8 25 1 49 9 4 1 6-1.5t-1-6.5zm-445-65l-9 7q-4 3-10-1l-38-26-42-28q-2-1-1.5-2.5t3.5-2.5l18-3q6-1 11 2l66 48q5 4 1 6h1zm30-21l-7 5q-5 3-8 1l-28-24-31-22q-2-1-1-1l2-1 14-3q5-1 9 3l48 37q3 2 3 2.5t-2 2.5h1zm30-22l-6 5q-4 2-8-1l-42-31q-5-4 1-5l9-2q6-1 10 2l34 26q5 4 2 6zm27-21l-5 4q-5 4-8 1l-27-20q-2-2-1.5-3.5t2.5-1.5l12-3q5-1 10 4l16 12q5 4 1 7zm-24 248q-9 0-9-12 0-4 3-7.5t7.5-3.5 6 3 1.5 8v1q1 5-2 8t-7 3zm95-59q-5 1-7 5t0 7.5 1 5-3-.5q-5-3-5.5-7.5t0-8.5 4-6.5 7.5-3.5q8 0 8 3.5t-.5 4.5-2.5 1h-2zm26-324q-6-9-15-12t-17 2.5-9 15.5 7 20q3 2-4 1t-10-5q-7-7-6-20.5t11-21 21.5-6.5 19.5 11q3 4 4 8.5t.5 6.5-2.5 0zm69 272q-4 1-6 6-1 1 0 6v4q0 3-1.5 4t-3.5 0q-6-4-4-13.5t11-10.5q3 0 5.5 1.5T604 714z"/></svg>