<svg xmlns="http://www.w3.org/2000/svg" viewBox="0 0 512 512"><path d="M387 245q-7-7-16-13L158 81q-9-7-15-8-14-5-23 11-7 12 5 21l183 131 9 6q17 10 24 19-5 5-10 8-28 14-31.5 27.5T313 335q8 10 16 19 13 13-4 27-8 7-11 6t-11-14q-12-18-17-28-8-16-23-8-11 6-3 22l18 36q12 20 23 34 10 11 16 11t15-11q7-9 19-27l6-8q11-16 13.5-23t-.5-14q-3-5-15-20l-16-17q-10-11-11.5-15t5.5-8q5-3 27-11l2-1q6-2 17-8l2-1q14-7 14-14t-8-17zm-105 30q3-13-.5-22T267 236q-20-13-61-42l-56-39q-5-4-11-4t-7.5 5.5 0 13 5 11.5 7.5 7l6 3q60 42 91 63l1 1q9 7 13 11 6 7 4 16-1 5-4.5 11t-8.5 7-10-2.5-4-8.5q1-14-4-20t-18-10q-4 10-5 23 0 7 1 22v5q1 12 7 15.5t18 1.5q25-3 35-13t16-38z"/></svg>