<svg xmlns="http://www.w3.org/2000/svg" viewBox="0 0 512 512"><path d="M108 250l-16 35-16-7q0-6 1-12 2-12 9-21 4-5 9-9l16 7zm8 34q-4-2-10-3h-4l12-27 3 2q5 4 9 5.5t15.5 5T158 272q20 9 37 21l-9 21q-20-5-40-14-6-2-16-8t-14-8zm135 80q4 1 14 3 19 3 30.5 7.5T332 392q21 12 32 17 33 14 69 15 18 1 30-1l-9-11q-11-14-25-25-20-17-44-27-10-5-33-13-27-9-38-14.5T287 315l-11-8-31-20-30 67zm-12-98l-44 98-11-5 15-34-5-3q-2-1-3-3l12-26q2-1 4 0l5 2 16-34zm177-32l-12 28-3 7 16 7q5-4 9-9 7-9 9-21 1-6 1-12l-16-7zm-29 17q3 1 8 5l3 2 12-27h-4q-6-1-10-3t-14-8-16-8q-19-9-40-14l-9 21q18 12 37 21 5 2 16.5 5.5T387 251zm-151-46q-4-2-11-8-16-12-27-17.5T160 165q-23-8-33-13-33-15-59-40-12-13-19-23l14-1q18-1 36 2 25 3 49 13 11 5 32 17 25 13 36.5 17.5T248 145l13 3q21 6 36 10l-29 67zm81-57l-44 98 11 5 16-34 5 2q2 1 4 0l12-26q-1-2-3-3l-5-3 15-34z"/></svg>