<svg xmlns="http://www.w3.org/2000/svg" viewBox="0 0 1000 1000"><path d="M323 527q73-22 101-52 30-33 27-92-36 10-111 43-50 21-75 30-42 16-75 23 20-23 56-48 21-15 66-43 65-40 91-62-46-31-72-53-35-30-57-61 39-2 79 12 24 8 69 33l29 15q10-20 16-47 4-16 8.5-49.5T483 126q6-27 15-47 11 24 18 55 5 19 11 57 9 54 16 78 19-7 54-22 40-17 60-23 35-11 67-13-21 34-56 62-28 24-74 51 26 22 92 64 45 28 66 43 36 26 58 48-38-7-91-27-31-12-94-39t-88-35q-5 54 31.5 94T677 529q-13 18-44 56-37 43-52 66-26 38-33 71l-2 9q-14 63-22 95-14 52-29 95l-13-62q-19-90-30-135-9-38-41-86-19-28-64-82zm175-48q-12 6-23 15-6 6-16 18-9 10-14 15-15 15-4 32 10 14 32 49l19 29q32-36 45-57.5t12.5-36.5-14.5-31q-9-10-37-33z"/></svg>