<svg xmlns="http://www.w3.org/2000/svg" viewBox="0 0 512 512"><path d="M384 322q-1 0-2 1l-32 33q-2 1-3.5 1t-2.5-.5 2-3.5l30-31q1 0 1-1-8-2-15-5-13-5-23-15h-1l-11 11q-2 2-3.5 2t-2.5-.5 2-3.5l11-12 1-1q-6-7-7-13l-39-27q-43-31-64-50L103 99v-7L68 65q-2-2-4-1v1q0 2 1 3l27 35h7l108 122q30 33 77 103l6 2q7 4 13 11 8 8 13 21 8 17 8 43v4q2 2 4 0l27-27q3-3 5 0l5 4q2 3 12 0l33 33q-1 4 0 8 0 2 2 5l1 2q0 2 1.5 3t5.5 1l4-1q6-1 8 1l12 9q2 2 4 1v-1q0-2-1-3l-9-12q-2-2-1-8l1-4q0-4-1-5.5t-4-1.5l-14 14v-2q0-3 4-7l5-5q1-1 .5-2t-1.5-1q-4-1-8 0l-33-32 1-6q1-6-1-7l-3-3q-1-1-2 0l-7 7q-2 2-4.5 3t-3.5.5 1-2.5l42-42q2-2 0-4h-4q-12 0-21-2z"/></svg>