<svg xmlns="http://www.w3.org/2000/svg" viewBox="0 0 1000 1000"><path d="M525 235q21-18 36-39 12-17 19-35 6-13 9-26l1-10h-10q-12 1-26 4-20 4-38 13-24 11-45 29L190 407q-20 17-35 38-12 17-20 35-6 13-8 26l-2 10h10q13-1 27-4 19-4 38-13 23-11 44-29l140-118zm142 169q21-17 36-38 12-17 20-36 5-13 8-25l2-10h-10q-13 1-27 4-19 4-38 13-23 11-44 29L333 576q-21 18-36 39-12 17-20 35-5 13-8 26l-2 9h10q13 0 27-3 19-5 38-13 23-11 44-29l141-118zm89 106L616 628 475 746q-21 18-36 39-12 16-19 35-6 13-9 25l-1 10h10q12 0 26-3 20-5 38-14 24-11 45-28l281-236q38-32 55-74 9-21 10-35h-10q-13 0-27 3-19 5-38 13-23 12-44 29z"/></svg>