<svg xmlns="http://www.w3.org/2000/svg" viewBox="0 0 1000 1000"><path d="M776 347q-2-4-4-11-4-10-9-13-6-4-25.5-5.5T712 343q-3 16-2 51 1 14 0 19-1 15-18 21-10 4-34 5h-1q-9 1-34-12-15-8-53-30-45-27-67-38-27-13-81-54-31-24-91-73-46-37-56-43l-16-12q-19-14-26-16-11-3-19 9 44 103 76 200 26 81 42 157 12 60 18 113 3 39 3 70l-1 23-91 1q-23 0-27.5 7.5T237 768q3 5 30 13 31 9 69 15 49 6 95 4 57-2 105-17 57-17 99-51 83-83 121-167 29-65 30-129 1-36-8-82zM412 710q-4-102-20-194-19-110-50-175l25 23q31 28 56 48 36 28 57 36 9 4 36 13 61 21 89 34 48 22 55 43l-9 14q-26 42-46 65-34 40-75 63-53 28-118 30z"/></svg>