<svg xmlns="http://www.w3.org/2000/svg" viewBox="0 0 1000 1000"><path d="M368 653V341q0-5-5-9t-12-6l-6-1-6 1q-7 2-12 6t-5 9v312q0 8 12 13 5 2 11 3l6-1q7-2 12-6t5-9zm122 0V341q0-8-11-13-6-2-12-3l-6 1q-6 2-11.5 6t-5.5 9v312q0 5 5.5 9t11.5 6l6 1 6-1q7-2 12-6t5-9zm123 0V341q0-5-5-9t-12-6l-6-1-6 1q-7 2-12 6t-5 9v312q0 5 5 9t12 6l6 1 6-1q7-2 12-6t5-9zm119-538q-17 0-32.5 13.5T684 151t-8 11q-4 2-16 2H299q-18 0-34.5 7.5T235 192q-8 8-14 21.5t-6 23.5q0 20 5 30 8 13 27 13 14 0 25-7 7-4 17-14 7-7 11-9 6-4 11-4h328q16 0 31 10 18 13 18 35v346q0 14-15 38-16 26-41 49-28 27-61 43-39 18-79 18-115 0-195-60l-2-2q-9-6-18-8.5t-14 3 0 23.5 14 28q12 13 35 30 35 27 75 44 52 22 105.5 22T613 829q65-35 109-86 47-55 47-102V304q0-11 8-28.5t8-28.5v-82q0-15-18-32.5T732 115z"/></svg>