<svg xmlns="http://www.w3.org/2000/svg" viewBox="0 0 1000 1000"><path d="M756 479q-15-15-32-27-207-147-414-293l-1-1q-19-13-29-16-29-8-46 22-14 23 10 42 10 8 32 23l95 68q154 108 230 163l18 12q16 10 24 16 14 11 23 23-9 8-20 15-37 18-51 35t-10 38 27 54q14 20 31 38 14 14 11 28-3 12-18 24-13 10-18 12t-10-4q-4-4-16-23-23-34-33-53-16-33-45-17-22 13-7 43 24 48 37 71 22 39 45 66 18 22 30 22t30-23q13-17 37-52l11-16q22-32 26-42 6-15-1-29-5-10-30-40l-3-4q-10-12-26-30-20-21-22-28-3-9 10-16 10-6 51-21l5-1q11-5 34-16l3-2q27-14 27-30 1-13-15-31zm-205 59q6-26-.5-44T522 462q-40-27-119-83l-109-76q-11-8-22.5-8.5t-15 10.5 0 26 10.5 23 15 12q7 4 12 7 115 83 176 124l2 1q19 13 26 21 12 15 9 31-2 11-10 22t-17.5 13-18.5-4.5-8-16.5q1-26-10-39-8-11-32-20-8 21-10 46-1 14 1 43l1 10q2 23 14 31 11 6 34 2 34-5 52.5-14.5t29-28.5 18.5-56z"/></svg>