<svg xmlns="http://www.w3.org/2000/svg" viewBox="0 0 512 512"><path d="M447 430q-1-2-19-22l-18-20v-14q-1-2-4-6-5-7-5-11t4-8l4-4-5-5q-6-5-10.5-5t-7 4.5-6 4.5-4.5-2-.5-4 3-4.5 3.5-4.5q3-4 3.5-17t-6.5-32q-1-3-6-3-1 1-7.5 6.5t-8 6.5-3 0-1.5-3 10-13l6-7q3-5 2-8.5t-8.5-17T351 225t-8-1q-2 1-22 20-22 21-24 22.5t-2-2.5q0-1 18.5-21.5T334 218q4-5 1.5-10.5T323 193t-15.5-11.5-8.5-.5l-51 49q-1 1-1.5 0t0-2 20-24 22-27.5.5-8-11.5-10T264 151q-6-1-10 0l-12 12-12.5 11.5-2.5-1V170l14-18v-1q2-2 1.5-5.5T240 141q-5-4-21-5t-21 1q-1 0-8 6l-6 5q-6 2-4-5 0-1 3-4 5-4 5.5-8t-4.5-11l-6-6-3 4q-5 4-8.5 4.5T156 118q-5-4-7-4h-14l-19-18Q96 77 94 77q-5-2-6.5-.5t0 5T125 124l1 14q0 2 3 6 6 7 5.5 11t-4.5 8l-4 4 6 6q8 5 12 5 1 0 3.5 1t3.5 3-2 9-3 10 3.5 17.5 5 16 5 1 5 1-1 6-2.5 6.5q0 7 14 28 15 23 36 43.5t41 31.5q16 9 25 9 5 0 11-5 1-2 2-1.5t.5 4.5-.5 5q6 10 29 11 19 1 24-2 0-1 1-1 5 2 3 8v2q-1 6 10 16l4-4q4-4 7.5-4.5T379 394q5 4 7 4h14l20 19q19 18 21 19 5 2 6.5 0t-.5-6zm-150-50l-8 4q-31 19-56 20-34 1-53-35-5-8-16-40l-7-18q-17-43-48-47-21-2-34 10-10 10-11 21 0 6 1.5 8.5t5 2.5 4.5-3q3-10 9-17 10-9 24-7 17 2 29 22 7 12 17 41 7 22 11 30 15 29 36 40 16 9 38 7 39-4 73-31l2-2q0-1-.5-2.5t-7-3-9.5-.5z"/></svg>