<svg xmlns="http://www.w3.org/2000/svg" viewBox="0 0 512 512"><path d="M294 98q-1 0-4 1-6 0-9 2t-4.5 6.5 1.5 7 9 2 7-9.5q0-4 2-5 3-5 5-3l2 3q4 6 8.5 8t14 3.5 18.5.5q23 9 47 2l3 2q7 7 12 7.5t8-2 6-3.5q6 2 15 0l6-2q9 7 7 20-1 5-11 15-14 13-17 23 0 4 5 3 2-1 3-.5t0 3.5q-16 14-23 35-1 6-9 12 1 6 0 16l-1 6q-6 8-9 26-2 12-4 37 0 5 2 11l2 5q2 28 15 42 0 3-2.5 4t-2.5 6 2 7.5 5 4.5h1l1 4q1 4 3 6 13 10 25 22-2 11-10 17-8 2-16-5-3-4-5.5-4.5T400 438t-1 5q-4 1-9.5-2.5T380 437q-2-7-8-12-4-3-13-7t-13-7q-3 1-3 1.5t2.5 2.5-.5 4q-21-6-35-7-22-1-34 6-6 2-10 9t-9 7q-7-1-12-9l-3-5q-3-1-6-3-6-4-22.5-4.5T180 415q-4 0-9-2l-4-2-11 5q-10 6-14 9-6 4-9 12-4 0-9.5 2.5t-8.5 3-2.5-3.5-.5-4q-3 0-8 4-7 6-15 4-6-5-9-17l4-3q13-14 22-19 0-6 3-11 0-1 2-2 5-1 6-8 1-4-2-5.5t-3-6.5q1-3 4-8 9-14 10-30 1-37-2-65l-1-4q-3-9-5-11 0-4-1-10.5t-1-12.5q-3-7-10-12-7-26-21-33-1-3 3-4t3-5q-2-8-6-14-3-4-9-10-9-9-12-14-1-7 4-16l2-4q3-1 10 .5t11 1.5 7.5 3.5 7.5 3 9-6.5l5-5q20 4 41.5 2.5T198 109q5-3 9-7 2-2 4-2.5t6-.5q-6 7-1 11.5t12 .5q2-1-.5-7t-6.5-9l1-1q7-8 11-11 7-5 15-7 0-1 3.5-3.5T255 68q11 6 15 16 15-1 24 14zm-106 61q0 1-2 2-4 5-5 10 2 6 11 13.5t9 13.5q1 2-3 1.5t-1.5 3.5 7 4 10.5-2q7 8 12 9 2 0 3.5 3t4.5 3q4-5 2.5-8.5T232 204t-3.5-7-2.5-9-2-11q-4 0-7-4l-1-2q1-5-3.5-9t-5.5-7q-7 1-12-7-3-4-5-5-3 7-2 16zm131-8q-2 2-4 0l-3-1q-3 2-9.5 3.5T294 157h-1q-10 10-10.5 17.5t-3 15T278 208q9-9 12.5-10.5t8-2 7.5-4 1-12.5v-2q16 0 18-25v-2q0-4-1-5l-2 4q-2 2-3 2zm-182 51q2 1 7 1.5t8 1.5 8 3q13 6 17 4 0-4-5.5-8.5t-5.5-7-1.5-4.5-.5-4q-4-2-7-9t-6-9q-4 0-12-4l-9-3q0 13 1.5 24.5T137 202zm248-37q-1-2-3.5-1t-11 3-11 4-3.5 7-5 8-5.5 11 2.5 10 10-2q4-3 5-2 8 1 14-3 2-2 2-11-1-14 6-24zm-233 85q-1 17 5 17 9 18 20 23 1-4-1.5-7t-2.5-6q7 3 10-1 0-1 .5-5.5t1.5-5.5l2-1q3-1 3-3-2-3-5.5-5.5T179 250q-5-6-8-8-5-4-11-4-2-2-7-4t-6.5 1 2.5 7.5 3 7.5zm202-12q-4-1-7 1l-4 1q-7 3-8 11-3 1-6.5 4t-3.5 6q3 2 3 8t5 7.5 13.5-4.5 13.5-7q-2-11 0-17 1-3 4.5-5.5t1.5-7.5q-4-5-11 2zm-84 7q7 13 7 24 0 6-3.5 15.5T272 300q4-1 8.5-6.5t8.5-8.5q0-9 7-14 5-3 6-6l-4-3q-5-5-5-10-1-1-4.5-1.5t-4-1.5-3-3-3.5-3-2-4.5-6-3.5v10zm-56 24q1 2 5.5 5.5t3.5 9.5q10 14 18 16-1-25-12-43-6-2-10 2t-5 10zm127 44h-2q-6 4-9 8l-3 11q-5 13-5 17-2 9 2 9 4-1 8-8 3-5 5-7l13-8q2-8 8-12 4-4 5-7-6 0-8.5-2t-5.5-8q-4-7-8-8 0 3-.5 7t.5 8zm-186 7q0 1 1 5l3 7q1 5-1 11 3 7 7.5 9t12.5 1l1 1q8 7 11 7 1-2-1.5-8.5t-3-10.5-4.5-7l-2-2q0-2 3-3.5t2-4.5l-2-2q-15-9-25-13-3 7-2 10zm57 13q-4 7-3 9.5t5 5.5l4 2q0-5 5-13.5t5-15.5q-4-1-9.5-5t-10.5-4q-3 7-2.5 10t3.5 6 3 5zm80-14q0 2 1.5 4t.5 5q-9 5-11 15 1 11 6 11 3-1 4-5t0-8l3-1q5-1 5-2-1-6 3-11 2-2 2.5-4t.5-7v-3q-6-1-8.5 0t-6.5 6zm42 42q-4 9 0 11 1 2 2 2l4 1q1-4 5-10l3-4q3-5 4-8t-1-5q-5-1-10 3t-7 10zm-113 21q1-3-1-7t-1-7q-2 0-6-1t-8 0q-2 6 3 11t13 4zm72-13q0 4 3.5 6t8.5 2q3-4 3-10-4 0-8 1t-7 1zm-46 24v1q0 6 1.5 8.5t7.5 2.5q2-3 6-8.5t5-8.5q-3-1-7 1l-3 2-2-3q-1-3-5-3 0-3-2-5t-5-1v2z"/></svg>