<svg xmlns="http://www.w3.org/2000/svg" viewBox="0 0 1000 1000"><path d="M539 502l222-222h14q9 5 20.5 4.5T816 276q12-9 16-24 3-9 4-27 1-12 2-17 2-9 6-14 10-11 27-20 4-2 4-3t-6.5-1-16.5 2.5-21 11-12 14.5l-1 6q-2 13-9 20-13 13-30 11-15-1-24-10-5-5-7-16-1-8 0-17l1-9-18-3q-24-2-49-1-36 1-70 10-39 9-81 29-23 12-59 32-21 13-26 14-16 5-47 1-15-3-31-12l-4-3q-9-1-18 0-2 0-2 1t3 4l43 44q7 6 2.5 10.5T380 313q-5 0-12.5-3t-8.5-2l-8 8q-1 1 0 3l37 37q2 2 5 0l22-22q4-4 9 0l21 22q3 3 7-4 14-29 35-53t62-41.5 90-24.5q34-6 66 2 25 6 45 19v16L529 491q-2 1-2 2.5t1 2.5l7 7q2 2 4-1zM172 875l2-4q9-17 20-27 5-4 13-5 6-1 17-2 19-2 28-4 15-5 24-17 7-8 8-19.5t-5-20.5v-14l234-234 208 209 2 43 10 10 1-20q0-5 5-7l-1 32 69 69-2-49 10-10 49 2-69-69-32 1q2-5 7-5l19-1-10-11-42-1-462-462q-38-37-37-47 1-5 9-7 3-1 7-1l-129-79 78 129 2-7q2-8 7-8 10-2 47 36l67 67-18 17q-1 1 1.5 8.5T313 380q1 9-3.5 13t-10.5-2l-44-44q-3-3-4-3t-1 3q-1 8 0 17l3 4q9 16 12 31 4 31-1 47-1 5-14 27-20 35-32 59-20 41-29 80-9 35-10 70-1 26 1 49l3 18 8-1q10-1 18 1 11 1 16 6 9 9 10 24 2 17-11 30-7 7-19 9l-7 1q-8 3-15 12.5t-10 20-2.5 17 1.5 6.5zm82-125q-13-20-19-45-8-32-2-66 7-49 24.5-90t41.5-62 53-35q7-4 4-7l-22-21q-4-5 0-9l33-33 135 136-232 232h-16z"/></svg>