<svg xmlns="http://www.w3.org/2000/svg" viewBox="0 0 1000 1000"><path d="M776 565q-35 11-68.5 2.5T649 535q-12-12-30-7l-19 7q-13 4-16.5 16t3.5 23l12 16q5 7 13 10.5t16 1.5q35-4 67 9t52.5 41.5T771 715t-11.5 64.5T715 830q-25 17-56.5 19.5t-60.5-9-49-36.5q-24-28-27.5-64t12.5-69q8-17-2-32l-12-16q-8-10-21-10t-21 10l-12 16q-10 16-2 32 15 31 12.5 65.5t-23 62.5-52 41.5-65.5 9-62-25.5q-37-30-45-77.5t18-87.5q20-32 53.5-47t69.5-10q8 2 16-1.5t13-10.5l12-16q8-11 4-23t-17-16l-19-7q-8-2-16-.5t-14 7.5q-24 24-58 32.5t-68-2.5-56-36.5-28.5-59.5 5.5-66q10-30 34-50.5t54.5-28 60.5.5q37 10 61.5 37.5T385 426q1 8 6.5 14t13.5 9l19 6q12 4 22.5-3.5T457 431v-20q0-8-4-15.5T442 384q-31-15-49.5-45T374 273.5t17.5-64.5 47.5-45.5 65-15.5q32 1 59 17.5t43.5 43T624 266q2 38-16.5 69.5T557 384q-8 4-12 11.5t-4 15.5v20q0 13 10.5 20.5T575 455l18-6q8-3 14-9t7-14q6-36 30.5-63.5T705 325q31-8 61.5-.5t54 28T855 403q12 32 5.5 66t-29 59.5T776 565z"/></svg>