<svg xmlns="http://www.w3.org/2000/svg" viewBox="0 0 512 512"><path d="M319 367q0 13 12 19.5t23.5 0T366 367t-23-80q-24 67-24 80zM256 36q-60 0-110.5 29.5t-80 80T36 256t29.5 110.5 80 80T256 476t110.5-29.5 80-80T476 256t-29.5-110.5-80-80T256 36zm17 141q1-5 6.5-7t10.5 2l3 6q11 22 30 27 24 6 46-11 3-1 6 0t5.5 4.5 1.5 8.5l-2 3-4 3q-29 21-59 13t-45-46zm-149 30q-1-5 1-8.5t5.5-4.5 5.5-1l6 4q20 13 40 8 24-6 34-33 4-4 10-2t7 7q1 2 0 4l-1 5q-15 32-45 40.5T125 209zm219 201q-18 0-30-12t-12-29q0-9 9-39l-12-6q-28-11-43.5-11T211 322q-20 9-44 22l-11-16q21-17 44-29 31-15 54.5-15t53.5 15l9 5q8-25 17-49h17q33 92 33 112 0 17-12 29t-29 12z"/></svg>