<svg xmlns="http://www.w3.org/2000/svg" viewBox="0 0 512 512"><path d="M233 214q0-14-7.5-26T205 171t-26.5-2.5T155 181t-12.5 23.5T145 231t17 20.5 25 7.5q19 0 32.5-13t13.5-32zm-57-12h23v23h-23v-23zm80-166q-60 0-110.5 29.5t-80 80T36 256t29.5 110.5 80 80T256 476t110.5-29.5 80-80T476 256t-29.5-110.5-80-80T256 36zM119 213q0-28 20-48t48.5-20 48.5 20 20 48.5-20 48.5-48.5 20-48.5-20-20-49zm195 173q-34 13-56.5 13.5T204 390q-17-5-33.5-21T146 334t-1.5-33 18.5-17q8-2 26-1l9 1q10 0 30 9.5t27.5 9.5 27.5-9q22-11 31-11h12q17-1 25 1 12 3 17 16 10 22-8 49t-46 37zm11-104q-21 0-38.5-11.5T261 240t-4-39.5 19-35.5 35.5-19 39.5 4 31 25.5 12 37.5q0 29-20.5 49T325 282zm0-114q-19 0-32.5 13.5T279 214t13.5 32 32.5 13 32.5-13 13.5-32-13.5-32.5T325 168zm12 57h-23v-23h23v23z"/></svg>