<svg xmlns="http://www.w3.org/2000/svg" viewBox="0 0 512 512"><path d="M257 191q-1-1-3-1t-3 1l-17 31-35 7q-2 1-2.5 2.5t.5 2.5l24 27-4 35q0 2 1.5 3t2.5 0l33-15 33 15q1 1 2.5 0t1.5-3l-4-35 24-27q1-1 .5-2.5T309 229l-35-7zm215 184q-4-2-16-7-24-9-35-16-20-11-24-22-27-65-70-226l-7-29q27-18 33-40l-27 7q-32 9-57 19-23 9-58 24-38 16-55 22-26 9-54 12-30 4-75 4l2 5q3 5 11 9 4 2 17 7 23 9 34 16 20 11 25 22 26 65 69 226l7 29q-27 18-33 40l27-7q32-9 57-19 23-9 58-24 38-16 55-22 26-9 54-12 30-4 75-4l-2-5q-3-5-11-9zm-139-67q-1 29-17 51-13 18-37 33-15 9-46 24-18 9-27 14 2-15-2-43-2-17-10-57-8-45-11-66-6-37-4-60 1-29 17-51 13-18 37-33 15-9 46-24 18-9 27-14-2 15 2 43 2 17 10 57 8 45 11 66 6 37 4 60z"/></svg>