<svg xmlns="http://www.w3.org/2000/svg" viewBox="0 0 512 512"><path d="M425 355l-31 31q-11 11-21.5 8.5t-17-12-5-18.5 12.5-9q13 0 21-8 6-6 8-15l2-8 8-1q9-2 15-8 8-8 8-22 0-19-16-27-8-4-15-4l-10-6q-12-7-21-17-14-14-22-29-9-19-9-41 0-36 25-66 14-16 31-26l1-1q5-3 5-9 0-9-7-15.5T371 46q-111 7-192 90-59 60-97 155-21 50-29 94v3q0 10 5 17 8 12 25.5 12t25.5-13q5-7 6-17v-2q26-116 92-194 48-58 114-90-23 33-23 71 0 45 19 78 13 22 33 36 9 6 20 8t14.5 9.5-2.5 14-20.5 6.5-27.5 17-15 38q-2 24 12.5 38.5T378 430q28-2 53-15.5t25-28-8-22.5q-6-5-15-8z"/></svg>