<svg xmlns="http://www.w3.org/2000/svg" viewBox="0 0 512 512"><path d="M62 437l51 1q2 0 3.5-1.5t1.5-3.5l-2-49q0-4-5-4l-48-3q-2 0-4 1.5t-1 3.5l1 51q0 4 3 4zm387-60l-17 1q-23-3-40-21 28-33 32-76l1-17q1-2-.5-3.5T421 259h-25q-3 0-4 1.5t-1 4.5l6 23q0 2-1 3l-24 40q-12-22-7-46 0-1-1-2-15-9-27-22l-22-22 60-59q17-17 32-55 8-23 14-48 1-1-.5-2t-2.5-1q-25 6-48 15-38 14-55 32l-59 59-59-59q-17-18-55-32-23-9-48-15-1 0-2.5 1t-.5 3q6 24 14 47 15 38 32 55l60 59-22 22q-12 13-27 22-1 1-1 2 5 24-7 46l-24-40q-1-1-1-3l6-23q0-3-1-4.5t-3-1.5H91q-2 0-3.5 1.5T87 264l1 17q4 43 32 76-18 19-43 21l14 26 26 15q3-26 21-43 34 27 77 31l16 2q2 0 3.5-1.5t1.5-3.5v-25q0-2-1.5-3.5T231 374l-23 6q-2 1-4 0l-39-25q21-11 45-7 1 1 2 0 10-16 23-28l21-21 21 21q13 12 23 27 1 2 2 1 24-4 45 7l-39 25q-2 1-4 0l-23-6q-2 0-3.5 1.5T276 379v25q0 2 1.5 3.5t3.5 1.5l16-2q43-4 77-31 18 16 21 40l-1 17q0 2 1.5 3.5t3.5 1.5l51-1q3 0 3-4l1-51q1-2-1-3.5t-4-1.5z"/></svg>