<svg xmlns="http://www.w3.org/2000/svg" viewBox="0 0 1000 1000"><path d="M597 130H408q-84 0-158 43-71 41-112 112-43 73-43 158t43 158q41 71 112 113 74 43 158 43 14 0 20 12l60 111q5 9 15 9t15-9l60-111q6-12 19-12 85 0 158-43 71-42 113-113 43-73 43-158t-43-158q-42-71-113-112-73-43-158-43zM282 511q-28 0-48-20t-20-48 20-47.5 48-19.5 48 19.5 20 47.5-20 48-48 20zm221 0q-21 0-38-11.5T440.5 469t-3.5-39 18.5-34.5T490 377t39 4 30 25 11 37q0 28-19.5 48T503 511zm221 0q-21 0-38-11.5T661 469t-4-39 18.5-34.5T710 377t39 4 30.5 25 11.5 37q0 28-19.5 48T724 511z"/></svg>