<svg xmlns="http://www.w3.org/2000/svg" viewBox="0 0 512 512"><path d="M297 194q7 4 16 4 7 0 13.5-3t7-9.5T328 175t-14-4.5-14.5 3-7 9.5 4.5 11zm2-10q0-3 4.5-5t9.5-2 9 2.5 4 5.5-4.5 5-10 2-9-3-3.5-5zm-67-40q5 4 12.5 4t14-3.5 7-9-4.5-9.5-12.5-4.5-14 3-7 9.5 4.5 10zm6-14q4-2 9-2t8.5 2.5 3.5 5-4.5 4.5-9.5 1.5-8-2.5-2.5-4.5 3.5-4.5zm4 49q21 20 43 24 2 1 3 0t-1-2q-17-10-25-27-2-5-9-7-23-8-34-19-1-1-3-1t-2 1q2 14 28 31zm204-21L323 59q-10-9-22-3L73 162q-9 4-14 12t-5 17v132q0 13 10 20l113 91q10 8 22.5 9.5T224 440l219-102q7-3 11-9.5t4-13.5V183q0-16-12-25zm-70 73q0 2-.5 3.5T374 237l-147 69q-4 1-6.5 3.5t-4 5.5-2.5 6l1 47q0 3-1.5 5.5T208 377h-1q-3 0-5.5-2.5T199 369l1-49q0-6 3-11.5t8-9.5q3-2 5-4l154-66q2-1 3.5 0t2.5 2zm-177-31q-3-2-5.5-2t-5 1-2.5 3v1l-8 4q-4 2-6-1.5t-2-6.5q1-7 10-11.5t18-4.5q14 0 22 7 6 5 5.5 11.5T216 213q-7 3-16 3.5t-17-2.5q-1 0-1-1.5t1-1.5l9-4h2q1 0 3-1l1-1q2-1 2-2.5t-1-2.5zm-24-75q3 1 6 1l17 4q4-4 9-6 24-13 61-11.5t62 18.5q18 13 23 29t-2.5 31-24.5 24q-7 3-14 5 2 6 3 11l1 6q0 2-2 4-5 2-8-2-5-8-11-16-31 3-62-12-2-1-1-3.5t1-5.5q1-10-8-17-12-9-30-8-2 1-4-2-11-19-2-35l-14-6q-3-1-4.5-2.5t0-4 4.5-2.5zM75 210q1-1 3-1.5t3 .5l108 79q3 2 4 5t-1 6.5-5 4.5h-2q-3 0-5-2L76 216q-1-1-1.5-2.5t.5-3.5zm371 105q0 9-8 12L219 429q-9 4-18 3t-17-7L71 334q-5-4-5-11v-36l118 95q6 5 14.5 6t15.5-3l232-107v37z"/></svg>