<svg xmlns="http://www.w3.org/2000/svg" viewBox="0 0 1000 1000"><path d="M456 417q0-27-15-49.5t-40.5-33-52-5.5-45.5 24.5-24.5 46 5 51.5 33 40.5T366 507q37 0 63.5-26.5T456 417zm-112-22h45v44h-45v-44zM500 70q-117 0-217 59-97 57-154 154-59 100-59 217t59 217q57 97 154 154 100 59 217 59t217-59q97-57 154-154 59-100 59-217t-59-217q-57-97-154-154-100-59-217-59zM232 417q0-37 18-67.5t49-48.5 67.5-18 67 18 48.5 49 18 67.5-18 67-48.5 48.5-67 18-67.5-18-49-49-18-67zm382 337q-67 25-110.5 26.5T399 763q-33-11-65.5-42T286 655q-16-39-3.5-66.5T319 554q15-4 49-1l19 1q12 1 29 7 10 4 30 13t29 13q14 5 24 5t25-6q9-3 28-12 22-10 32-14 17-7 29-7h24q33-2 48 2 24 6 34 31 12 28-1 64-12 33-41 62t-63 42zm21-203q-41 0-75-22.5t-49.5-60T503 391t36.5-69 68.5-37 78 7.5 60.5 49.5 22.5 75q0 27-10 51.5T730 512t-44 29-51 10zm0-223q-37 0-63.5 26T545 417t26.5 63.5T635 507t63-26.5 26-63.5-26-63-63-26zm22 111h-44v-44h44v44z"/></svg>