<svg xmlns="http://www.w3.org/2000/svg" viewBox="0 0 1000 1000"><path d="M839 178v-8q0-8-5.5-13.5T820 151H350q-8 0-13.5 5.5T331 170v493q0 4-3.5 6t-6.5 1q-31-11-58-11-34 0-62 12.5T157.5 706 142 754t16.5 47.5 45 34.5 62.5 13h1q34 0 63-16.5t46.5-45T394 725V419q0-5 4-8.5t9-3.5h356q5 0 8.5 3.5t3.5 8.5v180q0 4-3 6.5t-7 1.5q-31-12-57-12-35 0-62.5 13T602 643t-16 47.5 16.5 47.5 45 34.5T710 786h2q34 0 63-16.5t46-45 18-62.5V178zM394 329v-39q0-5 4-8.5t9-3.5h356q5 0 8.5 3.5t3.5 8.5v39q0 5-3.5 8.5T763 341H407q-5 0-9-3.5t-4-8.5z"/></svg>