<svg xmlns="http://www.w3.org/2000/svg" viewBox="0 0 512 512"><path d="M176 296v47q20 13 46 20v-51q-16-2-26-7zm-35-8q-4 3-4 5.5t2 8.5l1 3q7 16 25 30v-43l-10-4q-10-4-14 0zm93 25v53q11 2 22.5 2t22.5-2v-53q-11 1-23 1t-22-1zm56-1v51q25-6 46-19v-46l-17 6q-12 5-29 8zm82-24q-3-3-13 2l-5 2-6 2v42q21-15 27-32 3-7 2.5-9.5T372 288zM256 36q-60 0-110.5 29.5t-80 80T36 256t29.5 110.5 80 80T256 476t110.5-29.5 80-80T476 256t-29.5-110.5-80-80T256 36zM107 215q0-2 1-4l3-4q22-28 53.5-28t55.5 33v3q0 6-4.5 9t-10.5 1l-5-6q-16-19-36-19-23 0-40 24h-1q-3 1-6 1.5t-6.5-3-3.5-7.5zm283 92q-15 34-52 56.5T256.5 386 174 363q-36-22-51-56-5-11-5-17.5t6.5-12.5 23.5-6h2q8 0 15 3 43 21 91.5 21t91.5-21q7-3 15-3h1q18 0 24.5 6t6.5 12.5-5 17.5zm3-82h-4l-3-3q-1-2-2-3-16-19-37-19-23 0-40 24h-1q-2 1-5 1-5 1-8.5-3.5T291 211l3-4q23-28 54-28t55 33l1 3q0 4-3.5 7t-7.5 4v-1z"/></svg>