<svg xmlns="http://www.w3.org/2000/svg" viewBox="0 0 1000 1000"><path d="M399 276l7 3h4q4 0 5.5-3.5T414 269q-8-8-14-18-2-2-4.5-2.5t-5 .5-3 3.5.5 4.5q4 10 10 18zm577 363q-2-6-7-8-67-20-120-50-2-1-1-3 2-9-7-28-4-10-20-30-12-15-17-22-9-13-11-25-1-5-7-5t-7 5q-5 27 8 59 1 2-1 3.5t-4 .5q-29-23-57-48-2-2-1-4 24-34 23-72-1-34-20-60-14-18-27-27-4-3-5-6-3-34-27-63-2-3-4.5-3t-5 1-3 4 .5 5q18 39 18 54 0 5-6 14-11 15-16 33-5 22 4 48 1 2-1 3.5t-4-.5q-28-32-49-58-2-2 0-4 14-16 20-36t4-39.5-9.5-37T596 211q-4-4-9-7-6-5-7-9-4-28-21-50-1-2-3.5-2.5t-4.5.5-2.5 3.5 1.5 4.5q14 29 15 47 0 4-5 16t-9 25q-5 17 0 42 0 2-2 3t-3-1q-16-23-36-54-1-1-1-3 11-30-1-63-8-23-26-38-11-9-33-21-13-6-25-14l-23-39q-3-6-8.5-3.5T389 56l6 20 11 25q0 11-1 23-1 22 0 35 2 21 11 39 10 21 34 34 15 8 33 11 1 0 2 1 13 22 33 51 1 2-.5 3.5t-3.5.5q-10-4-20-5-4-1-6.5 1.5T486 302v3q1 8 4 21 7 24 19 50 1 3 4 4 35 12 65-4 22 27 44 51 2 2 .5 4t-3.5 1q-20-8-41-6-6 1-11.5 2.5t-10.5 2-6.5 4 .5 6.5q14 20 31 38 22 23 58 44 1 1 3 1 31 1 57-17 1-1 3 0l28 24q21 17 42 33-67-7-110 24-5 3-2.5 8.5t8.5 3.5q13-4 30-2 11 1 32 6v1q32 7 49 7 33 0 43-10 2-2 4 0 67 43 120 64 6 3 11-2l16-16q4-4 3-9zM732 796q-7-3-23-9-41-16-56-26-3-2-7.5-1t-5.5 5l-5 10q-8 19-12.5 24T601 812l-11 5q-4 2-5 6.5t3 8.5q10 11 18 27 5 11 12 33 8 21 12 31 8 17 17 29 3 3 7 3 2 0 4-1 6-2 6-9-1-16 4-37 3-12 11-37l3-8q1-3 3-4l9-3q24-8 37-11 21-5 37-4 7 0 9.5-5.5T775 825q-19-18-43-29zm-288-22q-78-36-117-60-5-2-8.5 1.5t.5 7.5q45 59 62 83 4 6 11 7h1q7 0 11-5 18-20 39-25 4-1 4-4t-3-5zm152-78l-4-8q-8-15-18-28-22-32-35.5-69.5T512 525q-1-2-.5-4.5t3-4 5-1 3.5 2.5q28 37 59 94 3 5 9 4.5t8-6.5q6-17 23-31 4-4 3.5-9.5T620 561q-15-9-33-21-23-17-36-31-52-54-80-113-18-39-24-73-1-5-5.5-8t-9.5-2q-19 3-38 3-45 0-87-15l-3-1q-61-31-137-44-45-8-86-9-5 0-8 3.5t-3 7.5q0 44 9 93 15 80 50 144 2 4 6.5 6t9.5 2q20-4 43.5-12t36.5-17q19-12 39.5-31.5T292 409v-2q1-2 3-3.5t5-1 4.5 2.5 1.5 5q1 63-8 88-2 6-7 5-46-4-85 6-32 9-50 27l-1 1 2 3q23 49 33 84 7 27 14 44 8 21 19 37l4 6q2 2 5 2t5-3q5-8 10-37 4-27 3-43l-1-14q0-25-1-35-1-6 2.5-7t5.5 3q22 27 26 52t25 39q29 18 60 31 20 9 63 23 32 11 60 30 15 10 30 17l2 2q13 8 29 8 23 0 39-16 12-13 15-30 3-20-9-37zM205 329q0 11-8 19t-19.5 8-19.5-8-8-19.5 8-19.5 19.5-8 19.5 8 8 20z"/></svg>