<svg xmlns="http://www.w3.org/2000/svg" viewBox="0 0 512 512"><path d="M256 36q-60 0-110.5 29.5t-80 80T36 256t29.5 110.5 80 80T256 476t110.5-29.5 80-80T476 256t-29.5-110.5-80-80T256 36zm-133 97q-2 1-5.5 1t-7-3-3.5-8q0-2 1-3l3-5q22-27 53.5-27t55.5 32v3q0 6-4.5 9t-10.5 1l-5-5q-16-18-36-18-25 0-41 23zm17 46q0-13 9.5-22.5T172 147t22.5 9.5 9.5 23-9.5 23T172 212t-22.5-9.5T140 179zm185 160q-18-11-69-11t-69 11l-7-21 1-1q23-11 75-11t75 11l1 1zm-10-104q-13 0-22.5-9.5t-9.5-23 9.5-23T315 170t22.5 9.5 9.5 23-9.5 23T315 235zm44-91h-69q-5 0-8-3t-3-7.5 3-8 8-3.5h69q5 0 8 3.5t3 8-3 7.5-8 3z"/></svg>