<svg xmlns="http://www.w3.org/2000/svg" viewBox="0 0 512 512"><path d="M427 157l1-96q0-4-2.5-6.5T419 52h-51q-4 0-6.5 2.5T359 61v50q0 3-2.5 4.5t-5.5.5l-86-58q-9-6-18 0L54 187q-4 3-4 7v48q0 5 4.5 7.5t8.5-.5l184-122q9-6 18 0l184 122q4 3 8.5.5t4.5-7.5v-48q0-4-3-7l-28-23q-4-2-4-7zm-179 4L92 264q-8 5-8 14v146q0 2 2 4t5 2h124q3 0 5-2t2-4v-91q0-3 2-5t5-2h55q3 0 5 2t2 5v91q0 2 2 4t5 2h123q3 0 5-2t2-4V279q0-9-8-14L263 161q-8-5-15 0zm-63 183q0 3-2.5 5t-5.5 2h-48q-3 0-5.5-2t-2.5-5v-36q0-4 2.5-6t5.5-2h48q3 0 5.5 2t2.5 6v36zm106-110q0 3-2 5t-5 2h-56q-3 0-5-2t-2-5v-22q0-4 3-6l24-16q8-5 15 0l25 17q3 2 3 5v22zm100 110q0 3-2.5 5t-5.5 2h-48q-3 0-5.5-2t-2.5-5v-36q0-4 2.5-6t5.5-2h48q3 0 5.5 2t2.5 6v36z"/></svg>