<svg xmlns="http://www.w3.org/2000/svg" viewBox="0 0 512 512"><path d="M204 141l4 2h2q2 0 3-2t-1-3q-4-4-7-9-2-3-5-1.5t-1.5 5.5 5.5 8zm296 186q-1-3-4-4-34-10-61-26-1 0-1-1 1-5-3-14-3-6-11-16-12-15-14-24-1-3-4-3-2 0-3 3-3 14 4 30 0 2-1 2.5t-1-.5q-15-11-30-24-1-1 0-2 12-17 11-37 0-17-10-31-7-9-14-14-2-1-2-3-2-17-14-32-2-3-5-1t-1 5q9 19 9 28 0 2-3 6v1q-6 7-8 16-3 12 2 25 0 1-1 1.5l-1 .5q-15-17-26-30-1-1 0-2 15-17 13-38.5T305 108l-4-4q-4-2-4-4-2-14-11-26-1-2-3.5-.5T281 77q8 15 8 24 0 2-2.5 8.5T282 122q-2 9 0 22 0 1-1 1.5t-2-.5l-18-28v-1q5-16-1-32-4-12-13-20-6-4-17-11-7-3-13-7l-12-20q-1-3-4-1.5t-2 3.5l3 11 6 13q0 6-1 11-1 25 6 38 9 19 34 23l1 1q7 11 17 26 1 1 0 2t-2 0q-5-2-10-3-2 0-3 1.5t-1 3.5v1q1 16 12 37 0 1 2 1 18 7 33-2 11 14 23 27 0 1-.5 2t-1.5 0q-10-4-21-3l-6 1q-3 1-5.5 1.5t-3.5 2 1 3.5q7 10 16 19 11 12 29 23h2q16 1 29-8 1-1 1 0l15 12q11 9 21 17-34-4-56 12-2 2-1 4.5t4 1.5q7-2 15-1 6 1 17 3v1q16 4 25 3 17 0 22-5 1-1 2 0 34 22 62 33 3 1 5-1l8-8q2-2 2-5zm-125 81q-4-2-12-5-21-8-28-13-2-1-4.5-.5T327 392l-2 5q-4 10-6 12t-11 7l-6 2q-2 1-2.5 3.5t1.5 4.5q8 8 16 31 7 21 14 30 2 2 4 2h2q3-2 3-5-1-13 8-38l1-4q1-2 2-2l4-2q26-8 38-7 4 0 5-3t-1-6q-10-9-22-14zm-148-12q-40-18-60-30-2-2-4 0t0 4q23 30 32 43 2 3 6 3t6-2q9-10 20-13 2 0 2-2t-2-3zm78-40l-2-4q-4-7-9-14-11-16-18-35.5T262 269q-1-3 1.5-4.5t4.5.5q14 19 30 48 2 3 5 2.5t4-3.5q3-8 11-16 3-2 2.5-4.5T318 287q-23-13-36-26-26-28-41-58-9-20-12-38-1-2-3-3.5t-5-1.5q-9 2-19 2-23 0-45-8l-1-1q-32-15-70-22-24-4-45-4-2 0-3.5 1.5T36 132q0 23 5 48 7 40 25 73 3 5 8 4 10-1 22-5.5t19-8.5q10-6 20.5-16.5T149 209h1q0-3 3.5-2.5t3.5 3.5q0 32-4 45-1 3-4 3-23-3-43 3-17 4-26 13l-1 1 1 1q12 26 17 43 8 28 17 42l2 3q1 1 2.5 1t2.5-1q3-5 5-19t2-23v-7q-1-12-1-18-1-2 1-3t3 1q11 14 13.5 27t12.5 20q15 9 31 16 10 4 32 12 17 5 31 15 7 5 15 9l1 1q7 4 15 4 12 0 20-8 6-7 7.5-16.5T305 356zM105 168q0 6-4 10t-10 4-10-4-4-10 4-10 10-4 10 4 4 10z"/></svg>