<svg xmlns="http://www.w3.org/2000/svg" viewBox="0 0 1000 1000"><path d="M380 871h187q10 0 17-5.5t9-14.5q33-149 33-191 0-27-78-72-47-27-108-54-7-3-12-15-2-6-3-16t0-17q2-9 10-15 33-24 54-64 24-46 24-99.5t-18-94-48.5-63T380 128q-37 0-67.5 22.5t-48 63-17.5 94 24 99.5q21 40 54 64 7 6 9 15 1 7 0 16.5t-3 16.5q-3 11-12 15-61 27-108 54-78 45-78 72 0 41 33 191 2 9 9.5 14.5T192 871h188zm219-514h55q8 0 13.5 5.5T673 376v127q0 8 5.5 13.5T691 522h127q8 0 13.5-5.5T837 503V376q0-8 5.5-13.5T856 357h54q12 0 17-10t-1-19L770 105q-5-8-15-8t-16 8L584 328q-7 9-1.5 19t16.5 10z"/></svg>