<svg xmlns="http://www.w3.org/2000/svg" viewBox="0 0 1000 1000"><path d="M500 70q-117 0-217 59-97 57-154 154-59 100-59 217t59 217q57 97 154 154 100 59 217 59t217-59q97-57 154-154 59-100 59-217t-59-217q-57-97-154-154-100-59-217-59zM240 259q-5 2-9 2-9 0-15-6t-6-14q0-4 1-7l2-2q3-6 4-7 21-26 47.5-40t57-14 58 16.5T429 235q1 3 1 6 0 11-9.5 17t-19.5 2l-9-9q-32-36-71-36-23-1-44 10.5T240 259zm33 91q0-26 18.5-44.5T336 287t44.5 18.5T399 350t-18.5 44.5T336 413t-44.5-18.5T273 350zm361 313q-11-7-31-12-40-10-103-10t-103 10q-20 5-31 12l-14-43 1-1q45-22 147-22t147 22l1 1zm-19-205q-26 0-44.5-18.5T552 395t18.5-44.5T615 332t44.5 18.5T678 395t-18.5 44.5T615 458zm87-176H566q-9 0-15-6.5t-6-15.5 6-15 15-6h135q9 0 15 6.5t6 15-6 15-15 6.5h1z"/></svg>