<svg xmlns="http://www.w3.org/2000/svg" viewBox="0 0 1000 1000"><path d="M331 650q88 54 170 61v-53q-30 4-60 4-55 0-110-12zm326 22q48-36 56-99-27 19-56 34v65zM500 70q-117 0-217 59-97 57-154 154-59 100-59 217t59 217q57 97 154 154 100 59 217 59t217-59q97-57 154-154 59-100 59-217t-59-217q-57-97-154-154-100-59-217-59zm59 278l153-88q8-4 17-2t13.5 10.5T745 286t-11 14l-68 39q21 11 30 32.5t1.5 43.5-27 34-42.5 8.5-38.5-21.5-15.5-41l1-5q-9 2-16-2t-10-12 0-15.5 10-12.5zm-302-79q5-9 14-11t17 2l153 88q7 5 10 13.5t-1 16.5-12.5 11-16.5 0v6q0 23-15 41t-38.5 21.5T324 448t-26.5-35.5 3-43.5 31.5-31l-67-39q-8-4-10-13t2-17zm338 470q-34 8-70 8-71 0-146-32-54-24-105-61-27-20-43-36l19-28q26 10 60 19 68 18 131 18 32 0 62-5 82-12 157-56 37-23 58-43l30 10q1 9 0 27-1 32-12 61-14 40-44 68-37 35-97 50zm-6-35q24-6 46-17v-69q-22 11-46 19v67zm-66 8h2q21 0 41-3v-65q-22 6-43 10v58z"/></svg>