<svg xmlns="http://www.w3.org/2000/svg" viewBox="0 0 1000 1000"><path d="M926 518q-11-20-22-39-25-44-43-69l-9-13q-26-37-42-56-28-35-44-39-1-1-1.5-2t.5-2q30-21 41-55t.5-68.5T767 119t-65-22h-2q-36 1-64.5 22T596 174.5t.5 68.5 40.5 55q1 1 .5 2t-1.5 2q-16 4-44 39-16 19-41 56l-10 13q-17 24-41 66-24-42-41-66l-10-13q-26-37-41-56-28-35-44-39-2-1-2-2t1-2q29-21 40.5-55t.5-68.5-39.5-55.5T300 97h-2q-36 1-65 22t-39.5 55.5.5 68.5 40 55q2 1 1.5 2t-1.5 2q-16 4-44 39-16 19-42 56l-9 13q-18 25-43 69l-22 39q-10 16-7.5 31t16 23.5 28.5.5q13-7 24-21l70-96v8q0 43-5 128l-26 202q-1 5-5 5-22 5-33 15-8 8-10 20t3.5 20 16.5 8l82 1q9 0 16-6.5t8-15.5l27-226q1-8 6.5-13t13.5-5 13.5 5 6.5 13l27 226q1 9 7.5 15.5T370 863l82-1q10 0 15.5-8t4-20-10.5-20q-10-10-32-15-4 0-5-5l-26-202q-5-85-5-128v-8l70 96q7 9 15 15 3 3 6 5 7 5 15.5 5t16.5-5q3-2 6-5 8-6 15-15l70-96v8q0 43-5 128l-26 202q-1 5-5 5-22 5-32 15-9 8-10.5 20t3.5 20 16 8l82 1q9 0 16-6.5t8-15.5l27-226q1-8 6.5-13t13.5-5 13.5 5 6.5 13l27 226q1 9 8 15.5t16 6.5l82-1q11 0 16.5-8t3.5-20-10-20q-11-10-33-15-4 0-5-5l-26-202q-5-85-5-128v-8l70 96q11 14 24 21 15 8 28.5-.5t16-23.5-7.5-31z"/></svg>