<svg xmlns="http://www.w3.org/2000/svg" viewBox="0 0 1000 1000"><path d="M340 399q-2 27 2 54 1 4 4.5 5t6.5-2q15-19 34-36 2-2 1.5-5.5T385 409l-37-16q-3-1-5.5 1t-2.5 5zm320 0q2 27-2 54-1 4-4.5 5t-6.5-2q-15-19-34-36-2-2-1.5-5.5t3.5-5.5l37-16q3-1 5.5 1t2.5 5zm94 333q-24-51-79-95-47-37-107-63h2q43-5 82-24 45-22 71-57 30-41 30-94 0-68-34-117-31-44-87-69-49-22-111-27h-1q10-8 27-10 9-2 29-2 15 0 22-1 44-6 73-31 4-3 1.5-7.5T665 131q-12 3-27 2-9-1-28-4-29-5-44-4-12 1-26 6-16 5-26 14 7-41 29-61 14-13 32-16h1l-2-1q-10-9-13-20l-1-5q0-1-1-1.5t-3-.5q-19 7-32 23-25 31-30 91-8-13-28-21-16-7-31.5-8t-45.5 4q-18 3-27 4-15 1-27-2-5-2-7.5 3t1.5 8q28 25 73 31 6 0 21 1 21 0 31 1 17 3 26 11h-4q-97 9-157 57-72 57-72 156 0 53 30 94 26 35 71 57 39 19 82 24 0 1 1 .5l1-.5q-60 26-107 63-55 44-79 95-3 7 .5 11.5T258 749q38 3 72-13 28-14 52-36t37-48q2-3 6-1t3 6q-3 9-10 28-13 32-15 49-4 22 0 44 8 38 41 69 7 5 8 14.5t-1.5 18.5-6.5 11l-13 1q-15 3-25 9-13 9-11 24 1 18 17.5 16.5T449 923q27-22 24-41-5-25 2-45 13 2 25 2t25-2q7 20 2 45-3 20 24 42 20 16 36.5 17.5T605 925q2-15-11-24-10-6-25-9l-13-1q-4-2-6.5-10.5t-1.5-18 8-15.5q33-31 41-69 4-22 0-44-2-17-14-49-8-19-11-28-1-4 3-6t6 1q13 26 37 48.5t52 35.5q34 16 72 13 8-1 11.5-5.5t.5-11.5zM500 539q-67 1-105.5-4T339 518q-27-19-38-55t-1-66q9-25 36-27 19-1 42 9 15 7 46 14l16 4q60 13 120 0l16-4q31-7 46-14 24-10 42-9 27 2 36 27 10 30-1 66t-38 55q-17 12-55.5 17T500 539z"/></svg>