<svg xmlns="http://www.w3.org/2000/svg" viewBox="0 0 512 512"><path d="M461 355l-116 86q-3 2-5.5 1t-2.5-5V318q0-2 2-4l115-87q3-2 6-.5t3 4.5v120q0 2-2 4zm-61-226q-28 20-45 62-16 40-18 86 0 3 3 4.5t5-.5l116-86q2-2 2-4-1-47-18-65.5t-45 3.5zM175 230q-4-1-8-1-12 0-20.5 8t-9 20.5T147 284t24 17q4 2 9 2 12 0 19.5-7.5T208 275q1-14-9-27.5T175 230zM385 97Q188 69 179 67q-72 0-105 69-19 39-21 87 0 3 4 4l53 13q5 1 6-3 5-15 18-24t28-9q7 0 14 2 21 6 36 22.5t19 37.5q1 3 4 4l64 16q2 0 4-1.5t2-3.5v-9q6-51 26-94 20-45 51-68l6-4q2-2 1.5-5.5T385 97zm-83 220q-35-9-69-18-4-1-6 3-6 12-17 19t-25 7q-8 0-15-2-19-5-33-20t-20-34q-1-3-4-3l-53-14q-2-1-4 .5t-2 4.5v85q0 4 3 5l242 94q2 1 4.5-.5t2.5-3.5V322q0-4-4-5z"/></svg>