<svg xmlns="http://www.w3.org/2000/svg" viewBox="0 0 1000 1000"><path d="M677 306q-8-5-15-10-19-11-39-20-28-13-56-20-35-10-67-10t-67 10q-28 7-56 20-20 9-39 20l-15 10q-12 11-10.5 24.5T329 351l134 76q15 8 37 8t37-8l134-76q15-7 16.5-20.5T677 306zm192-27L537 113q-15-8-37-8t-37 8L131 279q-15 7-26 24.5T94 338v324q0 17 11 34.5t26 24.5l332 166q15 8 37 8t37-8l332-166q15-7 26-24.5t11-34.5V338q0-17-11-34.5T869 279zm-51 62L537 482q-15 7-37 7t-37-7L182 341q-15-8-15-18.5t15-18.5l281-141q15-7 37-7t37 7l281 141q15 8 15 18.5T818 341z"/></svg>