<svg xmlns="http://www.w3.org/2000/svg" viewBox="0 0 1000 1000"><path d="M500 70q-117 0-217 59-97 57-154 154-59 100-59 217t59 217q57 97 154 154 100 59 217 59t217-59q97-57 154-154 59-100 59-217t-59-217q-57-97-154-154-100-59-217-59zM242 437l-2 1q-5 2-10 2-8 0-14-6t-6-14q0-4 1-7l1-2q4-6 5-7 21-26 47.5-40t57-14 58 16.5T429 414q1 3 1 6 0 11-9.5 17t-19.5 2l-4-4-5-8q-32-36-71-36-22 0-42.5 12T242 437zm438 205q-84 50-182 50t-181-50q-9-2-15-7.5t-8-13.5.5-16 9.5-13 15.5-5.5T335 590q17 12 46 24 57 24 117 24t117-22q29-12 48-25 8-5 16.5-5t16 5.5 10 14 0 17-9.5 14-16 5.5zm88-202q-5 0-9-1l-5-6q-3-2-4-6-32-36-71-36-22 0-42.5 12T600 437l-2 1q-5 2-10 2-10 1-16.5-8t-2.5-19l1-2q4-6 5-7 21-26 47.5-40t57-14 58 16.5T787 414q1 3 1 6 0 8-6 14t-14 6z"/></svg>