<svg xmlns="http://www.w3.org/2000/svg" viewBox="0 0 1000 1000"><path d="M755 594l-167-1q-4 0-8-10l-1-5-9-15q-1-3-5.5-5t-8.5-2l-433-1q-4 0-6.5 2.5T114 564v23q0 4 3 6.5t7 2.5l383 1q22 0 36 13 8 8 14 21 2 7-.5 11.5t-7 4-7.5-4.5q-5-7-14.5-10t-34.5-3H183q-7 0-11 6l-6 6q-4 5 0 11l12 14q13 14 16 14 36 0 60 18 30 24 30 70 0 23-10 43-9 16-23 29-10 10-23 17l-10 5q-3 0-6.5 4t-3.5 7v49q0 3 2.5 5.5t6.5 2.5h92q3 0 5.5-2.5t2.5-5.5l1-34q0-21 10-39t27-30q12-7 27-11 10-2 21-2l9 1q10 2 15.5 7t3 9.5T418 828q-15 0-24 2-13 3-22.5 9t-17 18-7.5 24q0 3 3 5t6 1l3-2q14-7 22-9 13-4 35-4 20 0 36 6.5t25 16 9 16.5v11q0 4 2.5 6t5.5 2h95q4 0 6.5-2t2.5-6v-52q0-3-2.5-5.5T589 861q-13 0-25-5t-22-17q-13-15-13-32 0-22 10-38 7-10 15-14 3-1 7-2.5t5-3 0-7 1-13 7.5-10 11 0 8 6.5 4.5 12q1 6 3 6 3 2 18-1t32-10q21-9 38-20 22-15 38-36 13-17 22-36 6-14 10-28l2-12q1-3-1-5.5t-5-1.5zm208-110q-1-8-8.5-20.5T940 446q-4-3-7.5-1t-2.5 6q1 10-7.5 12t-14-4 1.5-17q2-2 1.5-4.5T909 434q-54-44-110-91-4-4-8 0l-9 8-15 15q-1 1-2 1-4 1-7.5-.5T754 359t2-11 .5-9.5-4.5-8.5Q590 194 398 32q-2-1-4.5-1t-3.5 2l-67 75q-1 1-2 3l-11 77q-1 3 1.5 5t5.5 2l57-13q3 0 5 2t2 5l-6 58q0 3 2.5 5t5.5 1l56-12q3-1 5 1t2 5l-5 59q0 3 2 5t5 1l57-12q3-1 5 1t2 5l-5 59q-1 3 1.5 5t5.5 1l58-12q2-1 4.5 1t2.5 5l-7 58q0 4 2.5 6t5.5 1l56-12q3-1 5.5 1t2.5 5l-6 59q0 3 2.5 5t5.5 1l56-12q3-1 5.5 1.5t1.5 5.5l-5 49q-1 3 1 5t4 2h90q3 0 5-2l17-23q4-4 8-1 8 5 20 4 8 0 13-3t5-4.5-3.5-4-4.5-6.5 1.5-12.5 10.5-11 20 2.5 15 19-4 24-50 60l-18 20-8 8q-8 8-11 12-5 7-5 13 1 15 19.5 25.5T871 669q2 0 4-2t1-5v-2q-3-16 1-26v-2q6-16 13-27 11-18 32-41h1q4-6 14-17 16-17 21-27 8-16 5-36zm-125-24q-10 2-18-5.5t-5.5-19 14-14T848 427t5 19-15 14z"/></svg>