<svg xmlns="http://www.w3.org/2000/svg" viewBox="0 0 1000 1000"><path d="M581 378q12 9 30 9 13 1 25-5 14-8 15-20t-10-20-27-9-29 6-14 19 10 20zm3-19q1-6 9-10t17-3q12-1 21 6 6 4 6 9.5t-8.5 10-20 3.5-18-6-6.5-10zm-131-78q11 8 27 8 13 0 24-6 14-7 15-18.5t-9-19-25-8-26 6.5q-14 7-15 18t9 19zm13-27q8-4 17-4t18 5q5 4 4.5 9t-8.5 9-18.5 3.5-16-4.5-5-9 8.5-9zm7 95q41 41 83 48 4 1 6-1t-1-4q-34-20-50-53-4-8-17-13-45-15-67-38-2-2-5.5-1t-3.5 3q3 26 55 59zm398-41L632 115q-10-8-22-9.5t-23 3.5L142 316q-17 8-27 23.5T105 374l1 257q0 24 19 40l221 177q19 15 44 18t48-7l427-198q14-7 22-19.5t8-27.5V357q0-14-6.5-27T871 308zM734 452q1 3 0 6t-4 4L443 597q-7 3-12.5 7.5T422 615t-3 12l2 92q0 6-4 11t-10 6h-3q-6 0-11-4.5t-5-10.5l2-96q2-12 7.5-23t15.5-19q4-3 10-6l300-130q3-1 6 0t5 5zm-346-62q-5-3-10.5-3t-9.5 2-5 6v1l-16 8q-3 2-6.5 1t-5.5-5q-3-5-2-11 1-14 18.5-23t35.5-9q26 0 43 13 12 10 11 22-2 14-20 23-13 7-30.5 8t-32.5-4q-2-1-2-3.5t2-3.5l16-9h4q4 0 7-1l2-2q3-1 3.5-4.5T388 390zm-47-145l12 2 33 6q9-6 18-11 31-17 75-21.5t88 4.5q46 9 78 32 34 23 44 54.5t-4 61-49 46.5q-13 7-26 11 3 10 5 21l1 11q1 5-3 7.5t-8.5 1.5-6.5-5q-10-15-21-30-61 6-121-24-5-2-3-7t2-10q2-20-15-34-11-8-26.5-12t-31.5-3q-6 1-9-4-22-38-4-69l-14-6-14-6q-5-2-7-3-4-4-1-8.5t8-4.5zM147 411q2-3 5.5-3.5t6.5 1.5l211 154q5 3 6.5 9.5T375 585t-11 8h-3q-6 0-10-3L149 422q-3-2-3.5-5.5t1.5-5.5zm724 203q0 8-4 15t-12 10L428 838q-17 7-35 5t-33-14L139 652q-10-8-10-21v-70l230 185q13 10 29 11.5t30-4.5l453-210v71z"/></svg>