<svg xmlns="http://www.w3.org/2000/svg" viewBox="0 0 1000 1000"><path d="M829 694l-60 60q-21 21-44 16-19-4-31.5-23t-9.5-36 24-17 35-10q12-7 18-21 5-9 7-20l1-10 9-1q12-2 21-6 13-7 21-18 9-15 9-35.5t-9-34.5q-8-12-21-18-9-5-21-7l-9-1-19-11q-23-15-42-34-26-27-41-57-19-38-19-80 0-70 49-128 27-32 60-52l2-1q10-7 10-18 0-18-13-30t-31-11q-168 11-302 111-108 80-189 215-59 99-99 218-22 66-32 118-1 3 0 6 1 19 11 33 16 24 50 24t50-26q9-15 10-33v-4q51-227 180-380 95-112 224-175-46 64-46 140 0 87 36 150 26 45 65 71 18 12 39.5 16t28.5 18.5-5 27.5-38 13q-22 0-43 19.5T632 702t-9 59q3 32 24.5 53.5T711 839q38 3 80-9t70.5-33 28.5-42.5-10-35.5q-7-11-20-18-10-4-21-6z"/></svg>