<svg xmlns="http://www.w3.org/2000/svg" viewBox="0 0 1000 1000"><path d="M624 716q0 19 13 32.5t32 13.5 32-13.5 13-32.5q0-24-45-156-45 132-45 156zM500 70q-117 0-217 59-97 57-154 154-59 100-59 217t59 217q57 97 154 154 100 59 217 59t217-59q97-57 154-154 59-100 59-217t-59-217q-57-97-154-154-100-59-217-59zm32 276q3-11 14-14.5t19 4.5l3 4q4 6 4 7 21 43 60 53 21 6 44.5.5T721 378q5-1 10 0 8 2 12.5 9.5T745 403q-1 4-3 7l-2 2-5 5q-28 19-57 25.5t-58.5-1.5-52-31-35.5-58v-6zm-290 58q-2-9 2.5-16.5T257 378q4-1 9 0l4 2q6 3 7 4 40 27 78 17 22-6 39.5-22.5T422 336q8-7 19.5-4t14.5 15v6l-1 3q-2 6-2 7-14 31-36 51t-51.5 28-60.5-.5-60-32.5q-2-3-3-5zm427 394q-34 0-57.5-24T587 716q0-18 18-76l-24-10q-54-22-84-22t-84 22q-41 17-87 41l-21-30q40-33 86-57 29-14 49-21 29-9 57-9t56 9q21 7 49 21l17 9q16-48 33-94h34q20 56 36 106 28 88 28 111 0 34-23.5 58T669 798z"/></svg>