<svg xmlns="http://www.w3.org/2000/svg" viewBox="0 0 512 512"><path d="M60 83v73q0 3 2 5t5 2l314-53q6-1 6-7V54q0-3-2-5t-5-2L66 76q-6 1-6 7zm290 347q2 0 5 1l69 37q5 3 10-.5t4-9.5l-14-77q-1-5 3-9l56-54q4-4 2.5-9.5T478 302l-78-11q-5-1-7-6l-34-70q-3-5-9-5t-8 5l-35 70q-2 5-7 6l-78 11q-5 1-7 6.5t2 9.5l57 54q3 4 2 9l-13 77q-1 6 3.5 9.5t9.5.5l70-37q2-1 4-1zm-31-225q4-8 12-13.5t17-6.5q16-1 27 11 3 3 7 2 5-1 5-6v-51q0-3-2.5-5t-5.5-1L65 195q-5 1-5 7l-1 75q0 3 3 5t6 1l244-66q2 0 2-1zM201 336q-8-7-10.5-17t1-19 10.5-15 17-8l68-10q2 0 2-1l7-13q0-2-1-3t-2-1L64 316q-5 2-5 7v75q0 4 3 6t6 0l143-53q1 0 1.5-1.5t-.5-2.5z"/></svg>