<svg xmlns="http://www.w3.org/2000/svg" viewBox="0 0 1000 1000"><path d="M886 405q-61-37-205-37H498q-2 0-3-2t0-3q18-34 18-78 0-34-11.5-58.5T465 184q-48-34-146-34H133q-7 0-12.5 5t-5.5 12 4.5 12.5T131 186l24 2q6 1 11 5 7 6 7 16v399q0 8-5 13.5t-13 6.5l-24 2q-7 0-11.5 5.5T115 648q0 8 5 13t13 5h157q7 0 12.5-5t5.5-13q0-7-5-12t-12-6l-28-2-4-2-3-2q-7-7-7-16V454q0-5 4-9.5t10-3.5h14q7 1 11 7 17 27 52 67 42 49 83 83 51 43 90 53 5 1 7.5 5t2.5 9v179q0 3-1.5 5t-4.5 2l-31 2q-7 0-12 5.5t-5 12.5q0 8 5.5 13t12.5 5h208q8 0 13-5t5-13q0-7-5-12.5t-12-5.5l-46-2q-6-1-11-4l-1-1q-9-6-9-17V706q0-6 4.5-10t10.5-4l26 2q17 1 29 1 114 0 181.5-46T948 527q0-85-62-122zm-257 16q0-5 4-9t9-5h35q92 0 135.5 29t43.5 89q0 63-42 96t-123 33q-9 0-23-1l-26-2q-6 0-9.5-4t-3.5-10V421zM430 292q0 54-33 79t-106 25h-29q-6-1-10-5t-4-9V203q0-6 4.5-10t9.5-4h23q42 0 66 4 29 5 45 17 34 25 34 82zm20 117q13-7 43-5 13 1 21.5 10.5T523 437v152q0 7-6.5 11.5t-13.5.5q-39-21-76-76-21-30-49-87v-1q43-9 72-28z"/></svg>