<svg xmlns="http://www.w3.org/2000/svg" viewBox="0 0 512 512"><path d="M256 36q-60 0-110.5 29.5t-80 80T36 256t29.5 110.5 80 80T256 476t110.5-29.5 80-80T476 256t-29.5-110.5-80-80T256 36zM124 224h-1q-3 1-6 1t-6.5-3-3.5-7l1-4 3-4q22-28 53.5-28t55.5 33v3q0 6-4.5 9t-10.5 1l-5-6q-16-19-36-19-23 0-40 24zm224 105q-43 25-93 25t-93-25q-9-2-11.5-11t5-15 15.5-1h1q8 6 23 12 29 13 60 13t60-12q15-6 24-12h1q3-3 7.5-3t8.5 3 5.5 7 0 8.5-5 7.5-8.5 3zm45-104h-4l-3-3q-1-2-2-3-16-19-37-19-23 0-40 24h-1q-2 1-5 1-5 1-8.5-3.5T291 211l3-4q23-28 54-28t55 33l1 3q0 4-3.5 7t-7.5 4v-1z"/></svg>