<svg xmlns="http://www.w3.org/2000/svg" viewBox="0 0 512 512"><path d="M395 410l-17 1q-24-3-40-21 28-33 32-76l1-17q1-2-.5-3.5T367 292h-25q-3 0-4 1.5t-1 4.5l6 23q0 2-1 3l-24 40q-13-21-7-45v-1q0-1-1-2-15-9-27-22L143 154q-17-17-55-32-23-9-48-15-1 0-2 1t-1 3q6 24 15 47 14 38 31 55l140 140q13 12 23 28 1 1 2 1v-1q24-5 46 7l-40 25q-2 1-3 0l-24-5q-2-1-3.5.5T222 412v25q0 2 1.5 3.5t3.5 1.5l17-2q43-4 76-31 18 16 21 40l-1 17q0 2 1.5 3.5t3.5 1.5l51-1q3 0 3-4l2-51q0-2-1.5-3.5T395 410zM230 153q16 16 39 16t39.5-16.5T325 113t-16.5-39T269 58t-39.5 16-16.5 39 17 40zm117-27q-4 0-5 5-5 20-20 35t-35 20q-4 1-5 5v14q0 2 1.5 4t4.5 2h41q4 0 5 4l5 12q1 3 3 4l9 3q34 14 61 40l4 4q27 26 40 61 2 5 7 4l21-5q8-2 10-10l5-22q1-5-4-6-35-14-61-41l-4-3q-26-27-40-61l-3-9q-1-2-3-3l-13-5q-4-1-4-6v-41q0-2-1.5-4t-4.5-2z"/></svg>