<svg xmlns="http://www.w3.org/2000/svg" viewBox="0 0 512 512"><path d="M454 207q-32-19-106-19h-93q-1 0-1.5-.5t-.5-1.5q9-18 9-40 0-34-24-51.5T164 77H68q-4 0-6.5 2.5t-2.5 6 2 6.5 6 3l12 1q3 1 6 3 4 3 4 8v204q0 4-3 7t-7 4l-12 1q-3 0-5.5 2.5T59 332q0 4 2.5 6.5T68 341h80q4 0 6.5-2.5t2.5-6.5q0-4-2-6.5t-6-2.5l-14-2h-2l-2-2q-4-3-4-8v-78q0-3 2.5-5.5t5.5-1.5h7q4 0 6 3 15 25 46 56 40 41 69 48 5 2 5 7v92q0 3-3 4l-16 1q-4 0-6.5 2.5T240 446q0 4 3 6.5t6 2.5h107q4 0 6.5-2.5t2.5-6.5q0-4-2.5-6.5T356 437l-23-2q-3 0-6-1v-1q-5-3-5-8v-64q0-3 2.5-5t5.5-2l28 2q58 0 92.5-23.5T485 270q0-44-31-63zm-132 9q0-3 2-5t5-2l18-1q47 0 69 15t22 46.5-21 48.5q-22 17-63 17l-25-2q-3 0-5-2t-2-5V216zm-102-67q0 28-17 41t-54 13h-15q-3-1-5-3t-2-5v-91q0-3 2-5t5-2h12q21 0 34 2 15 2 23 8 17 13 17 42zm11 60q6-3 21-2 7 1 11.5 5.5T268 224v77q0 4-3.5 6.5t-7.5.5q-19-11-38-39-11-16-25-45h-1q23-5 38-15z"/></svg>