<svg xmlns="http://www.w3.org/2000/svg" viewBox="0 0 1000 1000"><path d="M810 257q-52-29-111-25-53 4-93.5 32T557 327q-4 17 0 35-34 10-52 41-2 3-5 3t-4-3q-10-16-25.5-27.5T437 360q3-17-1-33-8-35-48.5-63T294 232q-59-4-111 25-87 48-120 88-35 43-23 94 26 109 202 66 52-12 94-35t68-51l15 7q18 9 26.5 17t16.5 26q12 26 14 93 2 55-2 91l-16 124q-3 13 2 25t16 20 24 8 24-8 16-20 2-25l-16-124q-4-36-2-91 2-67 14-93 8-18 16.5-26t26.5-17l10-5q27 28 68 50t91 34q91 22 146 2 52-19 64-72 12-49-26-91-33-37-124-87z"/></svg>