<svg xmlns="http://www.w3.org/2000/svg" viewBox="0 0 512 512"><path d="M306 66h-97q-43 0-80 22t-58.5 58.5-21.5 80T70.5 307t58.5 58.5 80 21.5q7 0 10 7l31 56q2 5 7.5 5t7.5-5l31-56q3-7 10-7 43 0 80-21.5t58.5-58.5 21.5-80.5-21.5-80T386 88t-80-22zM144 261q-14 0-24-10t-10-24 10-24.5 24.5-10.5 24.5 10.5 10 24.5-10 24-25 10zm113 0q-10 0-18.5-5.5t-13-15.5-2-20 9.5-17.5 17.5-9.5 20 2 15.5 12.5 6 19.5q0 14-10 24t-25 10zm113 0q-10 0-18.5-5.5t-13-15.5-2-20 9.5-17.5 17.5-9.5 20 2 15.5 12.5 6 19.5q0 14-10 24t-24 10h-1z"/></svg>