<svg xmlns="http://www.w3.org/2000/svg" viewBox="0 0 512 512"><path d="M474 265q-6-10-11-20-13-22-22-35l-5-7q-31-45-44-49l-.5-.5.5-1.5q15-10 20.5-27.5t0-35-20-28.5T359 50h-1q-18 0-32.5 11T305 89.5t0 35 21 27.5q1 1 .5 1.5l-.5.5q-13 4-44 49l-5 7q-9 12-21 34-12-22-21-34l-5-7q-31-45-44-49l-.5-.5.5-1.5q15-10 20.5-27.5t0-35-20-28.5T153 50q-19 0-33.5 11T99 89.5t0 35 21 27.5q1 1 .5 1.5l-.5.5q-13 4-44 49l-5 7q-15 20-33 55-5 9-4 16.5t8 11.5 14 .5T69 283l36-49v4q0 21-3 65L89 407q0 2-3 2-11 2-16 8-7 6-5.5 15.5T75 442h42q4 0 7.5-3.5t4.5-7.5l14-116q0-4 3-6.5t7-2.5 7 2.5 3 6.5l14 116q1 4 4.5 7.5t7.5 3.5h42q9 0 10.5-9.5T236 417q-5-6-16-8-3 0-3-2l-13-104q-3-43-3-65v-5l36 49q3 5 8 9l3 2q8 5 16 0l3-2q5-4 8-9l36-49v5q0 21-3 65l-13 104q0 2-3 2-11 2-16 8-7 6-5.5 15.5T281 442h42q4 0 7.5-3.5t4.5-7.5l14-116q0-4 3-6.5t7-2.5 7 2.5 3 6.5l14 116q1 4 4.5 7.5t7.5 3.5h42q9 0 10.5-9.5T442 417q-5-6-16-8-3 0-3-2l-13-104q-3-43-3-65v-5l36 49q6 8 13 11.5t14-.5 8-11.5-4-16.5z"/></svg>