<svg xmlns="http://www.w3.org/2000/svg" viewBox="0 0 1000 1000"><path d="M902 612q-36-74-52.5-134.5T831 352q11-2 19-10l62-64q12-12 11-28.5T910 222l-82-70q-28-24-64-25h-28q-4 0-9 1-10 4-16.5 12t-6.5 19-8 19-19.5 8-20-8-8.5-19-6-19-17-12q-4-1-9-1h-28q-37 1-65 25l-49 42q-6 6-6.5 13.5t5 13.5 13 6.5T499 223l49-42q18-15 41-16h14q5 0 6 5 5 24 24 39.5t43.5 15.5 43.5-15.5 23-39.5q1-5 6-5h14q23 1 40 16l81 70-62 64-8-6q-4-3-9-3t-9 4-4 10q-1 79 16.5 151T867 629l6 11q-94 44-197 44h-20q-11-1-17 8.5t-1 19 16 10.5h22q116 0 219-50 12-6 16-18.5t-1-24.5zM208 450q6-15 23-22 24-10 32-14 5-3 6-5v-3l-2-4q-11-22-12.5-34t8.5-60q0-4-2-7t-5-3q-13-4-24-12-3-2-7-1-15 1-35 10-35 14-66 44-24 21-53 67-7 10-3 22 7 19 8 35 1 24-12 36-5 4-3.5 10.5T68 519l22 9q2 1 5 1h1q81-13 112-79zm370 243q0-3-2.5-5t-5.5-1.5-5.5 2.5-2.5 5l-4 40q-68 10-135 58-15 11-28 24-1 2-3 2t-4-2l-1-1q-12-12-26-22-67-49-136-59l-4-40q0-3-2-5t-5-2.5-6 1.5-3 5q-17 70-40 109-4 7 0 15t14 9q65 3 131 31 41 17 73 38 9 6 18 0 32-21 72-38 67-28 132-31 9-1 13.5-9t-.5-15q-22-38-40-109zm-62-291l-2 5 1 2q1 2 5 5 8 4 32 14 17 7 24 22 30 66 111 79h2q2 0 4-1l22-9q7-2 8-9t-4-11q-13-12-11-36 0-17 7-35 4-12-3-22-30-46-52-67-32-30-67-44-19-9-35-10-4-1-7 1-11 8-23 12-4 1-6 3.5t-1 6.5q10 49 8.5 60.5T516 402zm-126-19h3q50 0 75-28 17-18 21-43 1-7 1-14-1-12-7-14-45-16-49-41 0-4-2.5-5.5T422 234l-1-1q-12-5-24-5l-11-1q-13 1-24 6h-1l-9 4.5-3 4.5q-4 27-49 42-6 2-7 14 0 7 1 13 5 26 21 44 26 28 75 28zm5 38h-7q-74 2-137 41l-14 9q-5 3-7 9-12 46-9 85 3 44 25 58 4 3 5 7l5 54q0 5 3 9t8 5q21 5 74 33 31 17 49 28h3q18-11 50-28 52-28 73-33 5-1 8-5t4-9l5-54q0-4 4-7 22-14 25-58 3-40-9-85-2-6-7-9l-14-9q-63-39-137-41z"/></svg>