<svg xmlns="http://www.w3.org/2000/svg" viewBox="0 0 512 512"><path d="M209 124q0 19 14 33t33 14 33-14 14-33.5-14-33T256 77t-33 13.5-14 33.5zM30 286q10 10 24 13t27-2.5 21-17.5 8-26-8-26-21-17.5-27-2.5-24 13q-14 13-14 32.5T30 286zm226-87q-15 0-28-6-5-2-10 1l-22 16q-6 4-4 11l54 197q2 7 10 7t10-7l54-197q2-7-4-11l-22-16q-5-3-10-1-13 6-28 6zm-88 71l-29 5q-4 1-6 5-12 30-41 42-4 1-4 5l-6 29q-1 6 4 9l119 60q5 2 8.5-1t2.5-8l-39-141q-1-3-3.5-4.5t-5.5-.5zm314 16q-10 10-24 13t-27-2.5-21-17.5-8-26 8-26 21-17.5 27-2.5 24 13q14 13 14 32.5T482 286zm-138-16l29 5q4 1 6 5 11 30 41 42 4 2 4 6l6 29q1 5-3 7l-120 61q-5 2-8.5-1t-2.5-8l39-141q1-3 3.5-4.5t5.5-.5z"/></svg>