<svg xmlns="http://www.w3.org/2000/svg" viewBox="0 0 1000 1000"><path d="M501 373q-2-3-5-3t-5 3l-34 61-69 14q-4 1-5 4t2 6l47 51-8 70q0 3 2.5 5t5.5 1l64-30 64 30q3 1 5.5-1t2.5-5l-8-70 47-51q3-3 2-6t-5-4l-68-14zm421 359q-8-4-32-13-46-19-68-31-38-21-48-44-34-82-75-225-24-80-60-217l-15-56q54-35 65-78l-25 6q-31 8-62 17-43 14-78 27-43 18-111 47-74 32-107 44-52 17-106 24-59 8-147 7l1 5q2 5 7 10 6 7 17 13 8 4 32 13 47 19 68 31 38 21 48 44 34 82 75 225 24 80 60 217l15 56q-54 35-65 78l25-6q31-8 62-17 43-14 78-27 43-18 111-47 74-32 107-44 52-17 106-24 59-8 147-7l-1-5q-2-5-7-10-6-7-17-13zM651 602q-4 57-34 99-25 36-72 65-28 18-89 47-37 17-54 26 4-28-4-83-4-33-19-111-17-88-23-130-10-72-7-117 4-57 34-99 25-36 72-65 28-18 89-47 37-17 54-26-4 28 4 83 4 33 19 111 17 88 23 130 10 72 7 117z"/></svg>