<svg xmlns="http://www.w3.org/2000/svg" viewBox="0 0 1000 1000"><path d="M500 70q-117 0-217 59-97 57-154 154-59 100-59 217t59 217q57 97 154 154 100 59 217 59t217-59q97-57 154-154 59-100 59-217t-59-217q-57-97-154-154-100-59-217-59zm138 262q26 0 44.5 18.5T701 395t-18.5 44.5-45 18.5-45-18.5T574 395t18.5-44.5T638 332zm-280 0q26 0 44.5 18.5T421 395t-18.5 44.5T358 458t-44.5-18.5T295 395t18.5-44.5T358 332zm322 310q-84 50-182 50t-181-50q-9-2-15-7.5t-8-13.5.5-16 9.5-13 15.5-5.5T335 590q17 12 46 24 57 24 117 24t117-22q29-12 48-25 8-5 16.5-5t16 5.5 10 14 0 17-9.5 14-16 5.5z"/></svg>