<svg xmlns="http://www.w3.org/2000/svg" viewBox="0 0 1000 1000"><path d="M408 242q0 38 27 64.5t65 26.5 65-26.5 27-64.5-27-65-65-27-65 27-27 65zM58 559q20 19 47 24.5t53-5 41.5-33.5 15.5-51-15.5-51-41-34-53-5.5T58 429q-27 27-27 65t27 65zm442-171q-29 0-55-11-10-4-18 2l-45 30q-5 4-7.5 10t-.5 12l107 385q3 10 11 13.5t16.5 0T519 816l107-385q2-6-.5-12t-7.5-10l-45-30q-8-6-18-2-26 11-55 11zM328 526l-57 11q-8 2-11 9-11 28-32 50t-49 33q-6 3-8 9l-11 58q-1 5 1.5 9.5t6.5 6.5l233 117q9 5 16.5-1.5T422 812l-76-275q-2-6-7-9t-11-2zm614 33q-20 19-47 24.5t-53-5-41.5-33.5-15.5-51 15.5-51 41-34 53-5.5T942 429q27 27 27 65t-27 65zm-270-33l57 11q8 2 11 9 11 28 32 49.5t48 33.5q8 3 9 11l11 58q1 4-1 7.5t-5 5.5L599 829q-9 5-16.5-1.5T578 812l76-275q2-6 7-9t11-2z"/></svg>