<svg xmlns="http://www.w3.org/2000/svg" viewBox="0 0 512 512"><path d="M386 304h-85q-2 0-4-6l-5-10q-2-3-7-3l-222-1q-5 0-5 5v11q1 5 5 5l197 1q18 0 25 17 2 6-1.5 7.5t-6-2-7.5-5-18-1.5H94q-4 0-6 3l-3 3q-2 3 0 6l6 7q7 7 8 7 19 0 31 10 15 12 15 34.5T128 430q-8 8-16 11-2 0-3.5 2t-1.5 4v25q0 4 4 4h47q4 0 5-4v-18q0-10 5-19.5t13.5-15T201 413h10q8 2 9.5 6.5T214 424q-16 0-24 6-5 3-8.5 9t-3.5 12q0 2 1.5 3t2.5 0l2-1q7-4 11-5 7-2 18-1 15 0 25.5 6.5T249 467v5q0 4 4 4h49q4 0 4-4v-26q0-5-4-5-7 0-13.5-3t-12-9.5T271 413q0-11 5-19 3-5 8-7l3-2q2 0 2.5-1t0-3.5.5-6.5 4-5.5 6 0 4 3.5 2 5.5 2 3.5q2 2 16-3 16-5 29-13 14-10 24-25 7-10 10-22l3-10q0-2-1-3t-3-1zm107-56q-1-4-4.5-10.5T481 228q-2-1-3.5 0t-1.5 3q1 5-3.5 6t-7.5-2 1-9q2-2-1-4-27-22-56-47-2-1-4 0l-12 12-1 1q-6 1-6-5 0-2 1-5 2-5-2-9L204 17q-3-2-5 0l-34 38v2l-6 39q-1 2 .5 3t2.5 1l29-7q2 0 3 1t1 3l-3 29q0 2 1 3t3 1l29-7q1 0 2.5 1t.5 3l-2 30q0 1 1 2t2 1l29-6q2-1 3 0t1 3l-3 30q0 1 1.5 2t2.5 1l30-6q1-1 2 0t1 3l-3 30q0 1 1 2t3 1l29-6q1 0 2.5 1t.5 2l-2 30q0 2 1 3t3 1l28-7q2 0 3 1t1 3l-3 25q0 1 1 2t2 1l46 1q2 0 3-2l8-11q2-2 5 0t10 1q4 0 6.5-1.5t2.5-2.5-2-2q-4-3-2-9 4-10 16-5 6 3 7.5 10t-2 12-25.5 31l-13 14q-8 8-8 13 0 8 9.5 13.5T446 343l2-2 1-2-1-1q-1-8 1-14 7-18 23-35l8-9q8-8 10-14 5-8 3-18zm-64-13q-5 2-9-2t-3-10 7-7.5 10 3 2.5 10-7.5 6.5z"/></svg>