<svg xmlns="http://www.w3.org/2000/svg" viewBox="0 0 1000 1000"><path d="M834 307l1-188q1-7-4.5-12t-12.5-5H718q-7 0-12 5t-5 12v98q0 7-5 9.5t-10-.5L517 113q-8-5-17-5t-17 5L105 366q-8 5-8 14v93q0 10 9 15t18-1l359-239q8-5 17-5t17 5l359 239q9 6 18 1t9-15v-94q0-8-7-13l-55-45q-7-5-7-14zm-350 7L179 517q-14 9-14 26v285q0 5 3.5 8.5t9.5 3.5h243q5 0 8.5-3.5t3.5-8.5V650q0-5 4-9t9-4h110q5 0 8.5 4t3.5 9v178q0 5 4 8.5t9 3.5h242q5 0 8.5-3.5t3.5-8.5V545q0-17-14-27L513 314q-7-4-14.5-4t-14.5 4zM360 671q0 7-4 11t-11 4h-93q-6 0-10.5-4t-4.5-11v-70q0-6 4.5-10.5T252 586h93q7 0 11 4.5t4 10.5v70zm208-213q0 5-4 9t-9 4H445q-5 0-9-4t-4-9v-44q0-7 6-11l47-31q7-4 15-4t14 4l48 32q6 3 6 10v44zm195 213q0 7-4.5 11t-10.5 4h-93q-7 0-11-4t-4-11v-70q0-6 4-10.5t11-4.5h93q6 0 10.5 4.5T763 601v70z"/></svg>