<svg xmlns="http://www.w3.org/2000/svg" viewBox="0 0 1000 1000"><path d="M344 579v91q39 25 90 39V609q-31-4-52-14-7-3-38-16zm-68-17q-8 7-8.5 12t4.5 15l2 6q13 31 48 59v-85l-18-6q-11-4-16-4-8-2-12 3zm180 49v103q22 5 44.5 5t44.5-5V611q-22 1-45 1.5t-44-1.5zm111-2v100q48-12 90-38v-90q-31 10-35 12-22 11-55 16zm160-47q-4-4-12-2-5 1-15 6l-9 4-12 4v83q41-30 54-63 5-13 4-18.5T727 562zM500 70q-117 0-217 59-97 57-154 154-59 100-59 217t59 217q57 97 154 154 100 59 217 59t217-59q97-57 154-154 59-100 59-217t-59-217q-57-97-154-154-100-59-217-59zM210 420q0-4 1-7l1-2q4-6 5-7 21-26 47.5-40t57-14 58 16.5T429 414q1 3 1 6 0 11-9.5 17t-19.5 2l-4-4-5-8q-32-36-71-36-22 0-42.5 12T242 438h-2q-5 2-10 3-8-1-14-7t-6-14zm551 180q-19 43-57.5 78T613 733q-54 21-112.5 21T388 732q-51-20-90-55t-58-77q-10-21-10-32 0-15 14-28 8-8 21-10 8-1 24-1h4q15 0 29 6 85 41 179 41t179-41q14-6 29-6h3q16 0 24 1 13 2 21 10 14 13 14 28 0 11-10 32zm7-160q-5 0-9-1l-5-6q-3-2-4-6-32-36-71-36-22 0-42.5 12T600 437l-2 1q-5 2-10 2-10 1-16.5-8t-2.5-19l1-2q4-6 5-7 21-26 47.5-40t57-14 58 16.5T787 414q1 3 1 6 0 8-6 14t-14 6z"/></svg>