<svg xmlns="http://www.w3.org/2000/svg" viewBox="0 0 1000 1000"><path d="M499 104q-108 1-200 55-89 53-141 143-54 92-53.5 199.5T159 701q53 89 143 141 92 54 199.5 53.5T701 841q89-53 141-143 54-92 53.5-199.5T841 299q-53-89-143-141-92-54-199-54zm133 247q26 0 45 29t19 70-18.5 70-45 29-45.5-29-19-70 18.5-70 45.5-29zm-264 1q26 0 45 29t19 70-18.5 70-45 29-45.5-29-19-70 18.5-70 45.5-29zm328 299q-23 46-76.5 75.5T500 756t-119-29-76-75q-7-14 1.5-27.5T330 611q8 0 15 4.5t11 11.5q16 31 56 51.5t88.5 20 88-21T644 626q4-7 10.5-11.5T670 610q15 0 23.5 13.5T696 651z"/></svg>