<svg xmlns="http://www.w3.org/2000/svg" viewBox="0 0 1000 1000"><path d="M507 105q-110-2-205 52-92 53-145 145-54 95-52 206 1 104 55 193 52 87 139 139 89 54 194 55 110 2 205-52 92-53 145-145 54-95 52-206-1-104-55-193-52-87-139-139-89-54-194-55zM177 392q-1-8 5.5-13.5T198 375l227 57q4 1 6 4t2 7q-3 52-31 84-33 39-93 39-65 0-99-55-29-46-33-119zm323 372q-34 0-63-16t-47-43.5-21-61.5q-1-4 2.5-7.5t7.5-3.5h242q4 0 7.5 3.5t2.5 7.5q-3 34-21 61.5T563 748t-63 16zm191-198q-60 0-93-39-28-32-31-84 0-4 2-7t6-4l227-57q9-2 15.5 3.5T823 392q-4 73-33 119-34 55-99 55z"/></svg>