<svg xmlns="http://www.w3.org/2000/svg" viewBox="0 0 1000 1000"><path d="M772 802l-34 1q-22-2-42.5-13T661 762q54-65 61-149l4-33q0-4-2.5-7t-6.5-3h-50q-4 0-6.5 3.5T659 581l11 46q1 3-1 6l-48 79q-12-21-15.5-44t2.5-46q0-3-2-4-30-19-54-44L279 300q-33-33-108-62-44-17-93-28-2-1-4.5 1t-1.5 5q12 48 29 93 28 74 62 107l273 274q26 24 44 53 2 3 4 2h1q23-6 46-2.5t43 15.5l-78 48q-3 2-7 1l-45-11q-4-1-7.5 1.5T433 805v49q0 4 3 6.5t7 2.5l33-3q84-8 149-62 17 15 27.5 35.5T666 877l-2 33q0 4 3 7t7 3l99-3q3 0 5-2t2-4l2-100q1-4-2.5-7t-7.5-2zM449 298q21 21 49 28.5t56 0 48.5-28.5 28-49 0-56-28-49-48.5-28-56 0-49 28-28.5 49 0 56 28.5 49zm230-51q-9 0-11 8-10 40-39 69t-69 39q-8 2-8 10l-2 27q0 5 3.5 8.5t8.5 3.5h80q8 0 11 7l9 25q2 5 7 7l16 6q68 28 120 78l7 7q52 51 78 120 2 4 5.5 6t8.5 1l42-10q7-1 12-6t6-12l10-43q1-4-1-7.5t-6-5.5q-69-26-120-78l-7-7q-50-53-78-120l-6-16q-2-5-7-7l-25-9q-7-3-7-11v-80q0-5-3.5-8.5T705 245z"/></svg>