<svg xmlns="http://www.w3.org/2000/svg" viewBox="0 0 512 512"><path d="M170 333q44 27 86 31v-27q-15 2-30 2-28 0-56-6zm166 11q25-19 29-51-14 10-29 18v33zM256 36q-60 0-110.5 29.5t-80 80T36 256t29.5 110.5 80 80T256 476t110.5-29.5 80-80T476 256t-29.5-110.5-80-80T256 36zm30 142l78-45q5-2 9.5-1t7 5.5 1 9-5.5 6.5l-35 20q11 6 15.5 17t.5 22.5-14 17.5-21.5 4-19.5-11-8-21v-2q-4 1-7.5-1.5t-5-6.5 0-7.5 4.5-6.5zm-154-40q2-5 6.5-6t9.5 1l78 45q4 3 5 7t-1 8.5-6 6-8-.5v3q0 12-8 21t-20 11-22-4.5-13.5-18T154 189t16-16l-34-20q-4-2-5.5-6.5t1.5-8.5zm173 240q-18 4-36 4-51 0-105-32-28-16-46-34l10-14q13 5 31 10 34 9 67 9 16 0 32-2 42-7 80-29 19-12 30-22l15 5q1 8-1 23-3 26-18 45-20 27-59 37zm-3-18q12-3 23-8v-35q-11 5-23 9v34zm-34 5h1q10 0 21-2v-33q-11 3-22 5v30z"/></svg>