<svg xmlns="http://www.w3.org/2000/svg" viewBox="0 0 1000 1000"><path d="M121 853l100 2q4 0 7-3t3-7l-5-94q0-4-2.5-7t-6.5-3l-94-4q-5 0-8 3t-3 7l3 99q0 3 2 5t4 2zm756-116l-32 1q-47-6-79-41 54-65 62-149l3-33q0-3-2.5-6t-6.5-3h-50q-4 0-6.5 3.5T764 517l11 45q1 4-1 7l-48 77q-23-42-13-89 1-3-2-4-29-18-53-44l-42-41 116-116q34-33 62-108 17-44 29-93 0-2-2-4.5t-5-1.5q-48 12-93 29-74 28-107 62L500 352 384 236q-33-34-107-62-45-17-93-29-3-1-5 1.5t-2 4.5q12 49 29 93 28 75 62 108l116 116-42 41q-24 26-53 44-3 1-2 4 10 47-13 89l-48-77q-2-3-1-7l11-45q1-4-1.5-7.5T228 506h-50q-4 0-6.5 3t-2.5 7l3 33q8 83 62 148-16 18-38 29t-46 13l28 50 51 29q2-24 13-46t28-38q65 53 149 61l33 3q4 1 7-2t3-7v-49q0-4-3.5-7t-7.5-2l-45 12q-4 1-7-1l-78-48q43-23 89-13 3 0 4-2 19-30 44-54l42-41 42 41q25 24 44 54 1 2 4 2 46-10 89 13l-78 48q-3 2-6 1l-46-12q-4-1-7.5 2t-3.5 7v49q0 4 3 7t7 2l33-3q84-8 149-61 35 32 41 79l-1 32q-1 4 2 7t7 3l100-2q2 0 4-2t2-5l3-99q0-4-3-7t-8-3z"/></svg>