<svg xmlns="http://www.w3.org/2000/svg" viewBox="0 0 1000 1000"><path d="M900 693L674 862q-5 4-10.5 1t-5.5-9V621q0-5 4-8l225-169q5-4 11-1t6 9v233q0 5-4 8zM781 251q-54 40-88 122-31 78-35 167 0 6 5.5 9t10.5 0l226-168q4-3 4-9-1-59-16-96.5t-42.5-45T781 251zM341 450q-8-2-16-2-22 0-38.5 15.5T269 501q-2 27 17.5 53.5T334 589q8 2 17 2 23 0 38.5-14.5T406 538q2-29-17-54.5T341 450zm411-261q-384-55-402-58-100 1-162 69-47 50-69 135-13 50-15 100 0 3 2 5.5t5 3.5l105 25q3 1 6.5-1t4.5-5q10-29 35-46.5t55-17.5q14 0 27 4 40 10 69.5 43t37.5 74q1 6 8 8l125 30q5 1 8.5-2t3.5-7l1-17q11-100 49-184 40-88 100-133l11-8q5-4 3.5-10.5T752 189zM589 619l-134-34q-4-1-7 .5t-5 4.5q-11 24-33 37t-49 13q-15 0-30-4-35-9-64-40-27-28-39-64-2-6-7-7l-104-27q-4-1-8 2t-4 8v167q0 7 6 9l472 184q5 2 9.5-1t4.5-9V629q0-8-8-10z"/></svg>