<svg xmlns="http://www.w3.org/2000/svg" viewBox="0 0 512 512"><path d="M174 204q-1 14 1 28 0 2 2 2.5t4-.5q8-10 17-19 1-1 1-3t-2-2l-19-9q-1 0-2.5 1t-1.5 2zm164 0q1 14-1 28 0 2-2 2.5t-4-.5q-8-10-17-19-1-1-1-3t2-2l19-9q1 0 2.5 1t1.5 2zm48 171q-12-26-40-49-24-19-55-32h1q36-4 62-25 32-25 32-65 0-51-38-80-31-25-81-29h-1q8-6 29-6l11-1q23-3 38-15 2-2 .5-4.5T340 67q-9 2-27-1-15-2-23-2-17 1-27 10 6-35 32-39l-1-1q-5-4-7-10v-2l-1-1h-1q-28 9-32 58-4-7-13.5-10.5t-17.5-4-23 1.5q-18 3-27 1-3-1-4.5 1.5t.5 4.5q15 12 38 15l11 1q21 0 29 6h-2q-50 5-81 29-37 29-37 80 0 40 32 65 26 21 62 25h1q-31 13-55 32-28 23-40 49-2 3 0 5.5t6 2.5q19 2 37-6 14-7 26.5-18.5T215 334q1-2 3-1t1 3l-5 15q-7 16-8 25-6 33 21 57 5 5 4.5 13t-3.5 10l-7 1q-8 1-13 4-7 5-6 13.5t9 7.5 19-9q14-11 12-22-2-12 1-23 7 1 13 1t13-1q3 11 1 24-2 10 12 21 11 8 19 9t9-9-12-15q-7-2-14-2-3-2-3.5-10t4.5-12q27-25 21-58-1-9-8-26l-5-14q-1-2 1-3t3 1q7 13 19.5 24.5T343 377q18 8 37 7 4-1 6-3.5t0-5.5zm-130-99q-66 1-83-11-13-10-19-28t0-34q4-13 18-14 10 0 22 5 7 4 23 7l8 2q31 7 62 0l8-2q16-3 23-7 13-5 22-5 14 1 18 14 6 16 0 34t-19 28q-17 12-83 11z"/></svg>