<svg xmlns="http://www.w3.org/2000/svg" viewBox="0 0 512 512"><path d="M462 313q-19-37-27.5-68.5T425 180q6-1 10-5l32-33q6-6 5.5-14.5T466 114l-42-36q-14-13-33-13h-14q-2 0-5 1-11 3-11 15 0 6-4.5 10T346 95t-10-4-4-10q0-12-12-15-2-1-4-1h-15q-19 0-33 13l-25 22q-3 2-3.5 6t2.5 7 6.5 3.5 7.5-2.5l25-21q9-8 20-8h8q2-1 3 2 2 12 12 20t22.5 8 22-8T380 87q1-3 3-2h8q11 0 20 8l42 35-32 33-4-3q-2-1-4.5-1t-4.5 2-2 5q-1 40 8 77t30 81l3 6q-48 22-101 22h-10q-6 0-9 4.5t-.5 9.5 8.5 6h11q59 0 112-26 6-3 8.5-9.5T466 322zm-356-83q4-7 12-11 19-7 20-10v-1l-1-2q-6-11-7-17.5t4-30.5q1-5-3-6-7-1-12-5-2-2-4-1-8 1-18 5-18 7-34 22-12 12-27 35-3 5-1 11 9 26-2 36-3 3-2 6t4 5l11 4 3 1q42-7 57-41zm190 125q-1-4-4.5-3.5T288 355l-2 21q-35 5-69 29-8 6-15 13 0 1-1 1t-2-1l-1-1q-6-6-13-11-35-25-70-30l-2-21q0-3-3.5-3.5T105 355q-9 36-20 55-3 4-.5 8.5T91 423q34 2 68 16 21 8 37 19 5 3 9 0 17-11 37-19 34-14 68-16 4 0 6.5-4.5t.5-8.5q-12-19-21-55zm-32-149l-1 2v1q1 3 20 10 8 4 12 11 15 34 57 41l3-1 11-4q3-2 4-5t-2-6q-11-10-2-36 2-6-1-11-16-24-27-35-16-15-34-22-10-4-18-5-2-1-4 1-5 4-12 5-4 1-3 6 5 25 4 31t-7 17zm-64-10h1q26 0 39-14 8-9 10-22t-2-15q-24-8-26-21 0-2-6-4v-1q-6-2-13-2l-6-1q-6 1-12 3v1q-6 2-6 4-2 13-26 21-3 1-3 7 0 4 1 7 2 14 10 23 14 14 39 14zm2 20h-3q-38 0-70 21l-8 4q-2 2-3 5-7 23-5 44.5t13 28.5q2 1 2 4l3 27q0 6 6 7 11 3 37 17 17 9 26 14v1l1-1q9-5 26-14 26-14 37-17 6-1 6-7l3-27q0-3 2-4 11-7 12.5-28.5T283 246q-1-3-3-5l-8-4q-32-21-70-21z"/></svg>