<svg xmlns="http://www.w3.org/2000/svg" viewBox="0 0 1000 1000"><path d="M926 628q-6-12-7-29-2-20-3.5-22t-4.5 13q-5 23-15.5 40T871 653q-9 4-23 4-10 0-14-1.5t-11-7.5q-11-9-13-9t-7-11-5-18q0-10-5-17t-5-16.5 4.5-15T798 547q1-6 2.5-7.5t6.5-2.5 6.5-3.5T817 518q3-17 10-23 3-4 4-7t0-9-2.5-7.5-8-1.5-10-5.5T809 453t9.5-8.5T829 433q3-7 2.5-9t-5.5-5q-21-16-26-35-5-23 6.5-41.5T843 319q11-2 13-3.5t2-6.5-1.5-7-6.5-3q-9-2-9.5-12t7.5-13q5-1 16-9.5t20-10.5q5-1 6.5-2.5t.5-6.5q-2-7 4.5-18.5t5-15-11 1-9.5 7.5-8 11q-5 5-8 6t-13 0q-12-1-15.5 1.5T835 250q2 5 .5 12.5t-5 7.5-5.5 6.5 0 11.5q5 10-11 10-8 0-11.5 3.5t-5.5 3-9-7.5-10.5-8-17.5-1q-19 1-22-2t-9-3q-4 0-4.5 1t.5 4.5-4 12.5-10 11.5-13.5 2.5-16-6.5-7.5-14-6-14.5q-3-4-3.5-6.5t2-6.5 1-9-7-8-8.5-1-1 6.5 2 7-3 6.5q-4 6-8 6t-12 5q-13 10-26 0-7-5-22-4-10 0-13-1t-8.5-8-6.5-11.5-1-20 1-21.5 5-13q11-19 32.5-24.5T634 182q5 2 7.5 2t10.5-3.5 19.5-4T689 178t12-3q3-3 7-4t13-1q15 1 23-4.5t14-20.5 20-30q17-17 24-35.5t3-35.5q-4-13-5-14.5t-6 7.5-15.5 20T760 72q-20 9-35 3-9-4-18-1t-21.5 14-21 13.5-22 1T622 96t-10-5-12 9.5-12 16.5q-9 22-27 32.5t-40.5 13T482 158q-12-5-19-3.5t-15 10-8 14.5-6 20.5-12 22-10 16.5-10.5 13-20.5 6q-34 3-49-18-8-12-5-13t7-8 12.5-11 8.5-10q0-9-2.5-11t-11.5-1-12 0-8.5-6-7-8-1.5-11q0-11-5-16l-6-6-3 5q-3 5-10 9t-9 12.5-14 24-12 20-8 11.5q-12 10-30 2-8-3-2 19 3 10 10.5 12.5T236 267t5.5 15.5-1.5 11 0 10.5 8.5 7.5 6.5 6.5-7 10-16.5 7.5-16.5-5-8-5.5-4 10.5-9 15.5q-19 17-29 21-7 3-20 .5t-22-9-11.5-6.5-10.5-6q-16-14-7 10 4 14 2 22t-2 15 2 8 11.5-1 18 .5T139 416q7 11 1.5 23.5T119 460q-9 5-11.5 9.5T107 483q1 6 3 7.5t7 2.5q12 3 18.5 15t.5 21q-2 4 2 10 5 9 7 23.5t0 32.5-7.5 29-16.5 19l-20 15q-7 5-15.5 6T71 661q-3-1-4-1t-1 3q0 11 10 28t26 33q9 10 13 12.5t11 2.5 19 6.5 17 14.5q11 16 11 52 1 20-2 26.5T154 851q-11 4-11 7t23 8 28 3.5 25 2 39.5 12.5 33.5 22q11 10 16.5 19.5T316 947q1 8 3 10.5t11 4.5q4 1 7.5.5t8.5-4.5q9-6 26-12t27.5-5 23 9 25 11 21.5 0q5-1 8-4t6-10q11-21 28.5-28t38.5 0q13 5 23 12t14.5 15.5 17.5 15 28 6.5l14 1 1-15q1-15 5.5-22t19-23 25.5-25q14-11 23.5-15t21.5-4 16-1q8-3-1-31-5-13-4-23.5t7-21.5 18.5-19.5 24-9.5 17.5-6 9-16q7-23 30-35 13-6 23.5-16.5t20.5-15 19-12.5 9.5-13-6.5-17zM469 843q-67 0-124-33.5t-90-90-33-124 33.5-124 90-90 124-33.5 124 33.5 90 90 33.5 124-33.5 124-90.5 90T469 843z"/></svg>