<svg xmlns="http://www.w3.org/2000/svg" viewBox="0 0 1000 1000"><path d="M569 211h-3q-50 7-54 15-3 5 9 35l4 10q71-19 120-6 65 18 70 90 2 23-18 54.5T654 452q-26 12-40-14-4-7-2.5-33t5.5-29.5 11-3.5q4 0 13 1.5t14 1.5q6 0 9-4 22-29-14-36-20-4-64-1l-12 1q-35 0-53 5-34 9-4 35 3 3 10 3 4 0 13.5-1.5T554 375q7 0 9 3 5 6 1 52l-1 13q0 6-1 27-3 40-3 59 0 34 8 40 5 4 25 1.5t22-4.5q5-6 1-54l-1-17q44 6 80-12 34-17 53-49.5t19-72.5-22-77q-27-44-76-63-46-18-99-10zm348 189q0-81-41-151-39-68-107-108-70-41-151-41-69 0-130 30-59 28-101.5 79.5T328 325q-68 3-124 17t-88.5 36T83 425v62q7 38 60 62 47 22 121 28 17 1 26 10t8.5 19.5T288 624t-27 5q-92-7-139-33-36-21-39-48 1 12 1 46l-1 30q0 17 22 34 20 17 52.5 28.5T219 699q21 2 31 11t9 20-12 18-28 5q-39-4-79-20-52-21-57-49v84q0 23 18 48 25 35 78 56 70 28 181 28t180-27q54-21 79-56 17-24 17-49v-30q77-5 141.5-46T879 585q38-68 38-147v-38zm-598 19q-1 10-1 19 0 26 5 52-79-4-132-24t-53-46.5 53-47T323 348q-5 26-5 52 0 11 1 19zm313 214h-24q-69-3-126-41.5T396 490q-21-48-21-100 0-22 4-44l5-21q16-59 57.5-102t98.5-62.5 117-9.5 107.5 46.5 73 90.5T860 403t-34 112.5-82 82.5-112 35z"/></svg>