<svg xmlns="http://www.w3.org/2000/svg" viewBox="0 0 1000 1000"><path d="M779 213q0-4-2.5-7.5T770 201l-294-62q-5-1-8 1l-56 30q-6 3-6 10v238q0 6-5 10L211 568v221q0 11 8.5 19.5T240 817h26q12 0 20-8.5t8-19.5V671q0-6 4.5-9.5T309 660l182 43q4 1 6.5 4.5t2.5 7.5v129q0 12 8.5 20.5T529 873h23q12 0 20.5-8.5T581 845V705q0-5 4-9l94-82q5-5 12-1.5t7 10.5v116q0 11 8.5 19.5T727 767h23q12 0 20.5-8.5T779 739V213zm-81 233q0 6-4.5 9.5T684 458l-188-43q-4-1-6.5-4.5T487 403v-23q0-6 4-9.5t10-2.5l188 39q4 1 6.5 4.5t2.5 7.5v27zm0-111q0 5-4 8.5t-10 2.5l-188-37q-4-1-6.5-4t-2.5-7v-28q0-6 4-9.5t10-2.5l188 38q4 1 6.5 4.5t2.5 7.5v27z"/></svg>