<svg xmlns="http://www.w3.org/2000/svg" viewBox="0 0 1000 1000"><path d="M281 411q56 30 95 38 43 10 77-2.5t68-50.5q-27-15-65-31-23-10-71-29-63-25-93-39-51-23-86-46 39-2 92 7 31 5 96 20 46 11 69 16 38 7 65 9-13-67-16-109-5-58 3-105 36 33 59 81 14 28 33 90l11 38q27-8 56-27 17-11 50.5-36.5T775 198q29-18 55-28-12 30-33 65-13 20-41 59-39 55-54 83 22 10 66 28 50 20 74 33 41 21 70 47-48 11-103 6-46-4-111-21 3 28 10 67 5 23 15 71 15 65 20 97 9 53 9 92-27-39-56-103-17-38-49-116-32-80-47-111-52 44-55 111.5T591 724q-27 5-88 10-71 6-104 13-57 11-92 33l-9 6q-68 43-103 64-59 35-110 59l42-65q63-97 94-146 26-42 40-113 8-42 16-128zm197 112q-17-6-34-7-11-1-30 1-17 1-26 1-26-1-31 25-4 21-16 75l-8 38q60-4 90.5-11.5t43-21T481 585q1-17-3-62z"/></svg>