<svg xmlns="http://www.w3.org/2000/svg" viewBox="0 0 1000 1000"><path d="M883 339q-12-42-52-55-35-12-79 0-18 5-66 30-28 15-88 50-46 27-62 36-6 2-12 1.5t-10-5.5q-14-14-33-20-25-10-51-2-6 1-11.5-1t-8.5-7l-32-56q-36-64-54-94-31-50-45-64-32-32-68-40-42-8-72.5 22.5T116 207q7 36 39 68 14 14 61 43 27 17 89 52 44 26 60 36 5 3 7.5 9t-.5 12q-8 23-2.5 47.5T393 515q5 4 6 10t-2 12q-9 16-35 62-35 61-51 90-26 48-31 67-12 44 0 79 14 40 55.5 51t73.5-17q28-24 40-68 5-19 6-78 1-34 0-108v-64q0-6 4-11t10-6l9-3q21-6 36.5-22t20.5-37q2-6 6.5-9.5T552 458l64 1h105q57-1 77-7 43-11 68-39 28-32 17-74z"/></svg>