<svg xmlns="http://www.w3.org/2000/svg" viewBox="0 0 1000 1000"><path d="M390 565q-10-6-20-13-24-14-46-24-10-4-30.5-10T265 508q-6-3-15-10l-5-3-21 48 7 1q11 2 17 5 8 3 26 14t28 15q22 10 49 18l23 7zm-156-77l6-12-29-13-6 5q-6 5-11 11.5T184 497t-6 19q-2 12-1 23l29 13 28-64zm497 196q-19-8-60-22-48-16-69-27-18-9-47-30l-20-15q-33-22-57-35l-52 119 18 5q22 7 46 13l25 5q35 7 54 14 22 8 66 32 38 21 57 29 60 25 125 28 32 1 52-2v-1q-15-21-37-43-45-44-101-70zM448 508l-27 61-10-4q-3-2-7 0l-21 47 1 2q1 3 3 4l11 4-28 62 20 9 78-177zm160-75q10 6 20 13 24 14 46 24 10 4 30.5 10t28.5 10q6 3 15 10l5 3 21-48-7-1q-10-2-16-5-9-3-27-14t-28-15q-35-16-71-25zm156 76l-5 13 29 13 5-5q6-6 11.5-12t10-17 5.5-19 1-16v-7l-29-13zM396 363q18 9 47 30l20 15q21 13 41 25l16 10 52-119-18-5q-22-7-46-13l-25-5q-35-7-54-14-22-8-66-32-38-21-57-29-60-26-125-28-32-1-52 2l8 12q11 14 26 28 20 20 43 37 29 21 61 36 20 9 62 23 47 16 67 27zm154 127l27-61 10 4q3 2 7 0l21-47-1-3q-1-2-3-3l-11-4 28-62-20-9-78 176z"/></svg>