<svg xmlns="http://www.w3.org/2000/svg" viewBox="0 0 1000 1000"><path d="M439 141q-59 38-88 72-26 30-25.5 50.5t20.5 28 66 28.5q13 7 26 0 32-15 67-17.5t69 8.5q7 2 14 0t12-7l52-57q15-16 12-27-1-5-5-8l-21-11q-22-14-28.5-23T589 154l-13-15q-22-15-48-19-21-2-44 3-17 4-33 11zm86 193q-52-1-88 18-23 12-26 35v6q-1 4 2 7t6 2q53-14 107-12 38 1 68 9 5 1 9-2.5t4-8.5q-2-17-9-28-10-15-33-21-15-4-40-5zm117 124q-20-22-58-30-23-4-68-4h-4q-98 1-143 35-27 20-58 61-34 45-53 90-23 52-17.5 92t29.5 75q29 43 81 67 62 29 153 29t154-36q54-30 79-83 23-46 19-96-4-41-46-109-31-49-68-91zm62-139q9-7 9.5-16t-5.5-15q-8-8-22-6-7 1-12 4l-56 46 3 3q16 19 19 40 2 12 0 18l-1 8 94-19q11-6 14-16 2-7-2-13.5t-12-9.5-15 0q-43 12-49 11-3-1-5-6 0-1 1-2z"/></svg>