<svg xmlns="http://www.w3.org/2000/svg" viewBox="0 0 1000 1000"><path d="M850 844q-4-1-9-2-14-2-30-7-23-6-50-17-24-9-47-25l-19-13-1-7q-2-10-8.5-20.5T667 729l-9-9q-6-7-11-19t-6-19.5 2-13.5l1-3q2-6 0-6t-6 9-4 22.5 8 39.5q3 8 3 24l-34-25q-15-11-29-25 4-3 9.5-9t7-27.5T596 624q-4-26-13-43-8-13-17-24l-7-8-29-61q-8-15-20.5-34T493 431q-15-15-16-12.5t8 12.5q5 5 14 20 11 19 18 37 11 26 17 58l-2 9q-1 6-2 17l-13-24q-6-9-13-18l-6-7-5-23q-7-26-13-39-10-20-27-35l-1-7-6-18q-8-20-23-48l-4-9q-3-5-8-12t-6-6.5 5 10.5l2 3q1 2 7 20l7 17q7 19 9 42l-2 6-5 10-18-22-4-19q-5-24-11-44-9-30-25-57-7-12-14.5-22t-8.5-9 6 15l5 9q15 33 13 54 0 6-3 14l-2 7-14-12q-8-6-22-17 7-32-4-58-4-10-9-19l-5-7-9-19q-11-21-22-33.5T267 184l6 8q7 10 14 21 3 6 9 22l5 15-4 10-3 13q-16-23-35-39.5T232 218l4 4q24 21 38 44 23 38 17 57-1 5-8 7-4-30-17-50-11-15-26-29-12-10-24-18l-11-6-10-13q-12-16-20-33-7-14-17-39-7-17-9-17t3.5 21.5T165 184l22 50 1 14q1 17 7 33 1 12 4 26t7 22q6 15 15 27l-5-1q-5-1-8-2.5t-14.5-13T175 319l-12-16q-14-19-15.5-18.5t8 17.5 19.5 32l23 31 4 13q5 14 14.5 22.5T237 414q7 4 14 5l6 1 15 22h-19q-6 0-13 1l-7 1-10-8q-12-9-20-19t-21-27l-5-6q-10-13-11.5-12t1.5 7.5 6 9.5l6 8q34 47 48 60 42 39 68 51 9 3 22 7l23 35-35-3q-3 0-13-5-11-6-20-13-17-14-39-39l-8-10q-5-7-6-6.5t1 5.5 5 8l1 3q19 25 37 43 9 9 36 31l4 3 4 5q15 17 30 28 11 7 30 9l17 16 16 16 3 11q1 5 5 11l-8-2q-11-3-23-12-7-5-21-16t-17-14q-14-15-15.5-13.5T331 618q5 7 19 22 17 18 25 24l15 10q20 14 23 19 9 12 23 22 24 18 54 22 22 3 42 1 15-2 27-7l9-5 2 2q12 11 18 15.5t12 10.5l5 5-20 1q-12 0-33 4-24 4-38 11-17 8-29 17-5 5-6 11h2q3-1 6-3.5t15-7 19-4.5q14 0 37 8 9 3 27 6 21 3 39 3t39-6l5-1q2 0 24 14 26 17 38 24 18 10 48.5 24t34.5 13q9 0 24-14l11-10q4-4 2-5zM252 361q-2 0-7-2l-4-1-6-6q-8-7-12-14-6-11-6-21 12 16 19.5 21.5T253 344l2 9v4q0 4-3 4zm44 87q-10-5-18-15l-7-9 6 2 10.5 1.5 7.5-.5h4l12 13 12 14h-8q-10-1-19-6zm44-89l5 5q7 7 15 18 6 8 8 17.5t1 14.5-4 5-5-1l-4-3q-4-4-6-7l-8-11v-14q0-6-2-24zm56 207q-1 2-6.5.5T379 562q-10-5-23-19l-11-14 5 1q5 2 9.5 2H372l15 16q5 6 7.5 11t1.5 7zm28-109q3 2 8 4l4 20q1 7 3 17l3 10h-9l-4-8-5-5-2-18q-1-11-4-25zm32 207q-3 0-8.5-3t-11.5-6q-12-4-20-15l6-1q7-1 11-1l14 2 24 22q1 0-5 1.5t-10 .5zm69-34q-7-10-15-20l-9-12v-6q1-7 2-11 1-8 1-22 2 1 13 16 13 18 14 29 1 16-6 26z"/></svg>