<svg xmlns="http://www.w3.org/2000/svg" viewBox="0 0 1000 1000"><path d="M794 705q-4-4-24-14-11-6-25-14-16-10-24-17-5-4-6-8t-1-10v-3q-1-7-10-7h-24q-4 0-5-2.5t.5-4 4.5-3.5h2q9-4 16-10.5t7-9.5q0-1-3-4l-3-2q-9-8-15-18-2-3-2-14.5t2-18.5 11-23q3-4 4-27l1-27q1-5 3-8.5t8-3.5 7 10l2 44q1 10 1.5 12t12.5 9q22 13 43 26 3 2 5 1.5t1-3.5q-15-24-16.5-35t.5-48l2-36q2-47-12-93-16-49-49-93-31-41-83-68-48-26-97-31-19-2-49-4-35-2-56-6-14-2-31-11l-7-4q-3-2-5.5-1t-1.5 5l3 7q16 39 17 54 0 3 3 4.5t8.5.5 16.5 0 14.5 2 6.5 7 1 6h-2q-23 3-38.5 9.5T371 241q-27 19-46 42-11 13-20 36-5 13-13 40-11 33-17 42-7 12-27 33l-3 3q-2 2-1.5 4t3.5 2h8q139 1 142.5 0t3.5-7.5 4-8.5q47-27 80-47 10-7 15.5-8.5T514 369q23 0 39 12 11 7 15.5 17t3.5 20q0 5-1.5 5t-3.5-7q-2-11-12-20-5-4-14-8h-1q-11-6-29-5-5 1-24 12l-62 41q-7 5-8 14-1 4-1 6-3 5-7.5 8.5T399 468H251q-3 0-3.5 2.5t-.5 8.5v9q-1 10-4 19-2 6-8 18l-10 20q-7 15-18 28-6 7-5.5 9.5t8.5 8.5l9 7 13 12q16 16 25.5 23t29 19 24.5 16.5 5 9.5l1 4q2 4 7 1 8-5 38-28 3-3 5-1t-1 5l-2 1q-23 23-27.5 29t-.5 15q9 17 21 34.5t21 23.5q4 3 9 4l4-1 53-27q54-27 57.5-29.5t5.5-1.5 0 3-68 45q-57 37-58.5 38.5T379 804q-1 18-5.5 29T355 856q-10 10-13.5 11.5T339 872l1 1q0 3 31-1 23-2 49.5-6.5T477 850q42-15 62-33 35-32 70-59 50-39 71-45 30-10 61-9 23 1 46 8l3 1q4 1 6-2t-2-6zm-444-65l-9 7q-4 3-10-1l-38-26-42-27q-2-2-1-3.5t3-1.5l18-4q6-1 12 2l65 49q6 3 2 5zm30-21l-7 5q-4 3-8 1l-27-23-32-22-1-2 3-1 14-2q4-1 9 2l48 37 2.5 2.5-1.5 2.5zm30-22l-6 5q-3 2-8-1l-42-31q-4-3 1-5l9-2q7-1 11 2l34 26q4 4 1 6zm28-21l-6 5q-4 3-8 0l-26-20q-2-1-2-3t3-2l11-3q5-1 11 4l15 12q5 4 2 7zm-25 248q-9 0-9-12 0-4 3-7.5t8-3.5 6 2.5 2 8.5v1q0 5-2.5 8t-7.5 3zm95-59q-4 1-6.5 5t-.5 7.5 1.5 5-4.5-1-4.5-7 .5-8.5q2-9 11-9.5t9 3-.5 4.5-2.5 1h-3zm26-323q-6-9-15-12t-17 2-9 15.5 8 19.5q2 3-4.5 1.5T487 464q-8-8-7-21.5t11-20.5 22-6 19 10q3 4 4 8.5t.5 7-2.5.5zm69 271q-4 2-6 6-1 2 0 6v4q0 6-5.5 3t-3.5-13q1-4 4-6.5t6.5-3 6 1-1.5 2.5z"/></svg>