<svg xmlns="http://www.w3.org/2000/svg" viewBox="0 0 1000 1000"><path d="M808 737q-1-3-16-15-27-21-44-38-64-66-145-161-57-68-86-104-48-64-81-118-8-12-10-14-4-5-21 6l-4 2q-6 4-8 2t2-5l17-14q22-16 23-19 0-4-6.5-17.5T413 217t-13-10.5-21 8.5l-27 12q-5 2-6-.5t13-12.5q10-8 11-11.5t-7.5-19-12-17-16 4T311 184t-11 12.5 27 41.5q-27 11-52 14-22 3-60 0 4 29 22 59 14 24 38 48l3 4q-2 2-15-9-16-13-31-33-22-29-35-70-25-3-51-21-12-9-20-17l1 13q1 17 6 35 7 26 19 51 15 32 37 62 25 32 58 60 23 19 49 34l21 11-2-21q-1-25 2-48 5-32 18-55 16-27 43-49 47 62 127 163l40 52q84 106 106 137 26 35 52 78 31 50 39 71v1q8 23 10 24 6 2 19-11t21-30q21-39 16-54zM463 443Q349 584 251 684q-16 17-43 38-15 12-16 15-5 15 16 54 8 17 21 30t19 11q2-1 10-24v-1q8-21 39-71 27-43 51.5-77.5T464 510l27-34q2-3 0-6l-21-27q-2-2-4-1.5t-3 1.5zm411-230q-5 4-10 9-12 10-25 17-18 10-36 12-12 39-35 70-15 20-31 33-13 11-15 9l2-3q25-25 39-49 18-30 22-59-38 3-60 0-25-3-53-14 28-37 28-41.5T689 184t-23.5-13.5-16.5-4-12 17-7.5 19T641 214q14 10 13 12.5t-6 .5l-27-12q-17-8-21-8.5T587 217t-16 24.5-6 17 22 19.5l18 14q3 3 1.5 5t-8.5-2l-3-2q-17-11-21-6-2 2-16 23-30 46-48 70-3 4 1 8l21 26q2 1 4 1t3-2q14-17 83-108 27 23 42 50 19 32 21 81 1 25-2 43l21-11q26-15 49-34 33-28 58-61 22-29 37-61 12-25 19-51 4-18 6-35z"/></svg>