<svg xmlns="http://www.w3.org/2000/svg" viewBox="0 0 1000 1000"><path d="M248 550q0-11-8-19.5t-18.5-8.5-18.5 8.5-8 20 8 20 18.5 8.5 18.5-8.5 8-20.5zm104-219q13 0 22-10t9-24-9-24-22-10-22.5 10-9.5 24 9.5 24 22.5 10zm183-75q12 0 20.5-9.5T564 224t-8.5-22-20.5-9-21 9-8.5 22 9 22.5T535 256zm201 43q11 0 18.5-8.5T762 270t-7.5-20.5T736 241t-19 8.5-8 20.5 8 20.5 19 8.5zm122-39q-7 7-15 14-15 15-21.5 19.5T803 301l-8 5q-8 5-13 7-9 3-25.5 5t-30.5 2q-11 0-17-1l-5-1 3-5 7-8v-1q1-2-.5-3t-8.5 3l-12 9-3-4q-3-5-5-10-3-7-5-18-3-15-3-28 3-38 14-58 6-10 14-23l8-11h-3q-5 1-9.5 3.5T682 180q-15 15-22 25-13 22-13 39 1 7 6 21 5 12 9 19 10 18 25 32l-11 11q-13 13-18 19-8 10-17 35l-1 2q-1 4-5 7l-4 2-7 3q-8 3-11 5-6 5-15 13l-4-6q-4-6-6-14-4-16-16-47-5-14-15-32l11-11q11-13 16-22 7-12 16-31 10-23 11-34 4-24-9-50-7-16-17.5-27.5T558 113q-13-11-17-13t-5-1l3 5q17 20 22 31t4 30q-1 10-2 17l5 6q5 7 7 14.5t1.5 23.5-2.5 28q-4 20-13 36-4 7-8 11l-3-4-3-4-1-5q-2-6-3.5-9t-4-5.5-4.5-1.5-1 4l2 4v4q-1 4-3 4l-4-5q-4-7-10-13l-6-7q-29-35-49.5-50.5t-41-25-34-10T365 182q-7 4-19 16l-10 8q-5 5-7 8t-2 8l6-3q7-4 18-4 15 0 42 19l28 19 16-2q18-1 25 1 20 6 31 15 6 5 16 17t10 13q3 8 4 9l2 2q10 5 15 11 9 11 18 35 10 31 11 57 0 8-2.5 24t-3.5 24q-1 30-23 67-5 8-5 10l2 4q10 15 13 26 1 4 4.5 11.5t3.5 9.5q-1 6-10 12h-1q-7 5-14 9l-6 3 2 4q3 4 9 6l5 2q13 4 19 10 4 4 10.5 12t6.5 9l-12-7q-13-8-22-12t-24-8q-12-3-18-6-38-16-69-38-16-10-29-24l-10-12-7-2q-8-3-13-6l-5-3q-10-6-11-10t0-16l1-10-8-26q-8-28-10-38-2-16-1-31l11-14q14-14 23-18 23-11 41-11 5 0 21 3l8 1q3 0 15-9.5t20-18.5l13-16q14-16 15.5-18t1.5-6l-12 6q-11 5-25 5-7 0-23-2l-8-1q-4 0-17 5-17 7-33 18.5T363 354q-9 10-16 20l-6 8-1-3q-1-4-1-7 0-9 3-19v-2q0-3-2-3-4-2-8 4t-6.5 14-2.5 13l-3-1q-5-3-8-7v-1q-12-16-16-24.5t-6.5-20.5-2.5-22q0-15 6-27 3-6 6-8l-2-10q-2-13-1.5-25t2.5-18l2-4 1-5q0-6 2-10 3-9 5-12.5t3-10.5l-11 10q-13 13-27 30-17 21-24 37t-8 34q-1 36 35 71l45 44-1 8q-1 9 0 15 2 19 5 29 8 24 8 53 0 19-3 37-2 14-3.5 17t-1.5 8h8q9 1 13 3l8 4 4 1q4 1 5 2l32 38q26 29 48 45l-10-1q-10-2-21-8-6-3-12-8l-4-3-10 2q-12 2-18 2-10-1-25-5-20-7-34-18-18-15-28-30-4-7-5-11l2-22q2-24-3-58-1-14-11.5-42.5t-19-42-25.5-22-33-8.5q-31 0-46 10l8 2q9 3 18 8 12 7 21.5 17.5T209 454l11 19 6 2q6 3 11 7 22 17 29 48 1 8 3 22v12q0 2-2 2h-3l-4-3q-4-3-6-2t-2 3l3 7q3 9 1 11l-11 2q-13 3-23 9-12 7-32 30.5t-26.5 38T155 694q-1 12 1 23.5t13 30.5q6 9 11 17l4-18q3-19 6.5-26.5T204 697l9-15 1-25q0-25 .5-28t8.5-14 14-16q12-10 24-10l9 11q11 14 21 25 24 26 42 37 16 9 47 25 14 7 27 20l11 12 10-8q11-8 19-11t22.5-5 23.5-2q18 0 35 9 12 6 31 21l17 16q19 19 28 35 13 22 19 38 7 19 9 37.5t2 36.5v5l3 8 5-6q6-6 9-8 8-6 18-11l9-13q12-14 24-24 28-22 50-26 10-2 22.5-2t19 2 11 7 6 11.5.5 10.5l-2 4 5-2q5-2 7-8t-.5-14.5T813 807l-1-1q-6-7-11-10-10-6-22-8-29-3-43-11l-25-8q-13-4-18-7-3-2-17-19l-13-15-14-15q-9-10-11-13l-2-3q-9-13-11.5-21.5T623 655t4-18q4-9 21-13 9-2 16-2l-1-5q-2-6-7-9t-16-6-16-5q-14-8-26-26-14-21-14-45t16-59.5 28.5-43T661 416q3 0 6-3l-3-8q-3-10-1-24 1-9 6.5-20.5T681 343q8-8 18-15l17 5q20 5 34 7 28 2 49-2 9-1 18.5-6.5t15.5-12 13.5-22T856 272q1-3 2-8v-4zM705 474q-13 0-22 10t-9 23.5 9 23.5 21.5 10 21.5-10 9-23.5-9-23.5-21-10zm1 76q-12 0-20.5 9t-8.5 22 8.5 22 20 9 20-9 8.5-22-8.5-22-19.5-9zm-64-36q-13 0-23 11t-10 26 10 25.5 23.5 10.5 23.5-10.5 10-25.5-10-26-24-11z"/></svg>