<svg xmlns="http://www.w3.org/2000/svg" viewBox="0 0 1000 1000"><path d="M907 397L500 288q-18-4-41-.5T421 300L74 531q-20 13-20.5 27.5T72 581l440 167q25 9 55.5 3.5T617 729l313-288q13-12 6.5-25T907 397zM338 574l-109-38q-5-2-5-5t4-6l96-67q6-5 14.5-4.5t9.5 5.5l14 105q1 6-8 9.5t-16 .5zm48-160l80-56q9-5 18-3l99 28q7 2 5 6.5t-11 6.5l-179 28q-9 1-13.5-2.5t1.5-7.5zm256 147l-90 77q-4 4-10 5t-12-1l-119-42q-7-3-4-8.5t13-7.5l208-34q9-2 14.5 2.5t-.5 8.5zm134-114l-74 63q-5 5-14.5 4.5T676 509l-31-94q-2-4 5.5-7t15.5-1l106 30q5 2 6 4.5t-2 5.5z"/></svg>