<svg xmlns="http://www.w3.org/2000/svg" viewBox="0 0 1000 1000"><path d="M538 501l222-222h14q9 5 20.5 4.5T815 276q11-9 16-24 3-9 4-27 1-12 2-17 2-9 6-14 9-11 27-20 3-2 3-3t-6.5-1-16 2.5-20.5 11-13 14.5l-1 6q-1 13-9 20-12 13-30 11-14-1-24-10-6-7-7-25 0-9 2-17l-19-3q-23-2-48-1-35 1-70 10-39 9-80 29-24 12-59 32-22 13-27 14-15 5-46 0-16-2-31-11l-5-3q-5-1-17 0-2 0-2.5 1t3.5 4l43 44q6 6 2 10t-12 4q-5-1-12.5-3.5T358 308l-7 8q-2 1 0 3l37 37q1 1 2.5 1t1.5-1l22-22q4-4 9 0l22 22q3 3 6-4l2-3q14-29 34-51.5t61-40 90-24.5q34-5 66 2 25 7 45 19v16L528 491q-3 2-1 5l7 6q2 1 4-1zM172 873l2-4q9-17 20-27 5-4 13-5 5-1 17-2 18-1 27-4 15-5 25-16 7-9 7.5-20.5T279 774v-14l233-233 208 208 1 43 10 10 1-20q0-3 3-5l2-2v33l68 68-2-48 10-11 48 2-68-68h-32l2-2q2-3 5-3l20-1-10-10-43-1-461-461q-38-38-36-47 0-5 8-8l7-1-128-78 78 128 2-7q2-7 7-8 9-1 47 36l66 67-17 17q-1 1 1.5 8.5T313 379q0 9-4 13t-10-2l-44-44q-5-5-5 0-1 12 0 17l2 4q10 16 12 31 5 32 0 47-2 5-14 27-20 35-32 58-20 42-30 81-8 34-10 70-1 25 2 48l3 18 8-1q10 0 18 1 11 1 15 6 10 9 11 24 2 17-11 30-7 7-20 9l-6 1q-8 3-15 12.5t-10 20-3 17 2 6.5zm82-124q-13-20-19-45-8-32-3-66 8-49 25-90t39.5-60.5T348 453l3-2q7-3 4-6l-21-22q-5-5 0-9l32-32 135 135-232 232h-15z"/></svg>