<svg xmlns="http://www.w3.org/2000/svg" viewBox="0 0 1000 1000"><path d="M666 510q-9-12-23-23-8-6-25-17l-17-11-326-231q-20-15-30-23-24-19-11-42 18-30 46-21 11 2 30 16 174 123 414 293 20 15 31 27 16 18 16 31-1 16-27 30l-2 1q-23 12-36 17l-4 1q-41 15-51 21-14 7-10 16 2 7 21 28 16 18 26 30l4 4q24 30 29 40 8 14 2 28-5 11-27 43l-9 14q-25 37-39 54-17 22-29 22.5T589 837q-23-27-45-66-14-23-37-71-15-30 7-42 29-17 45 16 11 20 32 53 12 19 16 23 6 6 11 4t17-12q16-12 18-23 4-14-10-29-19-20-31-38-23-32-27.5-53.5t10-38.5 51.5-35q12-7 20-15zm-255-6q24 9 33 19 11 14 9 40-1 10 8 16.5t18.5 4.5 17.5-13 10-22q3-16-9-31-7-8-26-21l-2-1q-67-45-176-123-5-4-12-7-8-5-15-12.5t-10-23 0-26 14.5-10T294 302l102 72q83 59 126 87 21 14 27.5 32t1.5 44q-8 37-18.5 56t-29 28.5T451 636q-23 3-33-2-13-8-15-30v-12q-2-28-1-43 1-24 9-45z"/></svg>