<svg xmlns="http://www.w3.org/2000/svg" viewBox="0 0 1000 1000"><path d="M239 367q1 25 11.5 42t38.5 37q22 15 33 31t10 35l-23 295v2q0 17 8 31t22 22 30 8 30-8 22-22 8-31q0-4-1-9l-23-288q-1-19 10.5-35t32.5-31q29-20 39.5-38t10.5-45l1-5V157q0-12-9-20t-19.5-6.5-17 9T447 157v107q0 10-6.5 17.5t-17.5 9-19.5-6.5-8.5-19V157q0-10-6.5-17.5t-17.5-9-20 6.5-9 20v107q1 10-6 17.5t-17.5 9T299 284t-9-19V157q0-10-6.5-17.5t-17-9T247 137t-9 20v201zm363 230l54 18q7 2 11 8t3 13l-13 173q-1 7 0 13 2 15 11 26 2 3 6 6 9 8 21 12 16 6 32.5 2.5T757 854q6-6 6-15V184q0-22-12-37.5T724 131q-18 0-38 22-25 27-46 80-17 43-27 87-17 72-23 155-4 54-3 102 0 7 4 12.5t11 7.5z"/></svg>