<svg xmlns="http://www.w3.org/2000/svg" viewBox="0 0 1000 1000"><path d="M749 629q-1 0-3 1l-63 64q-3 3-6.5 3t-5-1.5 4.5-7.5l59-59q1-1 1-2l-11-3q-13-4-19-6-26-11-45-30-1-1-2 0l-21 22q-3 2-6.5 2.5t-5-1 3.5-6.5l23-23q1-2 0-3-6-8-10-17l-3-7-76-53q-84-61-125-97-44-39-237-212l-1-12-67-53q-3-2-5-2h-3v3q0 2 2 5l53 67 12 1 212 237q36 41 97 125 30 42 53 76l12 5q13 8 24 20 17 17 27 41 14 34 14 84 0 9 1 9 3 4 8-1l52-52q5-5 10 0l9 8q3 3 14 2l11-2 63 64-1 5q0 6 1 10.5t4 9.5l3 4-1 2q1 3 3 5t11 0l7-1q12-1 15 1 9 8 24 18 5 3 8 2v-2q0-3-2-6-7-10-18-24-3-3-1-16l1-6q2-9 0-11t-5-3h-3l-28 28v-2q-1-3 .5-7t6.5-9l11-10q1-2 .5-3.5T834 800q-5-1-11-1l-5 1-64-63 2-11q1-11-2-14l-6-6q-1-2-3 0l-15 14q-4 5-9 6t-6 0 2-5l81-80q5-5 1-9h-8q-24 0-42-3z"/></svg>