<svg xmlns="http://www.w3.org/2000/svg" viewBox="0 0 1000 1000"><path d="M139 369q94 50 406 216 6 4 12 .5t7-10.5q2-50 18-100 17-57 48-100 35-49 84-72 8-3 7.5-11.5T714 280Q346 133 343 133q-72 0-122 37-43 31-67 86-20 47-22 101 0 8 7 12zm810 295q-1-19-14-33t-32-17-37-7v-93q0-7-7-11t-13-1l-69 41q-5-19-9-45l97-57q-5-75-35.5-107.5T753 323q-61 29-101 96-42 70-47 163-1 3 2 6-10 4-23 8-37 11-76 18h-1l-78-43q-7-4-14 0t-7 13v34q0 6-4 10t-10 4l-61-1q-6 0-10-5l-47-52q-4-4-4-10l-1-66q0-8-7-12l-110-65q-7-4-14 0t-7 12l1 165q0 8 6 12l401 243q7 4 14.5 0t7.5-12V734l20 7 20 8v90q0 8 6.5 11t12.5-1l25-20q5 20 9 44 3 20 18 32.5t34.5 12.5 34.5-12.5 18-32.5q9-55 19-86 6-17 10-22 6-7 32-18 34-14 88-29 18-5 29-20.5t10-33.5zm-64 12q-107 30-130 55-21 23-37 121-1 8-9.5 8t-10.5-8q-8-47-17-78t-19-43q-12-15-52-31-15-6-34-12-21-6-47-12-3-1-5-4t-2-6.5 2-6 6-3.5q23-4 45-10 71-17 87-38 10-12 19-46.5t18-88.5q0-6 5-8t9.5 0 5.5 8q4 34 9 61 4 21 9 37 7 26 17 37 18 22 77 37 24 7 52 11 4 1 6.5 3.5t2.5 6-2 6.5-5 4z"/></svg>