<svg xmlns="http://www.w3.org/2000/svg" viewBox="0 0 1000 1000"><path d="M774 631l-22-22-38 39q-3 3-13 2-7 0-14-2-5-1-7 1l-14 14h-2q-2 0-3.5-2t-1.5-4v-2l10-10-13-13-2-9q-2-10-2-19t3-19l3-9-10-1q-12-4-26-12-20-10-40-29-38-35-102-98-72-71-111-114-60-67-114-134l-130-63 63 130 42 34q50 43 92 80 44 39 114 110 64 65 99 103 25 28 36 55 5 13 5 21l9-3q10-3 19-3 15-1 28 4l20 20-3 4-1 2q-1 2 0 5 2 7 2 14 1 10-2 13l-39 38 22 22 54-54 110 100 8 8v2q0 1 1 3l3 3q7 8 8 11 3 8 3 24l5 2q6 1 14 0 16-1 25-11 5-5 8-12t3.5-14-.5-13l-1-6h-10q-10 0-14.5-2T833 804q-2-2-5 0l-11 11q-4 4-8 1-1-2-.5-4t1.5-3l11-12q-11-11-93-103l-19 20q-2 1-4.5 1.5T700 714t-1.5-5 1.5-4zm-358-96q-20 18-40 29-14 7-26 11l-9 1 2 9q3 10 3.5 19t-1.5 20l-3 8-13 13 11 10v2q0 2-2 4t-4 2h-1l-15-14-1-1q-3-1-5 0-7 2-15 2-9 1-12-2l-39-39-22 22 75 74q1 2 1.5 4.5T299 714t-4.5 1.5-4.5-1.5l-19-20q-76 85-94 103l12 12q3 4 0 7t-7-1l-11-11-2-1q-2 0-4 1l-3 3q-8 7-12 8.5t-14 1.5h-9l-2 6q-1 6 0 14 1 16 10.5 25t25.5 11q12 1 20-2v-9q0-10 2-14.5t11-14.5q1-2 1-3v-2l8-8 110-100 54 54 22-22-39-38q-3-3-2-13 0-7 2-14 1-3 0-5v-2l-4-4 20-20 9-2q10-3 19-2.5t19 3.5l9 3 1-10q4-12 12-26 10-20 29-40l28-31-45-45zm327-347l-34 42q-42 50-80 92-43 48-122 126l43 44q78-80 126-123 42-37 92-80l42-34 64-130z"/></svg>