<svg xmlns="http://www.w3.org/2000/svg" viewBox="0 0 1000 1000"><path d="M573 193q-2 1-8 1-11 2-16 4-8 4-10.5 13t3.5 14.5 17 3.5q8-1 11-7 2-4 3-12t3-10.5 5.5-4.5 5.5 0l4 5q8 13 16.5 16.5T634 223q20 3 37 2 20 8 44.5 8.5T762 227l5 5q7 7 11 10 7 5 15 5.5t15-5.5q6-5 11-6 8 2 16 2 5-1 13-3.5t11-2.5q8 5 12 15.5t2 23.5q-1 7-8 14-4 5-14 15-13 13-19 20-10 12-13 24 0 6 2 7t6.5-.5 6.5-.5 1 7q-16 14-26 28-12 17-19 39-3 12-18 24 1 12-1 30l-1 13q-11 15-17 50-4 24-8 73 0 9 5 22l3 9q3 54 29 81 0 7-5 9-3 1-4 3t-1 8q0 10 5 16 2 3 9 7h2l2 8q2 8 5 12 27 21 50 44-5 21-20 32-10 3-18-1-5-2-12.5-9t-11-8-4 1.5.5 7.5q1 9-2 9-8 1-18.5-5.5T741 853q-4-13-16-23-8-5-25-13.5T675 803q-5 2-5 3.5t3 3.5 3.5 4-2.5 4q-43-11-70-12-41-3-66 11-8 2-13 7-3 3-6.5 10t-6.5 9q-4 4-11 5-9-1-14-7-4-3-9-12l-5-9q-7-1-12.5-5t-11.5-5q-11-3-31-5-36 0-67 6-7 0-17-5l-7-3-21 10q-21 10-29 16-12 9-18 25-8-1-18 4t-15 6-5.5-1-.5-6q2-7-1-8-6 1-16 8-7 6-11 8-8 3-18 0-12-9-17-32l7-7q26-27 43-37 0-11 6-21 1-2 5-3.5t6.5-5T229 747q1-4 0-5.5t-3.5-3-4-4-1.5-8.5 7.5-17.5T238 687q6-16 8-36 1-70-3-127l-3-9q-5-16-10-21 0-7-2-19-2-14-1-24-6-13-20-24-13-51-41-65 0-4 1.5-5.5t5-2.5 5-3-.5-7q-2-14-11-26-5-8-18-20-17-17-22-28-2-9 1-17 2-5 6-14l4-7q5-2 19 1.5t22 3 15 6.5 14 7q9-2 19-14 5-7 9-9 39 7 80.5 3.5T387 214q10-5 18-13 4-4 7.5-5.5t11.5-.5q-8 9-6 16.5t10.5 9.5 16.5-3q5-3-.5-14.5T431 186l2-2q14-14 22-20 13-10 29-14 0-2 6.5-7.5t7.5-7.5q21 12 28 31 30-3 47 27zM367 311q-1 2-4 5-9 10-11 18 3 8 9 16 4 4 13 11.5t12 11.5q6 6 6 14 1 4-6 3-3 0-4.5 1t.5 6q6 7 15 8 7 0 21-4 5 6 11.5 11t10.5 6 7 5q4 7 10 7 6-9 3-17-1-5-7.5-13t-8.5-12q0-8-3-18-5-13-3-24-7 0-9-1.5t-5-5.5l-2-3q0-7-2-11t-7-8q-8-7-9-14-9 1-16-4-3-3-8.5-10t-8.5-9q-6 14-4 31zm255-15q-2 3-4 3t-5-2.5-6-2.5q-4 3-17 6t-18 7q-9 9-14 15-8 11-9 21 1 13-3 26-3 8-4 14-1 10 0 24 18-18 27-22 4-2 10.5-2.5t9.5-2 7-6 4.5-9.5-.5-14l-1-4q17 0 26-15 8-12 9-34v-4q-1-8-3-9-1 3-4 7t-5 4zM268 396q3 2 12.5 2.5T297 401q5 2 16.5 7.5T330 415q10 3 15 0-1-8-11-16.5T323 383q0-4-2-7.5t-1-8.5q-6-2-9-7-3-4-6-11-5-12-10-16-9 0-25-7-11-5-17-6 0 25 3 46 4 24 12 30zm482-72q-1-5-7-4-4 3-20.5 7t-21.5 8-6 11q-2 12-12 20-6 5-9.5 20t3 18 12.5 1q3-1 9.5-5t9.5-4q9 2 16 0 5-2 10-5 4-3 4.5-7.5t.5-12.5q-1-14 0-22 3-13 11-25zM297 489q-1 18 1.5 25.5t8.5 7.5q16 36 38 45 2-5 1-8t-4-7q-4-5-4-9 13 5 18-4 1-2 1.5-10.5T360 518l4-1q6-2 7-6-4-7-11-11.5t-11-9.5q-10-12-16-17-10-8-22-7-3-5-13-8.5t-12 1-.5 8 5.5 9.5q7 8 6 13zm393-23q-6-1-8-1t-6 2l-7 3q-8 3-11.5 8t-3.5 14q-6 1-13 6.5t-8 12.5q5 2 6 5.5t1 9.5 1 9.5 6 5.5q8 2 15-1 5-2 14-9 15-11 26-12-4-22-1-33 2-6 9-12 3-3 4-5.5t-1-8.5q-5-7-12-4-3 2-9 8zm-163 13q13 26 13 47 0 11-6 29-4 10-4 15-2 8 1 17 5-1 8.5-4t7.5-9q8-11 16-17 1-11 5-18 3-4 9-8 9-7 11-13-2-3-7-7t-7-7q-3-5-4-11-2-2-8-3t-8-2q-1-4-5.5-7.5T544 473q-3 0-4.5-4.5t-3.5-7-9-1.5v19zm-110 46q2 5 9 11 5 4 7 7 3 5 3 12 18 28 34 31-1-22-7.5-45T447 502q-13-2-20.5 5t-9.5 18zm247 86q-1 1-3 2-12 8-17 15-2 7-7 22-8 23-10 33-3 16 5 17 7-3 15-16 6-9 10-13 6-3 18-12l7-5q2-10 7-16 3-3 9-8 8-6 10-12-11 1-18-6-4-3-9-13-4-8-6-11-5-4-11-5 1 5 0 13.5t0 14.5zm-363 14q1 2 4 10l3 9 1 5q2 6 2 10t-3 12q7 13 15 17t23 2l3 2q16 14 22 13 1-4-3-15-5-15-5-24-2-5-9-11l-4-4q0-3 5-7t4-9l-30-18q-10-5-22-10-7 12-6 18zm113 26q-8 14-6.5 18.5T418 680l8 4q0-10 9-27t10-30q-8-1-18-8-5-5-9-7-6-3-13-2-6 13-4 20 1 5 6.5 10.5T414 651zm156-28q-1 5 2 8t1 10q-17 10-21 30 1 22 12 21 6-3 8-10.5t-1-14.5q2-1 7-2 8-1 8-5-1-8 2-13 1-3 4.5-7.5t5-8.5.5-14v-6q-11-1-16.5 1T570 623zm81 83q-7 16 1 20 1 4 3 5t8 2q1-7 10-20l5-8q7-10 9-14 2-7-2-11-10-1-19.5 6.5T651 706zm-220 40q1-5-2-13t-2-14q-5 1-12.5-1.5T400 717q-4 13 6 21.5t25 7.5zm140-25q1 8 7 12t16 3q7-7 7-18-7-2-16 1t-14 2zm-90 47v2q1 11 4 15 3 5 15 6 2-6 10.5-16.5T521 757q-7-2-15 3-3 2-6 3l-2-5q-2-3-4-5t-7-2q0-5-4.5-8.5T473 739l2 6q5 16 6 23z"/></svg>