<svg xmlns="http://www.w3.org/2000/svg" viewBox="0 0 1000 1000"><path d="M802 186H198q-27 0-46 19t-19 46v498q0 27 19 46t46 19h604q27 0 46-19t19-46V251q0-27-19-46t-46-19zm-15 518q0 14-10 24t-24 10h-17V548q0-7-5-12t-11-5h-19q-7 0-12 5t-5 12v190H526V548q0-7-5-12t-12-5h-18q-7 0-12 5t-5 12v190H316V545q0-7-5-11.5t-12-4.5h-18q-7 0-12 4.5t-5 11.5v193h-19q-14 0-24-10t-10-24V302q0-14 10-24t24-10h19v123q0 7 5 12t11 5h19q7 0 12-5t5-12V268h158v123q0 7 5 12t11 5h19q7 0 12-5t5-12V268h158v123q0 7 5 12t11 5h19q7 0 12-5t5-12V268h17q14 0 24 10t10 24v402zM386 346h18q7 0 12 5t5 12v212q0 7-5 12t-12 5h-18q-7 0-12-5t-5-12V363q0-7 5-12t12-5zm210 0h18q7 0 12 5t5 12v212q0 7-5 12t-12 5h-18q-7 0-12-5t-5-12V363q0-7 5-12t12-5z"/></svg>