<svg xmlns="http://www.w3.org/2000/svg" viewBox="0 0 1000 1000"><path d="M849 648q-11-11-22-18-5-3-8 1-12 11-45 45l-5 5q-4 4-10 3v-4q0-3 2.5-6t18.5-20q24-25 28-30 3-4 2.5-6t-3.5-5q-21-18-26-21-2-2-6-2l-2 1v9q0 10-6 17.5T723 662l-3 3q-13 13-17 32-1 10 0 26 0 6-.5 7t-4.5-1q-11-3-23-3-9 0-22 5l-12 6 3-5q5-5 11-8 7-6 15-7 4-1 14 1l9 1-1-8q-1-10 1-19 3-16 15-30l13-13q15-16 22-23 3-4 3-6t-1-6l-2-4q-1-5 .5-10.5t3.5-3.5q7 7 12 1 2-2 1-5t-5-6l-51-45q-47-41-50.5-43.5t-6 .5-.5 7q1 2-3 3.5t-10 0-10-6.5q-8-9-23-9t-27 12q-16 18-10 58 2 19 8 37l-12-5q-15-6-27-9-19-5-36-4l9-3q11-4 22-4 7 0 16 2l8 2-2-12q-3-13-3-25 0-33 25-53 6-5 16.5-8t22-2 26.5 13l2-7q2-7 1-12 0-2-5-8l-6-11q-4-5-4-16-1-6-2-7-4-4-28-1l-5 1q-2 0-7-6l-4-3q-8-6-9.5-4t-2.5 7l-1 6q0 1-9 8l-20 18q-12 11-17 16-8 10-10 19t-1 26l1 16-14-3q-15-3-24-3-12 0-25 3l7-5q8-6 15-8 11-3 27 0l-1-9q-1-10 1-20 4-15 12-26 6-8 26-24l9-7q10-11 8-23-1-5-6-15l-4-11q-2-6-4-32-1-16-2.5-19.5T523 308l-10-23q-6-14-10-21-8-13-18-19-17-9-53-8l-6 1q-11 0-39-6l-1-1q-25-5-40-1-12 3-37 38l-5 6q-3 5-11.5 10.5T282 293q-2 5-2 12.5t5 11.5q6 5 18 7l-6 2q-7 1-14-1-9-4-15-13-3-5 0-17.5t6-15.5l8-7q19-15 24.5-22.5T320 231t10-13q10-8 19-8 6 0 12 3h2q13 6 20.5 6.5t16.5-.5q12-1 21 2l7 2q10 4 17 5 11 2 14-1 2-2-1.5-9.5T448 206q-12-8-48-49l-4-5q-10-10-22-17-19-9-40-8-14 0-27 10-8 5-19 19-10 11-14 13l-4 1q-26 2-42 18-12 13-14 41v4q-1 2-12 13.5T186 263q-11 13-12 23-4 15-3 31l1 13-2 2q-4 2-7 6-6 7-11 17-7 18-6.5 38.5T157 429q7 9 26 25l8 7q19 16 52 30 26-1 37-7.5t18-22.5l3-6 5-2q21-7 25-11 11-10 16-23 2-7 2-11l6-2q8-2 13-6 8-5 11-12 4-10 6-23l1-8q3-13 9-26l-15-13q-7-6-17-9l6-6 2-4 1-2 10 7q12 7 21 9 16 3 30 2 7-1 8 4 1 3-.5 5.5T437 327q-10 0-15 1-3 1-7 8t-6 13l-3 8q-9 29-11 38-3 15-2 30 1 20 8 32t18 23l9 8q1 2-4.5 0t-12.5-8q-12-8-18-18-8-11-10-25-2-7-2-17v-8q-6-2-22 13h-1q-3 3-10 16-6 10-7.5 11t-7.5 2q-18 5-27 12-3 2-10.5 11.5T285 489q-8 5-34 6 4 11 10 19.5t19 19.5q14 13 23 16 12 3 30 4 20 1 35 7 8 4 17 13 4 4 5 4t10-4q12-7 14-6t2.5 3-1.5 4l-18 20q-2 3-1 8t3 7l3 2q3 3 3 5l-1 4q-4 23 1 29 1 0 7 1 12 0 17 4l10 6q7 5 9 5 8 2 12-2l51 57q52 59 58 67 5 5 3 15-1 8 2 11l49 56q4 4 9 4l5-1-1-3q-1-3 .5-7.5t6.5-9.5l54-53q12-12 15-28 2-9 2-22 0-7 1-8t8-1q14 0 22-2 16-3 27-14l60-60q7-7 14-8 4-1 7 0v-2q0-3-4-7z"/></svg>