<svg xmlns="http://www.w3.org/2000/svg" viewBox="0 0 1000 1000"><path d="M313 333H153q-8 0-14-6t-6-14V153q0-8 6-14t14-6h160q8 0 14 6t6 14v160q0 8-6 14t-14 6zm265 0H418q-8 0-14-6t-6-14V153q0-8 6-14t14-6h160q8 0 14 6t6 14v160q0 8-6 14t-14 6zm265 0H683q-8 0-14-6t-6-14V153q0-8 6-14t14-6h160q8 0 14 6t6 14v160q0 8-6 14t-14 6zM313 598H153q-8 0-14-6t-6-14V418q0-8 6-14t14-6h160q8 0 14 6t6 14v160q0 8-6 14t-14 6zm265 0H418q-8 0-14-6t-6-14V418q0-8 6-14t14-6h160q8 0 14 6t6 14v160q0 8-6 14t-14 6zm265 0H683q-8 0-14-6t-6-14V418q0-8 6-14t14-6h160q8 0 14 6t6 14v160q0 8-6 14t-14 6zM313 863H153q-8 0-14-6t-6-14V683q0-8 6-14t14-6h160q8 0 14 6t6 14v160q0 8-6 14t-14 6zm265 0H418q-8 0-14-6t-6-14V683q0-8 6-14t14-6h160q8 0 14 6t6 14v160q0 8-6 14t-14 6zm265 0H683q-8 0-14-6t-6-14V683q0-8 6-14t14-6h160q8 0 14 6t6 14v160q0 8-6 14t-14 6z"/></svg>