<svg xmlns="http://www.w3.org/2000/svg" viewBox="0 0 1000 1000"><path d="M847 684q-1-14-13-32.5t-19-9.5q3 10-1.5 14.5t-12 2.5-8.5-9 8-18q-25-24-68-67l-44-43q-2 1-13.5 12.5T660 549q-1 1-3 .5t-2-1.5q-3-3 4-15l4-6-402-402-110 110 22 48 11-8 18 37 10-10 19 39 9-9 18 37 10-9 17 37 10-12 17 40 11-12 19 39 9-9 18 39 11-11 18 39 11-12 17 40 10-11 17 38 10-9 18 37 10-10 19 37 9-9 18 39 10-9 18 36 11-10 18 38 9-9 19 39 10-11 18 40 59-60 2 3q3 3 8.5 5t13 2 13-2.5 5.5-4.5-3-4.5-4-5.5q-1-5 2-14t11-11.5 19.5 3.5 13.5 21-5.5 25.5T727 787l-13 15-9 8q-8 8-11 12-5 7-6 14 0 16 19.5 29t43.5 9q1-1 0-8-2-17 3-28v-1q7-17 14-28 12-19 35-42 5-6 15-17 17-18 22-28 9-17 7-38zm-126-36q-8 0-13-5t-5-13.5 5-14 13-5.5 14 5 6 14q-1 19-20 19z"/></svg>