<svg xmlns="http://www.w3.org/2000/svg" viewBox="0 0 1000 1000"><path d="M208 406q-3 0-7-4l-26-33q-4-7 0-13l6-6q6-6 12-6h349q17 0 28 3 9 3 14 8l3 3q4 6 7 3.5t1-7.5l-3-6q-5-6-14-9-12-6-28-6H135q-4 0-7-3t-3-7v-29q0-4 3-7.5t7-3.5h491q4 0 9 2.5t7 6.5l11 22q5 11 9 11h204q4 0 6 2.5t1 6.5l-9 23q-12 27-29 50-24 32-52 50-19 13-47 25-24 9-45 14t-24.5 3.5-5.5-9.5-7.5-7-5.5 12l1 1q0 4-3 5.5t-11 3.5q-4 2-12 7-11 9-17 21-9 15-9 34.5t14 37.5q11 14 24 20 9 4 20 6l9 2q4 0 6.5 3.5t2.5 7.5v61q0 4-2.5 7t-6.5 3H556q-4 0-7-3t-3-7v-13q0-8-14.5-18T496 657t-37-7q-35 0-57 9-11 5-16 9-2 2-7 0l-3-2-4-6q-3-8-3-12 0-15 17-31 9-8 17-12t21-7.5 4-6.5h-6q-7 1-14 3-11 3-20 9-33 20-33 55v47q0 4-2.5 7t-6.5 3H241q-4 0-7-3t-3-7v-58q0-4 3.5-8.5t7.5-4.5l12-6q14-8 25-19 17-16 26-35 12-23 12-51 0-37-19-66-16-24-43-38-24-13-47-13z"/></svg>