<svg xmlns="http://www.w3.org/2000/svg" viewBox="0 0 1000 1000"><path d="M772 739q-63 73-154 102-88 29-180 11-37-7-65-20-52-23-24-51 7 4 42 9 29 3 63 6 63 4 124-18 64-24 114-72 28-32 34-72 7-47-21-84-17-23-45.5-33.5T610 514q-15 5-23 19-5 9-7 19l-1-1q6 35 12 82 5 26-5 34-6 5-24 5H439q-18 0-24-5-11-8-5-34l4-34q3-33-2.5-48T392 531q-8-3-30-4t-34-3q-20-3-37-12-9-5-26.5-21.5T240 471q-12-6-19 5-8 13-10 52 4 79 48 133 13 11 16 21 2 5 0 14l-1 5q0 5-4 10-6 7-16 5-14-3-34-24-51-55-70-132.5T147 404q17-81 68-139.5T337 174q68-31 144-31.5T626 171q24 11 39 24.5t10.5 20.5-26 6-43.5-9q-69-23-148-6-18 5-36 17-11 7-29 22-14 11-20 14-16 12-40 22-19 7-29 15l4-3q-8 5-15 12-4 3-10.5 11t-5.5 7q-16 25-10 53 6 27 28 48 36 26 69 31t55.5-9.5T450 402q25-96 50-111v1q28 15 55 130l2 9q2 11 5 15 4 7 13 7 13-2 28-6t22-4q12-1 32 1 24 2 52 15 21 11 41 26l1 2q10 10 16 10 11 0 14-32v2q-4-50-20-113-8-31-9-41 0-17 11-26 8-2 17.5 6.5T803 324q40 63 51 137t-10 146q-21 73-72 132zM524 577q-11-136-24-149h-1q-13 13-23 149-2 11 2 17t11 6h21q7 0 11-6t3-17z"/></svg>