<svg xmlns="http://www.w3.org/2000/svg" viewBox="0 0 1000 1000"><path d="M139 805q35-134 159-212l7 7q4 4 4 6v33q-1 26 1 33 2 10 14 13 8 1 38 1h17q21 0 54 1 37 2 46-1 14-3 17-18 2-11 1-53v-50q0-21-1.5-63.5T494 438q0-28-5-41t-16-18q-8-3-25-3-43 2-96-2h-2q-16-1-22 1-9 3-13.5 14.5T310 429q0 60-2 89-1 13-9 20t-20.5 7.5-21-6.5-9.5-20q-3-114 0-170 0-20 3-28.5t11-10.5q4-1 16 0l12 1 229-2q40 0 44 43 3 28 3 45l-1 57q-1 152-2 228-1 32-6 45.5T538 746t-47 5l-37 1q-81 1-121 0h-10q-32 0-46-4-24-7-20-28 5-23-2-22-4 0-16 12l-6 6q-41 34-94 89zm722-516q-25 17-73 43-40 22-59 34-28 19-39 47-9 24-13 73 3 19 1 58v18q-1 18-5 31-7 23-34 20-12-1-17-9-3-6-3-18V456q0-100 1-150 0-22-10-32.5T579 262l-138-3q-23 0-34-1-28-2-28-28-1-31 31-32h53l144-1q36 0 47 3 15 4 19 18 4 11 5 45 1 5-1 18-1 18-1 27 2 15 9 24 32-29 78-41 49-13 98-2z"/></svg>