<svg xmlns="http://www.w3.org/2000/svg" viewBox="0 0 1000 1000"><path d="M612 565l-13-35q-4-9-12.5-15t-19.5-6h-7q1-27-3-54l4-3q15-10 26-25l6-7q6-9 10-19 11-23-.5-38.5T530 319q-5-2-3.5-8t7.5-4q65 13 83.5 7t23.5-31q3-10 3-21v-9q-1-19-6.5-36T622 185l-5-8q-7-8-15-16-19-17-37.5-11T501 205q-4 5-8.5 1.5T491 198q33-58 33-77.5T502 89q-10-6-20-9l-9-3q-17-5-35.5-5T402 77l-10 2q-10 4-19 10-22 12-22 31.5t33 77.5q3 5-2 8.5t-9-1.5q-45-49-63-55t-37 11q-8 8-15 16l-5 8q-10 15-15.5 32t-6.5 35v10q0 11 2 21 5 25 23.5 31t83.5-8q6-1 8 4.5t-4 8.5q-60 28-71.5 43.5T271 401q5 10 11 19l6 7q23 29 57 42l9 3q10 3 21 4 26 3 37-12.5t19-82.5q0-2 2-4t4.5-1.5 4.5 2 2 3.5q7 67 18.5 82.5T499 476h7q1 16 1 33h-65q-10 0-18.5 6T411 530l-14 35q-49 7-81.5 43T283 694q0 45 28 80.5t72 46.5l9 40q1 7 16 15.5t38 13.5q27 6 58.5 6t58.5-6q23-5 38-13.5t16-15.5l9-40q44-11 72-46.5t28-80.5q0-50-32.5-86T612 565zm-129 69q-31 17-49 50-10 18-17 44l-1 5q-1 3-5 3l-58-21q-5-1-5-6-1-55 32-86 17-16 42-25 2 0 3 1l58 25q3 2 3 5.5t-3 4.5z"/></svg>