<svg xmlns="http://www.w3.org/2000/svg" viewBox="0 0 1000 1000"><path d="M366 579q0-15 1-29 1-9-3-16.5T352 523l-33-16-22-8q-28-11-41-18-22-11-31-23-19-27 5-52 13-14 52-34l12-6q35-20 56-25 29-7 61 2 22 5 49 14 15 5 28-3 67-44 147-44h5q6 1 11.5-3t7.5-10q4-11 21-32 15-20 20-30 8-17 3-32-8-19-36-31-17-7-53-15l-63-15q-49-12-73-19-40-12-69-28-4-2-17-12-21-16-32-22-19-10-28-4-17 10-20 64-1 31 2 69 7 76 33 120-91 27-158.5 97T95 569q-15 52-15 97 0 58 25 92 18 24 53 47 20 14 62 37l13 7q81 44 146 57 77 15 157-6 45-13 83-41 4-3 2.5-7.5T616 847q-70-5-127-42t-90-97-33-129zm-101 93q-17 0-24-21t-2.5-50 18.5-48q15-22 36-20 24 1 32 23 7 19-.5 47T300 651.5 265 672zm674 135q-55-54-110-109-5-4-6-11t2-13q27-53 22-113t-40.5-108-91-70.5T601 370q-41 6-79 32t-64 63.5-33 78.5q-10 58 11.5 113t68.5 91 105.5 43T723 773q6-2 12-1t11 6l111 111q17 17 40.5 16.5t40-17 17-40T939 807zM491 584q-2-44 22-81.5t64.5-55.5 84.5-9.5 75.5 40 39.5 75-9.5 84.5-55 64.5T630 724q-37-1-68.5-20T511 653.5 491 584z"/></svg>