<svg xmlns="http://www.w3.org/2000/svg" viewBox="0 0 1000 1000"><path d="M212 463v224q1 58 21 97t61 63q32 21 86 34t117 13h1q66 0 121.5-14t87.5-37q38-24 56.5-62t18.5-94V463q0-23 4-40 2-12 6-20l3-6q7-12 7-26.5t-8-25.5l-4-7q-27-40-68-66 14-18 32-32l2-2q14-7 27-16 22-16 28-28 11-24 1-75-1-9-11-12-7-1-13 0h-2q-25 3-41 8-28 10-39 29-4 6-11 21-9 21-16 33-12 21-27 39-50-19-104-24-28-3-51-2-31-2-73 5-78 12-142 49-47 28-78 73l-4 6q-7 12-7.5 26.5T199 397l4 6q3 8 6 20 3 17 3 40zm286-175q39 0 78 6l-50 21q-6 2-8.5 7t-1.5 11q5 19 15 35 13 22 35 30 38 15 92 13 6 0 10-4t5-10q4-35 17-69 49 27 49 61 0 22-22 42t-61 34v180q0 13-8.5 21.5T627 675t-20.5-8.5T598 645V480q-50 10-100 9-66 0-121.5-13.5T289 439t-32-50 32-50 87.5-37T498 288z"/></svg>