<svg xmlns="http://www.w3.org/2000/svg" viewBox="0 0 1000 1000"><path d="M828 64q-70 19-108 36t-60 39q-19 19-32 52-8 21-23 76l-5 20q-4 21-8 23-11-74-63-120-48-42-119-54-69-11-139 9t-118 67q-53 50-64 120-8 50 15 81 19 25 64 40 26 8 87 18.5t87 19.5q43 14 57 41l20 21q-105 15-163 42-78 36-103 104-27 74 5 133 28 53 96 83 64 27 139 25 78-3 135-39 83-51 132-104 45-48 65-101 16-46 18-104 2-36-4-112-6-83-5-129 1-77 18-148 14-35 37-60 19-22 48-41 18-11 57-32l19-10q-41 0-73 3zM351 810q-37 25-71 26-30 1-50.5-15T205 782q-9-52 4-86 11-30 40-50 22-16 65-32 50-20 77-15 22 4 30 25 13 34 2 75-9 35-32 68-20 29-40 43zm133-281q-23-4-37-15-7-7-17-25-7-14-12-20-9-10-23-16-20-9-47-13-17-3-50-6-52-4-74-11-37-12-52-42-26-58-4-101 18-33 67-59 28-14 87-33l8-3q82-4 144 34 56 35 80 93.5t7 116.5q-18 62-77 100z"/></svg>