<svg xmlns="http://www.w3.org/2000/svg" viewBox="0 0 1000 1000"><path d="M868 566q-35-8-58-19-17-8-21-15t-9-28q-8-36-14-99-1-19-14-31.5T721 361q-21 0-34 18-30-65-52-96-29-42-52-63-37-37-70-36-17 0-42 13-14 7-40 24l-7 5q-46 30-72 70l-1 1-2-2q-4-7-9-27-8-36-13-100-2-18-14.5-30.5T282 125t-30.5 12-14.5 30q-8 69-17 105-4 19-6.5 23T198 306q-24 12-67 23-15 4-24.5 16.5t-10 28.5 8 29 23.5 18q46 15 70 30 13 8 15 13 4 6 9 24 8 32 15 89 2 18 14.5 29.5T281 618q9 0 17-3 37 72 50 101 9 17 29 34 13 9 40 25l14 8q31 19 51 26 29 9 56 1 18-6 38-17 12-7 35-22 26-16 39-23 8-5 14-12 6 30 12 77 2 18 15 30t30 12 29.5-12 14.5-30q8-58 16-90 4-16 7.5-21.5T811 686q24-14 63-29 14-5 22.5-18.5T904 609t-11-28-25-15zm-587-21q-1 0-1-4-11-87-25-110l-1-1q-16-26-92-51-2-1-1.5-4.5t1.5-3.5q76-19 92-44l1-1q13-22 25-124 0-3 1.5-3t1.5 3q9 98 25 124 18 30 91 45 1 1 1.5 4.5T399 379q-74 28-90 52h-1q-14 22-25 110 0 4-2 4zm557 71q-73 27-90 51-15 22-25 111-1 3-2 3t-2-3q-11-87-25-111v-1q-17-26-92-51-2 0-2-3.5t2-4.5q75-19 91-44l1-1q13-22 25-124 1-3 2.5-3t1.5 3q8 98 24 124 19 30 91 46 2 0 2 3.5t-2 4.5z"/></svg>