<svg xmlns="http://www.w3.org/2000/svg" viewBox="0 0 1000 1000"><path d="M770 668q-8-4-23-10-25-9-35-17l-9-6q-29-18-37-26-12-11-21.5-23.5t-13.5-21-22-40.5l-6-9q-14-22-16-32 14 15 25 28 1 2 5 8 7 12 12 16 0 1 1.5.5t1.5-1.5q-2-15 0-33t8-30q1-1 .5-2.5T639 466q-19-8-33-17-9-6-22-17l-13-10-7-4q-20-12-27-25 4 4 21 13l11 5 8 6q7 6 12 8 0 1 1-.5t1-2.5l-4-11q-7-23-7-40 0-1-2.5-6t-3.5-6q-13-10-21-20-4-6-10-17-4-7-7-11l-5-8q-12-15-18-26-10-19-16-41-28 3-50 2t-49-7q-4-1-20-11-28-17-42-23t-34-12l-13-4q-10-3-24-6l-12-2q-46-9-83-21-12 17-13 40-1 14 2 42l2 16q2 17 3 24 3 11 13 30 8 16 11 25 2 5 5 19 3 12 5 17l4 13q6 14 7 21 6 1 9-1.5t6-6.5q6-9 12-9h1q29 2 41 1 19-2 31-10.5t25-27.5q9-14 17-29 1 5-1 12-1 4-6 14t-6.5 15.5-3.5 17-3 15.5q-3 6-7 8t-21-1l-29-4q-20-3-26-3h-1q-7 1-10 3-8 8-15 16-2 2-2 6t5 10l3 4q3 5 13 18.5t11 16.5q2 6 2.5 21t3.5 22q1 4 8 11l6 7q3 5 10 16 12 23 21 29 1 1 3.5.5t1.5-2.5q-7-22-7-52l1-4q0-27-1-39-1-5-5-14.5t-4-14.5q13 15 17 33 6 19 1 45 2 0 10 7l13 9 16 11q14 9 17 12 8 6 17 24l9 15q15 20 23 28 24 23 31 37 1 2 2.5 2t2.5-1q8-14 23-20 19-9 27-9 5 1 10 5l6 3 6 1q1-2 0-3-4-12-43-33-5-2-15-5-16-4-21-9 28 1 63 17 20 10 59 32l5 4q4 2 26 19l9 7q8 3 21 4t22-1q3-1 7-4 8-5 13-5l7 5q7 4 9 7 5 5 5 11-11-8-20-9-6 0-17 3-18 6-36 3 3 9 15 22 8 10 11 16 5 8 10 23l3 9 5 14q3 10 19 40l2 3q8 13 12 19 9 9 19 11-6-17-3-34 2-9 9-26 6-14 7.5-20.5T728 749v-15q6 0 16 4t15 4q6-2 17-9 20-12 32-13 6-1 24 2l11 2q-27-34-73-56zM269 245q-4 3-13 4t-12-2q-8-5-10.5-15t3.5-15q3-2 5.5-2t8.5 1q2 0 5 2l3 2 7 3q4 2 6 9.5t-3 12.5z"/></svg>