<svg xmlns="http://www.w3.org/2000/svg" viewBox="0 0 1000 1000"><path d="M626 579q-4-2-11-6.5t-12-5.5q-9-3-23-3-35 0-64 18t-45.5 49-16.5 68q0 54 32 88t87 42q11 2 19.5 12.5t6 27T577 887q-15 2-38-5-68-13-107-60-42-50-42-129 0-49 22.5-91.5T474 532l2-1q25-14 28-51 6-124 22-275l2-27q3-33 5-43 3-16 9.5-16t10.5 16q2 10 5 43l2 27q11 106 19 227 3 33 12 59 8 24 15 29 11 5 30 16 16 9 23 12 12 6 19 4 6 2 3.5 8T671 572.5t-20 9-25-2.5zm-361-87q3-3 16 5 8 4 28 18l20 15q13 8 28 13l6 2q13 1 23 7t5 12q-33 40-42.5 102T369 790q16 32 42 63l2 2q-1 9-12 6t-24.5-12-17.5-16q-10-8-23-25-7-7-17-2l-20 14q-20 14-27 19-13 7-16.5 4t4.5-17q5-8 19-27l19-28h-1q3-6 3.5-14.5t.5-14.5q-4-12-6-24v-1q-3-21-15-25l-35-6q-30-6-41-9-18-5-18-11.5t18-11.5q11-3 41-8l27-5 10-3q7-2 14.5-8.5T307 615l1-4q4-10 7-16 1-2 2-6-2-14-15-33l-14-20q-14-19-18-27-8-14-5-17zm239 204q0-26 19-45t45.5-19 45.5 19 19 45.5-19 45-45.5 18.5-45.5-18.5-19-45.5z"/></svg>