<svg xmlns="http://www.w3.org/2000/svg" viewBox="0 0 1000 1000"><path d="M837 422q-7-11-15-18-35-11-48 17-6 13-7 34-1 17 2 24 6 15 8 23 4 13 4 24 0 34-23.5 57.5T700 607t-57.5-23.5T619 526q0-36 15-63 13-23 38-43 15-12 49-33 24-14 35-22l-4-3q-24-19-43-29-31-16-76-24-54-11-134-11t-135 11q-44 8-76 24-18 10-43 29l-3 3q11 8 35 22 34 21 49 33 25 20 38 43 15 27 15 63 0 34-23.5 57.5T298 607t-57.5-23.5T217 526q0-11 4-24 2-8 8-23 3-7 2-24-1-21-7-34-13-28-48-17-8 7-15 18-15 22-25 48-11 31-11 57 0 47 23 86.5t63 63 87 23.5 87-23.5 63-63 23-86.5q0-42-18-78t-50-60q23-10 49-13 17-3 47-4 30 1 47 4 26 3 49 13-32 24-50 60t-18 78q0 47 23 86.5t63 63 87 23.5 87-23.5 63-63 23-86.5q0-26-11-57-10-26-25-48z"/></svg>