<svg xmlns="http://www.w3.org/2000/svg" viewBox="0 0 1000 1000"><path d="M758 107q-12-4-148-10-129-5-227-5-43 0-83 16t-71 47q-45 45-82 107-9 13-2 26 4 8 12 15l144 113-154 80q-12 6-18 15-8 14-5 38 9 56 39 275 2 19 15 32 18 20 53 23l388 28q20 3 40-2 16-4 31-12 11-6 20-14l115-109q20-21 28-40 5-14 7-40 2-47 6-156l3-101q24-174-29-261-28-45-78-63zM529 638l-58 46-6 2q-6 3-11 0l-33 22 76 46q10 6 10 17t-9.5 16.5-19.5.5l-79-42-2 41h12q7 0 11 4t4 10-4 10.5-11 4.5h-12v18q0 8-6 14t-14 6-13.5-6-5.5-14v-18h-14q-6 0-10.5-4.5T329 801t4.5-10 10.5-4h14l-2-41-79 42q-7 4-14.5 2t-11.5-9-2-15 9-12l76-47-42-26-8 22-73-49 45-37q9-7 18.5-9.5t17.5 3 10 12.5-1 18l55 29 2-90q0-8 5.5-13.5t14-5.5 14 5.5T397 580l2 90 35-18q1-5 6-10l5-3 69-27q15-6 24-1 3 2 3 6 1 11-12 21zm133-110l-490-18 163-83 470 13z"/></svg>