<svg xmlns="http://www.w3.org/2000/svg" viewBox="0 0 1000 1000"><path d="M807 340l-14-6q-16-7-29-17-19-14-29-31-18-28-23-62-3-16-2-27l-28-17q-37-20-77-38-38-16-76-26-19-5-30-6l-14 2q-18 4-38 10-27 8-54 20-40 18-77 38l-28 17v13q-1 16-6 33-6 23-19 43-14 24-44 41-16 9-28 13v26q2 34 9 72 9 52 28 106 23 66 60 130 51 88 105 149 40 44 77 69 18 13 29 17l11-6q14-7 30-20 23-17 46-41 30-29 58-67 34-45 66-101 37-64 60-130 19-54 28-106 7-38 9-72v-26zM664 639q-31 54-64 100-26 36-52 66-19 21-36 36l-13 12-13-12q-17-15-36-36-26-30-52-66-33-46-64-100-56-97-78-197-11-50-11-81l12-7q15-9 27-19 17-13 26-28 15-24 24-55 5-15 6-25l8-6q11-8 25-16 20-10 42.5-18.5T460 174q15-3 29-4h21q13 1 29 4 21 4 43.5 12.5T625 205q14 8 25 16l8 6 3 12q3 15 9 30 8 21 19 38 9 14 26 28 12 10 26 19l12 7-1 22q-3 27-10 59-10 43-26 88-21 56-52 109zm-4-322q-14-22-22-52-4-14-5-24l-5-5q-8-5-19-11-16-8-36-16t-39-12q-14-3-26-3h-18q-12 0-26 3-19 4-39 12-28 11-47 22-9 6-13 10l-2 11q-3 15-8 29-7 20-17 36-13 19-29 32-12 10-25 16l-10 4 1 20q3 26 9 55 8 40 23 81 19 51 46 100.5t56 92.5q24 33 47 60 17 20 32 34l11 10 12-10q15-14 31-34 24-27 47-61 29-42 56-91.5T691 525q15-41 23-81 7-29 9-55l1-20-10-4q-13-6-25-16-16-13-29-32zM500 468q0 11-6.5 16.5T478 490H335q-23 0-33-56-8-46 1-52t26-22q23-22 33-40 7-14 12-30 3-12 4-23l1-9 16-10q19-12 34-19 25-11 49-13 9-1 15.5 3.5T500 234v234zm171 51q-4 15-17 46-18 46-41 84-30 52-60.5 90.5T510 778q-9 0-9-14V514q0-8 5.5-12.5T520 497h137q10 0 13 7t1 15z"/></svg>