<svg xmlns="http://www.w3.org/2000/svg" viewBox="0 0 1000 1000"><path d="M880 345l-95-150q-3-5-9-5H354q-5 0-8 4.5t-1 9.5l41 128q2 5-2 10t-10 4l-152-39q-5-1-7-5.5t0-9.5l55-87q3-5 0-10t-9-5h-52q-6 0-9 5l-81 150q-2 2-2 5v338q0 6 7 9l46 20q5 2 9.5-1t4.5-8V375q0-5 4-8t9-2l181 49q8 2 8 10v371q0 4 3 7t7 3h42q4 0 7-3t3-7V430q0-4 3-7t7-3h350q5 0 8 3t3 7v364q0 4 2.5 7t7.5 3h42q4 0 7-3t3-7V350q0-3-1-5zM349 768V554q0-7-4-12.5t-11-6.5l-91-25q-9-3-17 3t-8 16v199q0 6 3.5 11t8.5 7l91 40q10 5 19-1t9-17zm404-286q-2-5-6-5H502q-3 0-5 3t-1 6l22 62q2 4 6 4h245q3 0 5-2.5t1-6.5zM541 589h27q7 0 11.5 4.5T584 604v143q0 7-4.5 11.5T568 763h-27q-7 0-11.5-4.5T525 747V604q0-6 4.5-10.5T541 589zm86 0h28q7 0 11 4.5t4 10.5v143q0 7-4 11.5t-11 4.5h-28q-6 0-10.5-4.5T612 747V604q0-6 4.5-10.5T627 589zm87 0h28q6 0 10.5 4.5T757 604v143q0 7-4.5 11.5T742 763h-28q-6 0-10.5-4.5T699 747V604q0-6 4.5-10.5T714 589z"/></svg>