<svg xmlns="http://www.w3.org/2000/svg" viewBox="0 0 1000 1000"><path d="M710 210q-16-15-43-13-25 2-48 16-47 28-95 67-73 61-111.5 119.5T378 511q4 47 39 81 23 22 79 39 33 10 101 24 42 9 57 13 25 7 29 14 10 15-5 24-14 8-51 14-87 12-197-19-43-12-80-32-21-11-47-30l-8-5q-19-13-42.5-13t-35 14.5T207 668q2 21 23 39 28 23 62 40 54 26 134 41 64 12 130 13 76 2 131-10 63-15 88-48 22-29 14-60-7-26-33-49-22-19-47-28-19-7-71-20-65-16-93-26-47-16-58-34.5t1-53.5q10-32 31.5-59.5T579 357q22-16 65-42 39-24 50-33 23-20 26-39.5T710 210z"/></svg>