<svg xmlns="http://www.w3.org/2000/svg" viewBox="0 0 1000 1000"><path d="M802 186H198q-27 0-46 19t-19 46v498q0 27 19 46t46 19h604q27 0 46-19t19-46V251q0-27-19-46t-46-19zm-15 518q0 14-10 24t-24 10h-64q-5-10-17-19-21-17-54-20v-45q16 5 27 2 8-3 13-9l3-5q19 12 46 3 12-5 21-18 9-15 9-38-1-33-27-48-2-2-3-4.5t1-5.5q6-10 6.5-21.5T709 487q-6-14-29-22-6-2-7-9-6-38-20-71-12-28-27-46-14-16-24-17-15-2-29 58v4q-43 23-56 55-10 22-5 45 1 4-1.5 8.5T503 498q-23 4-46 32-15 18-18.5 40t6.5 40 33 26q11 4 26 0 7-1 13-4l2 5q3 6 8 10 6 6 14 8 16 5 31 1v43q-31 4-52 20-12 9-17 19H245q-14 0-24-10t-10-24V302q0-14 10-24t24-10h508q14 0 24 10t10 24v402zM256 397q0 39 27.5 66.5T350 491t66.5-27.5 27.5-66-27.5-66T350 304t-66.5 27.5T256 397z"/></svg>