<svg xmlns="http://www.w3.org/2000/svg" viewBox="0 0 1000 1000"><path d="M767 336H233q-12 0-21 9t-9 21l38 505q1 13 12 21.5t30 8.5h434q18 0 29-8.5t13-21.5l38-505q0-12-9-21t-21-9zM642 746l-120 88q-4 3-8.5 1t-4.5-7v-34q0-3-2-5t-5-2q-61-2-99-28-50-34-57-111-1-6 4.5-8t9.5 2q19 23 41 35 20 10 46 13 19 3 54 3 4 0 6-2.5t2-5.5v-34q0-5 4.5-7t8.5 1l120 88q3 3 3 7t-3 6zm-6-127q-19-23-41-34-20-11-46-14-19-2-54-2-4 0-6 2t-2 6v33q0 5-4.5 7t-8.5 0l-120-89q-3-2-3-6t3-7l120-88q4-3 8.5-1t4.5 7v34q0 3 2 5.5t6 2.5q60 1 98 27 50 35 57 111 1 6-4.5 8.5T636 619zm147-413l-179-30q-12-2-15-15l-8-33q-4-20-14-26-6-3-22-3h-90q-16 0-23 3-10 6-13 26l-8 33q-2 13-15 15l-179 30q-19 3-31.5 14.5T173 249v28q0 9 6.5 15t15.5 6h610q9 0 15.5-6t6.5-15v-28q0-17-12.5-28.5T783 206z"/></svg>