<svg xmlns="http://www.w3.org/2000/svg" viewBox="0 0 1000 1000"><path d="M844 610q17-20 24-47 6-22 5-53t-18-67q-20-43-55-69-42-32-97-33-35-1-67 28-10 9-23 27-19 25-25 45-8 27 6 43 6 6 16.5 4t16-8.5 6-3-3 9-10 10.5-16.5 7q-13 4-23 0-12-5-19-21-4-11 .5-30t15.5-35q17-24 47-50 3-2 3.5-6.5T625 352q-15-21-45-37-39-22-86-22-80 0-150 84l-2 3q-9 9-18 25-11 21-15 38-4 22 5 33.5t22 9.5q8-2 14-7 7-6 7-4 1 10-15 22-5 4-15 6-12 2-22-1-12-4-17.5-17.5T285 451t14-37q9-15 40-48l4-4q6-7 3.5-13.5T339 339q-11-5-24-6-10 0-20 1l-24 6q-19 5-37 13-26 12-46 28-25 21-41 48-18 31-22 71-3 24 5 50 8 30 26 51 37 43 112 55h3l4 3q77 47 192 47t190-32l3-1q1 0 11-1 54-2 88.5-12.5T818 631l8-6z"/></svg>