<svg xmlns="http://www.w3.org/2000/svg" viewBox="0 0 1000 1000"><path d="M846 502L609 644q-6 3-6 15v180q0 8 6.5 11t12.5-1l240-182q4-3 4-9V514q0-7-7-11t-13-1zM563 841V654q0-8-8-13l-126-70q-7-4-14 .5t-7 12.5v34q0 6-4 10t-10 4l-61-1q-6 0-10-5l-47-52q-4-4-4-10l-1-66q0-8-7-12l-110-65q-7-4-14 0t-7 12l1 165q0 8 6 12l401 243q7 4 14.5 0t7.5-12zm42-259q-1 5 3 7t8 0q100-60 185-110l64-38q-5-75-35.5-107.5T753 323q-61 29-101 96-42 71-47 163zM139 369q94 50 406 216 6 4 12 .5t7-10.5q2-50 18-100 17-57 48-100 35-49 84-72 8-3 7.5-11.5T714 280Q346 133 343 133q-72 0-122 37-43 31-67 86-20 47-22 101 0 8 7 12z"/></svg>