<svg xmlns="http://www.w3.org/2000/svg" viewBox="0 0 1000 1000"><path d="M871 839q-1-4-37-42l-35-39v-10q0-11-.5-16t-7.5-14q-9-13-9-21t7-16l8-7-10-9q-11-10-18-10t-10.5 2-6 6.5-4.5 6-7.5 1.5-8-3.5-1-7 6.5-9 7.5-9.5 3.5-10.5 2-22-5-38.5q-3-15-6-22.5t-13-6.5q-2 0-16 13-12 10-15 11.5t-5-.5-2-6 18-25q11-11 12-14 5-8 3.5-16t-16-33-22.5-32q-3-3-8-3.5t-8 1.5-44.5 41.5T580 520q-6 3-5-4 0-2 37-43 34-39 39-46 8-11 2.5-21.5T629 377t-30-22-17 0q-2 2-56 53l-42 41q-2 2-3 1t-.5-4 39.5-49q37-44 43-53 2-3 2-7.5t-2-7.5q-3-6-21.5-18.5T515 296q-12-3-20 0-2 1-23.5 22.5t-24 22-4.5-2-.5-6.5 27.5-36q4-5 3-11.5t-5-9.5q-11-6-41.5-9t-39.5 1q-3 2-18 14-9 8-11 9-10 3-8-9 1-3 7-9 10-9 10.5-16t-9.5-21l-10-11-7 7q-9 8-16.5 9t-20.5-9q-9-7-14-8t-16-1h-10l-39-35q-39-35-42.5-36.5t-7-1.5-5.5 2 1 11q2 3 37 42l36 38v11q0 11 .5 15.5T252 282q11 14 10 21t-9 16l-8 8 13 11q15 11 22 10 2 0 7 2t6.5 6-4 17-5.5 18q0 9 7 36.5t10 30.5 10 2.5 9.5 2T318 474q-4 8-4 12-1 14 26 55 30 44 71 84t80 62q32 18 48 18 11 0 21-10 4-3 5.5-2.5t0 8 .5 10.5q4 7 15 12 15 8 41 9 37 3 46-4 1-2 3-1 5 1 5.5 5t-.5 9l-1 4q0 7 10 20 5 7 10 12l8-8q9-8 16-9t20 9q9 7 13 8 9 2 28 1l38 35q39 36 42.5 37.5t7 1 5.5-2.5-2-10zm-259-89q-3-5-15.5-8t-18.5 0q-4 1-16 9-26 15-44 23-33 14-64 15-67 2-104-68-8-16-31-79l-13-34q-14-37-35-60-25-28-59-32-28-3-49 8-18 9-29 25-8 14-9 26.5t2.5 17.5 8.5 5q8 0 10-7 6-19 18-32 19-18 47-14 32 4 56 43 13 24 33 80 14 42 22 58 29 57 70 79 32 17 74 12 77-8 143-59 1-1 2-4t1-4z"/></svg>