<svg xmlns="http://www.w3.org/2000/svg" viewBox="0 0 1000 1000"><path d="M744 452q0-60-28-112.5T639 253t-108-42q-4-5-9-9-3-2-7.5-4.5T510 192t8-12q5-5 13-10 5-3 5-4t-5-5q-9-7-16-13-5-5-9-15-4-6-6-6t-5 6q-5 10-10.5 15.5T470 161q-6 4-6 5t5 4q8 5 13 10 9 9 9 12t-5 5.5-7.5 4.5-7.5 8l-2 1q-54 7-101 37-93-52-111-28-7 10 1 44.5t28 72.5q-29 54-29 116t29.5 116 81.5 87.5T482 695q-11 3-23 11t-12 14 4 10q2 2 8.5 6t9.5 7 3 7q0 18-23 34-7 3-18 8-6 2-8 4t-2 7v10q0 5 6 5h43q8 0 8 3t-5 5-15.5 3.5T421 832h-45q-7 0-25.5 15.5t-18.5 20 2.5 5.5 7.5 1h316q5 0 7.5-1t2.5-5.5-18-20-26-15.5h-45v-29q0-5-2-7t-8-4q-11-5-17-8-24-16-24-34 0-4 3-7t9.5-7 8.5-6q4-4 4-10t-12-14-22-11q52-4 98-29 37 19 70.5 26.5t43.5-.5q24-17-27-107 40-60 40-133zm-32 0q0 54-26 101l-2-3q-36-58-99-124-5-59-19-108-19-61-45-75 53 4 96.5 33.5t69 76T712 452zm-163-63q-42-43-89-80 17-25 38-25t35 34q10 27 16 71zm36 86q13 18 20 28 22 31 31 57 12 33-1.5 46T562 596q18-53 23-121zm-97-233q-26 10-45 54-21-16-43-29v-1q41-21 88-24zM289 452q0-43 17-83l7 10q29 38 55 68 21 26 22.5 24t1-4.5-4.5-7.5l-4-7q-18-36-30-65-22-58-10-70t38-5q22 5 49 22-5 20-8 42l-3 18 2-1q3-1 5.5-4t4.5-9q4-20 12-38l52 37q-31 2-53 25t-22 55.5 23.5 56T500 539q27 0 48-16-8 51-22 77-1 0 0 1-12 20-28 20-28 0-49-43-12-25-18-54-2-8-7-12-3-1-4-1h-1l3 21q4 25 11 47 9 31 21 52 15 25 35 32-55-2-101-31t-72.5-76.5T289 452zm231 211q18-9 32-41l20 15q8 6 13 9-32 14-65 17z"/></svg>