<svg xmlns="http://www.w3.org/2000/svg" viewBox="0 0 1000 1000"><path d="M885 292q-2-1-14 1t-21 4q-3-34-31.5-66.5T756 193q-21-4-40 7-17 9-25.5 24t-.5 23q2 2 14 4 16 2 24 5 13 6 17 20 8 23 2 38.5T726 334l-102 31q-11 4-31 11-25 10-40 13-24 6-53 6t-53-6q-15-3-39-13-20-7-31-10l-36-11q-100-31-143-43-74-21-83-20-25 2-24 33 1 17 9 41l1 2q26 79 64 140 53 86 109 94 44 6 84-5 23-7 62-28 26-13 39-18 21-9 41-10 19 1 39 9 14 5 37 17-19 35-53 98-40 77-45 88l-7 16q-8 16-9 23-3 11 2.5 15t16.5-5q6-4 17-16l3-4q20-20 72-81 66-78 87-98 33 3 66-1 56-8 109-94 38-61 64-140l1-2q8-25 9-41 1-31-24-33zM280 522q-33-4-58-34-21-24-32-59-10-29-9-46 1-12 60 6 51 16 114 43.5t72 37.5-13.5 24-58.5 22q-40 10-75 6zm440 0q-35 4-75-6-36-8-58.5-22T573 470t72-37.5T759 389q59-18 60-6 1 17-8 46-12 35-33 59-25 30-58 34z"/></svg>