<svg xmlns="http://www.w3.org/2000/svg" viewBox="0 0 1000 1000"><path d="M870 72H458q-24 0-41 17t-17 41v20q0 45-22.5 83T317 293.5 234 316H130q-24 0-41 17t-17 41v496q0 24 17 41t41 17h496q24 0 41-17t17-41V766q0-45 22-83t60.5-60.5T850 600h19q25 0 42-17t17-41V130q0-24-17-41t-41-17zM685 334q-65-11-122.5 11.5T473 418q-34 52-28 120h73L378 680 238 538h73q7-72 42-127 34-52 88-80.5T557 303q65 0 128 31zm189 179q0 14-9.5 24T841 547H668q-14 0-24 9.5T634 580v265q0 14-9.5 23.5T601 878H155q-14 0-23.5-9.5T122 845V399q0-14 9.5-23.5T155 366h172q-23 30-38 64h-78q-10 0-17.5 7.5T186 455v334q0 10 7.5 17.5T211 814h334q10 0 17.5-7.5T570 789V544q0-24 17-41t41-17h171q6 0 10.5-4t4.5-10V201q0-6-4.5-10.5T799 186H528q-6 0-10 4.5t-4 10.5v57q-31 4-61 15V159q0-14 10-23.5t23-9.5h355q14 0 23.5 9.5T874 159v354z"/></svg>