<svg xmlns="http://www.w3.org/2000/svg" viewBox="0 0 1000 1000"><path d="M295 418l-9 9-9 8q-5 5-7 8-3 5-3.5 10t1 8.5 3.5 2.5q5 0 18-18 11-15 13-21t-.5-7.5-6.5.5zm447-95q2 0 6.5-3t6.5-2q4 2 26 20 41 32 46 32t13.5-11 6.5-17q-5-9-19-22t-24-18q-4-2-10 1.5t-11 3.5q-1-1-3.5-4.5t-.5-6.5q6-8 6.5-17t-5.5-14q-9-6-17 0l-1 1q-3 2-9-3l-38-32q-36-30-57-47l-17-14q-29-24-44-33-25-13-51-13-19 1-42 15-20 11-32 25-19 22-26 35-8 14-8 30 0 6 12 13.5t24 8.5q7 1 17 0 7 0 7 1 1 5-11.5 7.5T459 262q-7 0-21-5.5t-20-6-11.5 6.5-1.5 14l3 4q5 8 4 13-1 3-9 18l-13 27q-18 38-28 52-19 25-34 14-2-1-3.5-.5T323 401q3 19-11 42-11 18-30 35-15 15-21.5 18t-14.5 3q-5 1-16 0h-2q-3 4-1 8l4 8q4 9 3 12-1 7-10 13-6 4-8 7-5 6-4 16 8 24 126 33 66 6 147 6 102-1 144-2 49-1 81-6 26-3 70-13 3-1 5.5.5t-.5 4.5q-23 14-73 22-37 5-100 8l-27 1q-60 3-84 3-103-1-162-5-100-6-140-23-13-5-24-11t-13-10-6-4-4 3q-2 15 16 30 16 13 40.5 22t44.5 11q3 0 3 3t-2.5 5.5-8.5 5.5q-4 2-5 3.5t1 3.5q4 6 10 21 11 26 23 42 9 13 34 28 17 11 23 18 10 10 9 23-1 6-6 10-4 3-13 7-11 5-16 9-8 6-8 16 0 16 24 28 19 9 49 14 26 4 50.5 3.5T452 869q5-3 4-12 0-7 1-10 2-6 8-9 13-9 30.5-8.5T524 841q4 4 4 14t5.5 14.5 34 4.5 57.5-6q34-6 51-18 14-10 12-26-1-8-7-12-4-3-14-7t-14-7q-7-5-8.5-14.5T653 764q7-7 25-19 21-15 28-23 10-12 24-44 12-26 18-33 7-9 19-17 8-5 24-12 20-10 27-16 11-10 11-23 0-8-4-13-14-13-33-21-11-4-28-8-10-3-11-4v-2q-2-3-2-4.5t1-4.5v-2q5-25-14-54-14-23-39-43-21-18-28-18l-8 1q-11 0-17-3-13-7-25-22-9-12-15-25l-13-26q-14-26-20-39-1-6 1.5-10t1.5-10q-2-14-19-26l-3-1q-16-13-16-33 0-24 26-28 11-1 31 12 12 8 37 29l101 79q-5 5-4 9t5 8 8 5zm-85 95h3l2 2q5 20 26 40 14 13 41 31 9 7 6 8.5t-12-1-21-8.5-20-11q-12-9-18-18-7-11-8-26v-4q0-13 1-13zm-135 98q-6 5-14.5 8t-14.5 3q-14 0-24-8t-11-23q14 15 31 15t25.5-13.5-.5-33.5q16 13 16 29t-8 23zm24-58q-2-1-4-3-14-10-21-13-10-5-27-6-26-2-45.5 15.5T430 492q1 26 27 44-16 2-29-5.5T409 509t-3-28q4-25 24-41 17-15 41.5-18.5t45.5 6 29 30.5z"/></svg>