<svg xmlns="http://www.w3.org/2000/svg" viewBox="0 0 512 512"><path d="M445 37H234q-12 0-20.5 8.5T205 67v10q0 35-25 60t-60 25H67q-13 0-21.5 8.5T37 192v253q0 13 8.5 21.5T67 475h253q13 0 21.5-8.5T350 445v-53q0-35 25-60t60-25h10q13 0 21.5-8.5T475 278V67q0-13-8.5-21.5T445 37zm-95 134q-32-6-62 6t-46.5 38-13.5 60h37l-71 73-72-73h37q5-49 34-80.5t72-38 85 14.5zm98 92q0 7-5 12t-12 5h-89q-7 0-12 5t-5 12v136q0 7-5 12t-12 5H79q-7 0-12-5t-5-12V204q0-7 5-12t12-5h89q-12 16-20 33h-40q-5 0-9 4t-4 9v171q0 5 4 9t9 4h171q5 0 9-4t4-9V279q0-13 8.5-21.5T321 249h88q3 0 5.5-2t2.5-6V103q0-3-2.5-5.5T409 95H271q-4 0-6 2.5t-2 5.5v29q-16 2-31 8V81q0-7 5-12t12-5h182q7 0 12 5t5 12v182z"/></svg>