<svg xmlns="http://www.w3.org/2000/svg" viewBox="0 0 1000 1000"><path d="M210 573l30-30q22 14 48 21v43q0 12 8.5 20.5T317 636h32q12 0 20.5-8.5T378 607v-42q25-6 48-19l31 30q8 9 20 9t21-9l22-22q9-9 9-21t-9-20l-29-30q14-22 20-48h44q12 0 20-8.5t8-20.5v-32q0-12-8-20.5t-20-8.5h-42q-7-25-20-48l31-31q8-8 8-20t-8-21l-23-22q-8-9-20-9t-21 9l-29 29q-23-13-49-20v-44q0-12-8.5-20t-20.5-8h-32q-11 0-19.5 8t-8.5 20v42q-26 7-49 20l-31-31q-8-8-20-8t-21 8l-22 23q-9 8-9 20t9 21l30 29q-14 23-21 49h-43q-12 0-20.5 8.5T87 370v32q0 11 8.5 19.5T116 430h42q6 26 19 49l-30 31q-9 8-9 20t9 21l22 22q9 9 21 9t20-9zm125-268q34 0 58.5 24.5T418 388t-24.5 58-58.5 24-58-24-24-58 24-58.5 58-24.5zm109 392h-61q-9 0-15 6t-6 14v133q0 12 11 18 5 2 10 2h132q9 0 15-6t6-14v-62l230-301q4-5 3.5-10.5T765 467q-4-3-9.5-3.5T746 466zm455-378q-5-2-10 0t-8 7L714 667l-56 27q-7 4-10 12t1 16l59 118q4 8 12 10.5t15-1.5l119-58q8-4 10.5-12t-1.5-16l-27-55 73-373q1-5-2-10t-8-6z"/></svg>