<svg xmlns="http://www.w3.org/2000/svg" viewBox="0 0 512 512"><path d="M187 296q0-7 1-14 1-5-1.5-9t-6.5-5l-28-13q-30-11-37-21-10-13 3-26 7-7 27-18l6-3q18-10 28-12 15-4 32 1 11 2 24 7 8 3 15-2 34-22 75-22h2q8 0 10-7 2-5 10.5-16t10.5-16q5-8 2-16-4-10-19-16-8-4-26-8l-33-7q-25-6-37-10-21-6-36-14l-8-6q-11-9-16-12-10-5-15-2-9 5-10 33-1 16 1 35 4 39 17 62-47 13-81.5 49T49 291q-8 27-8 50 0 30 13 47 9 12 27 24 10 7 32 19l6 4q42 22 75 29 40 8 80-3 24-7 43-21 2-2 1.5-4t-3.5-2q-35-3-64.5-22T204 362.5 187 296zm-51 48q-12 0-14-18.5t6-36 22-16.5q16 1 17.5 18.5t-9 35T136 344zm345 69q-28-28-56-55-6-6-2-13 13-27 10.5-57.5T413 232t-46.5-36.5T307 189t-57.5 31.5-31.5 57 6 58.5 34.5 46.5 53.5 22 58-8.5q7-3 12 2l57 57q8 9 20.5 8.5t21-9T489 434t-8-21zM251 299q-1-23 11.5-42t33.5-28 43-5 38.5 20.5T398 283t-5 43-28 33-42 12q-29-1-50-22t-22-50z"/></svg>