<svg xmlns="http://www.w3.org/2000/svg" viewBox="0 0 1000 1000"><path d="M788 415V300q0-78-39-145-38-65-103-103-67-39-145-39T356 52q-65 38-103 103-40 67-40 145v115q-31 0-57.5 15.5T114 472t-15 58v344q0 32 15 58t41.5 41.5T213 989h575q31 0 57.5-15.5t42-41.5 15.5-58V530q0-32-15.5-58t-42-41.5T788 415zM328 300q0-47 23-87t63-63.5 86.5-23.5 87 23.5 63 63.5 22.5 87v115H328V300zm221 515v45q0 9-6.5 15.5T527 882h-52q-9 0-15.5-6.5T453 860v-45q0-17 22-17h52q22 0 22 17zm132-173q0 23-8 37-7 12-20 21-9 5-30 14l-31 13q-20 7-29 15-14 12-14 32h-96l1-13q2-16 6-29 6-17 16-26 35-29 77-46l13-5q14-5 18-7 7-5 7-12v-20q0-9-11-11-8-2-36-2h-90q-22 0-34 15-9 12-9 22v25h-90v-26q0-33 5-50 8-31 34-47 32-20 94-20h82q85 0 121 25 24 17 24 42v53z"/></svg>