<svg xmlns="http://www.w3.org/2000/svg" viewBox="0 0 1000 1000"><path d="M753 252h-10q-9-12-15-19l-5-4-9 8q-12 10-26 15h-46q-9-4-18-13-6-6-19-20-15-17-25-27-21-21-53-28-16-3-28-2h-13q-17 2-31 8-21 7-36 22-10 10-26 27-12 14-18 20-10 9-18 13h-47q-14-5-25-14l-10-9-4 4q-7 7-15 19h-13q-14 0-28.5 16T200 300v382q0 19 13 32.5t29 13.5h52q13 12 13 26 0 8-9 14l-9 5-4-5q-4-5-11-9-9-5-21-5-34 0-34 41 0 17 18 28 22 13 63 13 13 0 33-11 10-6 18-12l79-85h139l79 85 9 6q10 7 20 11 13 6 22 6 41 0 63-13 18-11 18-28 0-41-34-41-12 0-21 5-7 4-11 9l-4 5-9-5q-9-6-9-14 0-14 13-26h48q18 0 31-13t13-33V298q0-15-14-30.5T753 252zm-21 392q0 15-8 20-5 3-20 3H289q-11 0-15.5-6.5T269 638V337q0-24 21-24h414q11 0 19 8.5t8 20.5v302h1zM400 386h200v84H400v-84zm0 150h200v78H400v-78z"/></svg>