<svg xmlns="http://www.w3.org/2000/svg" viewBox="0 0 1000 1000"><path d="M722 591q-8-8-19-10l-91-19-126-125q-4-4-6-10.5t0-12.5l20-60q5-17 22-21l49-12 80-80q6-6 8.5-15t.5-18q-19-72-73-111-36-26-80-34-18-3-31 10l-68 67q-10 10-10 25l1 21q1 7-4 12.5t-12 6.5l-32 3q-12 2-21 10l-21 22-3-3q-10-10-27-6.5T248 248t-17.5 31 6.5 27l3 3-21 21q-9 8-10 21l-4 32q-1 7-6 11.5t-12 4.5l-21-1q-15-1-25 10l-71 70q-9 10-7 23 7 45 33 82 40 59 118 78 14 3 25-7l83-84 11-48q5-17 21-23l60-19q6-2 12.5-.5T438 486l125 125 18 90q2 11 9 19l200 215 7 2q9 1 20 0 16-3 32-12 21-11 42-31 30-29 40-55 7-18 3-33-2-7-6-11z"/></svg>