<svg xmlns="http://www.w3.org/2000/svg" viewBox="0 0 1000 1000"><path d="M768 240h-12q-9-12-16-20l-5-4q-15 17-36 24h-49q-9-4-19-14l-20-20q-16-19-26-29-16-15-38-24-15-6-33-7l-14-1-14 1q-17 1-33 7-22 9-37 24-11 10-27 29-13 15-20 20-10 10-18 14h-50q-21-7-36-24l-5 4q-7 8-16 20h-13q-15 0-30 17t-15 33v402q0 21 13.5 35t29.5 14h55q14 13 14 28 0 7-9 14-5 3-10 5l-4-5q-5-6-12-9-9-5-22-5-36 0-36 42 0 18 20 30 22 14 65 14 10 0 24-6 10-5 21-12l9-6 84-90h146l84 90 8 6q11 7 21 12 14 6 24 6 43 0 66-14 19-12 19-30 0-42-36-42-12 0-22 5-7 3-12 9l-3 5-10-5q-10-7-10-14 0-15 15-28h50q18 0 32-13.5t14-35.5V289q0-16-15-32.5T768 240zm-23 413q0 16-8 21-6 3-22 3H279q-12 0-16-7t-4-24V330q0-26 21-26h435q13 0 21.5 9t8.5 22v318zM396 381h210v89H396v-89zm0 158h210v82H396v-82zM242 740h43q24 24 9 39-6 5-13.5 6t-14.5-2l-17-9q-15-7-30-1-10 4-14 15-8 23 4 41 10 17 32.5 25.5t46 6T325 843l101-103h148l101 103q14 15 37.5 17.5t46-6T791 829q12-18 4-41-4-10-14-15-15-6-30 2l-17 8q-7 3-14.5 2t-13.5-6q-15-15 9-39h44q24 0 40-16.5t16-39.5V296q0-23-16-39.5T759 240h-1q1-12-9.5-19t-22.5-5q-9 1-18 6l-7 4q-18 16-41 13-26-4-36-20-19-28-46-47-36-27-78-27-41 0-78 27-27 19-45 47-11 16-37 20-23 3-41-13l-7-4q-9-5-17-6-12-2-22.5 5t-9.5 19h-1q-23 0-39.5 16.5T186 296v388q0 23 16.5 39.5T242 740zm505-100q0 13-9 22.5t-22 9.5H286q-13 0-22.5-9.5T254 640V340q0-13 9.5-22t22.5-9h430q13 0 22 9t9 22v300zM411 381h180q6 0 10.5 4.5T606 396v59q0 6-4.5 10.5T591 470H411q-6 0-10.5-4.5T396 455v-59q0-6 4.5-10.5T411 381zm0 158h180q6 0 10.5 4.5T606 554v52q0 6-4.5 10.5T591 621H411q-6 0-10.5-4.5T396 606v-52q0-6 4.5-10.5T411 539z"/></svg>