<svg xmlns="http://www.w3.org/2000/svg" viewBox="0 0 1000 1000"><path d="M412 96l81 56 36 73 60 27 72 69 9 36-33 33-31 90-56 66-55 175-17 87-27 65h-25l-21-24-48-111-50-149-34-34-54-78-9-30-24-9-27-33-6-33 12-18 66-72 39-46 24-35 54-72zm321 592q-19-19-26-41-4-13-5-35-1-17-4-23-8-15-15-15t-16 15q-3 5-4 22 0 22-4 35-7 24-25.5 42.5T593 713q-13 4-35 5-18 1-24 4-14 6-13.5 15t13.5 16q6 4 24 5 22 2 35 6 22 7 39.5 24.5T657 828q4 13 5 35 2 18 5 23 9 14 16 14.5t15-14.5q3-6 5-23 1-22 5-35 7-22 25-40t42-26q13-4 36-5 16-1 20-4 12-4 12.5-14.5T831 722q-5-3-21-4-22-1-35-5-23-7-42-25z"/></svg>