<svg xmlns="http://www.w3.org/2000/svg" viewBox="0 0 1000 1000"><path d="M450 292q2 5 4 8l2 1h88l2-1q2-3 4-8l36-151 1-6q-1-7-8-12-9-7-27-11-52-10-104 0-18 4-27 11-7 5-8 12l1 6zm50 606q79 0 146-32 64-31 102-85t38-118q0-69-43.5-125.5T627 452V260l17-17q18-20 20.5-32t-8-23.5T632 176h-25l-33 124v192q18 4 36 11 32 14 58 36l8 6H457l-19 6q-23 8-42 20-27 17-42 38-19 26-19 58 0 72 19 116 10 23 20 31-23-11-42-27-31-25-47-57.5t-16-67 16-66.5 47-57q26-22 57-35 17-7 35-12V300l-33-124h-25q-13 0-24 11.5t-8.5 23.5 20.5 32l17 17v192q-71 30-114 86t-43 125q0 64 38 118t102 85q67 32 146 32z"/></svg>