<svg xmlns="http://www.w3.org/2000/svg" viewBox="0 0 1000 1000"><path d="M205 780q32 33 72 52 22 11 43 16 3 1 3 4v34q0 5 4 8t9 3l50-8q4 0 6.5-3t2.5-7v-11q0-2 1-3t3-1q42 4 65-19 9-7 7-19l-6-31 5-30q0-3 4-4 65-5 116-30 55-26 86-70 33-47 33-111 0-50-14-98 0-2 1.5-4t3.5-1q54 8 97-19 35-22 51.5-61.5T860 281t-31-87.5-66-65.5-82.5-26-78.5 20.5-52.5 63.5-9.5 88q0 2-2 3.5t-4 .5q-61-23-126-23-217 0-217 276 0 25 5 49 1 3-2 5l-28 12-15 7q-7 3-10.5 22t-.5 46q4 47 65 108zm142-94q15 0 26 13.5t11 32.5-11 33-26 14-26-14-11-33 11-32.5 26-13.5zm-96-8q10 0 17 13.5t7 32.5-7 33-16.5 14-16.5-14-7-33 7-32.5 16-13.5z"/></svg>