<svg xmlns="http://www.w3.org/2000/svg" viewBox="0 0 1000 1000"><path d="M288 253q-1-3 0-4 51-43 50-43 1-1 3.5-1.5t3.5.5q10 5 18 5 25 0 32-8l19-25q15-19 23.5-26.5T494 127l6-2q1-1 3.5 0t3.5 2l8 12q1 2-.5 4t-2.5 2q-8 2-20 7-16 7-28 15-5 3-10 9.5t-8 12.5-2 38l1 5q-1 8-12 23-8 10-8 15 0 8 11 32l3 6q0 2-1 7l-1 3 6 7.5 6 8.5-3 7 57 64q2 3 2.5 4t-.5 3l-7 7q-4 5-11 16l-1 3q-3 4-1.5 6t4.5 0q8-5 12-10l13-13q1-1 3 1l72 82q3 3 1 5-15 17-27 29-2 2-1 4t3 1q6-3 22-15 3-2 7-6l4-3q2-2 4 1l96 102q39 41 105 110l20 21q2 2 1 3l-3 2-7 7q-8 10-26 31l-4 4q-2 3-.5 4t4.5-1l2-2q20-15 29-22 5-5 9-10l4-4q2-2 4 0l24 25q2 2 3 5.5t1 6.5l-2 13q-4 38-6 39l-4 4q-13 13-16.5 14t-30.5-.5-29-2.5-83-111l-46-63q-44-61-84-114L399 378l-4 2q-1 2-3 0l-5-6q-8-9-9-9.5t-3.5 1-4.5 1-17-10.5l-16-11q-3-1-6 1l-51 47q-4 4-14 33-16 44-30 67-17 29-42 62-22 27-43 48-3 2-5 0l-12-12-1-2q0-1 1-2 53-76 70-118 19-45 22-96 1-13 3-15 4-5 13.5-18.5T252 325v-5q0-8 4-11 8-8 18-20 15-16 16-21 2-8-2-15z"/></svg>