<svg xmlns="http://www.w3.org/2000/svg" viewBox="0 0 1000 1000"><path d="M701 411q5-8 12-14l-13-29q3-23-7-44t-45-33q-10-4-12-14-9-59-30-109-19-43-42-71-21-25-36-27-18-2-33 47l-47 60-26 31-8 4q-10 6-16 15-10 13-13 30-10 58-8 83l-2 1q-36 7-71 49-26 32-30 68.5t17 63.5l8 40 62-1q25 15 72 23 13 4 27 3l7 1 1 62q-63 4-104 17t-41 30q0 1 15 37l-6 2 16 23 46 107q4 15 45 23l-1 1q0 6 9 1 31 5 62 5h16q82 0 85.5-5.5T610 880q6-2 11-7 2-1 26-59l51-77-4-2q7-7 7-14.5t-8-16.5l2-7q0-17-41-30t-104-17v-60q60-3 102-17 7 1 13 0l22 6 6-13q18-8 29-28 14-23 14-57-1-45-35-70zM379 754q28 13 64 20 39 8 78 8 23 0 45-2v24l-31 3q-102-8-148-30z"/></svg>