<svg xmlns="http://www.w3.org/2000/svg" viewBox="0 0 1000 1000"><path d="M499 270q-2 3-4 7-5 9-9 18-4 13-4 25t4 25q4 10 9 19l4 7 4-7q5-10 9-19 4-13 4-25 0-17-9-35-4-9-8-15zm349 360q1-5 2-9 2-12 1-24-3-17-12-31t-20-22q-8-6-15-8h-6l-4-15q-6-17-15-32-13-20-31-31-22-15-52-15-26 0-51 13h1l1-6q2-8 2-17 1-19-1-34l-9 3q-10 5-21 15h-1q-11 10-13 15-5-33-25-53-17-18-36-18-15 0-27 10-8 7-13 18l-4 10-4-10q-6-11-14-18-12-10-27-10-19 0-36 18-20 20-24 53-3-5-14-15t-22-15l-9-3-1 10v24q0 9 2 17l1 6h1q-25-13-51-13-30 0-52 15-18 11-31 31-9 15-15 32l-3 15h-6q-8 2-16 8-10 8-20 22-13 20-12 44 1 12 4 20l-7 5q-7 7-12 15-7 12-7 24 0 20 15 33t32.5 13 33.5-9q5 5 16 9l1 1q7 3 21 5.5t20.5 2.5 11.5-4l-9-4q-11-5-17-12-10-10-10-23.5t16-26.5 44-21 60.5-8 54.5 7q17 5 36 17 14 9 25 20 8 9 10 15l1 5q1 5 3 8.5t6 5.5l3 2 4-2q4-2 5.5-5.5t2.5-8.5l2-5q2-6 10-15 10-11 25-20 19-12 35-17 23-7 55.5-7t60 8 43.5 21 16 26.5-9 23.5q-7 7-17 12l-10 4 4 2q4 2 9.5 2t19.5-2.5 21-5.5q11-4 17-10 16 9 33 9t32-13 15-33q1-17-12-32-6-8-12-12zm-65-55q7-10 13-19l5 1q5 2 10 6 7 5 11 12.5t3 16.5q0 7-2 13l-3 6-8-5q-10-6-19-8-14-4-26-6l6-6q7-7 10-11zM606 464q3-11 7-18t12-13l7-5 1 9q-1 10-3 17-6 14-25 29 1-11 1-18v-1zm88-4q27 0 41 15 7 7 9 14l-17-1q-19-1-35 1-13 3-29 12l-14 8h-9q-10-1-16 1-11 2-23 7l14-15q17-17 34-27 24-15 45-15zm-182-43q4-13 13.5-22.5T544 385q17 0 28 28 9 23 9 50t-24 62q-16 25-42 50 11-17 18-36 13-31 13-55.5T533 444q-10-10-24-14zm-13 34q3 0 6 1 7 2 11 9 7 10 7 28.5t-7 38.5q-4 15-11 29l-6 11-6-11q-7-14-11-29-7-20-7-38 0-26 12-35 6-5 12-4zm-45-66q9 0 18.5 9.5T486 417l3 13q-15 4-24 14-13 15-13 39.5t13 55.5q7 19 18 36-26-26-42-50-24-36-24.5-62.5T426 413q11-28 28-28zm-89 43q4 2 8 5 8 6 11.5 12.5T392 464v1q0 7 1 18-18-14-25-29-3-7-3-17v-9zm-61 32q21 0 45 15 17 10 34 27l14 15-8-3q-8-3-14.5-4.5T358 509h-9l-14-8q-16-9-29-12-25-4-52 0l4-7q5-9 14-14 13-8 32-8zM176 575q6-10 17-16 5-3 9-3l13 19q3 4 10 11l6 6-8 1q-9 2-18 5-14 4-27 13l-3-6q-2-6-2-13-1-9 3-17zm17 106q0 5 1 11-29-13-24-39 3-16 23-27 18-10 40-13 16-2 35 2-75 29-75 66zm89-138q-4 9-3 25l1 14-7-1q-8-2-15-6-10-5-16-12-18-21-17-37v-1q0-4 7-11 9-9 23-12 19-3 37 3 11 3 18 11l-6 3q-6 4-11 9-7 7-11 15zm64-16q20 0 46 19 14 9 23 18l-20-3q-22-2-38-1-24 2-43 11l-1-11q0-13 6-21 8-12 27-12zm77 67q-6 3-9 9l-10-2q-14-2-28-3-21-1-42 1 7-8 19-14 18-9 41-9 29 0 41 12zm104 33q-16 11-28 32l-8-12q-10-13-19.5-19.5T451 617l-9-3 5-4q6-4 12-4 9 0 17.5 7t16.5 19l6 11 6-11q8-12 16-19 12-10 25-6 6 3 10 7l-9 3q-11 4-20 10zm57-24q-1-1-2-3-3-4-8-7t-11-5q12-12 41-12 39 0 60 23-21-2-41-1-15 1-29 3zm99-32q-6-2-12-5-15-5-30.5-6t-37.5 1l-20 3 11-10q13-11 26-17 18-10 32-10 19 0 27 12 6 8 6 21zm33-28q-4-8-11-15-5-5-11-9l-6-3 5-4q6-5 13-8 17-6 37-2 14 2 23 11 7 7 7 12 1 17-17 37-6 8-16 13-7 3-15 5l-7 2 1-14q1-16-3-25zm88 149q1-6 1-11 0-38-76-66 18-4 35-2 23 3 40 13 21 12 24 27 5 26-24 39z"/></svg>