<svg xmlns="http://www.w3.org/2000/svg" viewBox="0 0 1000 1000"><path d="M897 198q-24-6-87-14-81-10-164-15-13-33-47-56-42-29-99-29t-99 29q-34 23-48 56-82 5-163 15-63 8-87 14-23 5-35 18-10 11-14 27-2 12-1 25l2 10 32 296q32 298 33 306l1 6q3 14 7 20 8 10 27.5 10t25.5-14q3-7 3-24l2-100q0-21 15-36t36-16q184-4 263-4t263 4q21 1 36 15.5t15 35.5l2 101q0 17 3 24 6 14 25.5 14t27.5-10q4-6 7-20l1-6q1-8 33-306l32-296 2-10q1-13-1-25-4-16-14-27-12-13-35-18zm-43 111q-3 28-19 189l-15 156-113-3q-128-3-206-3h-1q-78 0-207 3l-112 3-15-156q-16-161-20-189-2-20 2-30t15-14q7-3 29-6h3q164-25 305-25h1q142 0 305 24l3 1q21 3 29 6 11 4 15 13.5t1 30.5zm-457 24h162q4 0 7 3t3 7v227q0 4-3 6.5t-7 2.5H397q-4 0-7-2.5t-3-6.5V343q0-4 3-7t7-3zm409 11l-122-20q-4 0-7.5 2.5T672 333l-25 158q-1 4 1.5 7t6.5 4l122 20q4 0 7.5-2t4.5-6l25-159q1-4-1.5-7t-6.5-4zm-469 17q0-4-3.5-6.5T326 353l-122 20q-4 0-6.5 3.5T196 384l25 158q1 4 4 6.5t7 1.5l123-20q4 0 6.5-3.5t1.5-7.5z"/></svg>