<svg xmlns="http://www.w3.org/2000/svg" viewBox="0 0 1000 1000"><path d="M801 565q15 21 8.5 43t-27 29.5T741 628l-1 2q-15-8-117-169-2-3-4.5-2t-2.5 4l32 418q27 5 41.5 20t11 39-27.5 23h-93q-10 1-20-8t-12-19l-19-239q1-11-8-18.5t-21-7.5-21 7.5-8 18.5l-19 239q-2 10-11.5 19t-19.5 8h-94q-24 0-27.5-23.5t11-38.5 41.5-20l32-418q1-3-2-4t-5 1Q275 622 260 630l-1-2q-21 17-41.5 9.5t-27-29.5 8.5-43l1-1q34-62 77-125 52-76 93-115 2-2 5-2t5 2q35 28 77.5 37.5t85 0T620 324q2-2 5-2t5 2q41 39 93 115 43 63 77 125zM500 37q-38 0-69.5 18.5T380 106t-19 69.5 19 69.5 50.5 50.5T500 314t69.5-18.5T620 245t19-69.5-19-69.5-50.5-50.5T500 37z"/></svg>