<svg xmlns="http://www.w3.org/2000/svg" viewBox="0 0 1000 1000"><path d="M526 39q-11-10-26-10t-26 10Q358 144 274 252 137 428 137 552q-1 40 7 79 16 79 63 132 45 51 112 70.5t144 5.5l-11 98q-2 13 7.5 23.5T483 971h34q14 0 23.5-10.5T548 937l-11-98q77 14 144-5.5T793 763q47-53 63-132 8-39 7-79 0-124-137-300-84-108-200-213zm177 525q-56 19-98 44-49 30-72 64l1 46q0 14-9.5 20.5T500 745t-24.5-6.5T466 718l1-46q-23-34-72-63-42-26-98-45-13-5-16-18t6-22v-1q10-10 24-7 37 9 80 31 46 23 78 50l3-98q-16-27-50-51-30-21-70-36-12-5-15.5-17t4.5-22l1-1q5-5 12-7.5t14 .5q62 20 106 55l4-171q0-9 6.5-15.5T500 227t15.5 6.5T522 249l4 171q44-35 105-55 8-3 15-.5t12 7.5l1 1q8 10 4.5 22T648 412q-40 15-70 36-34 24-50 51l3 98q32-27 78-50 43-22 80-31 14-3 24 7v1q9 9 6 22t-16 18z"/></svg>