<svg xmlns="http://www.w3.org/2000/svg" viewBox="0 0 1000 1000"><path d="M633 613q8 19-2 36.5T603 667H113q-18 0-28-17.5T83 613q18-41 58-72.5t96.5-49.5T358 473t120.5 18 96.5 49.5 58 72.5zm-18 112H101q-12 0-20.5 8.5T72 754v1q0 12 8.5 20.5T101 784h514q12 0 20.5-8.5T644 755v-1q0-12-8.5-20.5T615 725zm29 152v-5q0-15-10.5-25.5T608 836H108q-15 0-25.5 10.5T72 872v5q0 23 16 38.5t38 15.5h464q22 0 38-15.5t16-38.5zm264-630H645V73q0-8-6-13.5T625 54H494q-8 0-13.5 5.5T475 73v32q0 8 5.5 13.5T494 124h80v123h-93q-17 0-29.5 12T439 288q0 13 7 23.5t19 15.5l14 105q73 20 127.5 61.5T685 590q10 23 7.5 48T677 684l-5 6q14 12 21.5 29t7.5 35v1q0 33-22 57 22 26 22 60v5q0 29-14 54h119q16 0 27.5-10t13.5-26l77-568q12-5 18.5-15.5T949 288q0-17-12-29t-29-12zM190 448h-1 1z"/></svg>