<svg xmlns="http://www.w3.org/2000/svg" viewBox="0 0 1000 1000"><path d="M712 551q-31 29-50.5 67T636 698q-2 16-13.5 26T595 734H405q-16 0-27.5-10T364 698q-6-42-25.5-80T288 551q-44-41-67-97.5T198 333q0-78 41-146 40-66 108-104 71-40 153-40t153 40q68 38 108 104 41 68 41 146 0 64-23 120.5T712 551zm-98 358q6-10 .5-21T597 877H403q-12 0-17.5 11t.5 21q19 28 49 43.5t64 15.5h2q34 0 64-15.5t49-43.5zm16-102v-2q0-9-6.5-15.5T608 783H392q-9 0-15.5 6.5T370 805v2q0 9 6.5 15.5T392 829h216q9 0 15.5-6.5T630 807z"/></svg>