<svg xmlns="http://www.w3.org/2000/svg" viewBox="0 0 1000 1000"><path d="M737 263H535v-31q0-26 20.5-42t44.5-9q45 10 85.5-10.5T744 108l12-30q3-8 2-17.5T751 43t-14.5-11.5-18-2-17 7.5T690 52l-12 29q-7 18-24.5 27t-36.5 4q-27-7-55-1t-50 23.5-34.5 43T465 232v31H263q-57 0-105 28.5T82 368 54 472v294q0 46 29 81.5t73.5 45T242 881t59-63l61-136h276l61 136q18 42 59 63t85.5 11.5 73.5-45 29-81.5V472q0-56-28-104t-76-76.5T737 263zM412 488q0 8-6 14t-14 6h-76v75q0 8-5.5 14t-13.5 6h-32q-8 0-13.5-6t-5.5-14v-75h-76q-8 0-13.5-6t-5.5-14v-31q0-8 5.5-14t13.5-6h76v-76q0-8 5.5-13.5T265 342h32q8 0 13.5 5.5T316 361v76h76q8 0 14 6t6 14v31zm219 29q-18 0-31.5-13T586 472.5t13.5-32 32-13.5 31.5 13.5 13 32-13 31.5-32 13zm92-181q19 0 32 13t13 31.5-13 32-32 13.5-32-13.5-13-32 13-31.5 32-13zm0 273q-19 0-32-13t-13-32 13-32 32-13 32 13 13 32-13 32-32 13zm92-92q-14 0-25.5-7.5t-16.5-20-2.5-26 12.5-23 23-12 25.5 2.5 20.5 16.5 8 24.5q0 19-13.5 32T815 517z"/></svg>