<svg xmlns="http://www.w3.org/2000/svg" viewBox="0 0 1000 1000"><path d="M914 488q-7-29-23-47-13-16-37-27-15-7-51-20-55-19-88-35-25-13-56-41-19-17-58-57-57-57-88-83-52-43-101-59-60-20-121-3-10-25-31.5-40.5t-48-16.5T162 72t-34 38-7 50.5 22 46.5q-39 44-49 104-8 48 4 113 6 38 27 112 15 54 20 79 9 41 7 69-2 36-13 93-7 38-9 55-2 26 5 46 8 22 29 42 28 27 105 16 64-10 154-44 77-30 147-67 34 6 66-5t55-35.5 31-57.5q89-67 140-126 62-71 52-113zM721 660q-11-41-44.5-68t-76-29-78.5 21-51.5 63-4.5 81.5 44 68.5q-104 51-174 59-67 7-87-27-14-24 11-66t80.5-90.5 130-91T616 514q68-24 117-24.5t63 24.5-5 63-70 83z"/></svg>