<svg xmlns="http://www.w3.org/2000/svg" viewBox="0 0 1000 1000"><path d="M202 895q-43 0-72.5-29T100 795V203q0-28 13.5-51.5t37-37.5 51.5-14h592q28 0 51.5 14t37 37.5T896 203v592q0 42-29.5 71T794 895H202zm232-202q-49 0-66-1-27-2-41.5-8T303 664H179q9 43 27 68 21 29 62 44 46 16 122 16h254q90 0 136-37 55-43 55-140V399q0-100-54-145-46-38-137-38H365q-91 0-141 42-58 48-58 147 0 94 55 139 48 39 137 39h282q19 0 32-5 17-7 30-24v58q0 38-25 59.5T612 693H434zm-37-206q-47 0-70-16-28-19-28-64.5t31-65.5q26-16 75-16h203q43 0 66 16 28 20 28 65t-28 65q-23 16-66 16H397z"/></svg>