<svg xmlns="http://www.w3.org/2000/svg" viewBox="0 0 1000 1000"><path d="M202 895q-43 0-72.5-29T100 795V203q0-28 13.5-51.5t37-37.5 51.5-14h592q28 0 51.5 14t37 37.5T896 203v592q0 42-29.5 71T794 895H202zm452-104q69 0 115-26 40-24 60-65 17-35 17-77 0-46-14-79-20-50-67-62 30-13 49-51 18-36 18-76 0-71-41-110-44-42-131-42H342q-87 0-132 43-41 40-41 109 0 38 22 76t53 51q-47 12-70 62-17 36-17 79 0 42 19 77 21 41 62 65 48 26 117 26h299zm-8-248q39 0 61 19.5t22 53-22 51.5-61 18H362q-40 0-61.5-18T279 615t22-53 61-19h284zm-14-234q35 0 55 15 22 18 22 51.5t-22 51-63 17.5H376q-40 0-61.5-17.5t-21.5-51 21-51.5q19-15 54-15h264z"/></svg>