<svg xmlns="http://www.w3.org/2000/svg" viewBox="0 0 1000 1000"><path d="M765 100H233q-36 0-66.5 18T118 166.5 100 233v532q0 36 18 67t48.5 48.5T233 898h532q36 0 67-17.5t48.5-48.5 17.5-67V233q0-36-18-66.5T831.5 118 765 100zM564 793q0 19-13 32t-32 13h-78q-18 0-31-13t-13-32v-78q0-18 13-31t31-13h78q19 0 32 13t13 31v78zm251-410q0 45-6 74t-22.5 48.5-45.5 30-76 17.5q-37 5-56.5 8.5t-30.5 8-14 10.5-3 16v13H401v-17q0-37 6-62t21.5-42.5T471 460t69-16 66-10.5 36-10.5 15-16 3-26v-6q0-15-6-24.5t-21.5-15-43-8T523 325h-16q-44 0-73.5 2.5t-45.5 10-22 21-6 37.5v22H205v-22q0-42 6-73.5t21-53 37.5-34 57-19.5 79-9.5T507 204h16q84 0 140.5 6.5t90 24T801 284t14 82v17z"/></svg>