<svg xmlns="http://www.w3.org/2000/svg" viewBox="0 0 1000 1000"><path d="M202 895q-43 0-72.5-29T100 795V203q0-28 13.5-51.5t37-37.5 51.5-14h592q28 0 51.5 14t37 37.5T896 203v592q0 42-29.5 71T794 895H202zm94-495q7-42 32-59 27-19 85-19h216q37 0 55 12 21 15 21 48.5T686.5 432 629 448H419v99h224q38 0 61 19t23 52-22.5 50-61.5 17H409q-59 0-88.5-21T284 600H156q11 92 57 137 55 54 173 54h261q69 0 117-25 43-23 65-63 19-35 19-75 0-121-79-141 30-13 46-53 15-34 15-75 0-70-44-108-45-39-135-39H390q-78 0-127 25-45 23-69 67-20 37-28 95h130v1z"/></svg>