<svg xmlns="http://www.w3.org/2000/svg" viewBox="0 0 1000 1000"><path d="M202 895q-43 0-72.5-29T100 795V203q0-28 13.5-51.5t37-37.5 51.5-14h592q28 0 51.5 14t37 37.5T896 203v592q0 42-29.5 71T794 895H202zm-46-114h677V672H324q2-35 36-58 28-19 82-33 33-8 106-19l37-6q67-12 105-24 62-19 95-48 41-37 41-91 0-79-40-123-33-37-95-51-44-10-115-10H401q-72 0-118 14-42 13-66 39-21 23-31 61-8 28-13 80h128q4-34 15-50 13-19 42-27t85-8h60q85 0 121 4 44 5 60.5 19.5T701 388q0 19-22 33-18 12-58 22-24 6-82 17-84 17-128 28-74 21-124 49-61 34-94 83-37 57-37 135v26z"/></svg>