<svg xmlns="http://www.w3.org/2000/svg" viewBox="0 0 1000 1000"><path d="M427 988q-37-34-56-58-26-32-37-64-12-38-6-80l-81 20-5-9 66-94q-24-13-52-6-17 3-48 20l-5 2q-26-28-57-30.5T70 708l-7 4q-23 11-38 14l2-7q4-11 7-16 56-97 154-150 5-3 14-6l6-3q15-6 22-1.5t7 20.5q-1 55 38 73 10 4 32 7l14 3 5-12-8-5q-10-6-14.5-8.5T289 615q-16-6-16-9-1-11 6-15 4-2 15-2l9-1q1 0 4-1l5-4-11-5q-14-6-20-10.5T266 552l-7-8 29-7q2 0 7 1h2l5-35q8-61 9-92 1-10-7-32-6-13-7-20l-2-8q-11-50-13-75-2-21 8.5-28.5t30.5-.5q10 3 30 12 24 10 36 14 28 7 69 9 5 0 12.5-5t8.5-9q0-19-10-35-3-6-15-13-8-4-11-7-29-25-37-63t8-71q18-37 53-56t72-12q42 8 68.5 36.5T635 117q3 37-19.5 72T558 235q-15 4-21 14t-1 21q3 7 15.5 11.5T573 284q21-5 62-20l33-13q13-5 21-6 14-2 22.5 4.5T718 270q-4 23-14 68l-11 52q-3 19-2 37 2 24 6 73l4 38 5-1q9-2 13.5-1t13.5 5l7 3-4 8q-5 10-10 13-7 5-24 10l-12 4 1 7 6 1q9 0 13 2.5t12 10.5l6 5-6 6q-9 8-13.5 8.5t-11.5.5q-10 0-14 2-7 4-8 16 29 12 54.5-4.5T761 583l9-42 15 5q25 6 35 12 90 49 144 142 5 8 9 17 1 2 0 6v5q-14-5-43-18.5T886 692q-24-7-44-3-25 6-47 29-31-17-49-21-29-7-56 4l69 98q-16 5-34 1-11-2-32-10l-20-7q6 62-23 115-24 42-77 89-16-42-31-56t-43.5-13.5T456 932t-29 56zm28-406q-3-13-19-28t-36-24.5-33-6.5q-3 1-8 5l-4 3 3 6q5 9 9 10 24 10 73 29zm88 0q7-2 22-8 49-20 74-30 2-1 3.5-6t1-7.5-4.5-5-8-2.5q-13-2-32.5 7T563 554t-20 28zM391 319q-11-4-32-13l-32-12 17 71zm222-2q7 8 22 25l21 24 16-71zm-83 306q-13-14-31-33l-7 9q-12 15-12.5 22t12.5 20l8 9z"/></svg>