<svg xmlns="http://www.w3.org/2000/svg" viewBox="0 0 1000 1000"><path d="M33 420q28-104 107-173 21-18 57-35 20-9 27.5-4t7.5 27l1 29q0 54 3 80 2 22 14.5 39t32.5 26q13 6 24 3 14-4 22 1t15 19q5 8 17 23l9 11 6-5-10-17q-13-25-19-38-10-25-4.5-39.5T373 341q19-8 26.5-21.5T407 285q0-51 7-78 13-52 56.5-75.5T570 123q20 5 58 20 22 9 33 13l24 6 14 3q-2-7-6-20-6-18-5-26 1-13 16.5-20.5t27 1.5 28.5 41q19-7 25-23 5-12 3-33 0-3-3-11-3-12-2-17 2-9 6.5-18T800 28q37-15 79.5-2T945 71q14 20 18.5 47.5t-2.5 54-25 45.5q-19 20-65 33-25 8-35-29-7-26-16.5-32.5T794 189q-1 6-2 19t-2 18q-2 10-6 15-3 3-11 3-5 0-17.5-2t-17.5-2l2 6q5 15 8 23 30 65 13 139-8 35-37 55-22 16-63 25l-33 6q-34 7-33 41 0 43-42 46-12 1-17.5 8t-.5 18 2 19-12 16q-12 11-14 18-2 9 13 21 11 8 8 17-1 6-11 16-7 7-9 11l5 7q8 10 12 14 15 13 17 28.5T536 804q-22 26-22 56 1 23 14.5 57t14.5 43q1 12-11 15-9 3-45 3h-52q-17-1-21-9t6-23q11-17 29-18 12 0 36 8-6-19-22-30-10-7-33-16l-12-6 15-31q-7-6-26.5-17T380 819q-12-11-13-24-1-16 15-38l-10-5q-14-7-14.5-11.5T365 725q4-7 6-10 5-11 14-34l7-18-27-5q-73-11-96-78l-1-4q-1-5-2-6-21-11-23-27-1-10 8-31 4-11 5-16 2-9 11-25l5-11q-38-27-75-32-40-5-80 16-26 13-54 19-6 2-21-3l-9-3v-37zm270 143q3 23 17 37 12 11 33 18 34 12 55-18 5-7 24-18l5-3q12-7 12.5-15.5T439 548q-24-16-74-45l-29-17q-5 11-4 33 2 20-2 28-6 12-27 16zM75 390q1 2 2 5 2 8 5 10t8 1.5 8-3.5q65-44 87-121 1-3-.5-8.5t-4-7-8-1-8.5 2.5q-58 39-89 122zm389 54q-13-19-19-29l-7 8q-10 12-9 18 0 9 8 26l5 11z"/></svg>