<svg xmlns="http://www.w3.org/2000/svg" viewBox="0 0 1000 1000"><path d="M915 241L724 80l-54 64 191 160zm-587-97l-54-64L83 240l54 64 95-80zm192 192h-63v249l198 119 31-52-166-98V336zm-21-167q-102 0-189 51-85 50-134 135-51 87-51 188.5T176 732q49 85 134 135 87 51 189 51t189-51q85-50 134-135 51-87 51-188.5T822 355q-49-85-134-135-87-51-189-51zm0 666q-79 0-147-40-66-39-104-105-40-67-40-146.5T248 397q38-66 104-105 68-40 147-40t147 40q66 39 104 105 40 67 40 146.5T750 690q-38 66-104 105-68 40-147 40z"/></svg>