<svg xmlns="http://www.w3.org/2000/svg" viewBox="0 0 1000 1000"><path d="M499 83q-113 0-210 57-94 55-149 149-57 97-57 210t57 210q55 94 149 149 97 57 210 57t210-57q94-55 149-149 57-97 57-210t-57-210q-55-94-149-149-97-57-210-57zm0 749q-90 0-168-46-75-44-119-119-46-78-46-168t46-168q44-75 119-119 78-46 168-46t168 46q75 44 119 119 46 78 46 168t-46 168q-44 75-119 119-78 46-168 46zm65-134q0 17-12 29t-29 12h-48q-17 0-29-12t-12-29v-41q0-17 12-28.5t29-11.5h48q17 0 29 11.5t12 28.5v41zm-10-168q-1 17-11.5 28.5T515 570h-32q-17 0-27.5-11.5T444 530l-14-230q0-16 13.5-28t31.5-12h48q18 0 31.5 12t13.5 28z"/></svg>