<svg xmlns="http://www.w3.org/2000/svg" viewBox="0 0 1000 1000"><path d="M574 847q0 22-15.5 37.5T521 900h-93q-22 0-38-15.5T374 847v-94q0-22 16-37.5t38-15.5h93q22 0 37.5 15.5T574 753v94zm301-491q0 53-7.5 88.5T841 503t-54.5 36-90.5 21q-43 5-68 9.5t-37.5 10-16.5 13-4 19.5v15H379v-20q0-44 7-74.5t26-51 51.5-33T545 430q53-8 80.5-13t42-12.5 18.5-19 4-30.5v-7q0-18-8-29.5t-26-18-49.5-9.5-81.5-3h-19q-56 0-89 3t-52.5 11.5T338 328t-7 45v26H145v-26q0-51 7.5-88t24.5-62.5 45-41.5 68.5-24.5T384 146q50-3 122-3h20q100 0 167.5 7.5t108 29 57 59T875 337v19z"/></svg>