<svg xmlns="http://www.w3.org/2000/svg" viewBox="0 0 1000 1000"><path d="M820 257q-13-8-53-20-36-11-48-17l-4-2q-20-11-31-15-17-7-32-10-37-5-85 15-73 30-115 68t-63 91q-5 12-8 24l-4 15q-1 4-2 5.5t-6 2.5q-11 10-38 21-15 6-47.5 17T244 467q-12 7-24 21-8 9-20 27-9 14-21 46l-7 17q-4 12-11 20-4 4-13 10-6 4-8.5 7t-2.5 8q0 9 9 12t21-.5 21-12.5 16-25q5-10 12-30 8-25 13-34 10-17 25.5-26.5t35-8.5 34.5 14q14 11 20 26 3 6 7 27 5 22 9 34 6 19 15 29 16 19 39 28 25 11 56 6 24-3 46 3t32.5 17.5 5 23T527 721q-12 2-35 2h-1q-12 0-23-1-2-8-6-13.5t-8-8.5l-4-2q-20-14-49-17-26-2-51 5 7-13 5-32.5T343 624q-26-25-77-23.5T193 627q-9 11-9.5 31.5T192 690q-30-4-57 2-35 8-46 32-6 13-2 38 2 20 27.5 33t58 13 57-14 25.5-35q2-29-7-42 29 5 59-3-5 8-4 33l1 5q1 22 26 36 29 15 66 13 40-2 63-24l4-6q4-8 6-20 10 2 37 2 23 0 44.5-6.5T580 729q10-14 9-40 0-15-5.5-44t-2.5-35q16-11 48-5 19 3 54 16 21 7 27 8 34 5 74-10 29-10 58-28 18-12 23-17l10-10q37-43 39-119 2-60-21-109-25-52-73-79zM170 769q-20 0-38-6-27-9-27-26.5t26-26.5q18-6 38.5-6t38.5 6q26 9 26 26.5T208 763q-18 6-38 6zm100-89q-21 0-39-6-26-8-26-25.5t26-26.5q18-6 38.5-6t38.5 6q26 9 26 26.5T308 674q-18 6-38 6zm117 81q-21 0-39-6-26-8-26-25.5t26-26.5q18-6 38.5-6t38.5 6q26 9 26 26.5T425 755q-18 6-38 6zm194-178q-4-40-21-77-18-42-45-64-20-16-49-26-22-8-44-10-18-2-22.5.5t-5-1 5.5-9.5 16-10q13-6 29-8 39-4 73 10 39 16 63 54 16 26 20.5 54.5t-1 52T581 583z"/></svg>