<?xml version="1.0" standalone="no"?>
<!DOCTYPE svg PUBLIC "-//W3C//DTD SVG 1.1//EN" "http://www.w3.org/Graphics/SVG/1.1/DTD/svg11.dtd" >
<svg xmlns="http://www.w3.org/2000/svg" xmlns:xlink="http://www.w3.org/1999/xlink" version="1.1">
<metadata>
Created by FontForge 20191125 at Sat May 21 07:14:18 2022
 By convertio
</metadata>
<defs>
<font id="FFXIVAppIcons" horiz-adv-x="1000" >
  <font-face 
    font-family="FFXIVAppIcons"
    font-weight="400"
    font-stretch="normal"
    units-per-em="1000"
    panose-1="2 0 5 3 0 0 0 0 0 0"
    ascent="1000"
    descent="0"
    bbox="0 0 1000 1000.07"
    underline-thickness="0"
    underline-position="10"
    unicode-range="U+E010-F610"
  />
<missing-glyph horiz-adv-x="0" 
 />
    <glyph glyph-name=".notdef" horiz-adv-x="0" 
 />
    <glyph glyph-name="app_address" unicode="&#xe010;" 
d="M717 980h-437q-36 0 -61.5 -25.5t-25.5 -61.5v-786q0 -36 25.5 -61.5t61.5 -25.5h437q36 0 61.5 25.5t25.5 61.5v786q0 36 -25.5 61.5t-61.5 25.5zM701 165h-405q-12 0 -19.5 8t-7.5 19v688q0 11 7.5 19t19.5 8h405q11 0 19 -8t8 -19v-688q0 -11 -8 -19t-19 -8zM429 387
q-55 -12 -89 -35q-39 -27 -39 -62v-36q0 -11 5.5 -17t19.5 -9l5 -1q69 -15 180 -15q78 0 118 6q23 3 41 10h1q14 5 19.5 10.5t5.5 15.5v36q0 35 -41 62q-34 23 -89 35q-14 3 -23 14.5t-9 25.5v4q0 12 10 20q24 17 38.5 49t14.5 63q0 43 -29 72.5t-70 29.5t-69.5 -30
t-28.5 -72q0 -30 14 -61.5t37 -49.5q9 -7 9 -19v-6q0 -15 -9 -26t-22 -14z" />
    <glyph glyph-name="app_friend" unicode="&#xe020;" 
d="M500 931q-119 0 -220 -59q-99 -58 -157 -157q-59 -101 -59 -220t59 -220q58 -99 157 -157q101 -59 220 -59t220 59q99 58 157 157q59 101 59 219.5t-59 220.5q-58 99 -157 157q-101 59 -220 59zM632 685q25 0 43 -32t18 -77t-18 -77t-43.5 -32t-43 32t-17.5 77t17.5 77
t43.5 32zM368 685q26 0 43.5 -32t17.5 -77t-17.5 -77t-43 -32t-43 32t-17.5 77t17.5 77t42.5 32zM773 336q-9 -15 -41 -3q-38 -63 -98 -100q-62 -38 -134 -38t-134 38q-60 37 -98 100q-32 -12 -41 3q-6 10 3 23q9 15 35 30t44 17t23 -7q4 -7 -0.5 -17.5t-17.5 -21.5
q32 -44 80.5 -70t105.5 -26t105.5 26t80.5 70q-13 12 -17.5 22t-0.5 17q5 9 23 7t44 -17t35 -30q9 -13 3 -23z" />
    <glyph glyph-name="app_fc" unicode="&#xe021;" 
d="M535 27l237 465l54 47v42l61 43l32 164l-127 -88l-16 -77l-6 7q-8 8 -16 14q-13 8 -25 11q-24 5 -48 6l1 15q0 20 -2 40q-4 29 -14 54q-12 32 -33 57q-25 30 -62 50q-89 47 -243 43q-93 -3 -188 -23q-4 -1 -4.5 -5t3.5 -5q50 -19 95 -44q71 -38 108 -79q19 -21 36 -52
q12 -21 22 -46l7 -20l-325 -70q-4 -1 -4 -5t4 -5q59 -13 114 -34q83 -31 135 -75q37 -30 80 -82v0l-7 -2q-7 -3 -12 -8q-6 -7 -5 -17q3 -42 82 -96q18 -13 63 -23q6 -1 10.5 2t5.5 9q4 45 19 93q22 76 63 136q16 25 37 38q16 10 34 13q12 1 25 -1l9 -3l-243 -467
q-6 -12 1 -23t20 -12v0q7 0 12.5 3.5t9.5 9.5z" />
    <glyph glyph-name="app_ls" unicode="&#xe022;" 
d="M883 702q6 13 8 32q1 13 1 27l-1 12l-101 -31l11 6q12 8 22 18q15 15 25 32q12 23 15.5 48.5t-1.5 50.5q-3 18 -10 34l-6 12l-13 -14q-16 -16 -35 -32q-26 -21 -54 -37q-34 -20 -68 -29q-15 -5 -47 -7q-19 -2 -65 -4q-84 -4 -119 -9q-42 -6 -92 -27q-61 -26 -111 -65
q-60 -47 -94 -110q-39 -73 -40 -163q-1 -82 28 -156q17 -42 50 -95q14 -22 17 -29q4 -13 8.5 -43t8.5 -40q7 -18 22 -18l115 -2h27q34 1 69 6q49 6 92 18q55 15 98 38q50 28 82 66q28 33 44 73q13 35 18 74q4 31 2 64q-1 23 -5 46l-3 17l-3 -27q-4 -34 -14 -66
q-12 -45 -33 -81q-25 -44 -61 -72q-41 -31 -93 -49q-45 -15 -97 -21q-41 -4 -85 -3q-32 2 -61 6l-24 4l-8 9q-11 12 -22 26q-15 19 -28 40q-17 26 -30 53q-15 31 -24 62q-11 36 -13 71q-3 39 4 77q7 41 27 80q41 83 122 129q76 43 164.5 42t155.5 -47q32 -21 58 -56
q21 -29 38 -65q12 -25 21 -52l6 -22l14 4q16 5 30 13q18 11 29 25q12 16 20 40q6 18 10 38l3 16l-43 -4q24 31 39 67zM239 447q0 -65 32 -120t87 -87t120 -32t119.5 32t87 87t32.5 120t-32.5 119.5t-87 87t-119.5 32.5t-120 -32.5t-87 -87t-32 -119.5z" />
    <glyph glyph-name="app_favorite" unicode="&#xe030;" 
d="M476 199l-181 -95q-18 -10 -36.5 -4.5t-29.5 21.5t-7 36l34 202q2 12 -1.5 24t-12.5 21l-147 143q-15 14 -15.5 33.5t11.5 34.5t32 18l203 30q12 2 22 9t16 18l90 184q10 18 28 25t36 0t28 -25l90 -184q6 -11 16 -18t22 -9l203 -30q20 -3 32 -18t11.5 -34.5t-15.5 -33.5
l-147 -143q-8 -9 -12 -21t-2 -24l34 -202q4 -20 -7 -36t-29.5 -21.5t-36.5 4.5l-181 95q-11 6 -24 6t-24 -6z" />
    <glyph glyph-name="app_favorite_list" unicode="&#xe031;" 
d="M47 957h553q10 0 16.5 -7t6.5 -16v-29q0 -9 -6.5 -16t-16.5 -7h-553q-10 0 -17 7t-7 16v29q0 9 7 16t17 7zM47 818h553q10 0 16.5 -7t6.5 -17v-28q0 -10 -6.5 -16.5t-16.5 -6.5h-553q-10 0 -17 6.5t-7 16.5v28q0 10 7 17t17 7zM47 678h359q10 0 17 -6.5t7 -16.5v-28
q0 -10 -7 -17t-17 -7h-359q-10 0 -17 7t-7 17v28q0 10 7 16.5t17 6.5zM47 539h153q10 0 16.5 -7t6.5 -16v-29q0 -9 -6.5 -16t-16.5 -7h-153q-10 0 -17 7t-7 16v29q0 9 7 16t17 7zM625 153l-151 -79q-9 -5 -19.5 -4t-19 7t-12.5 16t-3 20l29 168q4 19 -10 32l-122 119
q-8 7 -10.5 17.5t1 20.5t11.5 17t18 8l169 25q19 2 27 20l76 152q4 10 13 15.5t19.5 5.5t19.5 -5.5t14 -15.5l75 -152q9 -18 28 -20l168 -25q11 -1 19 -8t11 -17t0.5 -20.5t-9.5 -17.5l-122 -119q-14 -13 -10 -32l28 -168q2 -10 -2 -20t-12.5 -16t-19 -7t-20.5 4l-150 79
q-17 9 -34 0z" />
    <glyph glyph-name="app_group" unicode="&#xe050;" 
d="M441 250q-38 66 -111 173q-5 7 -11 13q-2 1 -1.5 3t2.5 3q50 25 82 71q33 48 33 104q0 53 -26 98t-71 71t-97.5 26t-97.5 -26t-71 -71t-26 -98q0 -56 33 -104q32 -46 82 -71q2 -1 2.5 -3t-1.5 -3q-7 -6 -11 -13q-76 -112 -111 -173q-16 -27 -16 -43q0 -24 29.5 -44
t79 -31.5t108 -11.5t108.5 11.5t79 31.5t29 44q0 17 -16 43zM960 250q-38 66 -111 173q-5 7 -11 13q-2 1 -1.5 3t1.5 3q51 25 83 71q33 48 33 104q0 53 -26 98t-71 71t-98 26t-97.5 -26t-70.5 -71t-26 -98q0 -56 33 -104q31 -46 82 -71q2 -1 2.5 -3t-1.5 -3q-7 -6 -12 -13
q-73 -109 -110 -173q-16 -27 -16 -43q0 -24 29 -44t79 -31.5t108.5 -11.5t108 11.5t79 31.5t29.5 44q0 17 -16 43z" />
    <glyph glyph-name="app_group_add" unicode="&#xe052;" 
d="M314 557h-96q-4 0 -7 3t-3 7v97q0 7 -5.5 12.5t-13.5 5.5h-45q-8 0 -13.5 -5.5t-5.5 -12.5v-97q0 -4 -2.5 -6.5t-6.5 -2.5h-97q-8 0 -13.5 -6t-5.5 -13v-46q0 -8 5.5 -13.5t13.5 -5.5h97q4 0 6.5 -2.5t2.5 -6.5v-97q0 -8 5.5 -13.5t13.5 -5.5h45q8 0 13.5 5.5t5.5 13.5
v97q0 4 3 6.5t7 2.5h96q8 0 13.5 5.5t5.5 13.5v46q0 7 -5.5 12.5t-13.5 5.5zM696 266q-32 54 -93 144q-4 6 -10 11q-1 1 -1 3t2 2q42 21 69 59q27 41 27 88q0 44 -21.5 81t-59 59t-81.5 22t-81.5 -22t-59.5 -59t-22 -81q0 -47 28 -88q26 -38 69 -59q1 0 1.5 -2t-1.5 -3
q-5 -5 -9 -11q-62 -92 -93 -144q-13 -22 -13 -36q0 -20 24.5 -36.5t66 -26.5t90.5 -10t90.5 10t66 26.5t24.5 36.5q0 14 -13 36zM982 266q-32 54 -92 144q-5 6 -10 11q-1 1 -1 3t2 2q42 21 68 59q28 41 28 87.5t-24.5 86.5t-67 60t-88.5 15t-83 -34q-5 -4 -6.5 -10.5
t2.5 -12.5q28 -48 27 -104q0 -50 -23 -94q-5 -10 -3 -20t11 -17q12 -9 26 -16q2 0 2 -2t-1 -3q-5 -5 -10 -11l-30 -45q-4 -7 -4.5 -15t4.5 -15q15 -25 27 -46q19 -32 19 -58.5t-14 -46.5q-5 -7 -2 -14t11 -8q32 -5 65 -5q49 0 90.5 10t65.5 26.5t24 36.5q0 14 -13 36z" />
    <glyph glyph-name="app_talk" unicode="&#xe060;" 
d="M860 735h-61q-8 0 -13.5 -5.5t-5.5 -13.5v-246q0 -39 -28 -67t-68 -28h-405q-8 0 -13.5 -5.5t-5.5 -13.5v-61q0 -17 11.5 -28.5t28.5 -11.5h415q25 0 43 -18l110 -110q4 -4 9.5 -5t11 1t8.5 7t3 11v554q0 17 -11.5 28.5t-28.5 11.5zM700 495v360q0 17 -11.5 28.5
t-28.5 11.5h-520q-17 0 -28.5 -11.5t-11.5 -28.5v-514q0 -6 3 -11t8.5 -7t11 -1t9.5 5l110 110q18 18 43 18h375q17 0 28.5 12t11.5 28z" />
    <glyph glyph-name="app_character" unicode="&#xe070;" 
d="M382 374q-91 -19 -148 -56q-67 -44 -67 -101v-13q0 -18 12 -30t30 -12h582q18 0 30 12t12 30v13q0 57 -69 101q-58 37 -150 57q-24 5 -39 23.5t-15 42.5v5q0 21 17 33q40 28 65 81q25 51 25 102q0 45 -22.5 83t-61 60.5t-83.5 22.5t-83.5 -22.5t-61 -60.5t-22.5 -83
q0 -50 24 -100q24 -52 62 -81q16 -11 16 -31v-10q0 -24 -15 -42.5t-38 -23.5z" />
    <glyph glyph-name="app_character_add" unicode="&#xe072;" 
d="M238 593v104q0 6 -5 11t-11 5h-55q-6 0 -11 -5t-5 -11v-104q0 -5 -3 -8t-8 -3h-103q-7 0 -12 -4.5t-5 -11.5v-54q0 -7 5 -12t12 -5h103q5 0 8 -3t3 -8v-103q0 -7 5 -12t12 -5h54q6 0 11 5t5 12v103q0 5 3 8t8 3h104q6 0 11 5t5 12v54q0 7 -5 11.5t-11 4.5h-104q-5 0 -8 3
t-3 8zM508 369q-96 -21 -156 -60q-70 -45 -70 -105v-14q0 -18 13 -31t31 -13h610q18 0 31 13t13 31v14q0 60 -72 106q-61 38 -158 59q-25 5 -40.5 24.5t-15.5 44.5v6q0 10 4.5 19t12.5 15q43 29 69 85q25 54 25 107q0 47 -23.5 86.5t-63.5 62.5t-87 23t-87 -23t-63.5 -62.5
t-24.5 -86.5q0 -52 25 -104q25 -55 65 -85q17 -13 17 -33v-11q0 -24 -15.5 -43.5t-39.5 -24.5z" />
    <glyph glyph-name="app_character_info" unicode="&#xe073;" 
d="M500 919q-116 0 -215 -58q-96 -56 -152 -152q-58 -100 -58 -215.5t58 -214.5q56 -96 152 -152q99 -58 215 -58t215 58q96 56 152 152q58 99 58 214.5t-58 215.5q-56 96 -152 152q-99 58 -215 58zM419 457q-38 29 -63 81q-23 50 -23 99q0 45 22.5 83.5t61 61t83.5 22.5
t83.5 -22.5t61 -61t22.5 -83.5q0 -50 -25 -102q-25 -53 -65 -81q-17 -12 -17 -33v-5q0 -24 15 -42.5t38 -23.5q77 -16 132 -45q15 -8 17.5 -25t-9.5 -29q-49 -52 -115.5 -80t-138 -28t-137.5 28.5t-116 80.5q-12 12 -9.5 28.5t17.5 24.5q53 29 128 45q23 5 38 23.5t15 41.5
v10q0 20 -16 32z" />
    <glyph glyph-name="app_mobile" unicode="&#xe074;" 
d="M718 975h-436q-36 0 -61.5 -25.5t-25.5 -61.5v-786q0 -36 25.5 -61.5t61.5 -25.5h436q36 0 61.5 25.5t25.5 61.5v786q0 36 -25.5 61.5t-61.5 25.5zM691 189h-382q-12 0 -19.5 8t-7.5 20v592q0 11 7.5 19t19.5 8h382q11 0 19 -8t8 -19v-592q0 -12 -8 -20t-19 -8z" />
    <glyph glyph-name="CrossWorld" unicode="&#xe075;" 
d="M776 435q-35 -11 -68.5 -2.5t-58.5 32.5q-12 12 -30 7l-19 -7q-13 -4 -16.5 -16t3.5 -23l12 -16q5 -7 13 -10.5t16 -1.5q35 4 67 -9t52.5 -41.5t23.5 -62.5t-11.5 -64.5t-44.5 -50.5q-25 -17 -56.5 -19.5t-60.5 9t-49 36.5q-24 28 -27.5 64t12.5 69q8 17 -2 32l-12 16
q-8 10 -21 10t-21 -10l-12 -16q-10 -16 -2 -32q15 -31 12.5 -65.5t-23 -62.5t-52 -41.5t-65.5 -9t-62 25.5q-37 30 -45 77.5t18 87.5q20 32 53.5 47t69.5 10q8 -2 16 1.5t13 10.5l12 16q8 11 4 23t-17 16l-19 7q-8 2 -16 0.5t-14 -7.5q-24 -24 -58 -32.5t-68 2.5t-56 36.5
t-28.5 59.5t5.5 66q10 30 34 50.5t54.5 28t60.5 -0.5q37 -10 61.5 -37.5t30.5 -63.5q1 -8 6.5 -14t13.5 -9l19 -6q12 -4 22.5 3.5t10.5 20.5v20q0 8 -4 15.5t-11 11.5q-31 15 -49.5 45t-18.5 65.5t17.5 64.5t47.5 45.5t65 15.5q32 -1 59 -17.5t43.5 -43t17.5 -57.5
q2 -38 -16.5 -69.5t-50.5 -48.5q-8 -4 -12 -11.5t-4 -15.5v-20q0 -13 10.5 -20.5t23.5 -3.5l18 6q8 3 14 9t7 14q6 36 30.5 63.5t60.5 37.5q31 8 61.5 0.5t54 -28t34.5 -50.5q12 -32 5.5 -66t-29 -59.5t-55.5 -36.5z" />
    <glyph glyph-name="FFXIVMeteo" unicode="&#xe076;" 
d="M926 372q-6 12 -7 29q-2 20 -3.5 22t-4.5 -13q-5 -23 -15.5 -40t-24.5 -23q-9 -4 -23 -4q-10 0 -14 1.5t-11 7.5q-11 9 -13 9t-7 11t-5 18q0 10 -5 17t-5 16.5t4.5 15t5.5 14.5q1 6 2.5 7.5t6.5 2.5t6.5 3.5t3.5 15.5q3 17 10 23q3 4 4 7t0 9t-2.5 7.5t-8 1.5t-10 5.5
t-1.5 11.5t9.5 8.5t10.5 11.5q3 7 2.5 9t-5.5 5q-21 16 -26 35q-5 23 6.5 41.5t36.5 23.5q11 2 13 3.5t2 6.5t-1.5 7t-6.5 3q-9 2 -9.5 12t7.5 13q5 1 16 9.5t20 10.5q5 1 6.5 2.5t0.5 6.5q-2 7 4.5 18.5t5 15t-11 -1t-9.5 -7.5t-8 -11q-5 -5 -8 -6t-13 0q-12 1 -15.5 -1.5
t-0.5 -11.5q2 -5 0.5 -12.5t-5 -7.5t-5.5 -6.5t0 -11.5q5 -10 -11 -10q-8 0 -11.5 -3.5t-5.5 -3t-9 7.5t-10.5 8t-17.5 1q-19 -1 -22 2t-9 3q-4 0 -4.5 -1t0.5 -4.5t-4 -12.5t-10 -11.5t-13.5 -2.5t-16 6.5t-7.5 14t-6 14.5q-3 4 -3.5 6.5t2 6.5t1 9t-7 8t-8.5 1t-1 -6.5
t2 -7t-3 -6.5q-4 -6 -8 -6t-12 -5q-13 -10 -26 0q-7 5 -22 4q-10 0 -13 1t-8.5 8t-6.5 11.5t-1 20t1 21.5t5 13q11 19 32.5 24.5t42.5 -5.5q5 -2 7.5 -2t10.5 3.5t19.5 4t17.5 -1.5t12 3q3 3 7 4t13 1q15 -1 23 4.5t14 20.5t20 30q17 17 24 35.5t3 35.5q-4 13 -5 14.5
t-6 -7.5t-15.5 -20t-18.5 -15q-20 -9 -35 -3q-9 4 -18 1t-21.5 -14t-21 -13.5t-22 -1t-20.5 6.5t-10 5t-12 -9.5t-12 -16.5q-9 -22 -27 -32.5t-40.5 -13t-38.5 4.5q-12 5 -19 3.5t-15 -10t-8 -14.5t-6 -20.5t-12 -22t-10 -16.5t-10.5 -13t-20.5 -6q-34 -3 -49 18
q-8 12 -5 13t7 8t12.5 11t8.5 10q0 9 -2.5 11t-11.5 1t-12 0t-8.5 6t-7 8t-1.5 11q0 11 -5 16l-6 6l-3 -5q-3 -5 -10 -9t-9 -12.5t-14 -24t-12 -20t-8 -11.5q-12 -10 -30 -2q-8 3 -2 -19q3 -10 10.5 -12.5t12.5 -13.5t5.5 -15.5t-1.5 -11t0 -10.5t8.5 -7.5t6.5 -6.5t-7 -10
t-16.5 -7.5t-16.5 5t-8 5.5t-4 -10.5t-9 -15.5q-19 -17 -29 -21q-7 -3 -20 -0.5t-22 9t-11.5 6.5t-10.5 6q-16 14 -7 -10q4 -14 2 -22t-2 -15t2 -8t11.5 1t18 -0.5t13.5 -10.5q7 -11 1.5 -23.5t-21.5 -20.5q-9 -5 -11.5 -9.5t-0.5 -13.5q1 -6 3 -7.5t7 -2.5q12 -3 18.5 -15
t0.5 -21q-2 -4 2 -10q5 -9 7 -23.5t0 -32.5t-7.5 -29t-16.5 -19l-20 -15q-7 -5 -15.5 -6t-14.5 3q-3 1 -4 1t-1 -3q0 -11 10 -28t26 -33q9 -10 13 -12.5t11 -2.5t19 -6.5t17 -14.5q11 -16 11 -52q1 -20 -2 -26.5t-17 -12.5q-11 -4 -11 -7t23 -8t28 -3.5t25 -2t39.5 -12.5
t33.5 -22q11 -10 16.5 -19.5t7.5 -21.5q1 -8 3 -10.5t11 -4.5q4 -1 7.5 -0.5t8.5 4.5q9 6 26 12t27.5 5t23 -9t25 -11t21.5 0q5 1 8 4t6 10q11 21 28.5 28t38.5 0q13 -5 23 -12t14.5 -15.5t17.5 -15t28 -6.5l14 -1l1 15q1 15 5.5 22t19 23t25.5 25q14 11 23.5 15t21.5 4
t16 1q8 3 -1 31q-5 13 -4 23.5t7 21.5t18.5 19.5t24 9.5t17.5 6t9 16q7 23 30 35q13 6 23.5 16.5t20.5 15t19 12.5t9.5 13t-6.5 17zM469 157q-67 0 -124 33.5t-90 90t-33 124t33.5 124t90 90t124 33.5t124 -33.5t90 -90t33.5 -124t-33.5 -124t-90.5 -90t-124 -33.5z" />
    <glyph glyph-name="ViewMove" unicode="&#xe077;" 
d="M499 667v167l333 -333l-333 -333v167h-333v332h333z" />
    <glyph glyph-name="app_world_home" unicode="&#xe078;" 
d="M500 857q-122 0 -227 -62q-101 -59 -161 -161q-61 -105 -61 -227q0 -71 22 -138.5t64 -125.5h90v371l273 200l275 -200l-1 -371h89q42 58 64 125.5t22 138.5q0 122 -61 227q-60 102 -161 161q-105 62 -227 62zM550 392q-31 0 -53 -22.5t-22 -53.5v-173h150v173
q0 31 -22 53.5t-53 22.5z" />
    <glyph glyph-name="app_world_wanderer" unicode="&#xe079;" 
d="M926 553q-17 35 -60 64q-29 21 -81 44q-6 3 -8.5 10.5t0.5 14.5l30 56q6 12 1 18q-3 5 -14.5 8.5t-33.5 1.5t-50 -9q-49 -14 -75 -41q-6 -6 -5 -15t8 -14l44 -34q6 -4 7.5 -10.5t-1.5 -12.5t-7 -12.5t-16 -11.5l-152 -67q-4 -2 -9 -1t-8 5q-12 14 -26 25t-17.5 27.5
t4.5 30.5q5 9 9 18q17 40 13.5 81.5t-25 74.5t-57.5 48.5t-75 9t-71.5 -33t-49.5 -66.5t-14 -81t25 -74t58 -49l18 -6q11 -3 14.5 -14.5t-3.5 -20.5q-32 -37 -55 -88l-1 -3q-5 -8 -13.5 -12t-18.5 -3q-15 16 -37 16t-37.5 -15.5t-15.5 -36.5q0 -7 -7 -10l-24 -11
q-16 -7 -24.5 -22.5t-4.5 -32.5q4 -22 25 -33t42 -1l40 22q7 4 14 0l8 -6q6 -4 5 -12q-7 -33 -14 -74q-4 -25 16 -41q22 -17 72 -17h243q55 0 82 17q23 15 21 41q-5 61 -19 125q-16 69 -40 126q-1 3 0 6.5t5 5.5l67 30q-1 -8 -2 -17q-1 -25 12 -54q13 -31 37 -53
q27 -25 62 -33q41 -8 87 8q59 21 89 62q25 36 27 81q2 39 -14 71z" />
    <glyph glyph-name="app_block" unicode="&#xe080;" 
d="M500 70q-117 0 -217 59q-97 57 -154 154q-59 100 -59 217t59 217q57 97 154 154q100 59 217 59t217 -59q97 -57 154 -154q59 -100 59 -217t-59 -217q-57 -97 -154 -154q-100 -59 -217 -59zM320 240q39 -28 85.5 -42.5t94.5 -14.5q86 0 160 44q71 42 113 113q44 74 44 160
q0 48 -14.5 94.5t-42.5 85.5zM500 817q-86 0 -160 -44q-71 -42 -113 -113q-44 -74 -44 -160q0 -48 14.5 -94.5t42.5 -85.5l440 440q-39 28 -85.5 42.5t-94.5 14.5z" />
    <glyph glyph-name="app_block_list" unicode="&#xe081;" 
d="M648 17q-91 0 -169 46q-76 44 -121 120q-46 79 -46 170t46 169q45 76 121 120q78 46 169 46t169 -46q76 -44 121 -120q46 -78 46 -169t-46 -170q-45 -76 -121 -120q-78 -46 -169 -46zM515 153q60 -41 133 -41q65 0 120.5 32.5t87.5 87.5t32 121q1 72 -40 132zM648 593
q-65 0 -120.5 -32.5t-87.5 -87.5t-32 -120q-1 -73 40 -133l333 333q-60 40 -133 40zM47 957h553q10 0 16.5 -7t6.5 -16v-29q0 -9 -6.5 -16t-16.5 -7h-553q-10 0 -17 7t-7 16v29q0 9 7 16t17 7zM47 818h553q10 0 16.5 -7t6.5 -17v-28q0 -10 -6.5 -16.5t-16.5 -6.5h-553
q-10 0 -17 6.5t-7 16.5v28q0 10 7 17t17 7zM47 678h246q10 0 16.5 -6.5t6.5 -16.5v-28q0 -10 -6.5 -17t-16.5 -7h-246q-10 0 -17 7t-7 17v28q0 10 7 16.5t17 6.5zM47 539h153q10 0 16.5 -7t6.5 -16v-29q0 -9 -6.5 -16t-16.5 -7h-153q-10 0 -17 7t-7 16v29q0 9 7 16t17 7z
" />
    <glyph glyph-name="app_black" unicode="&#xe090;" 
d="M504 906q-117 0 -217 -58q-97 -57 -154 -155q-59 -100 -59 -216.5t59 -216.5q57 -98 154 -154q100 -59 217 -59t217 59q97 56 154 154q59 100 59 216.5t-59 216.5q-57 98 -154 155q-100 58 -217 58zM634 700q24 0 42 -31.5t18 -76t-18 -76t-42.5 -31.5t-42 31.5t-17.5 76
t17.5 76t42.5 31.5zM374 700q25 0 42.5 -31.5t17.5 -76t-17.5 -76t-42 -31.5t-42.5 31.5t-18 76t18 76t42 31.5zM740 277q-24 -41 -49 -33q-12 3 -14 14.5t8 30.5q-32 42 -79.5 66.5t-102 24.5t-102.5 -25t-79 -69q8 -17 5.5 -28t-12.5 -14q-26 -8 -50 33q-13 21 -12 35
t13 18q15 4 34 -14q38 61 86 94q55 38 118 38q66 0 121 -34q50 -32 87 -92q15 11 27 7.5t13 -17.5t-12 -35z" />
    <glyph glyph-name="app_black_list" unicode="&#xe091;" 
d="M648 673q-87 0 -162 -44q-72 -43 -114 -115q-44 -75 -44 -161.5t44 -161.5q42 -72 114 -115q75 -43 162 -43t161 43q73 43 115 115q44 75 44 161.5t-44 161.5q-42 72 -115 115q-74 44 -161 44zM744 519q19 0 32 -23.5t13 -56.5t-13 -56.5t-31.5 -23.5t-31.5 23.5
t-13 56.5t13 56.5t31 23.5zM551 519q19 0 32 -23.5t13 -56.5t-13 -56.5t-31.5 -23.5t-31.5 23.5t-13 56.5t13 56.5t31 23.5zM824 204q-18 -31 -37 -25q-8 3 -10 11.5t5 21.5q-23 32 -58 50t-76 18t-76.5 -18.5t-59.5 -50.5q7 -13 5 -21t-10 -11q-19 -6 -37 25
q-9 15 -8.5 25.5t9.5 13.5q11 4 25 -10q28 45 64 70q41 28 88 28q49 0 90 -25q38 -24 65 -68q11 8 20 5t9.5 -13.5t-8.5 -25.5zM47 957h553q10 0 16.5 -7t6.5 -16v-29q0 -9 -6.5 -16t-16.5 -7h-553q-10 0 -17 7t-7 16v29q0 9 7 16t17 7zM47 818h553q10 0 16.5 -7t6.5 -17
v-28q0 -10 -6.5 -16.5t-16.5 -6.5h-553q-10 0 -17 6.5t-7 16.5v28q0 10 7 17t17 7zM47 678h246q10 0 16.5 -6.5t6.5 -16.5v-28q0 -10 -6.5 -17t-16.5 -7h-246q-10 0 -17 7t-7 17v28q0 10 7 16.5t17 6.5zM47 539h153q10 0 16.5 -7t6.5 -16v-29q0 -9 -6.5 -16t-16.5 -7h-153
q-10 0 -17 7t-7 16v29q0 9 7 16t17 7z" />
    <glyph glyph-name="NaviLeft" unicode="&#xe100;" 
d="M642 691l-59 59l-250 -250l250 -250l59 59l-191 191z" />
    <glyph glyph-name="NaviRight" unicode="&#xe101;" 
d="M404 750l-58 -59l190 -191l-190 -191l58 -59l250 250z" />
    <glyph glyph-name="NaviUp" unicode="&#xe102;" 
d="M500 654l-250 -250l59 -58l191 190l191 -190l59 58z" />
    <glyph glyph-name="NaviBottom" unicode="&#xe103;" 
d="M691 654l-191 -190l-191 190l-59 -58l250 -250l250 250z" />
    <glyph glyph-name="NaviArrowLeft" unicode="&#xe110;" 
d="M166 501l333 -333l59 59l-232 232h506v84h-506l232 232l-59 59z" />
    <glyph glyph-name="NaviArrowRight" unicode="&#xe111;" 
d="M500 833l-59 -58l233 -233h-507v-84h507l-233 -233l59 -58l333 333z" />
    <glyph glyph-name="app_action_paging_prev" unicode="&#xe112;" 
d="M656 148l-362 317q-16 14 -16 35t16 35l362 317q13 10 28 9t26 -11.5t11 -27.5v-644q0 -17 -11 -27.5t-26 -11.5t-28 9z" />
    <glyph glyph-name="app_action_paging_next" unicode="&#xe113;" 
d="M344 148l362 317q16 14 16 35t-16 35l-362 317q-13 10 -28 9t-26 -11.5t-11 -27.5v-644q0 -17 11 -27.5t26 -11.5t28 9z" />
    <glyph glyph-name="NavigationClose" unicode="&#xe120;" 
d="M792 733l-59 59l-233 -233l-233 233l-59 -59l233 -233l-233 -233l59 -59l233 233l233 -233l59 59l-233 233z" />
    <glyph glyph-name="Add" unicode="&#xe302;" 
d="M856 960h-714q-42 0 -72 -30t-30 -72v-714q0 -42 30 -72t72 -30h714q42 0 72 30t30 72v714q0 42 -30 72t-72 30zM754 450h-204v-204h-102v204h-204v102h204v204h102v-204h204v-102z" />
    <glyph glyph-name="Add" unicode="&#xe121;" 
d="M856 960h-714q-42 0 -72 -30t-30 -72v-714q0 -42 30 -72t72 -30h714q42 0 72 30t30 72v714q0 42 -30 72t-72 30zM754 450h-204v-204h-102v204h-204v102h204v204h102v-204h204v-102z" />
    <glyph glyph-name="app_action_block_open" unicode="&#xe122;" 
d="M500 126q-23 0 -40 17l-132 133q-11 10 -15.5 25t-0.5 30t15 26t26 15t30 0t26 -16l91 -91l92 91q17 17 40.5 17t40 -17t16.5 -40.5t-16 -40.5l-132 -132q-17 -17 -41 -17zM632 627q-24 0 -41 17l-91 91l-92 -92q-17 -16 -40.5 -16t-40 17t-16.5 40.5t16 39.5l132 133
q17 17 41 17t40 -17l132 -133q13 -12 16 -29t-3.5 -33t-21 -25.5t-31.5 -9.5z" />
    <glyph glyph-name="app_action_block_close" unicode="&#xe123;" 
d="M632 168q-23 0 -40 17l-92 92l-92 -92q-16 -17 -40 -17t-40.5 17t-16.5 40.5t17 40.5l132 132q17 16 40.5 16t40.5 -16l132 -132q12 -13 15.5 -30t-3 -33t-21 -25.5t-32.5 -9.5zM500 585q-24 0 -41 17l-132 132q-11 11 -15 25.5t0 29.5t15 26t26 15t29.5 0t25.5 -15
l92 -92l92 92q11 11 25.5 15t29.5 0t25.5 -15t14.5 -26t0 -29.5t-15 -25.5l-132 -132q-17 -17 -40 -17z" />
    <glyph glyph-name="app_status_online" unicode="&#xe150;" 
d="M500 930q-117 0 -217 -59q-97 -57 -154 -154q-59 -100 -59 -217t59 -217q57 -97 154 -154q100 -59 217 -59t217 59q97 57 154 154q59 100 59 217t-59 217q-57 97 -154 154q-100 59 -217 59zM500 822q79 0 148 -36t114.5 -99.5t56.5 -141.5h-69q-12 0 -25.5 6.5
t-20.5 16.5l-86 114q-7 10 -17.5 10t-17.5 -10l-166 -222q-7 -9 -17.5 -9t-17.5 9l-46 61q-7 10 -20.5 17t-24.5 7h-110q11 78 56.5 141.5t114.5 99.5t148 36zM500 178q-79 0 -148 36t-114.5 99.5t-56.5 141.5h69q12 0 25.5 -7t20.5 -16l86 -115q7 -9 17.5 -9t17.5 9
l166 222q7 10 17.5 10t17.5 -10l46 -61q7 -9 20.5 -16t24.5 -7h110q-11 -78 -56.5 -141.5t-114.5 -99.5t-148 -36z" />
    <glyph glyph-name="app_status_contents" unicode="&#xe151;" 
d="M910 577v177q0 42 -21 78t-57 57t-78 21h-508q-42 0 -78 -21t-57 -57t-21 -78v-508q0 -42 21 -78t57 -57t78 -21h508q42 0 78 21t57 57t21 78v170h-117v-92q0 -32 -16 -58.5t-42.5 -42.5t-58.5 -16h-352q-32 0 -58.5 16t-42.5 42.5t-16 58.5v352q0 32 16 58.5t42.5 42.5
t58.5 16h352q32 0 58.5 -16t42.5 -42.5t16 -58.5v-99h117zM419 668q-25 12 -47 7.5t-35 -22.5t-13 -46v-214q0 -28 13 -46t35 -22.5t47 7.5l279 125q26 12 35 27.5t0 31t-35 27.5z" />
    <glyph glyph-name="app_status_loading" unicode="&#xe152;" 
d="M250 583q-35 0 -59 -24t-24 -59t24 -59t59 -24t59 24t24 58.5t-24.5 59t-58.5 24.5zM750 583q-35 0 -59 -24t-24 -59t24 -59t59 -24t59 24t24 58.5t-24.5 59t-58.5 24.5zM500 583q-35 0 -59 -24t-24 -59t24 -59t59 -24t59 24t24 58.5t-24.5 59t-58.5 24.5z" />
    <glyph glyph-name="app_online_unknown" unicode="&#xe161;" 
d="M432 225h133v-129h-133v129zM539 913q-67 10 -129 -12q-60 -21 -104 -67t-62 -107q-6 -19 0.5 -37t22 -29.5t35.5 -11.5h13q20 0 35.5 12.5t23.5 32.5q16 45 59.5 70.5t92.5 15t79.5 -48t26.5 -84.5q-1 -31 -24 -60q-15 -17 -56 -50q-30 -25 -44 -38q-24 -23 -40 -46
l-2 -5q-10 -16 -17 -33l-3 -6l-1 -4q-7 -20 -10 -33q-3 -18 -3 -41h133q0 19 5 34q4 10 14 28l3 6q8 14 19 26l2 2q10 12 22 23l25 23q37 34 53 53q27 31 40 65q16 41 14 93q-7 57 -38.5 106.5t-79.5 82t-105 40.5z" />
    <glyph glyph-name="NaviMenu" unicode="&#xe200;" 
d="M20 182h958v106h-958v-106zM20 448h958v106h-958v-106zM20 820v-106h958v106h-958z" />
    <glyph glyph-name="app_navi_drawer" unicode="&#xe201;" 
d="M172 555h656q19 0 33 -13.5t14 -33.5v-16q0 -20 -14 -33.5t-33 -13.5h-656q-19 0 -33 13.5t-14 33.5v16q0 20 14 33.5t33 13.5zM172 855h656q19 0 33 -13.5t14 -33.5v-22q0 -20 -14 -34t-33 -14h-656q-19 0 -33 14t-14 34v22q0 20 14 33.5t33 13.5zM172 262h656
q19 0 33 -14t14 -34v-22q0 -20 -14 -33.5t-33 -13.5h-656q-19 0 -33 13.5t-14 33.5v22q0 20 14 34t33 14z" />
    <glyph glyph-name="app_navi_paste" unicode="&#xe202;" 
d="M433 918v2q0 22 -15 37t-37 15t-37 -15t-15 -37v-2h-98q-4 0 -7 -2.5t-3 -6.5v-79q0 -7 5 -12t12 -5h287q7 0 12 5t5 12v79q0 4 -3 6.5t-7 2.5h-99zM778 644v-122q0 -4 3 -7t7 -3h123zM761 456q-16 0 -27.5 11.5t-11.5 27.5v139q0 4 -3 7t-7 3h-258q-15 0 -25.5 -10.5
t-10.5 -25.5v-173q-29 4 -56 15v158q0 39 27 66t65 27h220q4 0 7 2.5t3 6.5v154q0 23 -16 38.5t-38 15.5h-22q-4 0 -7 -2.5t-3 -6.5v-79q0 -31 -21.5 -52.5t-51.5 -21.5h-287q-31 0 -52 21.5t-21 52.5v79q0 4 -3 6.5t-7 2.5h-22q-22 0 -38 -15.5t-16 -38.5v-617
q0 -23 16 -39t38 -16h219q4 0 7 3t3 7v35q27 -14 56 -23v-118q0 -15 10.5 -25.5t25.5 -10.5h432q14 0 24.5 10.5t10.5 25.5v350q0 4 -3 7t-7 3h-150zM246 358q-41 45 -66 105q-26 64 -26 124q0 20 12.5 23t18.5 -16q16 -47 46 -84t70 -62q52 -33 118 -41q38 -5 77 0v75
q1 11 8.5 16t18.5 -2l164 -167q4 -5 4 -11.5t-4 -11.5l-161 -163q-8 -10 -18.5 -6.5t-11.5 16.5v70q-40 7 -78 21v-1q-102 38 -172 115zM802 143h-236l57 59h179q4 0 7 -3t3 -7v-39q0 -4 -3 -7t-7 -3zM802 245h-137l29 29q17 15 23 29h85q4 0 7 -2.5t3 -6.5v-40
q0 -4 -3 -6.5t-7 -2.5zM802 346h-94q-6 9 -15 16l-42 43h151q4 0 7 -3t3 -7v-39q0 -4 -3 -7t-7 -3z" />
    <glyph glyph-name="app_navi_menu_dot" unicode="&#xe204;" 
d="M603 808q0 43 -30 73t-73 30t-73 -30.5t-30 -73t30 -72.5t72.5 -30t73 30.5t30.5 72.5zM603 192q0 43 -30 73t-73 30t-73 -30t-30 -73t30 -73t72.5 -30t73 30.5t30.5 72.5zM603 500q0 43 -30 73t-73 30t-73 -30t-30 -73t30 -73t72.5 -30t73 30.5t30.5 72.5z" />
    <glyph glyph-name="NaviSearch" unicode="&#xe210;" 
d="M655 407h-33l-11 11q31 36 48 81.5t17 94.5q0 74 -36.5 136t-98.5 98t-135.5 36t-135.5 -36t-98.5 -98t-36.5 -135.5t36.5 -135.5t98.5 -98.5t136 -36.5q49 0 94 17t81 48l12 -11v-33l208 -208l61 62zM406 407q-51 0 -94 25t-68.5 68t-25.5 94t25.5 94t68.5 68t94 25
t93.5 -25t68 -68t25.5 -94t-25.5 -94t-68 -68t-93.5 -25z" />
    <glyph glyph-name="NaviInputClear" unicode="&#xe511;" 
d="M499 917q-113 0 -210 -57q-94 -55 -149 -149q-57 -97 -57 -210t57 -210q55 -94 149 -149q97 -57 210 -57t210 57q94 55 149 149q57 97 57 210t-57 210q-55 94 -149 149q-97 57 -210 57zM707 352l-59 -59l-149 149l-149 -149l-59 59l149 149l-149 149l59 59l149 -149
l149 149l59 -59l-149 -149z" />
    <glyph glyph-name="NaviInputClear" unicode="&#xe211;" 
d="M499 917q-113 0 -210 -57q-94 -55 -149 -149q-57 -97 -57 -210t57 -210q55 -94 149 -149q97 -57 210 -57t210 57q94 55 149 149q57 97 57 210t-57 210q-55 94 -149 149q-97 57 -210 57zM707 352l-59 -59l-149 149l-149 -149l-59 59l149 149l-149 149l59 59l149 -149
l149 149l59 -59l-149 -149z" />
    <glyph glyph-name="app_drawer_setting" unicode="&#xe220;" 
d="M926 472l-89 34q-7 2 -7 10q-4 42 -18 83q-2 6 2 12l67 71q9 10 10 23.5t-6 24.5q-22 36 -50 66q-10 11 -24 12.5t-26 -5.5l-77 -48q-7 -4 -14 1q-42 31 -92 47q-7 2 -8 10l-13 94q-2 13 -12 23t-24 11q-22 2 -45 2t-45 -2q-14 -1 -24 -11t-12 -23l-13 -94q-1 -8 -8 -10
q-50 -16 -92 -47q-7 -5 -14 -1l-77 48q-12 7 -26 5.5t-24 -12.5q-28 -31 -50 -66q-7 -11 -6 -24.5t10 -23.5l67 -71q4 -6 2 -12q-14 -41 -18 -83q0 -8 -7 -10l-89 -34q-13 -5 -20 -16.5t-5 -25.5q5 -39 16 -77q5 -13 16.5 -21t26.5 -6l91 9q7 1 11 -6q23 -41 56 -75
q5 -5 3 -12l-28 -93q-4 -13 0.5 -25.5t15.5 -19.5q38 -24 79 -40q13 -5 26.5 -0.5t21.5 16.5l50 77q4 6 12 5q54 -9 108 0q8 1 12 -5l50 -77q8 -12 21.5 -16.5t26.5 0.5q41 16 79 40q11 7 15.5 19.5t0.5 25.5l-28 93q-2 7 3 12q33 34 56 75q4 7 11 6l91 -9q15 -2 26.5 6
t16.5 21q11 38 16 77q2 14 -5 25.5t-20 16.5zM500 323q-45 0 -83 22t-60 60t-22 83t22 83t60 60.5t83 22.5t83 -22.5t60 -60.5t22 -83q0 -33 -12.5 -63t-35.5 -53.5t-53.5 -36t-63.5 -12.5z" />
    <glyph glyph-name="DrawerCustom" unicode="&#xe221;" 
d="M945 212l-378 378q28 73 12 151t-75 136q-40 41 -94 61q-52 20 -107.5 18t-105.5 -25l178 -179l-124 -124l-183 179q-25 -50 -27 -105.5t19 -108.5t62 -94q58 -58 136 -74.5t151 12.5l378 -379q13 -12 29.5 -12t29.5 12l95 96q15 12 16 30t-12 28z" />
    <glyph glyph-name="DrawerDelete" unicode="&#xe230;" 
d="M250 210q0 -34 24 -58.5t59 -24.5h332q35 0 59.5 24.5t24.5 58.5v499h-499v-499zM790 834h-145l-42 41h-208l-42 -41h-145v-84h582v84z" />
    <glyph glyph-name="DrawerExit" unicode="&#xe231;" 
d="M420 352l58 -59l208 208l-208 208l-58 -59l107 -107h-402v-84h402zM790 875h-582q-35 0 -59 -24.5t-24 -58.5v-166h83v166h582v-582h-582v166h-83v-166q0 -35 24 -59t59 -24h582q35 0 59 24t24 59v582q0 34 -24.5 58.5t-58.5 24.5z" />
    <glyph glyph-name="app_drawer_sort_online" unicode="&#xe232;" 
d="M47 957h553q10 0 16.5 -7t6.5 -16v-29q0 -9 -6.5 -16t-16.5 -7h-553q-10 0 -17 7t-7 16v29q0 9 7 16t17 7zM47 818h553q10 0 16.5 -7t6.5 -17v-28q0 -10 -6.5 -16.5t-16.5 -6.5h-553q-10 0 -17 6.5t-7 16.5v28q0 10 7 17t17 7zM47 678h340q9 0 16 -6.5t7 -16.5v-28
q0 -10 -7 -17t-16 -7h-340q-10 0 -17 7t-7 17v28q0 10 7 16.5t17 6.5zM688 625q-82 0 -152 -42q-68 -40 -108 -108q-41 -70 -41 -152t41 -152q40 -68 108 -108q70 -41 152 -41t152 41q68 40 108 108q41 70 41 152t-41 152q-40 68 -108 108q-70 42 -152 42zM688 549
q56 0 104 -25.5t80 -69.5t40 -100h-49q-8 0 -17.5 5t-14.5 12l-60 80q-5 7 -12.5 7t-12.5 -7l-116 -155q-5 -7 -12.5 -7t-12.5 7l-32 42q-5 7 -14.5 11.5t-17.5 4.5h-77q8 56 39.5 100t80 69.5t104.5 25.5zM688 97q-56 0 -104 25.5t-80 70t-40 99.5h49q8 0 17.5 -5t14.5 -12
l60 -80q5 -7 12.5 -7t12.5 7l116 156q5 6 12.5 6t12.5 -6l32 -43q5 -7 14.5 -11.5t17.5 -4.5h77q-8 -55 -40 -99.5t-80 -70t-104 -25.5zM132 42q13 -1 22 8.5t9 21.5l1 441q0 5 -3 10t-9 7t-11.5 0.5t-9.5 -6.5l-110 -134q-8 -9 -3 -19.5t17 -10.5h67v-288q0 -12 9 -21
t21 -9zM248 531q-13 0 -22 -9t-9 -21l-1 -441q0 -6 3.5 -10.5t9 -6.5t11.5 -0.5t9 5.5l111 135q7 9 2 19.5t-17 10.5h-66v288q0 12 -9 21t-22 9z" />
    <glyph glyph-name="app_drawer_sort_user" unicode="&#xe233;" 
d="M587 296q-53 -32 -116 -41.5t-124.5 5.5t-110.5 53q-9 7 -12 19t2 23q24 53 75 119q28 37 56 66q-53 24 -79.5 75.5t-14.5 108.5t57.5 93.5t103.5 36.5t103 -36.5t57 -93.5t-14.5 -108.5t-79.5 -75.5q55 -57 97 -120v78q0 20 7.5 38t21.5 32t32 21.5t38 7.5h132
q-6 103 -61 190q-53 84 -140 133q-90 51 -193 51q-107 0 -199 -54q-90 -52 -142 -142q-54 -92 -54 -199t54 -199q52 -89 142 -141q92 -54 199 -54q85 0 163 35v79zM914 544h-228q-19 0 -32.5 -13.5t-13.5 -32.5v-411q0 -19 13.5 -32.5t32.5 -13.5h228q19 0 32.5 13.5
t13.5 32.5v411q0 19 -13.5 32.5t-32.5 13.5zM896 139h-192q-6 0 -10 4t-4 10v298q0 5 4 9t10 4h192q6 0 10 -4t4 -9v-298q-1 -6 -5 -10t-9 -4z" />
    <glyph glyph-name="app_drawer_character_change" unicode="&#xe234;" 
d="M329 193q-4 18 -1.5 36t12.5 33q-57 15 -104 51q-9 7 -12 19t2 23q24 53 75 119q28 37 56 66q-53 24 -79.5 75.5t-14.5 108.5t57 93.5t103.5 36.5t103.5 -36.5t57 -93.5t-14.5 -108.5t-79.5 -75.5q41 -45 77 -94h95v37q0 25 13 46t35 32.5t46.5 9.5t44.5 -17l15 -11
q2 17 2 33l-1 21h1q-6 103 -61 189q-53 85 -140 134q-90 51 -193 51h-1q-103 0 -193 -51q-87 -49 -141 -133q-54 -87 -60 -190h1l-1 -21q0 -76 28.5 -146.5t80.5 -125.5t122 -87v0q33 -15 69 -24zM964 303h-533h-6q-13 3 -21.5 13t-8.5 23v2q0 15 10.5 25.5t25.5 10.5h299
v106q0 12 10.5 17.5t20.5 -1.5l216 -159q5 -4 7 -10.5t-0.5 -12.5t-8 -10t-11.5 -4zM984 199v-2q0 -15 -10.5 -25.5t-25.5 -10.5h-299v-106q0 -12 -10.5 -17.5t-20.5 1.5l-215 159q-6 4 -7.5 10.5t0.5 12.5t7.5 10t11.5 4h533h6q13 -3 21.5 -13t8.5 -23z" />
    <glyph glyph-name="ViewRefresh" unicode="&#xe240;" 
d="M790 667l-166 -166h125q0 -68 -34 -125t-91 -91t-125 -34q-63 0 -116 30l-61 -61q81 -52 177 -52q91 0 168 46q75 44 120 119q45 78 45 168h125zM250 501q0 68 33.5 125t90.5 90.5t125 33.5q63 0 116 -29l61 61q-81 52 -177 52q-91 0 -168 -46q-75 -44 -120 -119
q-45 -78 -45 -168h-124l166 -166l166 166h-124z" />
    <glyph glyph-name="ViewLoad" unicode="&#xe241;" 
d="M734 736q-46 46 -106 71q-62 27 -129 27q-91 0 -168 -46q-75 -44 -119 -119q-46 -78 -46 -168t46 -168q44 -75 119 -119q77 -46 168 -46q76 0 144 33q65 32 112 88.5t65 128.5h-86q-26 -74 -90.5 -120.5t-144.5 -46.5q-68 0 -125.5 34t-91 91t-33.5 125t33.5 125t91 90.5
t125.5 33.5q50 0 97 -20q44 -19 78 -54l-134 -133h291v291z" />
    <glyph glyph-name="app_view_list" unicode="&#xe250;" 
d="M850 875h-700q-10 0 -17.5 -7.5t-7.5 -17.5v-137q0 -11 7.5 -18t17.5 -7h700q10 0 17.5 7t7.5 18v137q0 10 -7.5 17.5t-17.5 7.5zM281 744q0 -10 -7.5 -17.5t-17.5 -7.5h-74q-11 0 -18.5 7.5t-7.5 17.5v74q0 11 7.5 18.5t18.5 7.5h74q10 0 17.5 -7.5t7.5 -18.5v-74z
M850 594h-700q-10 0 -17.5 -7.5t-7.5 -18.5v-136q0 -11 7.5 -18.5t17.5 -7.5h700q10 0 17.5 7.5t7.5 18.5v136q0 11 -7.5 18.5t-17.5 7.5zM281 463q0 -11 -7.5 -18t-17.5 -8h-74q-11 1 -18.5 8t-7.5 18v74q0 11 7.5 18.5t18.5 7.5h74q10 0 17.5 -7.5t7.5 -18.5v-74zM850 313
h-700q-10 -1 -17.5 -8t-7.5 -18v-137q0 -10 7.5 -17.5t17.5 -7.5h700q10 0 17.5 7.5t7.5 17.5v137q0 11 -7.5 18.5t-17.5 7.5zM281 182q0 -11 -7.5 -18.5t-17.5 -7.5h-74q-11 0 -18.5 7.5t-7.5 18.5v74q0 10 7.5 17.5t18.5 7.5h74q10 0 17.5 -7.5t7.5 -17.5v-74z" />
    <glyph glyph-name="app_view_grid" unicode="&#xe251;" 
d="M850 313h-700q-10 -1 -17.5 -8t-7.5 -18v-137q0 -10 7.5 -17.5t17.5 -7.5h700q10 0 17.5 7.5t7.5 17.5v137q0 11 -7.5 18.5t-17.5 7.5zM281 182q0 -11 -7.5 -18.5t-17.5 -7.5h-74q-11 0 -18.5 7.5t-7.5 18.5v74q0 10 7.5 17.5t18.5 7.5h74q10 0 17.5 -7.5t7.5 -17.5v-74z
M166 875h105q11 0 18.5 -7.5t7.5 -17.5v-43q0 -11 -7.5 -18.5t-18.5 -7.5h-105q-11 0 -18 7.5t-7 18.5v43q0 10 7 17.5t18 7.5zM354 875h105q11 0 18 -7.5t7 -17.5v-43q0 -11 -7 -18.5t-18 -7.5h-105q-11 0 -18.5 7.5t-7.5 18.5v43q0 10 7.5 17.5t18.5 7.5zM541 875h105
q11 0 18.5 -7.5t7.5 -17.5v-43q0 -11 -7.5 -18.5t-18.5 -7.5h-105q-11 0 -18 7.5t-7 18.5v43q0 10 7 17.5t18 7.5zM729 875h105q11 0 18 -7.5t7 -17.5v-43q0 -11 -7 -18.5t-18 -7.5h-105q-11 0 -18.5 7.5t-7.5 18.5v43q0 10 7.5 17.5t18.5 7.5zM166 688h105q11 0 18.5 -7.5
t7.5 -18.5v-43q0 -10 -7.5 -17.5t-18.5 -7.5h-105q-11 0 -18 7.5t-7 17.5v43q0 11 7 18.5t18 7.5zM354 688h105q11 0 18 -7.5t7 -18.5v-43q0 -10 -7 -17.5t-18 -7.5h-105q-11 0 -18.5 7.5t-7.5 17.5v43q0 11 7.5 18.5t18.5 7.5zM541 688h105q11 0 18.5 -7.5t7.5 -18.5v-43
q0 -10 -7.5 -17.5t-18.5 -7.5h-105q-11 0 -18 7.5t-7 17.5v43q0 11 7 18.5t18 7.5zM166 500h105q11 0 18.5 -7.5t7.5 -17.5v-43q0 -11 -7.5 -18.5t-18.5 -7.5h-105q-11 0 -18 7.5t-7 18.5v43q0 10 7 17.5t18 7.5zM354 500h105q11 0 18 -7.5t7 -17.5v-43q0 -11 -7 -18.5
t-18 -7.5h-105q-11 0 -18.5 7.5t-7.5 18.5v43q0 10 7.5 17.5t18.5 7.5zM541 500h105q11 0 18.5 -7.5t7.5 -17.5v-43q0 -11 -7.5 -18.5t-18.5 -7.5h-105q-11 0 -18 7.5t-7 18.5v43q0 10 7 17.5t18 7.5zM729 688h105q11 0 18 -7.5t7 -18.5v-43q0 -10 -7 -17.5t-18 -7.5h-105
q-11 0 -18.5 7.5t-7.5 17.5v43q0 11 7.5 18.5t18.5 7.5z" />
    <glyph glyph-name="ViewDetail" unicode="&#xe252;" 
d="M166 750h-83v-582q0 -34 24.5 -58.5t58.5 -24.5h583v83h-583v582zM832 917h-499q-35 0 -59 -24.5t-24 -58.5v-499q0 -35 24 -59.5t59 -24.5h499q34 0 58.5 24.5t24.5 59.5v499q0 34 -24.5 58.5t-58.5 24.5zM790 543h-416v83h416v-83zM624 376h-250v83h250v-83zM790 709
h-416v83h416v-83z" />
    <glyph glyph-name="app_drawer_service" unicode="&#xe261;" 
d="M348 599q0 -41 20.5 -76.5t56 -56t77 -20.5t76.5 20.5t56 56t21 77t-21 77t-56 56t-76.5 20.5t-77 -20.5t-56 -56t-20.5 -77.5zM833 594q12 15 17 34t2 38.5t-13.5 36t-26.5 28.5l-6 4q-18 12 -29 31.5t-12 41.5l-1 4q-1 19 -9.5 36.5t-23 30.5t-33 18.5t-38.5 4.5l-7 -1
q-22 -2 -42.5 5.5t-35.5 23.5l-5 4q-13 14 -31 22t-37 8t-37 -7.5t-32 -21.5l-4 -5q-15 -15 -35.5 -22.5t-42.5 -5.5l-8 1q-19 2 -37.5 -4t-33.5 -18.5t-23.5 -30t-9.5 -36.5l-1 -4q-1 -22 -12 -41.5t-29 -31.5l-6 -4q-16 -11 -27 -27.5t-14 -36t1.5 -38.5t16.5 -35l1 -1
q14 -18 18 -40.5t-2 -44.5l-2 -5q-8 -26 -1 -51.5t26 -44.5t45 -24h2q9 -3 13.5 -11.5t0.5 -16.5l-102 -236q-4 -8 1.5 -14.5t13.5 -4.5l69 16q13 4 25.5 -1.5t18.5 -17.5l35 -61q4 -7 12.5 -6.5t11.5 7.5l100 231q5 11 15 14q31 10 61 0q11 -4 15 -14l100 -231
q3 -7 11.5 -7.5t12.5 6.5l35 61q7 12 19 17.5t25 1.5l69 -16q8 -2 13.5 4.5t2.5 14.5l-103 237q-3 7 0 14.5t11 9.5l5 1q19 4 35.5 16t26.5 29t12.5 36.5t-2.5 38.5l-2 5q-6 22 -1.5 44t17.5 40zM501 350q-70 0 -128.5 34t-93 93t-34.5 128.5t34.5 128t93 93t128 34.5
t128.5 -34.5t93.5 -93t34.5 -128.5q0 -50 -19.5 -97t-55.5 -83t-83 -55.5t-98 -19.5z" />
    <glyph glyph-name="app_drawer_news" unicode="&#xe262;" 
d="M823 615l-12 2q-107 20 -194 60q-112 52 -147 121q-10 21 -25 58q-18 40 -27 56q-15 25 -36 37q-16 10 -34 13l-11 2q-3 1 -4 0q-50 1 -102 -51t-93 -141q-42 -93 -63 -204.5t-15 -212.5q5 -98 35 -165.5t77 -84.5q1 -1 3 -2l12 -2q18 -3 36 1q23 3 46 21q15 11 46 42
q27 29 45 44q57 53 181 60q95 6 202 -14l12 -3q40 -7 78.5 11t66 56t36.5 87t-3 94.5t-41 76t-69 38.5zM370 512q-18 -92 -47 -169q-27 -74 -59 -115.5t-60 -35.5q-34 6 -54 57t-22 131q-2 83 15 175t49 168q31 74 68.5 114.5t70.5 33.5q28 -5 43 -55t14 -129
q-1 -82 -18 -175zM295 636q-41 -5 -70.5 -29.5t-36 -60t12 -69t54.5 -52.5q17 -9 32 -2.5t20 24.5q10 36 17 74t11 75q2 19 -10 30.5t-30 9.5zM694 214q-31 -9 -62 -5l-52 7q-8 0 -12 -7l-27 -49q-4 -7 -10 -14l-48 -63q-3 -5 -2 -11t7 -9l15 -9q35 -19 74 -17l17 1
q25 2 45.5 17t28.5 39l38 102q2 6 -1.5 12t-10.5 6z" />
    <glyph glyph-name="app_drawer_guide" unicode="&#xe263;" 
d="M971 848l-445 97q-20 5 -41 2q-29 -6 -49 -28l-363 -390q-34 -37 -52.5 -84.5t-18.5 -97.5v-16q0 -52 30 -93.5t79 -57.5l427 -146q24 -8 48.5 -1t40.5 27l352 432q10 13 7 30v0q-5 19 -16 40q-10 16 -11 26.5t0 21.5q1 6 4 20l3 10q3 16 -3.5 28t-23.5 15q-13 3 -23 -5
q-8 -6 -19 -22q-8 -14 -10.5 -39t3.5 -47q4 -11 10 -30q4 -11 -4 -20l-313 -384q-8 -9 -20.5 -13t-24.5 0l-395 124q-27 9 -44 31.5t-17 51.5v32q-2 20 6 33t22 17.5t28 0.5l392 -118q7 -2 14 -2h1q21 0 36 17l408 478q9 10 9 23v2q0 12 -7.5 22t-19.5 13zM424 507
q-16 -18 -42 -26.5t-47 -4t-24.5 20t12.5 33t42 26t47 3.5t24.5 -20t-12.5 -32zM747 724q-24 -26 -56 -41q-36 -17 -106 -31q-44 -9 -64 -19q-14 -7 -43 -35q-8 -8 -19 -5l-12 3q-3 1 -4 4t1 5q22 24 37 35q17 14 57 34.5t59 34.5l12 8q26 17 36 28q16 17 22.5 29t4 21.5
t-13 17t-22.5 9.5q-18 4 -35 -1q-7 -1 -14.5 -5t-11 -8t-5.5 -14l-1 -5q-3 -11 -4 -15q-3 -8 -8 -13q-15 -16 -29 -20q-18 -6 -34.5 -2.5t-19.5 16.5q-1 8 0 17q3 11 10 19q13 14 35 24q18 8 48 17q28 8 59.5 9t59.5 -5q55 -13 71 -45q7 -16 6 -33q-2 -19 -16 -34z" />
    <glyph glyph-name="app_drawer_qa" unicode="&#xe264;" 
d="M287 565q-42 0 -74.5 -18.5t-51 -52.5t-18.5 -77t18.5 -76.5t51.5 -52t74 -18.5q38 0 67 15l-92 92h74l60 -59q16 18 24 39q11 26 11 60q0 43 -18.5 77t-51.5 52.5t-74 18.5zM877 893h-57q-10 0 -19.5 5t-14.5 13l-39 72q-6 8 -14.5 12.5t-18 4.5t-18.5 -4.5t-14 -12.5
l-39 -72q-6 -8 -15 -13t-19 -5h-58q-33 0 -61 -16.5t-44.5 -45t-16.5 -61.5v-56h-306q-34 0 -62 -16.5t-44.5 -44.5t-16.5 -61v-362q0 -33 16.5 -61.5t44.5 -45t62 -16.5h69q11 0 20 -5t15 -13l26 -72q6 -8 14.5 -12.5t18.5 -4.5t18.5 4.5t13.5 12.5l27 72q6 8 15 13t19 5
h70q33 0 61 16.5t44.5 45t17.5 61.5v56h305q34 0 62 16.5t44.5 44.5t16.5 61v362q0 33 -16.5 61.5t-44.5 45t-62 16.5zM426 214l-29 30q-46 -30 -110 -30q-58 0 -104.5 26.5t-73 73t-26.5 103.5t26.5 103.5t73 73.5t104 27t104.5 -27t73.5 -73.5t26.5 -103.5q0 -82 -54 -140
l63 -63h-74zM929 408q0 -21 -15.5 -36t-36.5 -15h-306v52h14l42 94h168l41 -94h64l-185 414l-144 -305v74q0 35 -19 65.5t-52 45.5v67q0 21 15 36t36 15h70q22 0 34.5 7t20.5 21q6 9 14 31q7 18 11 26.5t13.5 8.5t12.5 -8l10 -27q10 -28 15 -36q8 -13 19.5 -18t36.5 -5h69
q21 0 36.5 -15t15.5 -36v-362zM652 560l60 132l59 -132h-119z" />
    <glyph glyph-name="app_drawer_support" unicode="&#xe265;" 
d="M997 384q-6 69 -30 106q-24 40 -70 46q-29 79 -88.5 140.5t-139.5 94.5q-4 2 -4 6.5t4 6.5q45 18 72 51t27 73q0 48 -40 86q-3 4 -7.5 1.5t-2.5 -6.5q12 -23 12 -50q0 -33 -21 -59q-19 -23 -57 -44q-52 -28 -111 -22q-20 2 -41 2q-89 0 -171 -38q-79 -36 -138 -99.5
t-88 -142.5q-46 -6 -70 -46q-24 -37 -30 -106q-7 -78 22 -116q26 -34 82 -37q38 -70 111.5 -115.5t165.5 -53.5q8 -1 11 -7q6 -12 17.5 -18.5t24.5 -6.5h101q19 0 33.5 14.5t14.5 34.5t-14 34.5t-34 14.5h-101q-13 0 -24 -6.5t-17 -17.5q-4 -7 -13 -6q-72 10 -130.5 45.5
t-91.5 91.5q4 1 7 3q10 2 17.5 44t7.5 101q0 56 -6.5 97t-16.5 47q21 75 75 125t140 72q41 10 76 5q41 -5 63 -32q14 -17 14 -51q0 -23 -10 -43q-4 -9 3 -16t16 -3q31 17 49.5 44.5t18.5 57.5q0 12 -3.5 24t6 20.5t20.5 3.5q70 -29 119.5 -82.5t71.5 -124.5q-7 -10 -11 -50
t-4 -92q0 -44 3 -79.5t8 -53.5q0 -6 4 -10l1 -1q4 -5 10 -6q12 -4 42 -4q61 0 90 34q32 37 25 119zM584 242h-166q-7 0 -10.5 -5.5t-0.5 -11.5q10 -22 35.5 -36.5t58 -14.5t58.5 14.5t36 36.5q3 6 -1 11.5t-10 5.5zM309 386q0 -24 17 -41t41 -17t40.5 17t16.5 41t-16.5 40.5
t-40.5 16.5t-41 -16.5t-17 -40.5zM577 386q0 -24 17 -41t40.5 -17t40.5 17t17 41t-17 40.5t-40.5 16.5t-40.5 -16.5t-17 -40.5z" />
    <glyph glyph-name="app_drawer_edb" unicode="&#xe266;" 
d="M892 233q-54 54 -108 107q-5 5 -6 11.5t2 12.5q26 53 21 112t-40 106.5t-90 70t-113 12.5q-40 -6 -77.5 -31.5t-63.5 -63t-32 -77.5q-10 -57 11 -111.5t67.5 -90t104 -42.5t111.5 17q5 3 11.5 2t10.5 -6l110 -110q11 -11 26 -15t29.5 0t25.5 14.5t15 25.5t0 30t-15 26z
M449 453q-1 44 22.5 81t64 54.5t83.5 9.5t74 -39t39.5 -74.5t-9 -83.5t-55 -63.5t-81.5 -22.5q-37 1 -68 20t-50 50t-20 68zM670 190q3 4 0 11.5t-10 5.5l-20 -4q-10 -2 -28 -2q-13 -1 -20 -2h-1q-8 0 -16 -10l-3 -3q-8 -8 -18 -11t-21 1l-350 110q-24 7 -39 27.5t-15 45.5
v29q-3 26 13 38.5t37 6.5l132 -40q11 -3 20 5t6 20v0q-4 22 -5 37q0 19 4 47q6 36 25.5 72t49.5 66t66 49t73 25q21 3 41 3q53 0 100 -19t84 -55l5 -6q9 -9 22 -9t22 10l110 127q7 9 7 21v1q0 7 -2 12q-6 16 -22 20l-394 86q-18 4 -36 1q-26 -5 -44 -24l-322 -346
q-30 -33 -46 -75t-16 -87v-14q0 -46 26.5 -83t69.5 -51l378 -129q22 -7 43.5 -1t36.5 23l41 51q2 1 16 20zM852 528q-8 -10 -6 -22q5 -24 5 -48v-4q0 -4 2.5 -8t7 -5.5t9 -0.5t7.5 5l48 58q9 11 6 26v0q-4 17 -14 36q-9 14 -10 23.5t0 18.5q1 6 4 18l2 9q3 14 -3 24t-21 12
q-11 2 -20 -4q-7 -6 -17 -20q-7 -12 -9 -33.5t3 -40.5l9 -27q3 -9 -3 -17z" />
    <glyph glyph-name="app_drawer_game_help" unicode="&#xe267;" 
d="M572 341l-4 41q0 6 -6 9t-12 0q-31 -18 -65 -29v0q-8 -2 -8 -10.5t8 -10.5l42 -13q6 -2 12 -2v0q20 0 33 15zM562 156q1 7 -4.5 12.5t-12 5.5t-11.5 1l-350 111q-25 7 -40 27.5t-15 45.5l1 29q-3 26 13 38.5t36 6.5l95 -29q9 -3 15.5 4.5t2.5 15.5q-6 17 -10 34
q-12 63 23 117q29 43 97 92q45 32 100 30.5t97 -36.5q21 -16 35 -38q6 -9 16.5 -9t16.5 9q15 22 35 38q45 36 102 36q32 0 61 -12l69 80q8 9 8 21v1q0 6 -2 12q-6 16 -23 20l-394 86q-18 4 -36 1q-26 -5 -44 -24l-322 -347q-30 -33 -46.5 -74.5t-16.5 -86.5v-14
q0 -46 27 -83t70 -51l379 -130q9 -2 17 3.5t9 15.5zM735 385l-2 -2q-3 -4 -3 -9l-5 -47l2 -25q0 -11 10 -14t17 5l44 54q5 6 3 13.5t-9 10.5q-19 8 -37 18q-5 3 -10.5 2t-9.5 -6zM872 628q-37 26 -79 22q-37 -4 -65.5 -28.5t-34.5 -56.5q-2 -9 -1 -18h-1l-32 -30
q-5 -5 -12.5 -4.5t-13.5 5.5l-23 26h-1q1 11 -1 21q-6 32 -34.5 56.5t-65.5 28.5q-42 4 -79 -22q-61 -43 -84 -79q-25 -38 -17 -83q19 -97 143 -59q32 10 59 27t46 38q4 5 10 6t12 -1v0q9 -5 10 -15l10 -110q2 -19 0 -38l-10 -154q-1 -6 2 -10.5t8 -7.5l21 -9q7 -4 14 -1
t10 10l7 16q2 4 2 9l-8 142q-2 32 6 62l19 83q2 8 10 12l11 5q5 2 10.5 1t9.5 -5q40 -42 100 -60q63 -19 102 -1q37 16 46 64q8 43 -19 81q-23 33 -87 77z" />
    <glyph glyph-name="app_drawer_patchnote" unicode="&#xe268;" 
d="M920 900q-111 26 -210 1q-7 -2 -13 -7.5t-8 -13.5t0 -15.5t7 -13.5h1q5 -6 13 -8t16 0q72 20 154 2v-473q-100 10 -199 -18t-181 -87q-82 59 -181 87t-199 18v473q82 18 154 -2q8 -2 16 0t13 8h1q5 6 7 13.5t0 15.5t-8 13.5t-13 7.5q-99 25 -210 -1q-8 -2 -13 -8t-5 -14
v-665q0 -10 7.5 -17t17.5 -6q79 10 141 1q66 -9 127 -40t129 -89q7 -5 16 -5t16 5q68 58 129 89t127 40q62 9 141 -1q10 -1 17.5 6t7.5 17v665q0 8 -5 14t-13 8zM880 251q-101 11 -202 -24q-97 -33 -178 -103q-81 70 -178 103q-101 35 -202 24v73q100 9 188 -16.5t178 -89.5
q6 -4 14 -4t14 4q90 64 178 89.5t188 16.5v-73zM754 719l-211 213q-18 17 -43 17t-43 -17l-211 -213q-17 -18 -17 -43t17 -42l160 -161q6 -6 13 -3t7 11v83q0 5 -3 9l-87 88q-6 6 -6 15t6 16l148 149q7 7 16 7t16 -7l148 -149q6 -6 6 -15.5t-6 -15.5l-66 -66q-4 -4 -8.5 -4
t-8.5 4l-70 70q-3 3 -7 1.5t-4 -6.5v-265q0 -5 4 -6.5t7 1.5l243 244q17 17 17 42t-17 43z" />
    <glyph glyph-name="app_notification_topics" unicode="&#xe271;" 
d="M730 92q-19 1 -36 10l-176 91q-6 4 -18 4t-18 -4l-176 -91q-19 -10 -37 -9.5t-32.5 11t-20.5 27.5t-3 37l32 186q2 12 -2.5 26.5t-13.5 22.5l-136 131q-15 15 -20 32t0.5 34t20 28t35.5 14l188 27q12 2 24 11t18 20l84 168q9 19 24 29.5t33 10.5t33 -10.5t24 -29.5
l84 -168q6 -11 18 -20t24 -11l188 -27q21 -3 35.5 -14t20 -28t0.5 -34t-20 -32l-136 -131q-9 -9 -13.5 -23t-2.5 -26l32 -186q3 -20 -3 -37t-21 -28t-33 -11zM500 293q12 0 49 -20l115 -60q10 -5 18.5 1t6.5 17l-29 170q-2 11 6 19l125 121q7 7 4 17t-14 11l-164 24
q-8 1 -16.5 7t-11.5 14l-74 147q-4 9 -15 9t-15 -9l-74 -147q-3 -8 -11.5 -14t-16.5 -7l-164 -23q-11 -2 -14 -12t4 -17l119 -115q6 -6 9 -15.5t2 -17.5l-28 -162q-2 -10 6.5 -16.5t18.5 -1.5l116 61q36 19 48 19z" />
    <glyph glyph-name="app_notification_notices" unicode="&#xe272;" 
d="M888 147q-21 48 -56 123q-7 15 2 28q32 54 46 115t8 123q-8 93 -58 172q-49 77 -127 125q-79 49 -172 56q-88 7 -170 -24q-78 -29 -137.5 -88.5t-88.5 -138.5q-31 -81 -24 -170q7 -92 56 -172q48 -78 125 -127q79 -50 172 -58q62 -6 123 8t115 47q13 8 28 2l123 -56
q11 -5 21 -0.5t14.5 14.5t-0.5 21zM485 279q-11 -27 -38.5 -38.5t-55 0t-39 39t0 55t39 38.5t55 0t38.5 -38.5t0 -54.5v-1zM460 406q-20 8 -28 28t0 40l73 248q8 19 24.5 32.5t38 16t41 -5.5t32.5 -25t15.5 -38t-5.5 -41l-124 -227q-8 -19 -27.5 -27.5t-39.5 -0.5z" />
    <glyph glyph-name="app_notification_maintenance" unicode="&#xe273;" 
d="M556 603q20 64 4.5 130t-63.5 115q-37 38 -87 56.5t-103 14.5q-16 -1 -25.5 -12t-10 -25.5t10.5 -26.5q18 -17 63 -52.5t62 -52.5t16.5 -39.5t-16.5 -38.5l-79 -79q-16 -16 -39 -16.5t-38 15.5l-106 125q-12 11 -26.5 11t-25.5 -9.5t-12 -25.5q-5 -60 19.5 -115.5t72 -93
t107.5 -48.5t117 7q9 3 17.5 0.5t13.5 -9.5l242 -311q28 -30 66.5 -41t77.5 -1t67 38.5t38 67t-1 77.5t-41 66l-311 242q-7 5 -9.5 13.5t-0.5 17.5zM808 192q-10 -11 -24.5 -13.5t-28.5 3t-22 17.5t-8 27t8 27.5t22 18t28.5 2.5t24.5 -13q14 -14 14 -34.5t-14 -34.5z" />
    <glyph glyph-name="app_notification_updates" unicode="&#xe274;" 
d="M893 578l-327 329q-27 28 -66 28t-66 -28l-327 -329q-27 -27 -27 -66t27 -66l248 -249q4 -4 9 -5t10 1t8 6.5t3 10.5v129q0 8 -5 13l-133 136q-10 10 -10 24t10 24l229 231q10 10 24 10t24 -10l229 -231q10 -10 10 -24t-10 -24l-102 -102q-5 -6 -12.5 -6t-12.5 6
l-108 108q-5 5 -11.5 2.5t-6.5 -9.5v-411q0 -7 6.5 -9.5t11.5 2.5l375 377q27 27 27 66t-27 66z" />
    <glyph glyph-name="app_notification_status" unicode="&#xe275;" 
d="M500 930q-117 0 -217 -59q-97 -57 -154 -154q-59 -100 -59 -217t59 -217q57 -97 154 -154q100 -59 217 -59t217 59q97 57 154 154q59 100 59 217t-59 217q-57 97 -154 154q-100 59 -217 59zM614 481l142 -142q8 -8 8 -19.5t-8 -18.5l-57 -57q-7 -8 -18.5 -8t-19.5 8
l-142 142q-8 8 -19 8t-19 -8l-142 -142q-8 -8 -19 -8t-19 8l-57 57q-8 7 -8 18.5t8 19.5l142 142q8 8 8 19t-8 19l-142 142q-8 8 -8 19.5t8 18.5l57 57q8 8 19 8t19 -8l142 -142q8 -8 19 -8t19 8l142 142q8 8 19.5 8t18.5 -8l57 -57q8 -7 8 -18.5t-8 -19.5l-142 -142
q-8 -8 -8 -19t8 -19z" />
    <glyph glyph-name="Chat" unicode="&#xe300;" 
d="M832 917h-666q-34 0 -58.5 -24.5t-24.5 -58.5v-749l167 166h582q34 0 58.5 24.5t24.5 59.5v499q0 34 -24.5 58.5t-58.5 24.5zM250 626h499v-83h-499v83zM582 418h-332v83h332v-83zM749 667h-499v83h499v-83z" />
    <glyph glyph-name="app_chat_bg" unicode="&#xe303;" 
d="M891 238v524q0 35 -17.5 64.5t-47 47t-64.5 17.5h-524q-35 0 -64.5 -17.5t-47 -47t-17.5 -64.5v-524q0 -35 17.5 -64.5t47 -47t64.5 -17.5h524q35 0 64.5 17.5t47 47t17.5 64.5zM365 414l92 -110l134 173q7 9 17.5 9t17.5 -9l152 -203q8 -11 2 -23t-19 -12h-521
q-6 0 -11 3.5t-8 9t-2 11.5t5 11l108 139q6 9 16.5 9t16.5 -8z" />
    <glyph glyph-name="app_chat_bg_trim" unicode="&#xe304;" 
d="M734 55q-22 0 -38 16t-16 38v102h-375q-39 0 -66.5 27.5t-27.5 66.5v375h-102q-22 0 -38 16t-16 38.5t16 38.5t38 16h102v102q0 22 16 38t38.5 16t38.5 -16t16 -38v-547q0 -10 7 -17t17 -7h547q22 0 38 -16t16 -38.5t-16 -38.5t-38 -16h-102v-102q0 -22 -16 -38t-39 -16z
M680 367v289q0 10 -7 17t-17 7h-289v109h328q39 0 66.5 -27.5t27.5 -66.5v-328h-109z" />
    <glyph glyph-name="app_chat_photo" unicode="&#xe305;" 
d="M109 734h-78v-195h1l-1 -351q0 -33 23 -56t55 -23h704v79h-704v546zM891 813h-313l-78 78h-234q-33 -1 -55.5 -23.5t-22.5 -55.5v-468q0 -33 22.5 -55.5t55.5 -22.5h625q32 0 55 22.5t23 55.5v390q0 33 -23 55.5t-55 23.5zM305 383l175 234l137 -176l98 118l137 -176
h-547z" />
    <glyph glyph-name="MessageSend" unicode="&#xe310;" 
d="M29 99l938 402l-938 402v-313l670 -89l-670 -89v-313z" />
    <glyph glyph-name="app_chat_stamp" unicode="&#xe311;" 
d="M500 930q-117 0 -217 -59q-97 -57 -154 -154q-59 -100 -59 -217t59 -217q57 -97 154 -154q100 -59 216.5 -59t217.5 59q97 57 154 154q59 100 59 217t-59 217q-57 97 -154 154q-101 59 -217 59zM500 156q-93 0 -173 47q-78 46 -124 124q-47 80 -47 173t47 173
q46 78 124 124q80 47 173 47t173 -47q78 -46 124 -124q47 -80 47 -173t-47 -173q-46 -78 -124 -124q-80 -47 -173 -47zM346 487q44 -39 99 -52.5t110 0t99 52.5q6 5 14 4.5t13 -6.5l21 -22q5 -6 5 -14t-6 -14q-57 -51 -129 -69t-144 0t-129 69q-6 6 -6 14t5 14l21 22
q5 6 13 6.5t14 -4.5zM419 697h18q11 0 19 -8t8 -19v-107q0 -11 -8 -19t-19 -8h-18q-11 0 -18.5 8t-7.5 19v107q0 11 7.5 19t18.5 8zM563 697h18q11 0 18.5 -8t7.5 -19v-107q0 -11 -7.5 -19t-18.5 -8h-18q-11 0 -19 8t-8 19v107q0 11 8 19t19 8z" />
    <glyph glyph-name="app_reaction_template" unicode="&#xe313;" 
d="M743 915h-486q-48 0 -89 -24t-65 -65t-24 -89v-376q0 -48 24 -89.5t65 -65.5t89 -24h133l110 -121l110 121h133q48 0 89 24t65 65.5t24 89.5v376q0 48 -24 89t-65 65t-89 24zM268 350q18 18 35 37l-2 3q-28 34 -44 66q-22 46 -22 94.5t22 94.5q16 32 44 66l2 3l-35 37
q-4 5 -1.5 11t9.5 6l140 -4q4 -1 6.5 -3.5t2.5 -7.5l-5 -142q0 -6 -6 -8.5t-10 2.5l-35 38q-39 -49 -39 -92.5t39 -93.5l35 39q4 5 10 2.5t6 -9.5l5 -142q0 -4 -2.5 -7t-6.5 -3l-140 -4q-7 0 -9.5 6t1.5 11zM699 390l-2 -3l35 -37q4 -5 1.5 -11t-9.5 -6l-140 4q-4 0 -6.5 3
t-2.5 7l5 142q0 7 6 9.5t10 -2.5l35 -39q39 50 39 93.5t-39 92.5l-35 -38q-4 -5 -10 -2.5t-6 8.5l-5 142q0 4 2.5 7t6.5 4q70 2 140 3q7 1 9.5 -5t-1.5 -11l-35 -37l2 -3q28 -34 44 -66q22 -47 22 -95t-22 -94q-16 -32 -44 -66z" />
    <glyph glyph-name="app_reaction_emoji_add" unicode="&#xe314;" 
d="M958 896h-62v61q0 17 -12 29t-29 12h-87q-17 0 -29 -12t-12 -29v-61h-62q-17 0 -29 -12t-12 -29v-4q-81 34 -169 34q-116 0 -217 -59q-97 -57 -154 -154q-58 -100 -58 -216.5t58 -216.5q57 -98 154 -155q101 -58 217.5 -58t216.5 58q97 57 154 155q59 100 59 216
q0 88 -34 168h4q17 0 29 12t12 29v62h62q17 0 29 12t12 29v88q0 17 -12 29t-29 12zM644 652q29 0 49.5 -20.5t20.5 -49t-20.5 -49t-49.5 -20.5t-49.5 20.5t-20.5 49t20.5 49t49.5 20.5zM267 652q29 0 49.5 -20.5t20.5 -49t-20.5 -49t-49.5 -20.5t-49.5 20.5t-20.5 49
t20.5 49t49.5 20.5zM740 397q-10 -70 -50.5 -126.5t-102 -88.5t-132 -32t-132 32t-102 88.5t-50.5 126.5q-2 16 8.5 27.5t26.5 11.5h499q16 0 26.5 -11.5t8.5 -27.5zM958 767h-103v-103h-87v103h-103v88h103v102h87v-102h103v-88z" />
    <glyph glyph-name="app_reaction_template_add" unicode="&#xe315;" 
d="M958 896h-62v61q0 17 -12 29t-29 12h-87q-17 0 -29 -12t-12 -29v-61h-62q-16 0 -27.5 -10.5t-13.5 -25.5h-411q-49 0 -90 -24.5t-65 -65.5t-24 -89v-376q0 -48 24 -89t65 -65.5t90 -24.5h133l109 -121l110 121h133q48 0 89 24.5t65.5 65.5t24.5 89v324q9 6 14.5 15.5
t5.5 19.5v62h61q17 0 29 12t12 29v88q0 17 -12 29t-29 12zM324 402q18 19 35 38q5 5 11 2.5t6 -8.5l5 -142q0 -5 -3 -8t-7 -3l-140 -4q-7 0 -9.5 6t2.5 11l35 37l-3 3q-28 34 -43 66q-23 46 -23 94.5t23 94.5q15 32 43 66l3 3l-35 37q-5 5 -2.5 11t9.5 6l140 -4q4 0 7 -3
t3 -7l-5 -142q0 -7 -6.5 -9.5t-10.5 2.5l-35 39q-38 -50 -38 -93.5t38 -92.5zM655 334l-3 -3l35 -37q5 -5 2 -11t-9 -6l-140 4q-4 0 -7 3t-3 8l5 142q0 6 6 8.5t11 -2.5l35 -38q38 49 38 92.5t-38 93.5l-35 -39q-5 -5 -11 -2.5t-6 9.5l-5 142q0 4 3 7t7 3l140 4q6 0 9 -6
t-2 -11l-35 -37l3 -3q28 -34 43 -66q23 -46 23 -94.5t-23 -94.5q-15 -32 -43 -66zM958 767h-103v-103h-87v103h-103v88h103v102h87v-102h103v-88z" />
    <glyph glyph-name="app_reaction_list" unicode="&#xe316;" 
d="M623 934v-29q0 -9 -6.5 -16t-16.5 -7h-553q-10 0 -17 7t-7 16v29q0 9 7 16t17 7h553q10 0 16.5 -7t6.5 -16zM600 818h-553q-10 0 -17 -7t-7 -17v-28q0 -10 7 -16.5t17 -6.5h553q10 0 16.5 6.5t6.5 16.5v28q0 10 -6.5 17t-16.5 7zM293 678h-246q-10 0 -17 -6.5t-7 -16.5
v-28q0 -10 7 -17t17 -7h246q10 0 16.5 7t6.5 17v28q0 10 -6.5 16.5t-16.5 6.5zM200 539h-153q-10 0 -17 -7t-7 -16v-28q0 -10 7 -17t17 -7h153q10 0 16.5 7t6.5 17v28q0 9 -6.5 16t-16.5 7zM970 353q0 -97 -54 -178t-143.5 -118t-185 -18t-164 87.5t-87.5 163.5t18 185
t118 144t178 54q87 0 161 -44q73 -43 115 -115q44 -75 44 -161zM738 447q0 -16 9 -29t23.5 -19t30 -3t26.5 14.5t14 27t-3 30t-19 23t-29 8.5q-21 0 -36.5 -15t-15.5 -37zM457 447q0 -16 9 -29t23.5 -19t30 -3t26.5 14.5t14 27t-3 30t-19 23t-29 8.5q-21 0 -36.5 -15
t-15.5 -37zM836 338h-372q-12 0 -19.5 -8.5t-6.5 -20.5q7 -52 37 -94t76 -66t98.5 -24t98.5 24t76 66t38 94q1 12 -7 20.5t-19 8.5z" />
    <glyph glyph-name="ChatReadOk" unicode="&#xe502;" 
d="M366 339l-175 174l-58 -58l233 -233l499 499l-58 58z" />
    <glyph glyph-name="ChatReadOk" unicode="&#xe320;" 
d="M366 339l-175 174l-58 -58l233 -233l499 499l-58 58z" />
    <glyph glyph-name="ChatMute" unicode="&#xe321;" 
d="M790 522h-71q0 -45 -18 -85l51 -52q38 66 38 137zM623 515v3l1 4v249q0 34 -17 63t-45.5 45.5t-62.5 16.5t-62.5 -16.5t-45.5 -45.5t-17 -63v-7zM178 854l-53 -52l250 -250v-30q0 -34 16.5 -63t45 -45.5t62.5 -16.5q14 0 27 3l69 -69q-46 -21 -96 -21q-57 0 -108 27
t-81 75q-31 49 -31 110h-71q0 -69 34 -131q33 -59 90.5 -98.5t124.5 -49.5v-137h84v137q55 7 105 37l175 -174l52 53z" />
    <glyph glyph-name="ChatQuote" unicode="&#xe322;" 
d="M250 293h124l83 166v250h-249v-250h125zM582 293h125l83 166v250h-249v-250h124z" />
    <glyph glyph-name="ChatReadHidden" unicode="&#xe323;" 
d="M499 730q57 0 104.5 -28t75.5 -76t28 -104q0 -39 -15 -76l122 -122q97 81 142 198q-36 91 -104 162t-158 110q-93 40 -195 40q-86 0 -166 -29l90 -90q38 15 76 15zM83 843l95 -94l19 -20q-52 -40 -91.5 -93t-63.5 -114q36 -91 104.5 -162t157.5 -110q93 -40 195 -40
q95 0 183 35l139 -139l53 53l-738 737zM313 613l65 -64q-4 -15 -4 -27q0 -34 17 -62.5t45.5 -45.5t62.5 -17q14 0 27 3l65 -64q-45 -22 -92 -22q-56 0 -104 28t-76 76t-28 104q0 47 22 91zM493 646l131 -131v6q0 34 -16.5 63t-45 45.5t-62.5 16.5h-7z" />
    <glyph glyph-name="ChatDeleted" unicode="&#xe324;" 
d="M250 208q0 -34 24.5 -58.5t58.5 -24.5h334q34 0 58.5 24.5t24.5 58.5v500h-500v-500zM353 505l58 59l89 -89l89 89l58 -59l-88 -88l88 -89l-58 -59l-89 89l-88 -88l-59 58l88 89zM646 833l-42 42h-208l-42 -42h-146v-83h584v83h-146z" />
    <glyph glyph-name="app_chat_pinned" unicode="&#xe325;" 
d="M573 166l-407 407q-7 7 -6.5 17.5t8.5 16.5v0q35 27 78.5 24.5t74.5 -33.5l277 -276q31 -32 34 -75.5t-25 -78.5v0q-6 -8 -16 -8.5t-18 6.5zM676 351l204 263l5 -5q6 -7 16 -7t17 7l18 18q7 7 7 17t-7 17l-275 275q-7 7 -17 7t-17 -7l-18 -18q-7 -7 -7 -17t7 -16l5 -5
l-263 -204q-9 -6 -9.5 -17t6.5 -18l293 -293q7 -7 18 -6.5t17 9.5zM77 77l20 97l199 199l77 -77l-199 -199z" />
    <glyph glyph-name="app_fc_chat_feature2" unicode="&#xe341;" 
d="M511 365q34 58 92 92t125 33h1q-21 32 -47 71q-5 6 -11 12q-1 1 -1 3t2 2q47 23 75 65q31 44 31 96q-1 48 -25 88.5t-64.5 64t-88.5 23.5t-89 -23.5t-65 -64t-25 -88.5q0 -52 31 -96q28 -42 75 -65q2 0 2 -2t-1 -3q-6 -6 -11 -12q-68 -101 -101 -159q-8 -13 -12 -27
q-5 14 -12 27q-36 60 -102 159q-5 6 -11 11q-1 2 -1 3.5t2 2.5q47 23 75 65q31 44 31 96q0 48 -24 89t-65 65t-89.5 24t-89.5 -24t-65 -65t-24 -89q0 -52 31 -96q28 -42 75 -65q2 0 2 -2t-1 -3q-6 -6 -11 -12q-68 -101 -102 -159q-14 -24 -14 -39q0 -22 27 -40t72.5 -29
t99.5 -11q74 0 129.5 19.5t66.5 48.5q5 -16 26.5 -29.5t53.5 -23.5q9 36 27 67zM665 242q-2 4 -6 4h-64q1 33 18 62q19 31 50 49.5t68 18.5q34 0 63 -16q4 -3 7 1l36 35q2 2 1.5 5t-2.5 5q-46 29 -101 30t-102 -26q-46 -27 -72 -72q-25 -43 -26 -92h-65q-4 0 -5.5 -4t1.5 -7
l94 -94q2 -2 4.5 -2t4.5 2l95 94q3 3 1 7zM996 244l-94 95q-2 2 -4.5 2t-4.5 -2l-95 -95q-3 -3 -1 -7t6 -4h64q-1 -33 -18 -61q-19 -32 -50 -50.5t-68 -17.5q-34 -1 -63 16q-4 2 -7 -1l-36 -36q-2 -2 -1.5 -5t2.5 -4q46 -30 101 -31t102 27q46 26 72 71q25 43 27 92h64
q4 0 5.5 4t-1.5 7z" />
    <glyph glyph-name="app_fellow" unicode="&#xe350;" 
d="M500 850q-38 0 -65 -27t-27 -65t27 -64.5t65 -26.5t65 26.5t27 64.5t-27 65t-65 27zM58 441q20 -19 47 -24.5t53 5t41.5 33.5t15.5 51t-15.5 51t-41 34t-53 5.5t-47.5 -25.5q-27 -27 -27 -65t27 -65zM500 612q-29 0 -55 11q-10 4 -18 -2l-45 -30q-5 -4 -7.5 -10t-0.5 -12
l107 -385q3 -10 11 -13.5t16 0t11 13.5l107 385q2 6 -0.5 12t-7.5 10l-45 30q-8 6 -18 2q-26 -11 -55 -11zM328 474l-57 -11q-8 -2 -11 -9q-11 -28 -32 -50t-49 -33q-6 -3 -8 -9l-11 -58q-1 -5 1.5 -9.5t6.5 -6.5l233 -117q9 -5 16.5 1.5t4.5 15.5l-76 275q-2 6 -7 9t-11 2z
M942 441q-20 -19 -47 -24.5t-53 5t-41.5 33.5t-15.5 51t15.5 51t41 34t53 5.5t47.5 -25.5q27 -27 27 -65t-27 -65zM672 474l57 -11q8 -2 11 -9q11 -28 32 -49.5t48 -33.5q8 -3 9 -11l11 -58q1 -4 -1 -7.5t-5 -5.5l-235 -118q-9 -5 -16.5 1.5t-4.5 15.5l76 275q2 6 7 9t11 2z
" />
    <glyph glyph-name="app_fellow_search" unicode="&#xe351;" 
d="M427 811q-24 0 -43.5 -13.5t-28.5 -35t-4.5 -45t21 -40t39.5 -21t45 4.5t35 28.5t13 43.5q0 32 -22.5 55t-54.5 23zM52 464q22 -23 54.5 -23t55 22.5t23 55t-22.5 55t-55 23t-55 -22.5t-23 -55t23 -55zM281 491l-49 -9q-7 -1 -9 -8q-9 -24 -27 -42t-42 -28q-5 -2 -6 -8
l-10 -49q-1 -4 1 -8t6 -5l197 -100q8 -4 14.5 1.5t3.5 13.5l-64 233q-2 5 -6 7.5t-9 1.5zM957 288q-53 52 -106 105q-4 5 -5.5 11t1.5 12q24 48 21.5 101.5t-30.5 99t-75 71.5t-100 26q-17 0 -33 -2q-39 -7 -76 -32t-62.5 -61.5t-31.5 -75.5q-10 -56 11 -109.5t66 -88.5
t102 -41.5t109 17.5q6 2 12 1t10 -6l108 -108q16 -15 38.5 -14.5t38.5 16.5t16.5 38.5t-14.5 38.5v1zM663 368h-5q-37 1 -68.5 20.5t-49 52t-17 70t19.5 69t50.5 50t69.5 18.5h5q37 -1 68.5 -20.5t49.5 -51.5t17.5 -70t-19.5 -69.5t-51 -50t-70 -18.5zM767 512q-2 41 -31 69
q-6 7 -13 12q-27 -9 -42 -32.5t-11.5 -51.5t24 -47t48.5 -21q26 30 25 71zM430 441q-15 54 -6 108q5 32 20 61q-9 -2 -18 -2q-24 0 -46 10q-8 3 -16 -2l-38 -26q-4 -3 -6 -8t0 -10l90 -327q2 -5 6.5 -8.5t10 -3.5t10 3.5t6.5 8.5l31 112q-31 38 -44 84zM660 405h3q14 0 27 3
q-18 9 -31 23q-19 18 -29 43q-2 7 -9 8l-49 9q-6 1 -11 -3q8 -35 35.5 -58.5t63.5 -24.5zM512 319l-19 -70q-3 -8 3.5 -13.5t14.5 -1.5l83 42q-45 13 -82 43z" />
    <glyph glyph-name="app_fellow_detail" unicode="&#xe352;" 
d="M830 150h-660q-8 0 -14 6t-6 14v660q0 8 6 14t14 6h660q8 0 14 -6t6 -14v-660q0 -8 -6 -14t-14 -6zM70 910v-820q0 -8 6 -14t14 -6h820q8 0 14 6t6 14v820q0 8 -6 14t-14 6h-820q-8 0 -14 -6t-6 -14zM270 750h61q8 0 13.5 -6t5.5 -14v-61q0 -8 -5.5 -13.5t-13.5 -5.5h-61
q-8 0 -14 5.5t-6 13.5v61q0 8 6 14t14 6zM470 750h260q8 0 14 -6t6 -14v-61q0 -8 -6 -13.5t-14 -5.5h-260q-9 0 -14.5 5.5t-5.5 13.5v61q0 8 5.5 14t14.5 6zM270 550h61q8 0 13.5 -5.5t5.5 -14.5v-60q0 -9 -5.5 -14.5t-13.5 -5.5h-61q-8 0 -14 5.5t-6 14.5v60q0 9 6 14.5
t14 5.5zM470 550h260q8 0 14 -5.5t6 -14.5v-60q0 -9 -6 -14.5t-14 -5.5h-260q-9 0 -14.5 5.5t-5.5 14.5v60q0 9 5.5 14.5t14.5 5.5zM270 350h61q8 0 13.5 -5.5t5.5 -13.5v-61q0 -8 -5.5 -14t-13.5 -6h-61q-8 0 -14 6t-6 14v61q0 8 6 13.5t14 5.5zM470 350h260q8 0 14 -5.5
t6 -13.5v-61q0 -8 -6 -14t-14 -6h-260q-9 0 -14.5 6t-5.5 14v61q0 8 5.5 13.5t14.5 5.5z" />
    <glyph glyph-name="app_fellow_board" unicode="&#xe353;" 
d="M668 590q-1 19 -14 33t-32 16.5t-35 -7.5t-22.5 -28t-0.5 -36t22.5 -28t35.5 -7t32 16q16 17 14 41zM389 640q-17 1 -31.5 -7.5t-21.5 -24t-4 -32t15 -28.5t28.5 -15t32 4t24 21.5t7.5 31.5q-1 20 -15.5 34.5t-34.5 15.5zM500 930q-117 0 -217 -59q-97 -57 -154 -154
q-59 -100 -59 -217t59 -217q57 -97 154 -154q100 -59 217 -59t217 59q97 57 154 154q59 100 59 217t-59 217q-57 97 -154 154q-100 59 -217 59zM500 150q-95 0 -177 48q-79 46 -125 125q-48 82 -48 177t48 177q46 79 125 125q82 48 177 48t177 -48q79 -46 125 -125
q48 -82 48 -177q0 -70 -26.5 -134t-76 -113.5t-113.5 -76t-134 -26.5zM651 431q-8 1 -15 -2v0l-2 -1q-14 -10 -38 -20q-47 -19 -96 -19t-96 19q-25 10 -38 20l-2 1v0q-7 3 -15 1.5t-14 -7.5t-7 -14t3.5 -15.5t12.5 -10.5q6 -2 11 -5q68 -38 145 -38t145 38q5 3 11 5
q8 3 12.5 10.5t3.5 15.5t-7 14t-14 8z" />
    <glyph glyph-name="app_fellow_member" unicode="&#xe354;" 
d="M738 244q-45 77 -131 205q-6 8 -14 15q-2 2 -1.5 4.5t2.5 3.5q60 29 97 83q40 58 40 124q0 63 -31 116t-84 84t-116 31t-116 -31t-84 -84t-31 -116q0 -66 40 -124q37 -54 97 -83q2 -1 2.5 -3.5t-1.5 -4.5q-8 -7 -14 -15q-88 -130 -131 -205q-18 -32 -18 -52
q0 -27 34.5 -50.5t93 -37.5t128.5 -14t128.5 14t93 37.5t34.5 50.5q0 21 -18 52z" />
    <glyph glyph-name="app_fellow_member_master" unicode="&#xe355;" 
d="M949 593q-66 16 -113 40q-76 40 -76 91q0 15 -11 24t-25 8q-64 -9 -134 67q-45 48 -81 116q-3 5 -9 5t-9 -5q-37 -68 -81 -116q-71 -76 -135 -67q-14 1 -24.5 -8t-10.5 -24q1 -51 -76 -91q-47 -24 -113 -40q-5 -1 -7 -6.5t2 -9.5q47 -55 76 -109q48 -88 31 -140
q-4 -12 1 -23.5t16 -16.5q38 -17 54 -90q11 -46 11 -104q0 -6 5 -8.5t9 -0.5q58 26 109 34q82 12 117 -32q10 -12 25 -12t25 12q36 45 117 33q51 -8 108 -35q5 -2 10 1t5 8q0 58 11 104q16 74 54 90q11 4 16 15.5t1 22.5q-18 53 30 141q30 54 77 110q4 4 2 9.5t-7 6.5z
M739 518l-11 -15q-35 -44 -53 -97t-17 -108v-10q0 -8 -6 -14t-14 -6q-3 0 -6 1l-22 7q-54 15 -110 15t-110 -15l-22 -7q-3 -1 -6 -1q-8 0 -14 6t-6 14v10q1 55 -17 108t-53 97l-11 15q-7 8 -3 17t14 12v0q64 16 117.5 51.5t90.5 86.5l3 4q6 8 17 8t17 -8l3 -4
q37 -51 90.5 -86.5t117.5 -51.5v0q10 -3 14 -12t-3 -17z" />
    <glyph glyph-name="app_fellow_member_admin" unicode="&#xe356;" 
d="M691 884q-1 3 -3.5 5.5t-6.5 2.5h-363q-3 0 -6 -2t-3 -6q-11 -54 -42 -98q-53 -73 -148 -83q-5 0 -7.5 -3t-1.5 -7q6 -62 28 -136q38 -124 110 -233q97 -146 246 -250q6 -4 12 0q149 104 246 250q72 109 110 233q22 74 28 136q1 4 -2 7t-7 3q-101 10 -152 83
q-31 43 -38 98zM495 275q-110 73 -165 185q-32 66 -40 129q0 3 2 5.5t6 3.5q49 5 76 33q17 17 23 38q1 4 5 5l96 33q2 1 4 0l95 -26q5 -1 6 -6q6 -23 23 -42q27 -30 76 -35q4 -1 6 -3.5t2 -5.5q-8 -63 -40 -129q-55 -112 -165 -185q-5 -3 -10 0z" />
    <glyph glyph-name="app_fellow_manage_master" unicode="&#xe357;" 
d="M925 313q-31 8 -52 19q-35 18 -35 42q0 6 -5 10.5t-12 3.5q-29 -4 -62 31q-20 22 -37 53q-1 3 -4 3t-4 -3q-17 -31 -37 -53q-33 -35 -62 -31q-7 1 -12 -3.5t-5 -10.5q1 -24 -34 -42q-22 -11 -52 -19q-3 0 -4 -2.5t1 -4.5q22 -26 35 -50q22 -41 14 -65q-2 -5 0.5 -10.5
t7.5 -7.5q18 -8 25 -42q5 -21 5 -47q0 -3 2.5 -4.5t4.5 -0.5q26 13 50 16q37 6 54 -15q4 -5 11 -5t11 5q17 21 55 15q23 -3 49 -15q3 -2 5 -0.5t2 4.5q0 26 5 48q8 33 25 41q5 2 7.5 7t0.5 10q-8 25 14 65q13 25 35 51q2 2 1 4.5t-3 2.5zM828 279l-5 -7q-33 -42 -32 -95v-4
q0 -4 -3 -6.5t-7 -2.5h-2l-11 3q-50 15 -100 0l-11 -3h-2q-4 0 -7 2.5t-3 6.5v4q1 53 -32 95l-5 7q-3 3 -1.5 7.5t6.5 5.5v0q29 8 54 24t42 40l1 1q3 4 8 4t8 -4l1 -1q17 -24 41.5 -40t54.5 -24v0q5 -1 6.5 -5.5t-1.5 -7.5zM533 115q-1 4 -5 6q-21 10 -30.5 31.5t-2.5 43.5
q4 14 -2 27q-13 24 -31 45q-10 12 -13.5 28t1 32t17 27.5t30 15.5t34.5 11q4 3 5 8v0q0 4 -3 7l-34 52q-6 8 -14 15q-2 2 -1.5 4t2.5 4q60 28 98 83q39 58 39 124q0 63 -31 116t-84 84t-115.5 31t-115.5 -31t-84 -84t-31 -116q0 -66 39 -124q38 -54 98 -83q2 -1 2 -3.5
t-1 -4.5q-8 -7 -14 -15q-88 -131 -132 -205q-18 -32 -18 -52q0 -28 34.5 -51.5t93.5 -37t129 -13.5q72 0 134 15q3 1 4.5 3.5t1.5 6.5z" />
    <glyph glyph-name="app_fellow_manage_recruiter" unicode="&#xe358;" 
d="M856 248l-211 212q-4 4 -10 2.5t-8 -7.5l-94 -263l-71 -25q-6 -2 -7 -8t3 -11l87 -87q4 -4 10.5 -2.5t8.5 6.5l25 71l263 94q6 2 7.5 8t-3.5 10zM418 106q-13 12 -18.5 28.5t-2.5 34.5t15.5 32.5t30.5 20.5l31 11q13 5 17 18l45 124q4 12 -3 23l-34 51q-6 8 -14 15
q-2 2 -1.5 4.5t2.5 3.5q60 29 98 83q39 58 39 124q0 63 -31 116t-84 84t-115.5 31t-115.5 -31t-84 -84t-31 -116q0 -66 39 -124q37 -54 98 -83q2 -1 2 -3.5t-2 -4.5q-7 -7 -13 -15q-88 -131 -132 -205q-18 -32 -18 -52q0 -27 34.5 -50.5t93.5 -37.5t128 -14h19q6 0 8.5 6
t-1.5 10zM852 499l-45 -60q-3 -3 -2.5 -7t3.5 -7q8 -7 16 -15q2 -3 6 -3.5t7 1.5l61 44q3 3 4 7t-2 8q-15 18 -34 34q-3 3 -7.5 2.5t-6.5 -4.5zM859 339q2 -10 2 -20q1 -4 3.5 -6.5t6.5 -2.5h75q5 0 8 3t2 7q-1 23 -6 45q-1 4 -4.5 6t-7.5 1l-73 -22q-3 -1 -5 -4t-1 -7z
M749 468l22 72q2 4 0 7.5t-6 4.5q-24 6 -48 8q-4 0 -7 -3t-3 -7v-76q0 -3 2.5 -6t6.5 -3q11 -1 22 -4q3 -1 6.5 1t4.5 6z" />
    <glyph glyph-name="app_fellow_topic" unicode="&#xe361;" 
d="M500 895q33 0 69 -1l3 60q-39 17 -72 17t-72 -17l3 -60q38 1 69 1zM459 255q6 -129 9 -218h64l9 218l-41 1zM871 460q24 99 35 189q13 102 5 164v0l-25 6q-32 7 -75 13q-58 8 -127 13q-87 6 -184 6q-169 0 -300 -17q-71 -10 -109 -21l-3 -10q-4 -40 0 -95q8 -28 30 -36
q8 -4 23 -3q9 0 34 4h1q15 2 45 4l26 1q12 1 13 -8q1 -5 -2 -9t-8 -5q-80 -13 -123 -33q-13 -6 -19 -18.5t-4 -25.5q13 -72 31 -142q18 -13 40 -16q8 -1 11 -8t-2 -14q-23 -29 -18 -65q8 -22 14 -36l8 -19l47 5q265 31 530 0l47 -5l8 19q17 41 29 84q1 5 -2 10
q-11 26 -76 40q-23 5 -30 8.5t-6 9t18 7.5q31 5 118 3zM547 480q0 -6 -3.5 -9.5t-9.5 -3.5q-103 1 -206 -7q-5 -1 -9 2.5t-5 8.5l-1 14q0 5 3 9t9 5q104 8 210 7q5 0 9 -4t4 -9zM712 578l-1 -13q-1 -6 -5 -9t-9 -3q-204 19 -407 -1q-5 -1 -9.5 2.5t-4.5 8.5l-2 13q0 6 3 10
t9 5q207 20 414 1q6 -1 9.5 -5t2.5 -9zM734 656q-1 -5 -5 -8.5t-10 -2.5q-196 19 -392 4q-5 0 -9.5 3t-5.5 9l-1 13q0 6 3.5 10t9.5 4q200 15 399 -4q6 -1 9.5 -5t3.5 -9z" />
    <glyph glyph-name="app_fellow_question" unicode="&#xe362;" 
d="M660 898v1l-1 2q-3 5 -8 5h-96q0 23 -16 39t-39 16t-39 -16t-16 -39h-96q-5 0 -8 -5l-1 -2v-71q0 -15 10.5 -26t26.5 -11h246q16 0 26.5 11t10.5 26v70zM758 902h-39v-74q0 -40 -28 -68t-68 -28h-246q-40 0 -68 28t-28 68v74h-39q-30 0 -50.5 -21t-20.5 -50v-671
q0 -30 20.5 -51t50.5 -21h516q30 0 50.5 21t20.5 51v671q0 29 -20.5 50t-50.5 21zM500 197h-3q-22 0 -37 14.5t-15 35.5t15 36t37 15h3q21 0 36.5 -15t15.5 -36t-15.5 -35.5t-36.5 -14.5zM587 415l-2 -2l-11 -10q-6 -5 -11 -11l-1 -1q-5 -6 -9 -12l-2 -3l-6 -12
q-4 -11 -14 -17.5t-22 -6.5h-12q-20 0 -31.5 16t-4.5 34l1 3l1 3q4 9 10 18l1 3q13 19 46 45v0q20 15 27 23q11 12 11 25v1q2 20 -11.5 36t-35.5 20.5t-42 -6.5t-27 -31q-5 -13 -16 -21t-24 -8h-7q-21 0 -33.5 16.5t-6.5 35.5q17 51 62 79q23 15 50 20.5t54 1.5v0
q48 -7 82.5 -41t42.5 -81v-5q1 -40 -18 -69q-11 -17 -41 -43z" />
    <glyph glyph-name="app_fellow_memo" unicode="&#xe363;" 
d="M671 103l180 180q2 2 1 4t-3 2h-174q-4 0 -6.5 -3t-2.5 -7v-173q0 -3 2 -3.5t3 0.5zM584 858q5 -30 24 -53t47 -34t58 -6t52.5 24t33.5 47t6 57.5t-24 52.5t-46.5 34t-57.5 6t-53 -24t-33.5 -46.5t-6.5 -57.5zM695 695q-51 0 -94 27q-3 2 -7 1.5t-7 -3.5l-63 -63
q-10 -10 -24 -10t-24 10t-10 24t10 24l63 63q3 3 3.5 7t-2.5 8q-25 41 -25 88v0q0 3 -2.5 5.5t-6.5 2.5h-296q-30 0 -51.5 -21.5t-21.5 -51.5v-641q0 -30 21.5 -52t51.5 -22h383q4 0 7 3t3 8v195q0 23 16 39t39 16h196q4 0 7 3t3 7v422q0 5 -5 6.5t-7 -3.5q-24 -42 -66 -67
t-91 -25zM549 366q0 -12 -8 -20t-20 -8h-210q-11 0 -19.5 8t-8.5 20v28q0 12 8.5 20t19.5 8h210q12 0 20 -8t8 -20v-28zM717 517q0 -12 -8.5 -20.5t-19.5 -8.5h-378q-11 0 -19.5 8.5t-8.5 20.5v28q0 11 8.5 19.5t19.5 8.5h378q11 0 19.5 -8.5t8.5 -19.5v-28z" />
    <glyph glyph-name="app_fellow_activity" unicode="&#xe364;" 
d="M767 971v0q-11 -36 -38 -62.5t-62.5 -37.5t-73.5 -5v0q-52 10 -99 -15t-68 -73q-13 7 -22.5 1.5t-10.5 -18t6 -24.5l179 -303q-8 -6 -13 -15q-6 19 -14 26q-5 5 -13 6t-14 -4t-5 -14q0 -6 4 -19l3 -12q5 -21 -11 -43q-14 -18 -38 -31q-44 -24 -94 -28q51 40 66.5 102.5
t-12.5 121t-86 86.5t-121 13t-102.5 -66t-38 -116t43.5 -114t106 -61q-43 -40 -71 -89q-32 -58 -35 -116q-1 -6 2.5 -9.5t9.5 -3.5h372q5 0 9 3.5t3 9.5q-4 74 -56 146q86 37 158 96q9 7 16 14l12 -20q7 -13 18.5 -18t20.5 0t10 17.5t-7 24.5l-22 38q5 12 5 25
q1 22 -12.5 40t-33.5 24q-6 2 -13 2l-36 61q23 47 69 70.5t97 14.5v0q38 -7 73.5 4t62.5 37.5t38 62.5v0z" />
    <glyph glyph-name="app_fellow_question_active" unicode="&#xe371;" 
d="M500 891q-106 0 -197 -54q-89 -51 -140 -140q-54 -91 -54 -197t54 -197q51 -89 140 -140q91 -54 197 -54t197 54q89 51 140 140q54 91 54 197t-54 197q-51 89 -140 140q-91 54 -197 54zM578 262q0 -20 -14.5 -34t-35.5 -14h-56q-21 0 -35.5 14t-14.5 34v49q0 20 14.5 34
t35.5 14h56q21 0 35.5 -14t14.5 -34v-49zM566 463q-1 -20 -14 -34t-33 -14h-38q-20 0 -33 14t-14 34l-16 275q-1 19 15.5 33.5t37.5 14.5h58q21 0 37.5 -14.5t15.5 -33.5z" />
    <glyph glyph-name="app_fellow_question_none" unicode="&#xe372;" 
d="M500 891q-106 0 -197 -54q-89 -51 -140 -140q-54 -91 -54 -197t54 -197q51 -89 140 -140q91 -54 197 -54t197 54q89 51 140 140q54 91 54 197t-54 197q-51 89 -140 140q-91 54 -197 54zM741 500q0 -30 -21.5 -52t-52.5 -22h-334q-31 0 -52.5 22t-21.5 52v0q0 30 21.5 52
t52.5 22h334q31 0 52.5 -22t21.5 -52z" />
    <glyph glyph-name="app_fellow_question_vote" unicode="&#xe373;" 
d="M216 636l-100 -132l299 -286l469 430l-100 134l-374 -382z" />
    <glyph glyph-name="app_fellow_question_most" unicode="&#xe374;" 
d="M235 247h530q4 0 6.5 -2.5t2.5 -6.5v-54q0 -4 -2.5 -6.5t-6.5 -2.5h-530q-4 0 -6.5 2.5t-2.5 6.5v54q0 4 2.5 6.5t6.5 2.5zM866 719q-22 -1 -35 -20t-6 -40q1 -6 -3 -10l-160 -143q-4 -3 -9 -2t-7 5l-119 248q-3 6 3 11q12 10 16 24.5t-1 28.5t-17.5 23t-27.5 9t-27.5 -9
t-17.5 -23t-1 -28.5t16 -24.5q6 -4 3 -11l-119 -248q-2 -4 -7 -5t-9 2l-160 143q-4 4 -3 10q5 15 -0.5 29.5t-18.5 23t-28.5 8t-27.5 -10t-16 -24.5t1.5 -29.5t18.5 -23t29 -7.5q3 0 6 -2t4 -5l79 -288q2 -7 7 -11t12 -4h518q7 0 12 4t7 11l79 288q1 3 4 5t6 2q14 -1 25.5 5
t18.5 17.5t7 25t-7.5 25t-19 17.5t-25.5 4z" />
    <glyph glyph-name="app_fellow_recruit_joined" unicode="&#xe381;" 
d="M481 301l-135 -71q-10 -6 -22 -5t-21.5 8t-14 18t-2.5 22l26 150q2 10 -1 20t-11 17l-109 106q-8 8 -11 19.5t0.5 22.5t12.5 18.5t21 9.5l151 22q10 1 18 7t13 15l67 137q5 11 15 17t22 6t22 -6t15 -17l67 -137q5 -9 13 -15t18 -7l151 -22q12 -2 21 -9.5t12.5 -18.5
t0.5 -22.5t-11 -19.5l-109 -106q-8 -7 -11 -17t-1 -20l26 -150q2 -11 -2.5 -22t-14 -18t-21.5 -8t-22 5l-135 71q-9 5 -19 5t-19 -5z" />
    <glyph glyph-name="app_fellow_recruit_message" unicode="&#xe382;" 
d="M808 846h-192l-1 7q-4 44 -37 74t-78 30t-78 -30t-37 -74l-1 -7h-192q-31 0 -53 -22t-22 -53v-616q0 -31 22 -53.5t53 -22.5h616q31 0 53 22.5t22 53.5v615q0 32 -22 54t-53 22zM500 887q18 0 31 -13t13 -31.5t-13 -31.5t-31 -13t-31 13t-13 31.5t13 31.5t31 13zM531 276
h-234q-8 0 -14 5.5t-6 13.5v48q0 8 6 13.5t14 5.5h234q8 0 14 -5.5t6 -13.5v-48q0 -8 -6 -13.5t-14 -5.5zM703 426h-406q-8 0 -14 5.5t-6 13.5v48q0 8 6 14t14 6h406q8 0 14 -6t6 -14v-48q0 -8 -6 -13.5t-14 -5.5zM703 576h-406q-8 0 -14 5.5t-6 14.5v47q0 8 6 14t14 6h406
q8 0 14 -6t6 -14v-47q0 -9 -6 -14.5t-14 -5.5z" />
    <glyph glyph-name="app_fellow_recruit_info" unicode="&#xe383;" 
d="M840 150h-680q-4 0 -7 3t-3 7v680q0 4 3 7t7 3h680q4 0 7 -3t3 -7v-680q0 -4 -3 -7t-7 -3zM70 920v-840q0 -4 3 -7t7 -3h840q4 0 7 3t3 7v840q0 4 -3 7t-7 3h-840q-4 0 -7 -3t-3 -7zM274 750h52q10 0 17 -7t7 -17v-52q0 -10 -7 -17t-17 -7h-52q-10 0 -17 7t-7 17v52
q0 10 7 17t17 7zM474 750h252q10 0 17 -7t7 -17v-52q0 -10 -7 -17t-17 -7h-252q-10 0 -17 7t-7 17v52q0 10 7 17t17 7zM274 550h52q10 0 17 -7t7 -17v-52q0 -10 -7 -17t-17 -7h-52q-10 0 -17 7t-7 17v52q0 10 7 17t17 7zM474 550h252q10 0 17 -7t7 -17v-52q0 -10 -7 -17
t-17 -7h-252q-10 0 -17 7t-7 17v52q0 10 7 17t17 7zM274 350h52q10 0 17 -7t7 -17v-52q0 -10 -7 -17t-17 -7h-52q-10 0 -17 7t-7 17v52q0 10 7 17t17 7zM474 350h252q10 0 17 -7t7 -17v-52q0 -10 -7 -17t-17 -7h-252q-10 0 -17 7t-7 17v52q0 10 7 17t17 7z" />
    <glyph glyph-name="app_fellow_recruit_language" unicode="&#xe384;" 
d="M500 835q96 0 176 -50q79 -49 121 -131q45 -85 37 -181q-6 -80 -48 -147.5t-108.5 -110t-146.5 -49.5q-15 -1 -31 -1q-93 0 -173 48q-6 4 -12.5 4t-11.5 -2l-106 -48q-6 -3 -13 -2t-12 6t-6.5 12t1.5 14l48 106q6 12 -1 24q-28 46 -40 98.5t-7 105.5q7 80 49.5 146.5
t110 108.5t146.5 48q14 1 27 1zM500 913q-16 0 -33 -1q-103 -9 -190 -65t-137.5 -146.5t-52 -194t45.5 -195.5l-37 -82q-13 -28 -7.5 -59t28 -53.5t53.5 -28t59 7.5l82 37q89 -46 189 -46q19 0 38 2q108 10 197 71q86 60 134 154q48 97 43 205t-62 200q-56 89 -147 141
q-94 53 -203 53zM678 441q25 0 42 17t17 42t-17 42t-42 17t-42 -17t-17 -42t17 -42t42 -17zM500 441q25 0 42 17t17 42t-17 42t-42 17t-42 -17t-17 -42t17 -42t42 -17zM322 441q18 0 33 10t22 26.5t3.5 34t-16.5 30.5t-30.5 16.5t-34 -3.5t-26.5 -22t-10 -33q0 -25 17 -42
t42 -17z" />
    <glyph glyph-name="Schedule" unicode="&#xe400;" 
d="M790 834h-41v83h-84v-83h-332v83h-83v-83h-42q-34 0 -58.5 -24.5t-24.5 -59.5v-582q0 -34 24 -58.5t59 -24.5h582q35 0 59 24.5t24 58.5v582q0 35 -24.5 59.5t-58.5 24.5zM790 168h-582v458h582v-458zM291 543h208v-208h-208v208z" />
    <glyph glyph-name="ScheduleAdd" unicode="&#xe402;" 
d="M314 366h143v-144h63v144h143v62h-143v144h-63v-144h-143v-62zM790 834h-41v83h-84v-83h-332v83h-83v-83h-42q-34 0 -58.5 -24.5t-24.5 -59.5v-582q0 -34 24 -58.5t59 -24.5h582q35 0 59 24.5t24 58.5v582q0 35 -24.5 59.5t-58.5 24.5zM790 168h-582v458h582v-458z" />
    <glyph glyph-name="ScheduleCancel" unicode="&#xe403;" 
d="M387 251l102 102l101 -102l44 45l-101 101l101 101l-44 45l-101 -102l-102 102l-44 -45l102 -101l-102 -101zM790 834h-41v83h-84v-83h-332v83h-83v-83h-42q-34 0 -58.5 -24.5t-24.5 -59.5v-582q0 -34 24 -58.5t59 -24.5h582q35 0 59 24.5t24 58.5v582q0 35 -24.5 59.5
t-58.5 24.5zM790 168h-582v458h582v-458z" />
    <glyph glyph-name="ScheduleTime" unicode="&#xe410;" 
d="M499 917q-113 0 -210 -57q-94 -55 -149 -149q-57 -97 -57 -210t57 -210q55 -94 149 -149q97 -57 210 -57t210 57q94 55 149 149q57 97 57 210t-57 210q-55 94 -149 149q-97 57 -210 57zM499 168q-90 0 -168 46q-75 44 -119 119q-46 78 -46 168t46 168q44 75 119 119
q78 46 168 46t168 -46q75 -44 119 -119q46 -78 46 -168t-46 -168q-44 -75 -119 -119q-78 -46 -168 -46zM520 709h-63v-250l219 -130l31 51l-187 111v218z" />
    <glyph glyph-name="ScheduleDetails" unicode="&#xe411;" 
d="M790 834h-174q-13 36 -45 59.5t-72 23.5t-72 -23.5t-45 -59.5h-174q-34 0 -58.5 -24.5t-24.5 -59.5v-582q0 -34 24.5 -58.5t58.5 -24.5h582q34 0 58.5 24.5t24.5 58.5v582q0 35 -24.5 59.5t-58.5 24.5zM499 834q17 0 29.5 -12.5t12.5 -29.5t-12.5 -29t-29.5 -12t-29.5 12
t-12.5 29t12.5 29.5t29.5 12.5zM582 251h-291v84h291v-84zM707 418h-416v83h416v-83zM707 584h-416v83h416v-83z" />
    <glyph glyph-name="ScheduleMember" unicode="&#xe412;" 
d="M665 543q34 0 62.5 16.5t45.5 45t17 62.5t-17 63t-45.5 45.5t-62.5 16.5t-62.5 -16.5t-45 -45.5t-16.5 -63t16.5 -62.5t45 -45t62.5 -16.5zM333 543q34 0 62.5 16.5t45 45t16.5 62.5t-16.5 63t-45 45.5t-62.5 16.5t-63 -16.5t-45.5 -45.5t-16.5 -63t16.5 -62.5t45.5 -45
t63 -16.5zM333 459q-54 0 -119 -16q-73 -18 -118 -48q-54 -36 -54 -81v-104h582v104q0 45 -54 81q-45 30 -119 48q-65 16 -118 16zM665 459q-16 0 -40 -2q82 -59 82 -143v-104h249v104q0 45 -54 81q-45 30 -118 48q-65 16 -119 16z" />
    <glyph glyph-name="ScheduleHistory" unicode="&#xe701;" 
d="M561 875q-101 0 -188 -51q-85 -49 -135 -134q-51 -87 -51 -189h-125l162 -162l3 -5l168 167h-125q0 79 40 147q39 66 105 105q67 39 146.5 39t146.5 -40q66 -38 105 -104q39 -68 39 -147t-39 -147q-39 -66 -105 -104q-67 -40 -147 -40q-59 0 -112 22.5t-93 63.5l-59 -59
q52 -52 119 -81q69 -29 145 -29q102 0 189 51q85 49 135 134q51 87 51 189t-51 189q-50 85 -135 134q-87 51 -189 51zM520 667v-208l178 -105l30 50l-146 86v177h-62z" />
    <glyph glyph-name="ScheduleHistory" unicode="&#xe413;" 
d="M561 875q-101 0 -188 -51q-85 -49 -135 -134q-51 -87 -51 -189h-125l162 -162l3 -5l168 167h-125q0 79 40 147q39 66 105 105q67 39 146.5 39t146.5 -40q66 -38 105 -104q39 -68 39 -147t-39 -147q-39 -66 -105 -104q-67 -40 -147 -40q-59 0 -112 22.5t-93 63.5l-59 -59
q52 -52 119 -81q69 -29 145 -29q102 0 189 51q85 49 135 134q51 87 51 189t-51 189q-50 85 -135 134q-87 51 -189 51zM520 667v-208l178 -105l30 50l-146 86v177h-62z" />
    <glyph glyph-name="ScheduleShare" unicode="&#xe414;" 
d="M175 268q0 -37 27 -64t64.5 -27t64 27t26.5 64.5t-26.5 64t-64 26.5t-64.5 -26.5t-27 -64.5zM175 825v-118q108 0 207 -42q95 -40 168 -113.5t113 -168.5q42 -98 42 -206h118q0 132 -51 252q-49 116 -139 206t-206 139q-120 51 -252 51zM175 589v-118q80 0 149 -40
q66 -39 105 -105q40 -69 40 -149h118q0 112 -56 208q-55 93 -148 148q-96 56 -208 56z" />
    <glyph glyph-name="Leader" unicode="&#xe415;" 
d="M294 296v546h-136v-682h682v136h-546zM431 842h409v-409h-409v409z" />
    <glyph glyph-name="NotificationOn" unicode="&#xe450;" 
d="M125 626v-250h166l208 -208v666l-208 -208h-166zM686 501q0 54 -28.5 99t-75.5 69v-335q47 23 75.5 68t28.5 99zM582 866v-86q60 -18 107.5 -59t74 -98t26.5 -122t-27 -122t-74 -98t-107 -59v-86q83 19 149.5 72t103.5 128q38 78 38 165t-38 165q-37 76 -103.5 128.5
t-149.5 71.5z" />
    <glyph glyph-name="NotificationOff" unicode="&#xe451;" 
d="M686 501q0 54 -28.5 99t-75.5 69v-92l102 -102q2 15 2 26zM790 501q0 -55 -23 -110l63 -63q43 81 43 173q0 87 -38 165q-37 76 -103.5 128.5t-149.5 71.5v-86q60 -18 107.5 -59t74 -98t26.5 -122zM178 875l-53 -53l196 -196h-196v-250h166l208 -208v280l177 -177
q-45 -34 -94 -49v-85q84 19 154 75l84 -85l53 53zM499 834l-87 -87l87 -87v174z" />
    <glyph glyph-name="ScheduleAlerm" unicode="&#xe452;" 
d="M914 512q-7 29 -23 47q-13 16 -37 27q-15 7 -51 20q-55 19 -88 35q-25 13 -56 41q-19 17 -58 57q-57 57 -88 83q-52 43 -101 59q-60 20 -121 3q-10 25 -31.5 40.5t-48 16.5t-49.5 -13t-34 -38t-7 -50.5t22 -46.5q-39 -44 -49 -104q-8 -48 4 -113q6 -38 27 -112
q15 -54 20 -79q9 -41 7 -69q-2 -36 -13 -93q-7 -38 -9 -55q-2 -26 5 -46q8 -22 29 -42q28 -27 105 -16q64 10 154 44q77 30 147 67q34 -6 66 5t55 35.5t31 57.5q89 67 140 126q62 71 52 113zM721 340q-11 41 -44.5 68t-76 29t-78.5 -21t-51.5 -63t-4.5 -81.5t44 -68.5
q-104 -51 -174 -59q-67 -7 -87 27q-14 24 11 66t80.5 90.5t130 91t145.5 67.5q68 24 117 24.5t63 -24.5t-5 -63t-70 -83z" />
    <glyph glyph-name="app_schedule_repeat_parent" unicode="&#xe461;" 
d="M70 748v-447q0 -14 9.5 -23.5t23.5 -9.5h236q7 0 12 4.5t5 11.5v22q0 7 -5 12t-12 5h-214v381h568v-76q0 -7 4.5 -11.5t11.5 -4.5h21q7 0 12 4.5t5 11.5v120h-677zM747 780v55q0 13 -9.5 23t-23.5 10h-101v13q0 12 -6 23t-16.5 17t-22.5 6t-22.5 -6t-16.5 -17t-6 -23v-13
h-230v13q0 19 -13 32t-31.5 13t-31.5 -13t-13 -32v-13h-101q-14 0 -23.5 -10t-9.5 -23v-55h677zM973 260v0q-52 -49 -120.5 -64.5t-136.5 6.5v0q-67 22 -135.5 6.5t-120.5 -64.5v0l-78 347q52 48 120.5 63.5t135.5 -6.5v0q67 -22 136 -6.5t121 64.5l58 -260zM528 22l-25 -5
q-5 -2 -9.5 1t-5.5 8l-105 465l49 11l106 -464q1 -6 -2 -10.5t-8 -5.5z" />
    <glyph glyph-name="app_schedule_repeat_child" unicode="&#xe462;" 
d="M531 376l-88 1q18 44 51.5 76.5t77.5 46.5q55 18 110.5 3.5t95.5 -57.5q4 -5 10.5 -5t11.5 4l26 24q5 5 5.5 12t-4.5 12q-53 58 -127 77.5t-147 -3.5q-65 -21 -112.5 -71.5t-67.5 -118.5h-93q-4 0 -5 -3t1 -6l126 -144q1 -1 3 -1t4 1l126 143q2 3 1 6t-5 3zM982 233
l-125 144q-2 2 -4 2t-3 -2l-126 -143q-3 -2 -1.5 -5.5t4.5 -3.5h88q-17 -45 -51 -77.5t-78 -46.5q-55 -18 -110 -3t-95 57q-5 5 -11 5.5t-11 -4.5l-26 -23q-5 -5 -5.5 -12t4.5 -13q38 -41 88.5 -63.5t105.5 -22.5q41 0 80 13q65 21 112.5 71t66.5 118h94q3 0 4.5 3.5
t-1.5 5.5zM70 748v-447q0 -14 9.5 -23.5t23.5 -9.5h127q6 0 11 4.5t5 11.5v22q0 7 -5 12t-11 5h-105v381h568v-56q0 -7 4.5 -12t11.5 -5h21q7 0 12 5t5 12v100h-677zM747 780v55q0 13 -9.5 23t-23.5 10h-101v13q0 12 -6 23t-16.5 17t-22.5 6t-22.5 -6t-16.5 -17t-6 -23v-13
h-230v13q0 19 -13 32t-31.5 13t-31.5 -13t-13 -32v-13h-101q-14 0 -23.5 -10t-9.5 -23v-55h677z" />
    <glyph glyph-name="app_schedule_single" unicode="&#xe463;" 
d="M984 388l-195 198q-4 4 -8.5 2t-4.5 -7v-95q-90 -15 -163 -53q-82 -42 -142.5 -111t-86.5 -151q-13 -40 -16 -82q-1 -23 0 -46q1 -4 5.5 -4.5t5.5 3.5q16 58 52 106q43 59 106 95q60 34 128 43q56 8 111 0v-103q0 -4 4.5 -6t8.5 1l195 199q2 2 2 5t-2 6zM70 748v-447
q0 -14 9.5 -23.5t23.5 -9.5h246q7 0 12 4.5t5 11.5v22q0 7 -5 12t-12 5h-224v381h568v-87q0 -7 4.5 -12t11.5 -5h21q7 0 12 5t5 12v131h-677zM747 780v55q0 13 -9.5 23t-23.5 10h-101v13q0 12 -6 23t-16.5 17t-22.5 6t-22.5 -6t-16.5 -17t-6 -23v-13h-230v13q0 19 -13 32
t-31.5 13t-31.5 -13t-13 -32v-13h-101q-14 0 -23.5 -10t-9.5 -23v-55h677z" />
    <glyph glyph-name="CheckBoxOff" unicode="&#xe500;" 
d="M790 792v-582h-582v582h582zM790 875h-582q-34 0 -58.5 -24.5t-24.5 -58.5v-582q0 -35 24.5 -59t58.5 -24h582q35 0 59 24t24 59v582q0 34 -24.5 58.5t-58.5 24.5z" />
    <glyph glyph-name="CheckBoxOn" unicode="&#xe501;" 
d="M790 875h-582q-35 0 -59 -24.5t-24 -58.5v-582q0 -35 24 -59t59 -24h582q35 0 59 24t24 59v582q0 34 -24 58.5t-59 24.5zM416 293l-208 208l59 59l149 -149l316 315l58 -59z" />
    <glyph glyph-name="CheckBoxClear" unicode="&#xe503;" 
d="M758 173l-159 -159l-69 68l160 160l-160 159l69 69l159 -160l160 160l68 -69l-159 -159l159 -160l-68 -68zM491 210h-283v582h582v-283h83v283q0 34 -24 58.5t-59 24.5h-582q-34 0 -58.5 -24.5t-24.5 -58.5v-582q0 -35 24.5 -59t58.5 -24h283v83z" />
    <glyph glyph-name="RadioButtonOff" unicode="&#xe505;" 
d="M499 917q-113 0 -210 -57q-94 -55 -149 -149q-57 -97 -57 -210t57 -210q55 -94 149 -149q97 -57 210 -57t210 57q94 55 149 149q57 97 57 210t-57 210q-55 94 -149 149q-97 57 -210 57zM499 168q-90 0 -168 46q-75 44 -119 119q-46 78 -46 168t46 168q44 75 119 119
q78 46 168 46t168 -46q75 -44 119 -119q46 -78 46 -168t-46 -168q-44 -75 -119 -119q-78 -46 -168 -46z" />
    <glyph glyph-name="RadioButtonOn" unicode="&#xe506;" 
d="M499 709q-56 0 -104 -28t-76 -76t-28 -104t28 -104t76 -76t104 -28t104 28t76 76t28 104t-28 104t-76 76t-104 28zM499 917q-113 0 -210 -57q-94 -55 -149 -149q-57 -97 -57 -210t57 -210q55 -94 149 -149q97 -57 210 -57t210 57q94 55 149 149q57 97 57 210t-57 210
q-55 94 -149 149q-97 57 -210 57zM499 168q-90 0 -168 46q-75 44 -119 119q-46 78 -46 168t46 168q44 75 119 119q78 46 168 46t168 -46q75 -44 119 -119q46 -78 46 -168t-46 -168q-44 -75 -119 -119q-78 -46 -168 -46z" />
    <glyph glyph-name="FormEdit" unicode="&#xe510;" 
d="M125 283v-156h156l460 460l-156 156zM861 707q12 12 12 29.5t-12 29.5l-97 97q-12 12 -29.5 12t-29.5 -12l-76 -76l156 -156z" />
    <glyph glyph-name="CopyPaste" unicode="&#xe520;" 
d="M695 980h-523q-35 0 -61 -25.5t-26 -61.5v-610h87v610h523v87zM826 806h-479q-36 0 -62 -25.5t-26 -61.5v-610q0 -36 26 -61.5t62 -25.5h479q35 0 61 25.5t26 61.5v610q0 36 -25.5 61.5t-61.5 25.5zM826 109h-479v610h479v-610z" />
    <glyph glyph-name="ItemBuyBack" unicode="&#xf207;" 
d="M767 664h-534q-12 0 -21 -9t-9 -21l38 -505q1 -13 12 -21.5t30 -8.5h434q18 0 29 8.5t13 21.5l38 505q0 12 -9 21t-21 9zM642 254l-120 -88q-4 -3 -8.5 -1t-4.5 7v34q0 3 -2 5t-5 2q-61 2 -99 28q-50 34 -57 111q-1 6 4.5 8t9.5 -2q19 -23 41 -35q20 -10 46 -13
q19 -3 54 -3q4 0 6 2.5t2 5.5v34q0 5 4.5 7t8.5 -1l120 -88q3 -3 3 -7t-3 -6zM636 381q-19 23 -41 34q-20 11 -46 14q-19 2 -54 2q-4 0 -6 -2t-2 -6v-33q0 -5 -4.5 -7t-8.5 0l-120 89q-3 2 -3 6t3 7l120 88q4 3 8.5 1t4.5 -7v-34q0 -3 2 -5.5t6 -2.5q60 -1 98 -27
q50 -35 57 -111q1 -6 -4.5 -8.5t-9.5 2.5zM783 794l-179 30q-12 2 -15 15l-8 33q-4 20 -14 26q-6 3 -22 3h-90q-16 0 -23 -3q-10 -6 -13 -26l-8 -33q-2 -13 -15 -15l-179 -30q-19 -3 -31.5 -14.5t-12.5 -28.5v-28q0 -9 6.5 -15t15.5 -6h610q9 0 15.5 6t6.5 15v28
q0 17 -12.5 28.5t-31.5 14.5z" />
    <glyph glyph-name="ItemBuyBack" unicode="&#xe601;" 
d="M767 664h-534q-12 0 -21 -9t-9 -21l38 -505q1 -13 12 -21.5t30 -8.5h434q18 0 29 8.5t13 21.5l38 505q0 12 -9 21t-21 9zM642 254l-120 -88q-4 -3 -8.5 -1t-4.5 7v34q0 3 -2 5t-5 2q-61 2 -99 28q-50 34 -57 111q-1 6 4.5 8t9.5 -2q19 -23 41 -35q20 -10 46 -13
q19 -3 54 -3q4 0 6 2.5t2 5.5v34q0 5 4.5 7t8.5 -1l120 -88q3 -3 3 -7t-3 -6zM636 381q-19 23 -41 34q-20 11 -46 14q-19 2 -54 2q-4 0 -6 -2t-2 -6v-33q0 -5 -4.5 -7t-8.5 0l-120 89q-3 2 -3 6t3 7l120 88q4 3 8.5 1t4.5 -7v-34q0 -3 2 -5.5t6 -2.5q60 -1 98 -27
q50 -35 57 -111q1 -6 -4.5 -8.5t-9.5 2.5zM783 794l-179 30q-12 2 -15 15l-8 33q-4 20 -14 26q-6 3 -22 3h-90q-16 0 -23 -3q-10 -6 -13 -26l-8 -33q-2 -13 -15 -15l-179 -30q-19 -3 -31.5 -14.5t-12.5 -28.5v-28q0 -9 6.5 -15t15.5 -6h610q9 0 15.5 6t6.5 15v28
q0 17 -12.5 28.5t-31.5 14.5z" />
    <glyph glyph-name="Market" unicode="&#xe700;" 
d="M897 802q-24 6 -87 14q-81 10 -164 15q-13 33 -47 56q-42 29 -99 29t-99 -29q-34 -23 -48 -56q-82 -5 -163 -15q-63 -8 -87 -14q-23 -5 -35 -18q-10 -11 -14 -27q-2 -12 -1 -25l2 -10l32 -296q32 -298 33 -306l1 -6q3 -14 7 -20q8 -10 27.5 -10t25.5 14q3 7 3 24l2 100
q0 21 15 36t36 16q184 4 263 4t263 -4q21 -1 36 -15.5t15 -35.5l2 -101q0 -17 3 -24q6 -14 25.5 -14t27.5 10q4 6 7 20l1 6q1 8 33 306l32 296l2 10q1 13 -1 25q-4 16 -14 27q-12 13 -35 18zM854 691q-3 -28 -19 -189l-15 -156l-113 3q-128 3 -206 3h-1q-78 0 -207 -3
l-112 -3l-15 156q-16 161 -20 189q-2 20 2 30t15 14q7 3 29 6h3q164 25 305 25h1q142 0 305 -24l3 -1q21 -3 29 -6q11 -4 15 -13.5t1 -30.5zM397 667h162q4 0 7 -3t3 -7v-227q0 -4 -3 -6.5t-7 -2.5h-162q-4 0 -7 2.5t-3 6.5v227q0 4 3 7t7 3zM806 656l-122 20
q-4 0 -7.5 -2.5t-4.5 -6.5l-25 -158q-1 -4 1.5 -7t6.5 -4l122 -20q4 0 7.5 2t4.5 6l25 159q1 4 -1.5 7t-6.5 4zM337 639q0 4 -3.5 6.5t-7.5 1.5l-122 -20q-4 0 -6.5 -3.5t-1.5 -7.5l25 -158q1 -4 4 -6.5t7 -1.5l123 20q4 0 6.5 3.5t1.5 7.5z" />
    <glyph glyph-name="MarketLimit" unicode="&#xe702;" 
d="M624 938h-250v-84h250v84zM457 397h84v250h-84v-250zM791 672l59 59q-28 34 -58 59l-59 -59q-50 39 -108 60q-61 22 -126 22q-102 0 -189 -51q-85 -50 -134 -134q-51 -88 -51 -189.5t51 -188.5q49 -85 134 -135q87 -51 189 -51t189 51q85 50 134 135q51 87 51 189
q0 64 -22 125q-20 59 -60 108zM499 148q-79 0 -147 39q-66 39 -104 105q-40 67 -40 146.5t40 147.5q38 65 104 104q68 40 147 40t147 -40q66 -38 104 -104q40 -68 40 -147t-40 -147q-38 -66 -104 -105q-68 -39 -147 -39z" />
    <glyph glyph-name="MarketPurchase" unicode="&#xe703;" 
d="M888 680h-311q-5 0 -7.5 3.5t-1.5 7.5q9 35 34 56q6 5 13 1q33 -19 70.5 -11.5t60.5 38t20.5 68.5t-29.5 65t-65.5 29.5t-68.5 -21t-37.5 -61t11.5 -70.5q3 -4 2 -8t-4 -7q-35 -28 -47 -79q-1 -5 -5 -8t-9 -3h-206q-6 0 -11 3.5t-6 9.5l-27 145v0v0q-2 14 -12.5 22.5
t-23.5 8.5h-130q-14 0 -25 -10.5t-11 -25.5v-5q1 -16 11.5 -26.5t25.5 -10.5h84q4 0 7.5 -2.5t3.5 -6.5l108 -564q3 -19 20 -28q8 -4 18 -4h54q-23 -6 -36.5 -25.5t-11 -43t20.5 -39t41.5 -15.5t41 15.5t20.5 39t-11 43t-37 25.5h296q-23 -6 -37 -25.5t-11 -43t20.5 -39
t41.5 -15.5t41.5 15.5t20 39t-11 43t-36.5 25.5h60q15 0 25.5 10t10.5 25v8q0 15 -11 26t-26 11h-419q-6 0 -10 3.5t-6 8.5l-10 54q-1 8 4 14t13 6h459q13 0 22.5 8t11.5 20l52 258q3 16 -7 29t-27 13z" />
    <glyph glyph-name="app_market_exhibit" unicode="&#xe704;" 
d="M395 844h460q21 0 36 -15t15 -36v-23q0 -21 -15 -36t-36 -15h-460q-21 0 -36 15t-15 36v23q0 21 15 36t36 15zM395 563h460q21 0 36 -15t15 -37v-22q0 -22 -15 -36.5t-36 -14.5h-460q-21 0 -36 14.5t-15 36.5v22q0 22 15 36.5t36 14.5v1zM395 281h460q21 0 36 -15t15 -36
v-23q0 -21 -15 -36t-36 -15h-460q-21 0 -36 15t-15 36v23q0 21 15 36t36 15zM146 875h83q21 0 36.5 -15.5t15.5 -37.5v-82q0 -22 -15.5 -37.5t-36.5 -15.5h-83q-21 1 -36.5 16t-15.5 37v82q0 22 15.5 37.5t36.5 15.5zM146 594h83q21 0 36.5 -15.5t15.5 -37.5v-82
q0 -22 -15.5 -37.5t-36.5 -15.5h-83q-21 0 -36.5 15.5t-15.5 37.5v82q0 22 15.5 37.5t36.5 15.5zM146 313h83q21 0 36.5 -15.5t15.5 -37.5v-82q0 -22 -15.5 -37.5t-36.5 -15.5h-83q-21 0 -36.5 15.5t-15.5 37.5v82q0 22 15.5 37.5t36.5 14.5v1z" />
    <glyph glyph-name="app_market_notification_alert" unicode="&#xe705;" 
d="M199 749l184 184v-591l-184 186h-147v221h147zM549 638q0 48 -25.5 87.5t-66.5 61.5v-298q41 22 66.5 61.5t25.5 87.5zM609 498q15 26 40.5 42t54.5 18q10 40 10 80q0 77 -33 145.5t-92 114.5t-132 64v-76q80 -25 132 -93t52 -155t-52 -155t-132 -93v-76q29 7 57 19z
M906 43h-385q-17 0 -31 8t-22.5 22.5t-8.5 31t8 30.5l193 334q8 14 22.5 22.5t31 8.5t31 -8.5t22.5 -22.5l193 -334q8 -14 8 -30.5t-8.5 -31t-22.5 -22.5t-31 -8zM755 145q-1 10 -8.5 17.5t-18.5 7.5h-29q-11 0 -18.5 -7.5t-8.5 -17.5v-26q1 -11 8.5 -18.5t18.5 -7.5h29
q11 0 18.5 7.5t8.5 18.5v26zM757 369q0 11 -8.5 18.5t-19.5 7.5h-31q-11 0 -19.5 -7.5t-8.5 -18.5l9 -145q0 -10 7 -17.5t17 -7.5h20q11 0 18 7.5t7 17.5z" />
    <glyph glyph-name="PaymentCoin" unicode="&#xe800;" 
d="M499 917q-113 0 -210 -57q-94 -55 -149 -149q-57 -97 -57 -210t57 -210q55 -94 149 -149q97 -57 210 -57t210 57q94 55 149 149q57 97 57 210t-57 210q-55 94 -149 149q-97 57 -210 57zM675 251l-176 106l-176 -106l47 200l-155 135l204 17l80 189l80 -188l204 -18
l-155 -134z" />
    <glyph glyph-name="app_market_purchase" unicode="&#xe801;" 
d="M891 692h-551q-6 0 -10.5 4t-5.5 10l-32 164q-2 14 -12 22.5t-24 8.5h-146q-15 0 -25.5 -10.5t-10.5 -25.5v-5q0 -15 10.5 -26t25.5 -11h102q4 0 7 -2.5t4 -6.5l102 -544q3 -19 20 -28q8 -5 18 -5h17q-22 -25 -21 -58.5t25 -56.5t57.5 -23t58 23t25.5 56.5t-22 58.5h186
q-23 -25 -21.5 -58.5t25.5 -56.5t57.5 -23t57.5 23t25 56.5t-21 58.5h17q15 0 25.5 10.5t10.5 25.5v8q0 15 -11 25.5t-26 10.5h-419q-6 0 -10.5 4t-5.5 9l-10 54q-1 8 4 14t12 5h460q13 0 22.5 8t11.5 21l33 219q3 16 -7.5 28.5t-27.5 12.5z" />
    <glyph glyph-name="app_payment_symbol" unicode="&#xe802;" 
d="M794 205l-24 -7q-4 -2 -7.5 0.5t-3.5 7.5v2q-1 19 0 25.5t5 22.5q9 36 12 60q4 43 -4 85q17 41 25 93q9 56 1 95q-9 46 -38 57q-42 15 -101 -22q-35 -23 -68 -59q-20 5 -41 8q-8 1 -14 7t-7 15q-2 30 -10 59q-2 8 1 15.5t9 12.5q35 26 53.5 64.5t17.5 82.5
q-1 46 -24.5 84.5t-62.5 62t-85 24.5q-36 1 -69.5 -12.5t-59.5 -39.5t-39 -59.5t-12 -69.5q1 -42 23 -79.5t57.5 -62t76.5 -29.5q27 -2 53 3q6 1 11 -2t7 -9q5 -20 7 -40q1 -10 -4.5 -17.5t-15.5 -8.5q-24 -3 -48 -9q-12 13 -48 29q-39 18 -78 25q-47 8 -77 -3
q-28 -11 -29 -47q-2 -29 15 -78q9 -28 32 -83l4 -9q-8 -41 -3 -83q2 -24 11 -60q4 -16 5 -21q1 -14 1 -28q0 -5 -4.5 -8t-9.5 -1l-23 7q-8 3 -15 -2t-7.5 -13.5t6.5 -14.5l53 -30q5 -4 7 -10v0q1 -4 -1 -7t-6 -3l-27 -2q-8 -1 -12.5 -7t-3.5 -13.5t8 -11.5q3 -2 6 -3l55 -7
q8 -1 12 -7v0q22 -31 77 -50q39 -14 91 -20q34 -4 49.5 -4t48.5 4q52 6 92 20q54 19 77 50v0q4 6 12 7l53 7q4 1 7 3q7 4 8 11.5t-3.5 13.5t-12.5 7l-27 2q-4 0 -6 3t-1 7v0q2 7 9 11l51 29q7 6 6.5 14.5t-7.5 13.5t-16 2zM243 533q6 9 33 4.5t45 -15.5q20 -12 9 -22
q-9 -9 -27 -30q-15 -19 -24 -28q-5 -5 -12.5 -3t-8.5 9q-3 11 -9 31q-7 23 -9 32q-2 16 3 22zM415 150q-21 25 -48 42q-18 12 -64 30l-12 6q-7 3 -8.5 9t4.5 9.5t18.5 1t32.5 -9.5q29 -10 49 -21.5t37 -28.5q14 -13 18.5 -21t0.5 -15.5t-12.5 -8.5t-15.5 7zM537 90
q-2 -24 -21 -36q-6 -4 -13 -4t-13 4q-19 12 -21.5 36.5t19.5 42.5q7 5 15 5t15 -5q22 -19 19 -43zM751 547q7 -10 5 -41q-2 -26 -10 -58q-1 -7 -8.5 -9t-12.5 3q-9 9 -24 28q-18 21 -27 29q-12 11 6 27q15 14 39.5 21.5t31.5 -0.5zM563 168q4 7 18 20q18 17 37.5 28.5
t49.5 21.5q19 7 31.5 9.5t18.5 -1t4.5 -9.5t-7.5 -10l-13 -5q-46 -18 -63 -30q-27 -17 -48 -42q-7 -8 -16 -7t-13 8.5t1 16.5z" />
    <glyph glyph-name="app_home_menu_community" unicode="&#xe841;" 
d="M323 184q11 18 25 40q-22 35 -55 85q-3 4 -7 7q-1 1 -0.5 2t1.5 2q32 15 51 46q-15 32 -15 68q0 29 10 56q-22 30 -57.5 41.5t-71 0t-57 -41.5t-21.5 -67q0 -33 19 -61t49 -42q1 -1 1 -2t-1 -2q-4 -3 -6 -7q-44 -65 -66 -102q-9 -15 -9 -25q0 -21 37.5 -36t89.5 -15
q34 0 68 8q1 20 15 45zM646 166q-28 48 -81 126q-3 5 -8 9q-1 1 -1 2.5t2 2.5q37 18 60.5 52.5t23.5 75.5q0 38 -19.5 70.5t-52 51.5t-71 19t-71 -19t-51.5 -51.5t-19 -70.5q0 -41 23.5 -75.5t60.5 -52.5q2 0 2 -1.5t-1 -2.5q-5 -5 -9 -10q-53 -79 -80 -126q-11 -19 -11 -31
q0 -17 21 -31.5t57 -23t79 -8.5t79 8.5t57 23t21 31.5q0 12 -11 31zM852 838h-36v-70q0 -29 -20.5 -49.5t-49.5 -20.5h-398v-8q1 -12 10 -20t21 -8h328l69 -68q4 -5 9.5 -2.5t5.5 8.5l-4 62h65q13 0 22.5 9t9.5 23v112q0 13 -9.5 22.5t-22.5 9.5zM746 901h-599q-13 0 -22 -9
t-9 -22v-102q0 -12 9 -21.5t22 -9.5h66l-13 -83q-1 -6 4.5 -8.5t9.5 1.5l92 90h440q13 0 22 9t9 22v102q0 13 -9 22t-22 9zM878 207q-23 39 -65 102q-3 4 -7 7q-1 1 -1 2t1 2q30 14 49 42t19 61q0 37 -22 67t-57 41.5t-70.5 0t-56.5 -41.5q9 -27 9 -56q0 -36 -15 -68
q19 -30 51 -46q1 -1 1.5 -2t-0.5 -2q-4 -3 -7 -7q-34 -51 -55 -85q14 -22 25 -40q14 -25 15 -45q34 -8 68 -8q52 0 89.5 15t37.5 36q0 10 -9 25z" />
    <glyph glyph-name="app_home_menu_schedule" unicode="&#xe842;" 
d="M323 782v0q-15 0 -26.5 11t-11.5 27v51q0 16 11.5 27t27 11t27 -11t11.5 -27v-51q0 -16 -11.5 -27t-27.5 -11zM635 782v0q-15 0 -26.5 11t-11.5 27v51q0 16 11.5 27t27 11t26.5 -11t11 -27v-51q0 -16 -11 -27t-27 -11zM564 214l28 36q9 13 23.5 21t31.5 9t33 -6t28 -20
l36 -45q2 -2 5 -2t4 2l62 75q4 5 4 11v355h-677v-457q0 -20 14 -33.5t33 -13.5h364q-6 17 -3 35t14 33zM591 537q0 6 4 10t10 4h90q5 0 9.5 -4t4.5 -10v-39q0 -6 -4.5 -10t-9.5 -4h-90q-6 0 -10 4t-4 10v39zM591 427q0 6 4 10t10 4h90q5 0 9.5 -4t4.5 -10v-39q0 -6 -4.5 -10
t-9.5 -4h-90q-6 0 -10 4t-4 10v39zM371 280q0 -6 -4.5 -10.5t-10.5 -4.5h-89q-6 0 -10.5 4.5t-4.5 10.5v39q0 6 4.5 10t10.5 4h89q6 0 10.5 -4t4.5 -10v-39zM371 388q0 -6 -4.5 -10t-10.5 -4h-89q-6 0 -10.5 4t-4.5 10v39q0 6 4.5 10t10.5 4h89q6 0 10.5 -4t4.5 -10v-39z
M371 498q0 -6 -4.5 -10t-10.5 -4h-89q-6 0 -10.5 4t-4.5 10v39q0 6 4.5 10t10.5 4h89q6 0 10.5 -4t4.5 -10v-39zM540 280q0 -6 -4.5 -10.5t-10.5 -4.5h-89q-6 0 -10.5 4.5t-4.5 10.5v39q0 6 4.5 10t10.5 4h89q6 0 10.5 -4t4.5 -10v-39zM540 388q0 -6 -4.5 -10t-10.5 -4h-89
q-6 0 -10.5 4t-4.5 10v39q0 6 4.5 10t10.5 4h89q6 0 10.5 -4t4.5 -10v-39zM540 498q0 -6 -4.5 -10t-10.5 -4h-89q-6 0 -10.5 4t-4.5 10v39q0 6 4.5 10t10.5 4h89q6 0 10.5 -4t4.5 -10v-39zM742 32l-133 127q-4 4 -4.5 9t2.5 10l33 42q4 6 11 6t11 -6l84 -102q1 -1 3 -1t3 1
l150 184q5 6 12 5.5t11 -6.5l34 -51q2 -4 2 -9t-4 -9l-195 -200q-4 -4 -10 -4t-10 4zM760 848h-57v-28q0 -28 -19.5 -47.5t-47.5 -20t-48.5 20t-20.5 49.5v26h-176v-28q0 -28 -19.5 -47.5t-47.5 -20t-48.5 20t-20.5 49.5v26h-54q-24 0 -41.5 -17t-17.5 -41v-88q0 -3 2 -4.5
t4 -1.5h665q2 0 4 1.5t2 4.5v88q0 24 -17 41t-42 17z" />
    <glyph glyph-name="app_home_menu_address" unicode="&#xe843;" 
d="M484 226q4 5 10 16q3 4 0 9t-8 5h-278q-11 0 -18.5 7.5t-7.5 18.5v528q0 11 7.5 18.5t18.5 7.5h528q10 0 18 -7.5t8 -18.5v-64q0 -7 6 -9q17 -5 33 -13q5 -3 9 0t4 8v78q0 33 -23 56t-55 23h-528q-33 0 -56 -23t-23 -56v-1q-16 -1 -26.5 -12t-10.5 -27t10.5 -27t26.5 -12
v-71q-16 -1 -26.5 -12.5t-10.5 -27t10.5 -27t26.5 -12.5v-70q-16 -2 -26.5 -13t-10.5 -26.5t10.5 -27t26.5 -12.5v-71q-16 -1 -26.5 -12.5t-10.5 -27t10.5 -27t26.5 -12.5v0q0 -33 23 -56t55 -23h260q6 0 8 6q4 8 9 17zM881 202q-34 58 -98 153q-5 7 -11 12q-1 1 -1 3t2 3
q45 21 73 62q29 43 29 93q0 47 -23 86.5t-62.5 62.5t-86.5 23t-86.5 -23t-62.5 -62.5t-23 -86.5q0 -50 29 -93q28 -41 73 -62q1 -1 1.5 -3t-1.5 -3q-6 -5 -10 -12q-66 -97 -98 -153q-14 -23 -14 -38q0 -21 26 -38.5t70 -28t96 -10.5t96 10.5t69.5 28t25.5 38.5q0 15 -13 38z
M260 770h242q4 0 6.5 -3t2.5 -7v-31q0 -4 -2.5 -6.5t-6.5 -2.5h-242q-4 0 -7 2.5t-3 6.5v31q0 4 3 7t7 3zM260 673h162q4 0 6.5 -2.5t2.5 -6.5v-31q0 -5 -2.5 -7.5t-6.5 -2.5h-162q-4 0 -7 2.5t-3 7.5v31q0 4 3 6.5t7 2.5zM260 576h162q4 0 6.5 -2.5t2.5 -6.5v-31
q0 -4 -2.5 -7t-6.5 -3h-162q-4 0 -7 3t-3 7v31q0 4 3 6.5t7 2.5z" />
    <glyph glyph-name="app_home_menu_inventory" unicode="&#xe844;" 
d="M403 379v40q0 14 8 18q5 3 13 3t12 7l7 11q4 5 2 10t-7 7l-4 1h-15q-12 0 -11 35l3 18l1 1v0l35 -36q3 -2 9 -2.5t11 3.5q12 11 23 23q7 9 2 15l-74 75l61 61h1l11 -3q12 -3 19 2q4 2 5 6v1q-1 7 33 54q27 37 71 90l8 9q11 14 13 27q2 11 -2 14.5t-14 1.5q-13 -2 -27 -13
l-99 -79q-47 -34 -55 -33v0q-4 -1 -7 -5q-5 -7 -1 -18l3 -10v-1l-26 -26h-1v1q2 54 5.5 100.5t6.5 56.5t-6 29q-7 17 -20 31.5t-20.5 14.5t-20.5 -14.5t-20 -31.5q-9 -19 -6 -29.5t6.5 -57t5.5 -100.5v-1h-1l-71 72q0 5 7 11q4 4 5 7t-0.5 7.5t-4.5 6.5l-37 37l-8 8
q-6 6 -13 1q-5 -3 -12 -14h-1l-8 8q-9 8 -21 8t-21 -8.5t-9 -21t9 -21.5l7 -8l-13 -9q-23 -16 -49 -27q-6 -2 -20 -3t-18 -4q-6 -6 1 -25q18 -44 51 -77q21 -21 47 -33q20 -10 41 -14q14 -3 22 -2.5t9 9.5q4 12 4 33q0 3 -2 6q-4 5 -3 16t5.5 20t17.5 17v0l77 -77l-177 -178
q-9 -9 -9 -21.5t9 -20.5v0q9 -9 21 -9t21 9l143 142h1v0l3 -18q3 -36 -11 -36h-18q-7 0 -11.5 -5t-4.5 -12.5t4.5 -12.5t11.5 -5h10q11 0 16 -3t6 -10q1 -4 1 -12v-37q0 -12 8 -19.5t19 -7.5v0q12 0 19.5 7.5t7.5 19.5zM433 198q14 -19 42 -38q17 -11 52 -30l10 -6
q47 -25 86 -37q44 -14 87 -14q38 0 74 10q48 13 86 47.5t54 80.5q17 49 4 98q-6 22 -27 62t-27 61q-8 30 -5 72q4 38 16 71q3 9 17 26q12 16 16 24q7 14 3 26q-6 16 -30 26q-13 6 -42 12l-52 12q-40 10 -60 16q-32 10 -56 23q-3 1 -14 9q-14 11 -21 16q-13 8 -21 8
q-4 0 -7 -2q-14 -8 -16 -53q-1 -25 2 -56q5 -62 26 -98q-74 -22 -129.5 -79t-76.5 -132q-12 -42 -12 -79q0 -48 21 -76zM564 268q-15 0 -20.5 17.5t-2 40.5t14.5 39q12 18 28 18h2q20 -2 26 -20q6 -16 -0.5 -38.5t-20 -39.5t-27.5 -17zM587 519q21 11 34 16q17 6 32.5 6
t29.5 -4q54 -14 95 -34q67 -33 55 -63q-6 -15 -26 -33q-12 -10 -36 -26l-6 -5q-23 -16 -42 -16q-13 0 -32 7q-22 8 -66 28l-18 8l-18 7q-22 9 -33 14q-18 10 -25 19q-16 22 3 43q12 11 43 28z" />
    <glyph glyph-name="app_home_menu_market_exhibit" unicode="&#xe845;" 
d="M377 742h122q4 0 6 -2t2 -6v-171q0 -4 -2 -6t-6 -2h-122q-3 0 -5.5 2t-2.5 6v171q0 4 2.5 6t5.5 2zM230 712l93 15q3 1 5.5 -1t2.5 -5l20 -120q0 -3 -1.5 -5.5t-4.5 -3.5l-93 -15q-4 0 -6.5 1.5t-2.5 4.5l-19 121q-1 3 1 5.5t5 2.5zM876 193l-3 12q-3 12 -6 18q-1 2 -2 2
t-1.5 -1t-0.5 -2v0q0 -23 -36 -43t-96.5 -31.5t-132.5 -11.5t-132.5 11.5t-96.5 31.5t-36 43v0q0 1 -0.5 2t-1.5 1t-2 -2q-3 -6 -6 -18l-3 -12q-3 -7 -10 -14.5t-7 -14.5q0 -26 40 -48t107.5 -35t147.5 -13t147.5 13t107.5 35t40 48q0 7 -7 14.5t-10 14.5zM759 466
q-26 31 -62 51q-30 17 -64 24q-2 6 -2 11q0 4 -3 6q9 5 13 13q3 6 3 12v5q0 9 -13.5 15t-31.5 6t-31.5 -6t-13.5 -15v-5q0 -7 3 -12q4 -8 13 -13q-3 -2 -3 -6.5t-2 -10.5q-34 -6 -65 -23q-37 -20 -63 -52q-37 -46 -49 -96q-2 -7 -1 -14q1 -11 8 -17q27 -30 106 -43
q49 -8 97 -8q18 0 25 -8.5t0 -17.5t-25 -9q-93 0 -154 20q-64 20 -65 53q-3 -8 -12 -17t-13 -16q-5 -11 -5 -29l1 -1q4 -21 38 -38.5t89.5 -27.5t120.5 -10t120.5 10t89.5 27.5t38 38.5l1 1q0 18 -5 29q-4 7 -12 16q-7 6 -10 11q-5 8 -6 19l-1 3q-3 27 -11 48q-14 39 -43 76
zM545 428q-5 -9 -13 -16q-10 -8 -20 -8q-8 0 -14 4q-11 7 -11 18t7 23q5 9 15.5 15.5t20.5 6.5q5 0 10 -2q9 -5 10 -17.5t-5 -23.5zM581 639q9 2 19 2q24 0 42 -9q8 -4 18 -15q4 -5 6 -6l1 -1q3 -1 6 0t3 4l18 112q1 3 -1 5.5t-5 2.5l-93 15q-3 1 -5.5 -1t-2.5 -5l-16 -95
q0 -4 3 -7t7 -2zM388 452q10 15 22 29l8 10q3 3 1 7.5t-7 4.5q-58 -1 -135 -3l-65 -2l-11 119q-12 123 -15 144q-2 15 1 22.5t12 11.5q5 2 22 4h2q124 19 232 19h1q108 0 232 -19h2q17 -2 22 -4q9 -4 12 -11t1 -23q-7 -57 -20 -192q-1 -9 7 -14q24 -13 44 -31q3 -3 6 -1.5
t4 4.5l28 257l1 8q1 10 0 19q-3 12 -11 21q-9 10 -27 14t-66 10q-62 8 -124 12q-11 25 -37 42q-32 22 -75 22t-75 -22q-26 -17 -36 -42q-63 -5 -125 -12q-48 -6 -65.5 -10t-27.5 -14q-7 -9 -10 -21q-2 -9 -1 -19l2 -8l24 -225q24 -227 25 -233l1 -4q2 -11 5 -15
q6 -8 20.5 -8t19.5 10q3 6 3 18l1 77q0 16 11.5 27.5t27.5 11.5l122 3q7 0 11 6z" />
    <glyph glyph-name="app_home_menu_market_purchase" unicode="&#xe846;" 
d="M567 623l19 120q1 3 3.5 5t5.5 1l93 -15q3 0 5 -2.5t1 -5.5l-19 -121q-1 -3 -3.5 -4.5t-5.5 -1.5l-93 15q-3 1 -4.5 3.5t-1.5 5.5zM376 742q-3 0 -5 -2t-2 -5v-67q0 -3 2.5 -5.5t6.5 -2.5h20q8 0 17.5 -2.5t15.5 -6.5q8 -6 16 -27l5 -11l12 -44q2 -8 10 -8h26q3 0 5 2.5
t2 5.5v166q0 3 -2 5t-5 2h-124zM867 519h-410q-4 0 -7.5 3t-4.5 7l-21 79v0q-1 10 -8.5 16.5t-17.5 6.5h-79q-11 0 -19 -7.5t-8 -18.5v-4q0 -12 8 -20t19 -8h46q7 0 8 -7l73 -361q2 -14 15 -21q6 -3 13 -3h13q-17 -19 -16 -43.5t19 -42t43 -17.5t42.5 17.5t18.5 42t-16 43.5
h138q-17 -19 -16 -43.5t19 -42t43 -17.5t43 17.5t18.5 42t-15.5 43.5h12q11 0 19 7.5t8 18.5v6q0 11 -8 19t-20 8h-311q-4 0 -7.5 3t-3.5 7l-8 40q-1 5 2.5 9.5t9.5 4.5h341q10 0 17 6t9 15l24 163q2 12 -5.5 21.5t-19.5 9.5zM318 659h14q4 0 6.5 3t1.5 6l-9 53q0 3 -2.5 5
t-5.5 1l-93 -15q-3 0 -5 -2.5t-2 -5.5l20 -121q1 -3 3.5 -4.5t5.5 -1.5l6 2q3 0 5 3t1 6q-1 6 -1 12v4q0 21 17.5 38t37.5 17zM354 492q-1 4 -4 7t-8 3l-130 -4l-11 119q-12 123 -15 144q-2 15 1 22.5t12 11.5q5 2 22 4h2q124 19 232 19h1q108 0 232 -19h2q17 -2 22 -4
q9 -4 12 -11t1 -23q-7 -52 -20 -195q-1 -4 2 -7.5t8 -3.5h40q6 0 10 3.5t5 9.5q12 115 24 216l1 8q1 10 0 19q-3 12 -11 21q-9 10 -27 14t-66 10q-62 8 -124 12q-11 25 -37 42q-32 22 -75 22t-75 -22q-26 -17 -36 -42q-63 -5 -125 -12q-48 -6 -65.5 -10t-27.5 -14
q-7 -9 -10 -21q-2 -9 -1 -19l2 -8l24 -225q24 -227 25 -233l1 -4q2 -11 5 -15q6 -8 20.5 -8t19.5 10q3 6 3 18l1 77q0 16 11.5 27.5t27.5 11.5l100 2q3 0 5 2.5t2 5.5z" />
    <glyph glyph-name="app_home_command_ok" unicode="&#xe851;" 
d="M500 917q-113 0 -210 -57q-95 -55 -150 -150q-57 -97 -57 -210t57 -210q55 -95 150 -150q97 -57 210 -57t210 57q95 55 150 150q57 97 57 210t-57 210q-55 95 -150 150q-97 57 -210 57zM765 561l-284 -254q-12 -8 -30 -8t-30 8l-202 176q-8 9 -5.5 23.5t11.5 23.5l53 54
q12 11 26.5 13.5t25.5 -7.5l5 -4l94 -112q2 -4 6 -6q8 -5 17.5 -4t16.5 8l186 203q14 13 27.5 11.5t26.5 -15.5l53 -59q10 -10 11.5 -26t-8.5 -25z" />
    <glyph glyph-name="app_home_command_ng" unicode="&#xe852;" 
d="M501 70q-117 0 -218 59q-97 57 -154 154q-59 101 -59 217.5t59 216.5q57 97 154 154q100 59 216.5 59t217.5 -59q97 -57 154 -154q59 -101 59 -217.5t-59 -216.5q-57 -97 -154 -154q-100 -59 -216 -59zM355 218q90 -47 195 -31q62 9 119 48t96 96t48 119q16 105 -31 195
q-8 14 -23.5 16.5t-26.5 -8.5l-385 -385q-11 -11 -8.5 -26.5t16.5 -23.5zM450 813q-62 -9 -119 -48t-96 -96t-48 -119q-16 -104 31 -195q8 -14 23.5 -16.5t26.5 9.5l384 384q12 11 9.5 26.5t-16.5 23.5q-91 47 -195 31z" />
    <glyph glyph-name="app_home_command_limit" unicode="&#xe853;" 
d="M921 267l-330 571q-19 35 -55 47t-72 0t-55 -47l-330 -571q-20 -34 -13 -71t36 -62t68 -25h660q39 0 68 25t36 62t-13 71zM570 239q0 -18 -13 -31t-31 -13h-52q-18 0 -31 13t-13 31v44q0 18 13 30.5t31 12.5h51q19 0 32 -12.5t13 -30.5v-44zM559 420q0 -19 -12 -31.5
t-30 -12.5h-34q-18 0 -30 12.5t-12 31.5l-15 248q-1 17 14 30t34 13h52q19 0 34 -13t14 -30z" />
    <glyph glyph-name="app_home_command_view" unicode="&#xe854;" 
d="M843 240q10 4 16 13t6 20q0 18 -13 31t-32 13h-43q-5 0 -7 -4.5t1 -7.5l63 -63q4 -4 9 -2zM891 692h-478q-8 0 -11 -7.5t3 -13.5l264 -264q4 -4 9 -4h181q13 0 22.5 8t11.5 21l33 219q3 16 -7.5 28.5t-27.5 12.5zM300 777q3 -3 6.5 -1t2.5 6l-17 88q-2 14 -12 22.5
t-24 8.5h-67q-4 0 -5.5 -3.5t1.5 -5.5zM109 867q-5 5 -12 5t-12 -5l-10 -10q-5 -5 -5 -12t5 -12l167 -166q11 -11 14 -27l69 -370q3 -19 20 -28q8 -5 18 -5h17q-22 -25 -21 -58.5t25 -56.5t57.5 -23t58 23t25.5 56.5t-22 58.5h163q7 0 10.5 -5.5t0.5 -11.5q-10 -18 -10 -39
q1 -34 25 -58t58 -24q20 0 38 9q8 4 15 -3l44 -44q5 -5 12.5 -5t12.5 5l9 10q5 5 5 12t-5 12zM409 317q-6 0 -10.5 4t-5.5 9l-10 54q-1 8 4 14t12 5h104q2 0 4 -1l75 -75q2 -3 0.5 -6.5t-4.5 -3.5h-169z" />
    <glyph glyph-name="SymbolAlert" unicode="&#xe900;" 
d="M608 168q0 -27 -20.5 -47t-48.5 -20h-80q-28 0 -48.5 20t-20.5 47v69q0 28 20.5 47.5t48.5 19.5h80q28 0 48.5 -19.5t20.5 -47.5v-69zM591 449q-1 -28 -19 -47.5t-46 -19.5h-53q-28 0 -46 19.5t-19 47.5l-24 384q-1 27 22 47t52 20h81q30 0 52.5 -20t22.5 -47z" />
    <glyph glyph-name="SymbolQuestion" unicode="&#xe901;" 
d="M574 153q0 -22 -15.5 -37.5t-37.5 -15.5h-93q-22 0 -38 15.5t-16 37.5v94q0 22 16 37.5t38 15.5h93q22 0 37.5 -15.5t15.5 -37.5v-94zM875 644q0 -53 -7.5 -88.5t-26.5 -58.5t-54.5 -36t-90.5 -21q-43 -5 -68 -9.5t-37.5 -10t-16.5 -13t-4 -19.5v-15h-191v20q0 44 7 74.5
t26 51t51.5 33t81.5 18.5q53 8 80.5 13t42 12.5t18.5 19t4 30.5v7q0 18 -8 29.5t-26 18t-49.5 9.5t-81.5 3h-19q-56 0 -89 -3t-52.5 -11.5t-26.5 -25.5t-7 -45v-26h-186v26q0 51 7.5 88t24.5 62.5t45 41.5t68.5 24.5t93.5 10.5q50 3 122 3h20q100 0 167.5 -7.5t108 -29
t57 -59t16.5 -98.5v-19z" />
    <glyph glyph-name="SymbolCheck" unicode="&#xe902;" 
d="M100 505l103 137l202 -245l390 397l103 -139l-487 -447z" />
    <glyph glyph-name="SymbolCross" unicode="&#xe903;" 
d="M853 263q24 -24 24 -58.5t-24.5 -59t-59 -24.5t-58.5 24l-237 237l-237 -237q-24 -24 -58.5 -24t-59 24.5t-24.5 59t24 58.5l237 237l-237 237q-24 24 -24 58.5t24.5 59t59 24.5t58.5 -24l237 -237l237 237q24 24 58.5 24t59 -24.5t24.5 -59t-24 -58.5l-237 -237z" />
    <glyph glyph-name="SymbolMail" unicode="&#xe904;" 
d="M833 833h-666q-35 0 -59 -24.5t-24 -58.5l-1 -500q0 -34 24.5 -58.5t59.5 -24.5h666q35 0 59.5 24.5t24.5 58.5v500q0 34 -24.5 58.5t-59.5 24.5zM833 667l-333 -209l-333 209v83l333 -208l333 208v-83z" />
    <glyph glyph-name="SymbolLock" unicode="&#xe905;" 
d="M749 647h-42v83q0 56 -28 104t-76 76t-104 28t-104 -28t-76 -76t-28 -104v-83h-41q-35 0 -59.5 -24.5t-24.5 -59.5v-415q0 -35 24.5 -59.5t59.5 -24.5h499q34 0 58.5 24.5t24.5 59.5v415q0 35 -24.5 59.5t-58.5 24.5zM499 272q-34 0 -58.5 24.5t-24.5 59t24.5 59
t58.5 24.5t58.5 -24.5t24.5 -59t-24.5 -59t-58.5 -24.5zM628 647h-258v83q0 35 17.5 64.5t47 47t64.5 17.5t64.5 -17.5t47 -47t17.5 -64.5v-83z" />
    <glyph glyph-name="ExternalLink" unicode="&#xe906;" 
d="M790 210h-582v582h291v83h-291q-35 0 -59 -24.5t-24 -58.5v-582q0 -35 24 -59t59 -24h582q35 0 59 24t24 59v291h-83v-291zM582 875v-83h150l-409 -409l58 -58l409 408v-149h83v291h-291z" />
    <glyph glyph-name="SquareBoxAlert" unicode="&#xe910;" 
d="M765 900h-532q-36 0 -66.5 -18t-48.5 -48.5t-18 -66.5v-532q0 -36 18 -67t48.5 -48.5t66.5 -17.5h532q36 0 67 17.5t48.5 48.5t17.5 67v532q0 36 -18 66.5t-48.5 48.5t-66.5 18zM585 232q0 -22 -16 -37.5t-39 -15.5h-62q-23 0 -39 15.5t-16 37.5v54q0 21 16.5 36.5
t38.5 15.5h62q23 0 39 -15.5t16 -36.5v-54zM571 452q-1 -22 -15 -37.5t-36 -15.5h-42q-22 0 -36 15.5t-15 37.5l-18 302q-1 21 17 37t41 16h64q23 0 41 -16t18 -37z" />
    </font>
</defs>
</svg>
